<?xml version="1.0" encoding="utf-8"?>
<!-- Generator: Adobe Illustrator 27.2.0, SVG Export Plug-In . SVG Version: 6.00 Build 0)  -->
<svg version="1.1" id="Layer_1" xmlns="http://www.w3.org/2000/svg" xmlns:xlink="http://www.w3.org/1999/xlink" x="0px" y="0px"
	 viewBox="0 0 834.5 417.3" style="enable-background:new 0 0 834.5 417.3;" xml:space="preserve">
<style type="text/css">
	.st0{clip-path:url(#SVGID_00000134247291232619312570000016184459763628080042_);}
	.st1{stroke:#000000;stroke-width:1.2402;stroke-linecap:round;stroke-linejoin:round;stroke-miterlimit:10;}
	.st2{clip-path:url(#SVGID_00000003805748557163088390000012288058340000633231_);}
	.st3{fill:none;stroke:#EBEBEB;stroke-width:0.53;stroke-linejoin:round;stroke-miterlimit:10;}
	.st4{fill:none;stroke:#EBEBEB;stroke-width:1.07;stroke-linejoin:round;stroke-miterlimit:10;}
	.st5{fill:none;stroke:#E23333;stroke-width:1.28;stroke-linejoin:round;stroke-miterlimit:10;}
	.st6{fill:none;stroke:#9F00C6;stroke-width:1.28;stroke-linejoin:round;stroke-miterlimit:10;}
	.st7{fill:none;stroke:#00FF24;stroke-width:1.28;stroke-linejoin:round;stroke-miterlimit:10;}
	.st8{fill:none;}
	.st9{fill:#FFFFFF;}
	.st10{font-family:'TitilliumWeb-Regular';}
	.st11{font-size:8.01px;}
	.st12{font-size:9.96px;}
	.st13{fill:none;stroke:#FFFFFF;stroke-width:1.07;stroke-linecap:round;stroke-linejoin:round;stroke-miterlimit:10;}
	.st14{font-family:'ArialMT';}
	.st15{font-size:8.8px;}
	.st16{fill:none;stroke:#FFFFFF;stroke-width:1.07;stroke-linejoin:round;stroke-miterlimit:10;}
	.st17{font-size:11px;}
	.st18{font-size:11.2304px;}
	.st19{font-family:'TitilliumWeb-SemiBold';}
	.st20{font-size:14px;}
	.st21{font-size:13px;}
	.st22{font-family:'TitilliumWeb-Bold';}
	.st23{font-size:20px;}
	.st24{fill:#00FF00;}
</style>
<g>
	<g>
		<g>
			<defs>
				<rect id="SVGID_1_" x="0" width="834.5" height="417.3"/>
			</defs>
			<clipPath id="SVGID_00000134217308679112337290000014884828888772502156_">
				<use xlink:href="#SVGID_1_"  style="overflow:visible;"/>
			</clipPath>
			<g style="clip-path:url(#SVGID_00000134217308679112337290000014884828888772502156_);">
				<rect x="0" class="st1" width="834.5" height="417.3"/>
			</g>
		</g>
	</g>
</g>
<g>
	<g>
		<g>
			<defs>
				<rect id="SVGID_00000031929038178837204730000009163924643405648821_" x="66.5" y="93.9" width="676.4" height="220.3"/>
			</defs>
			<clipPath id="SVGID_00000132766877612869495980000003928140831329896625_">
				<use xlink:href="#SVGID_00000031929038178837204730000009163924643405648821_"  style="overflow:visible;"/>
			</clipPath>
			<g style="clip-path:url(#SVGID_00000132766877612869495980000003928140831329896625_);">
				<rect x="66.5" y="93.9" width="676.4" height="220.3"/>
				<path class="st3" d="M742.9,306.7"/>
				<path class="st3" d="M66.5,306.7"/>
				<path class="st3" d="M742.9,263.6"/>
				<path class="st3" d="M66.5,263.6"/>
				<path class="st3" d="M742.9,220.4"/>
				<path class="st3" d="M66.5,220.4"/>
				<path class="st3" d="M742.9,177.3"/>
				<path class="st3" d="M66.5,177.3"/>
				<path class="st3" d="M742.9,134.1"/>
				<path class="st3" d="M66.5,134.1"/>
				<path class="st3" d="M168.7,93.9"/>
				<path class="st3" d="M168.7,314.2"/>
				<path class="st3" d="M314.1,93.9"/>
				<path class="st3" d="M314.1,314.2"/>
				<path class="st3" d="M459.6,93.9"/>
				<path class="st3" d="M459.6,314.2"/>
				<path class="st3" d="M605.1,93.9"/>
				<path class="st3" d="M605.1,314.2"/>
				<path class="st4" d="M742.9,285.2"/>
				<path class="st4" d="M66.5,285.2"/>
				<path class="st4" d="M742.9,242"/>
				<path class="st4" d="M66.5,242"/>
				<path class="st4" d="M742.9,198.8"/>
				<path class="st4" d="M66.5,198.8"/>
				<path class="st4" d="M742.9,155.7"/>
				<path class="st4" d="M66.5,155.7"/>
				<path class="st4" d="M742.9,112.5"/>
				<path class="st4" d="M66.5,112.5"/>
				<path class="st4" d="M95.9,93.9"/>
				<path class="st4" d="M95.9,314.2"/>
				<path class="st4" d="M241.4,93.9"/>
				<path class="st4" d="M241.4,314.2"/>
				<path class="st4" d="M386.9,93.9"/>
				<path class="st4" d="M386.9,314.2"/>
				<path class="st4" d="M532.3,93.9"/>
				<path class="st4" d="M532.3,314.2"/>
				<path class="st4" d="M677.8,93.9"/>
				<path class="st4" d="M677.8,314.2"/>
				<polyline class="st5" points="97.7,106.5 99.7,106.5 104.7,104.7 106.7,106.5 110.2,105.6 113.7,104.7 116.2,104.7 120.2,103.9 
					123.7,104.7 128,112.5 132.3,145.3 134.2,168.6 135.6,188.5 137,212.6 138.9,231.6 141.2,249.8 142.1,249.8 143.5,261.9 
					144.9,265.3 146.2,273.1 147.6,275.7 149.3,281.7 150.1,282.6 151.1,280.8 152.2,276.5 152.9,273.9 155.5,257.5 158.1,245.4 
					160.6,239.4 161.8,238.5 163.1,236.8 164.6,232.5 166,228.2 168,219.6 169.7,213.5 171.9,206.6 174.9,195.4 176.6,191.1 
					179.4,183.3 181.2,179 182.6,176.4 187.2,167.8 188.8,165.2 190.7,163.4 193.1,160 197.1,154.8 198.8,152.2 201.7,150.5 
					203.8,147 205.9,145.3 208.9,141.9 211.5,139.3 214.6,135.8 216.4,134.1 220,130.6 222.7,128.1 226.9,125.5 229.7,122.9 
					233.4,122.9 236.2,119.4 239.5,117.7 242.9,116.8 246.3,115.1 248.7,113.4 251.6,112.5 253.5,111.7 256.9,110.8 260.9,109.1 
					262.8,109.1 266.3,109.1 268.2,109.1 272.6,109.9 278,111.7 280.4,115.1 282.3,120.3 285.2,144.5 287.2,167.8 288.6,177.3 
					289.9,195.4 291.6,195.4 293.3,222.1 294.6,228.2 296.6,236 297.9,237.7 300.5,243.7 302.2,239.4 304.6,232.5 305.9,228.2 
					307.3,228.2 308.7,216.1 310.6,209.2 311.8,206.6 315.1,191.9 317.5,189.3 319.7,179.8 322.6,173.8 325.3,169.5 326.8,166.9 
					329.6,161.7 331.5,160 333.2,157.4 334.8,154.8 336.8,153.1 338.9,150.5 341.8,147.9 344.8,143.6 347,141 349.6,138.4 
					354,135.8 358,132.4 361.2,130.6 363.4,129.8 365.7,128.1 368,128.1 372.6,128.9 376.6,128.9 378.9,134.1 381.7,151.4 
					384.8,167.8 387.7,180.7 389.1,180.7 391.8,189.3 393.5,193.7 394.8,195.4 397.7,198 399,198 402.3,197.1 403.9,196.2 
					405.9,195.4 408.2,194.5 409.6,192.8 411.9,190.2 413.3,188.5 415.4,186.8 418.1,186.8 420.2,191.9 422.1,223 423.8,243.7 
					426,261.9 428,277.4 429.1,284.3 430.3,290.3 431.2,292.9 432.6,299 433.4,300.7 434.2,297.2 435.4,292.9 436.5,287.7 
					437.5,282.6 438.7,274.8 440.6,261 441.9,259.3 443.1,263.6 444.8,267 445.6,269.6 446.7,272.2 447.8,275.7 448.5,276.5 
					449.9,279.1 450.7,280 451.9,280.8 453.4,275.7 454.7,271.3 457,260.1 459,251.5 461.4,241.1 463.3,227.3 464.7,223.9 
					466.5,213.5 469.4,201.4 471,199.7 472.3,196.2 474.6,192.8 476.2,198 477.9,221.3 479.6,225.6 481.4,245.4 482.7,258.4 
					483.9,264.4 484.7,270.5 485.8,270.5 486.5,280.8 487.5,280.8 488.3,288.6 489.5,292.1 490.8,299 491.7,303.3 492.2,304.1 
					493,301.6 494,298.1 495,292.1 495.8,286.9 496.5,285.2 498.1,273.9 499.7,263.6 501.5,251.5 503.6,233.4 505.2,225.6 
					506.4,218.7 507.5,218.7 510.3,204 511.6,201.4 515,191.1 519.2,185 522.5,176.4 525.1,172.9 527.7,172.9 530,164.3 
					533.1,162.6 537.5,156.5 540.8,153.1 543.7,151.4 545.8,151.4 549.3,184.2 550.8,204 552,221.3 554,233.4 556.3,253.2 
					558.1,261.9 559.1,265.3 560.8,268.8 561.8,269.6 562.5,274.8 563.6,273.9 564.9,270.5 566.3,267 567.8,259.3 569.1,254.1 
					570.7,245.4 572,237.7 573,230.8 574.9,227.3 576.4,217 577.6,210.9 579.4,208.3 581.7,199.7 585.1,187.6 589.1,177.3 
					590.6,177.3 592.8,172.1 594.7,166.9 596.3,166.9 604.4,153.9 606.4,153.1 608.9,148.8 613.2,145.3 614.9,143.6 617.9,141 
					620.1,141 624.9,136.7 629.4,132.4 631.6,131.5 634.8,128.1 636.6,126.3 640.3,124.6 644.1,122.9 645.9,122 648.8,120.3 
					650.6,118.6 652.6,117.7 656.9,116 658.8,115.1 663.6,113.4 665.5,113.4 668.4,113.4 671.9,111.7 673.8,110.8 676.7,110.8 
					678.7,110.8 681.1,109.9 683.1,109.1 687.5,109.1 692.5,107.3 697.9,108.2 701.8,106.5 706.3,106.5 708.8,106.5 711.3,105.6 
									"/>
				<polyline class="st6" points="98.6,115.1 103.8,116 106.2,115.1 108.2,115.1 111,116 115.8,115.1 118.2,116 124,115.1 
					126.9,115.1 130.2,114.2 133.6,113.4 136.8,128.9 139.2,189.3 141.1,224.7 142.6,240.3 144.6,250.6 147.2,257.5 148,267 
					149.1,269.6 150,273.1 150.9,275.7 151.8,276.5 152.5,277.4 153.4,274.8 154.7,271.3 155.5,267 158,251.5 160.2,242 
					161.9,237.7 164.2,236 166.3,229 169.2,220.4 170.9,215.2 172.5,208.3 175,199.7 178.8,188.5 180.9,185 183.8,179 186.4,173.8 
					188.2,172.1 192.5,165.2 194,163.4 196,160 199.2,156.5 203.3,152.2 206.7,148.8 208.8,147 210.5,143.6 214.4,139.3 
					217.5,137.5 220.1,135 223.7,133.2 226.4,130.6 228.7,128.9 231.4,126.3 233.3,125.5 237,122.9 239.8,122 241.7,120.3 
					245.5,119.4 248.8,117.7 251.2,117.7 253.1,117.7 257.8,117.7 260.6,119.4 265.4,118.6 267.7,119.4 272.9,121.1 277.1,122 
					279.9,122.9 282.2,123.7 285.9,124.6 288,146.2 291.2,181.6 294.1,215.2 295.5,223 298.4,233.4 299.9,237.7 301.3,241.1 
					303.6,235.1 306.6,227.3 308.8,222.1 311.2,214.4 314,204 317.3,193.7 318.7,188.5 320.5,183.3 322.3,181.6 324.1,176.4 
					326.3,172.1 328.6,169.5 330.1,166.9 332.9,163.4 334.8,160 337.7,154.8 340.9,153.9 342.6,150.5 344.7,148.8 347.2,145.3 
					348.9,144.5 350.6,142.7 352.8,141.9 354.9,140.1 358,137.5 360.6,137.5 364.6,137.5 368.5,137.5 371.6,139.3 374.6,140.1 
					376.3,139.3 378.1,139.3 382,141 385.6,153.9 388.7,165.2 390.9,175.5 392.7,181.6 395.5,186.8 396.8,193.7 398.7,197.1 
					401.4,197.1 404,195.4 408,191.9 409.4,190.2 411.5,186.8 415,182.4 417.5,178.1 420.6,188.5 423.4,205.7 424.9,235.1 
					427.1,254.9 428.9,263.6 430.1,271.3 431.3,278.3 432.6,283.4 433.4,286.9 435,293.8 435.8,297.2 436.4,297.2 437.3,294.7 
					438.2,292.1 438.8,288.6 439.6,284.3 441.8,273.1 443.2,261 444.7,259.3 445.8,259.3 447.3,266.2 448.7,267.9 449.8,271.3 
					452.1,280 452.9,281.7 453.7,281.7 454.4,279.1 455.9,274.8 457.7,265.3 458.5,261.9 460,256.7 461.6,248 463.1,238.5 
					464.9,230.8 467.2,218.7 469.6,213.5 470.8,208.3 472.4,204.9 475.3,198.8 477.6,194.5 481,222.1 482.5,233.4 484.5,254.9 
					486.5,264.4 487.4,273.1 488.6,277.4 489.8,283.4 490.6,287.7 491.6,292.9 492.9,296.4 494.1,300.7 495.2,299 495.7,298.1 
					496.7,292.9 498.5,284.3 499.8,275.7 500.8,267.9 503,253.2 504.4,245.4 505.7,236 507,229 509,218.7 512.1,205.7 514.7,198.8 
					516.3,192.8 519.1,185 526.1,174.7 529.9,168.6 533.9,162.6 536.2,159.1 539.4,158.3 543.5,154.8 548,153.1 550,158.3 
					551.9,170.3 553.1,202.3 555,227.3 556.3,232.5 557.5,245.4 558.7,248 559.7,255.8 560.8,261 561.6,261.9 562.8,266.2 
					563.5,269.6 564.9,271.3 566.1,274.8 568.2,271.3 570.1,256.7 571.5,249.8 574.4,231.6 576.3,224.7 577.7,217.8 580.5,205.7 
					583,203.2 585.4,192.8 586.8,185.9 588.5,184.2 593,173.8 594.5,171.2 596.4,167.8 600.3,161.7 603.1,158.3 606.8,153.9 
					608.8,152.2 610.9,150.5 612.6,147.9 615.9,145.3 619.8,141.9 623.3,141 625,139.3 628.1,136.7 630.7,136.7 633.8,135 
					635.6,134.1 637.8,132.4 640.1,131.5 641.9,130.6 645.1,128.9 647.8,128.1 650.6,126.3 653.3,126.3 655.2,125.5 657.5,123.7 
					659.8,122.9 661.7,122.9 665.9,121.1 669.2,120.3 672.9,120.3 675.8,118.6 679.1,118.6 682.9,119.4 684.8,118.6 690,117.7 
					694.8,116.8 696.7,116.8 699.1,116.8 701.9,116 703.8,116 708.2,115.1 710.6,115.1 				"/>
				<polyline class="st7" points="97.3,112.5 99.7,113.4 102.6,113.4 105,113.4 107.4,113.4 110.8,113.4 112.7,114.2 117,115.1 
					120.9,115.1 124.7,116 126.6,116 129.9,119.4 133,133.2 136.1,191.1 137.4,200.6 139.1,220.4 140.3,234.2 141.3,240.3 
					143.3,255.8 144.5,258.4 145.9,270.5 147.3,272.2 148.4,276.5 150,280 151,280 151.7,279.1 152.4,275.7 154.4,264.4 
					155.9,255.8 157.6,244.6 158.8,242.9 160.7,242.9 162.4,239.4 163.4,239.4 165,234.2 168.1,221.3 169.8,214.4 171.7,204 
					174,196.2 175.6,196.2 177,189.3 179.5,184.2 183.1,176.4 186.9,169.5 188.8,165.2 191.2,162.6 194.4,159.1 197.2,155.7 
					198.8,152.2 200.9,150.5 203,147.9 206.8,144.5 210.3,141.9 212.9,138.4 217.3,134.1 220.5,131.5 222.7,129.8 224.5,127.2 
					227.3,127.2 231.5,123.7 233.8,122 237.1,121.1 239.4,120.3 241.3,118.6 244.7,116.8 248,115.1 252.4,114.2 255.8,113.4 
					258.7,111.7 262.1,113.4 265,112.5 269.3,111.7 271.8,112.5 274.7,112.5 278.6,112.5 280.5,113.4 284.2,123.7 286.3,151.4 
					289.1,184.2 291.8,206.6 294.1,219.6 295.5,229 296.7,233.4 298.2,240.3 300.2,242 301.1,241.1 302.6,237.7 303.9,235.1 
					305.5,229.9 306.6,227.3 308.3,219.6 309.8,211.8 311.6,208.3 314.2,197.1 316.6,188.5 318.4,183.3 320.2,181.6 322.4,175.5 
					325.8,168.6 328.1,165.2 330.1,162.6 332.1,160 334.5,155.7 338.6,151.4 340.7,147 342.8,145.3 346.7,142.7 349.7,141 
					351.9,138.4 353.6,136.7 356.3,134.1 359,134.1 360.7,132.4 363.4,132.4 367,132.4 369.7,131.5 372.9,131.5 375.1,130.6 
					376.9,130.6 380,138.4 381.7,147.9 384,158.3 386.7,168.6 389.6,179.8 392.6,189.3 394.7,191.1 397.7,194.5 399.3,196.2 
					401.9,197.1 403.9,197.1 406.8,198 409.4,197.1 411.1,193.7 413.1,190.2 415.5,186.8 416.9,186.8 419.3,188.5 420.8,213.5 
					421.8,228.2 423.5,244.6 424.6,254.1 425.4,264.4 426.5,271.3 427.3,275.7 428.3,280.8 429.9,290.3 431.4,296.4 431.9,297.2 
					432.9,299 433.9,299.8 434.9,296.4 435.6,294.7 436.4,287.7 437.2,286 438.6,276.5 440.4,265.3 442.5,263.6 443.4,265.3 
					445.4,267 446.3,274.8 447.4,274.8 448.4,278.3 449.6,281.7 450.6,283.4 451.8,280.8 453,275.7 453.8,273.9 455.8,264.4 
					456.8,261.9 457.7,254.9 460.6,241.1 461.6,241.1 463.2,226.5 465.2,219.6 467.6,213.5 468.8,205.7 472.1,197.1 474.1,193.7 
					476.1,191.9 477.7,198 479.7,198 481.9,241.1 483.8,258.4 485.1,273.1 486.4,284.3 487.6,291.2 488.2,292.9 488.7,293.8 
					489.6,296.4 490.5,298.1 491.2,299 492.4,295.5 493.4,292.9 494.2,290.3 494.8,289.5 496,280.8 497.8,271.3 499.5,261 
					501.3,249.8 504.2,232.5 505.9,221.3 508.2,212.6 514.7,190.2 518.2,183.3 521.1,176.4 524.1,172.9 526,169.5 528.7,165.2 
					531.5,160.9 534.2,158.3 535.8,157.4 538.3,155.7 541.6,152.2 544.5,150.5 546.5,149.6 548.8,168.6 550.3,177.3 552.5,221.3 
					553.6,231.6 555.5,243.7 557.3,261 558.1,265.3 558.9,268.8 560.2,272.2 561,272.2 561.9,275.7 562.6,274.8 563.3,278.3 
					564.3,277.4 565.6,273.9 566.8,269.6 569.1,255.8 570.5,248.9 572.8,233.4 574.2,226.5 576.8,216.1 578.3,213.5 582.2,198.8 
					584.2,190.2 587.8,181.6 589.6,179 591,175.5 594,171.2 596.4,165.2 597.9,164.3 600.7,160 602.3,157.4 606,153.1 609.3,149.6 
					611,148.8 613.9,145.3 616,145.3 619,141.9 622.5,141 624.7,138.4 626.4,136.7 630.4,134.1 632.7,132.4 636.3,129.8 639,128.1 
					642.3,125.5 645,124.6 646.9,122.9 650.2,122 653.4,121.1 657.2,119.4 661,116.8 662.9,116.8 666.3,116 668.7,115.1 
					671.1,114.2 675.4,114.2 678.8,113.4 682.2,112.5 684.6,112.5 686.6,110.8 691,110.8 692.9,109.9 697.3,109.9 700.8,109.1 
					703.2,109.1 706.2,108.2 710.1,108.2 712.1,107.3 				"/>
				<rect x="139.3" y="101.7" class="st8" width="107.9" height="52.5"/>
				<text transform="matrix(1 0 0 1 139.3315 108.4565)" class="st9 st10 st11">Russell got a headstart  </text>
				<text transform="matrix(1 0 0 1 139.3315 118.0565)" class="st9 st10 st11">on the lap and shot ahead </text>
				<rect x="658.5" y="192.9" class="st8" width="107.3" height="46.8"/>
				<text transform="matrix(1 0 0 1 601.8024 181.5836)" class="st9 st10 st12">Sainz had the faster lap </text>
				<text transform="matrix(1 0 0 1 601.8024 193.5836)" class="st9 st10 st12">but couldn’t overtake Hamilton</text>
				<polyline class="st13" points="742.9,314.2 66.5,314.2 66.5,93.9 				"/>
			</g>
		</g>
	</g>
</g>
<rect x="28.3" y="48.3" class="st8" width="720" height="360"/>
<g>
	<rect x="46.9" y="280.8" class="st8" width="14.7" height="10.4"/>
	<text transform="matrix(1 0 0 1 46.8878 288.3128)" class="st9 st14 st15">100</text>
	<rect x="46.9" y="237.6" class="st8" width="14.7" height="10.4"/>
	<text transform="matrix(1 0 0 1 46.8878 245.1527)" class="st9 st14 st15">150</text>
	<rect x="46.9" y="194.4" class="st8" width="14.7" height="10.4"/>
	<text transform="matrix(1 0 0 1 46.8878 201.9823)" class="st9 st14 st15">200</text>
	<rect x="46.9" y="151.3" class="st8" width="14.7" height="10.4"/>
	<text transform="matrix(1 0 0 1 46.8878 158.8226)" class="st9 st14 st15">250</text>
	<rect x="46.9" y="108.1" class="st8" width="14.7" height="10.4"/>
	<text transform="matrix(1 0 0 1 46.8878 115.6624)" class="st9 st14 st15">300</text>
	<line class="st16" x1="63.8" y1="285.2" x2="66.5" y2="285.2"/>
	<line class="st16" x1="63.8" y1="242" x2="66.5" y2="242"/>
	<line class="st16" x1="63.8" y1="198.8" x2="66.5" y2="198.8"/>
	<line class="st16" x1="63.8" y1="155.7" x2="66.5" y2="155.7"/>
	<line class="st16" x1="63.8" y1="112.5" x2="66.5" y2="112.5"/>
	<rect x="93.5" y="317.9" class="st8" width="4.9" height="10.4"/>
	<text transform="matrix(1 0 0 1 93.4933 325.4027)" class="st9 st14 st15">0</text>
	<rect x="231.6" y="317.9" class="st8" width="19.6" height="10.4"/>
	<text transform="matrix(1 0 0 1 231.612 325.4027)" class="st9 st14 st15">1000</text>
	<rect x="377.1" y="317.9" class="st8" width="19.6" height="10.4"/>
	<text transform="matrix(1 0 0 1 377.0729 325.4027)" class="st9 st14 st15">2000</text>
	<rect x="522.5" y="317.9" class="st8" width="19.6" height="10.4"/>
	<text transform="matrix(1 0 0 1 522.5427 325.4027)" class="st9 st14 st15">3000</text>
	<rect x="668" y="317.9" class="st8" width="19.6" height="10.4"/>
	<text transform="matrix(1 0 0 1 668.0027 325.4027)" class="st9 st14 st15">4000</text>
	<rect x="359.1" y="328.5" class="st8" width="91.1" height="13"/>
	<rect x="32.3" y="168.9" class="st8" width="13" height="70.3"/>
	<rect x="248.1" y="351.4" width="313.2" height="28.2"/>
	<text transform="matrix(1 0 0 1 253.5405 369.4324)" class="st9 st14 st17">Driver</text>
	<rect x="288.4" y="356.9" width="17.3" height="17.3"/>
	<line class="st5" x1="290.1" y1="365.5" x2="303.9" y2="365.5"/>
	<rect x="379.2" y="356.9" width="17.3" height="17.3"/>
	<line class="st6" x1="380.9" y1="365.5" x2="394.7" y2="365.5"/>
	<rect x="473.9" y="356.9" width="17.3" height="17.3"/>
	<line class="st7" x1="475.6" y1="365.5" x2="489.5" y2="365.5"/>
	<text transform="matrix(1 0 0 1 311.1105 368.6424)" class="st9 st14 st15">RUS - 1st Place</text>
	<text transform="matrix(1 0 0 1 401.9205 368.6424)" class="st9 st14 st15">HAM - 2nd Place</text>
	<text transform="matrix(1 0 0 1 496.6605 368.6424)" class="st9 st14 st15">SAI - 3rd Place</text>
	<rect x="98.4" y="51" class="st8" width="605" height="23.7"/>
	<rect x="753.4" y="383.9" class="st8" width="71.9" height="10.4"/>
	<text transform="matrix(1 0 0 1 753.4011 391.4027)" class="st9 st14 st15">By</text>
	<text transform="matrix(1 0 0 1 763.7012 391.4027)" class="st9 st14 st15"> </text>
	<text transform="matrix(1 0 0 1 767.3011 391.4027)" class="st9 st14 st15">Shivani</text>
	<text transform="matrix(1 0 0 1 796.2012 391.4027)" class="st9 st14 st15"> </text>
	<text transform="matrix(1 0 0 1 799.8011 391.4027)" class="st9 st14 st15">Reddy</text>
	<rect x="741.2" y="393.4" class="st8" width="84.6" height="10.4"/>
	<text transform="matrix(1 0 0 1 741.1852 400.9027)" class="st9 st14 st15">Source:</text>
	<text transform="matrix(1 0 0 1 771.4851 400.9027)" class="st9 st14 st15"> </text>
	<text transform="matrix(1 0 0 1 775.1852 400.9027)" class="st9 st14 st15">Fast-F1</text>
	<text transform="matrix(1 0 0 1 805.4851 400.9027)" class="st9 st14 st15"> </text>
	<text transform="matrix(1 0 0 1 809.0852 400.9027)" class="st9 st14 st15">API.</text>
</g>
<g>
	<rect x="4.5" y="42.5" class="st8" width="636.9" height="25.1"/>
	<text transform="matrix(1 0 0 1 9.4795 51.9607)" class="st9 st10 st18">Among the podium finishers of 2022&apos;s Brazilian Grand Prix, winner George Russell was the quickest, but 2nd fastest Carlos Sainz only took third place behind Lewis Hamilton. </text>
</g>
<g>
	<rect x="77.8" y="333.5" class="st8" width="636.9" height="25.1"/>
	<text transform="matrix(1 0 0 1 340.3597 345.2695)" class="st9 st19 st20">Distance in meters</text>
</g>
<g>
	<text transform="matrix(6.123234e-17 -1 1 6.123234e-17 32.3001 228.2998)" class="st9 st19 st21">Speed</text>
</g>
<g>
	<rect x="-4.1" y="14.6" class="st8" width="636.9" height="25.1"/>
	<text transform="matrix(1 0 0 1 9.9645 31.4286)" class="st9 st22 st23">Sainz was consistently faster than Hamilton, but had to settle for third</text>
</g>
<path class="st24" d="M725.7,124.6c-2-5-4.7-9.7-8.1-13.8h4c0.5,0,1-0.5,1-1c0-0.5-0.4-1-1-1H716c-0.2,0-0.4,0.1-0.6,0.2
	c0,0-0.1,0-0.1,0.1c0,0,0,0,0,0c-0.1,0.1-0.2,0.2-0.2,0.3c-0.1,0.1-0.1,0.3-0.1,0.4v8c0,1.3,2,1.3,2,0v-4.4
	c11.1,14.3,13.3,34.6,6.7,51.3c-1.9,4.9-4.7,9.5-8.1,13.5c-0.8,1,0.6,2.4,1.4,1.4C729.8,164.6,732.8,142.7,725.7,124.6z"/>
</svg>
