<?xml version="1.0" encoding="utf-8"?>
<!-- Generator: Adobe Illustrator 27.2.0, SVG Export Plug-In . SVG Version: 6.00 Build 0)  -->
<svg version="1.1" id="Layer_1" xmlns="http://www.w3.org/2000/svg" xmlns:xlink="http://www.w3.org/1999/xlink" x="0px" y="0px"
	 viewBox="0 0 834.5 417.3" style="enable-background:new 0 0 834.5 417.3;" xml:space="preserve">
<style type="text/css">
	.st0{clip-path:url(#SVGID_00000040568637203530063140000015182431264482489517_);}
	.st1{stroke:#000000;stroke-width:1.2402;stroke-linecap:round;stroke-linejoin:round;stroke-miterlimit:10;}
	.st2{clip-path:url(#SVGID_00000110446610021827633380000013545202671952751000_);}
	.st3{fill:none;stroke:#EBEBEB;stroke-width:0.53;stroke-linejoin:round;stroke-miterlimit:10;}
	.st4{fill:none;stroke:#EBEBEB;stroke-width:1.07;stroke-linejoin:round;stroke-miterlimit:10;}
	.st5{fill:none;stroke:#E23333;stroke-width:1.28;stroke-linejoin:round;stroke-miterlimit:10;}
	.st6{fill:none;stroke:#9F00C6;stroke-width:1.28;stroke-linejoin:round;stroke-miterlimit:10;}
	.st7{fill:none;stroke:#00FF24;stroke-width:1.28;stroke-linejoin:round;stroke-miterlimit:10;}
	.st8{fill:none;}
	.st9{enable-background:new    ;}
	.st10{fill:#FFFFFF;}
	.st11{font-family:'TitilliumWeb-Regular';}
	.st12{font-size:8.01px;}
	.st13{font-size:9.96px;}
	.st14{fill:none;stroke:#FFFFFF;stroke-width:1.07;stroke-linecap:round;stroke-linejoin:round;stroke-miterlimit:10;}
	.st15{clip-path:url(#SVGID_00000130644306201191155410000000007258441591236512_);}
	.st16{font-family:'ArialMT';}
	.st17{font-size:8.8px;}
	.st18{fill:none;stroke:#FFFFFF;stroke-width:1.07;stroke-linejoin:round;stroke-miterlimit:10;}
	.st19{font-size:11px;}
	.st20{font-size:11.2304px;}
	.st21{font-family:'TitilliumWeb-SemiBold';}
	.st22{font-size:14px;}
	.st23{font-size:13px;}
	.st24{font-family:'TitilliumWeb-Bold';}
	.st25{font-size:20px;}
</style>
<rect x="53.3" y="40.3" width="720" height="360"/>
<g>
	<g>
		<defs>
			<rect id="SVGID_1_" width="834.5" height="417.3"/>
		</defs>
		<clipPath id="SVGID_00000119806551344847875870000000835440203124426143_">
			<use xlink:href="#SVGID_1_"  style="overflow:visible;"/>
		</clipPath>
		<g style="clip-path:url(#SVGID_00000119806551344847875870000000835440203124426143_);">
			<rect class="st1" width="834.5" height="417.3"/>
		</g>
	</g>
</g>
<g>
	<g>
		<defs>
			<rect id="SVGID_00000029758555193992349700000009693818769966897544_" x="91.5" y="85.9" width="676.4" height="220.3"/>
		</defs>
		<clipPath id="SVGID_00000110445331765599880990000010216563830908967079_">
			<use xlink:href="#SVGID_00000029758555193992349700000009693818769966897544_"  style="overflow:visible;"/>
		</clipPath>
		<g style="clip-path:url(#SVGID_00000110445331765599880990000010216563830908967079_);">
			<rect x="91.5" y="85.9" width="676.4" height="220.3"/>
			<path class="st3" d="M767.9,298.7"/>
			<path class="st3" d="M91.5,298.7"/>
			<path class="st3" d="M767.9,255.6"/>
			<path class="st3" d="M91.5,255.6"/>
			<path class="st3" d="M767.9,212.4"/>
			<path class="st3" d="M91.5,212.4"/>
			<path class="st3" d="M767.9,169.3"/>
			<path class="st3" d="M91.5,169.3"/>
			<path class="st3" d="M767.9,126.1"/>
			<path class="st3" d="M91.5,126.1"/>
			<path class="st3" d="M193.7,85.9"/>
			<path class="st3" d="M193.7,306.2"/>
			<path class="st3" d="M339.1,85.9"/>
			<path class="st3" d="M339.1,306.2"/>
			<path class="st3" d="M484.6,85.9"/>
			<path class="st3" d="M484.6,306.2"/>
			<path class="st3" d="M630.1,85.9"/>
			<path class="st3" d="M630.1,306.2"/>
			<path class="st4" d="M767.9,277.2"/>
			<path class="st4" d="M91.5,277.2"/>
			<path class="st4" d="M767.9,234"/>
			<path class="st4" d="M91.5,234"/>
			<path class="st4" d="M767.9,190.8"/>
			<path class="st4" d="M91.5,190.8"/>
			<path class="st4" d="M767.9,147.7"/>
			<path class="st4" d="M91.5,147.7"/>
			<path class="st4" d="M767.9,104.5"/>
			<path class="st4" d="M91.5,104.5"/>
			<path class="st4" d="M120.9,85.9"/>
			<path class="st4" d="M120.9,306.2"/>
			<path class="st4" d="M266.4,85.9"/>
			<path class="st4" d="M266.4,306.2"/>
			<path class="st4" d="M411.9,85.9"/>
			<path class="st4" d="M411.9,306.2"/>
			<path class="st4" d="M557.3,85.9"/>
			<path class="st4" d="M557.3,306.2"/>
			<path class="st4" d="M702.8,85.9"/>
			<path class="st4" d="M702.8,306.2"/>
			<polyline class="st5" points="122.7,98.5 124.7,98.5 129.7,96.7 131.7,98.5 135.2,97.6 138.7,96.7 141.2,96.7 145.2,95.9 
				148.7,96.7 153,104.5 157.3,137.3 159.2,160.6 160.6,180.5 162,204.6 163.9,223.6 166.2,241.8 167.1,241.8 168.5,253.9 
				169.9,257.3 171.2,265.1 172.6,267.7 174.3,273.7 175.1,274.6 176.1,272.8 177.2,268.5 177.9,265.9 180.5,249.5 183.1,237.4 
				185.6,231.4 186.8,230.5 188.1,228.8 189.6,224.5 191,220.2 193,211.6 194.7,205.5 196.9,198.6 199.9,187.4 201.6,183.1 
				204.4,175.3 206.2,171 207.6,168.4 212.2,159.8 213.8,157.2 215.7,155.4 218.1,152 222.1,146.8 223.8,144.2 226.7,142.5 
				228.8,139 230.9,137.3 233.9,133.9 236.5,131.3 239.6,127.8 241.4,126.1 245,122.6 247.7,120.1 251.9,117.5 254.7,114.9 
				258.4,114.9 261.2,111.4 264.5,109.7 267.9,108.8 271.3,107.1 273.7,105.4 276.6,104.5 278.5,103.7 281.9,102.8 285.9,101.1 
				287.8,101.1 291.3,101.1 293.2,101.1 297.6,101.9 303,103.7 305.4,107.1 307.3,112.3 310.2,136.5 312.2,159.8 313.6,169.3 
				314.9,187.4 316.6,187.4 318.3,214.1 319.6,220.2 321.6,228 322.9,229.7 325.5,235.7 327.2,231.4 329.6,224.5 330.9,220.2 
				332.3,220.2 333.7,208.1 335.6,201.2 336.8,198.6 340.1,183.9 342.5,181.3 344.7,171.8 347.6,165.8 350.3,161.5 351.8,158.9 
				354.6,153.7 356.5,152 358.2,149.4 359.8,146.8 361.8,145.1 363.9,142.5 366.8,139.9 369.8,135.6 372,133 374.6,130.4 379,127.8 
				383,124.4 386.2,122.6 388.4,121.8 390.7,120.1 393,120.1 397.6,120.9 401.6,120.9 403.9,126.1 406.7,143.4 409.8,159.8 
				412.7,172.7 414.1,172.7 416.8,181.3 418.5,185.7 419.8,187.4 422.7,190 424,190 427.3,189.1 428.9,188.2 430.9,187.4 
				433.2,186.5 434.6,184.8 436.9,182.2 438.3,180.5 440.4,178.8 443.1,178.8 445.2,183.9 447.1,215 448.8,235.7 451,253.9 
				453,269.4 454.1,276.3 455.3,282.3 456.2,284.9 457.6,291 458.4,292.7 459.2,289.2 460.4,284.9 461.5,279.7 462.5,274.6 
				463.7,266.8 465.6,253 466.9,251.3 468.1,255.6 469.8,259 470.6,261.6 471.7,264.2 472.8,267.7 473.5,268.5 474.9,271.1 
				475.7,272 476.9,272.8 478.4,267.7 479.7,263.3 482,252.1 484,243.5 486.4,233.1 488.3,219.3 489.7,215.9 491.5,205.5 
				494.4,193.4 496,191.7 497.3,188.2 499.6,184.8 501.2,190 502.9,213.3 504.6,217.6 506.4,237.4 507.7,250.4 508.9,256.4 
				509.7,262.5 510.8,262.5 511.5,272.8 512.5,272.8 513.3,280.6 514.5,284.1 515.8,291 516.7,295.3 517.2,296.1 518,293.6 
				519,290.1 520,284.1 520.8,278.9 521.5,277.2 523.1,265.9 524.7,255.6 526.5,243.5 528.6,225.4 530.2,217.6 531.4,210.7 
				532.5,210.7 535.3,196 536.6,193.4 540,183.1 544.2,177 547.5,168.4 550.1,164.9 552.7,164.9 555,156.3 558.1,154.6 562.5,148.5 
				565.8,145.1 568.7,143.4 570.8,143.4 574.3,176.2 575.8,196 577,213.3 579,225.4 581.3,245.2 583.1,253.9 584.1,257.3 
				585.8,260.8 586.8,261.6 587.5,266.8 588.6,265.9 589.9,262.5 591.3,259 592.8,251.3 594.1,246.1 595.7,237.4 597,229.7 
				598,222.8 599.9,219.3 601.4,209 602.6,202.9 604.4,200.3 606.7,191.7 610.1,179.6 614.1,169.3 615.6,169.3 617.8,164.1 
				619.7,158.9 621.3,158.9 629.4,145.9 631.4,145.1 633.9,140.8 638.2,137.3 639.9,135.6 642.9,133 645.1,133 649.9,128.7 
				654.4,124.4 656.6,123.5 659.8,120.1 661.6,118.3 665.3,116.6 669.1,114.9 670.9,114 673.8,112.3 675.6,110.6 677.6,109.7 
				681.9,108 683.8,107.1 688.6,105.4 690.5,105.4 693.4,105.4 696.9,103.7 698.8,102.8 701.7,102.8 703.7,102.8 706.1,101.9 
				708.1,101.1 712.5,101.1 717.5,99.3 722.9,100.2 726.8,98.5 731.3,98.5 733.8,98.5 736.3,97.6 			"/>
			<polyline class="st6" points="123.6,107.1 128.8,108 131.2,107.1 133.2,107.1 136,108 140.8,107.1 143.2,108 149,107.1 
				151.9,107.1 155.2,106.2 158.6,105.4 161.8,120.9 164.2,181.3 166.1,216.7 167.6,232.3 169.6,242.6 172.2,249.5 173,259 
				174.1,261.6 175,265.1 175.9,267.7 176.8,268.5 177.5,269.4 178.4,266.8 179.7,263.3 180.5,259 183,243.5 185.2,234 186.9,229.7 
				189.2,228 191.3,221 194.2,212.4 195.9,207.2 197.5,200.3 200,191.7 203.8,180.5 205.9,177 208.8,171 211.4,165.8 213.2,164.1 
				217.5,157.2 219,155.4 221,152 224.2,148.5 228.3,144.2 231.7,140.8 233.8,139 235.5,135.6 239.4,131.3 242.5,129.5 245.1,127 
				248.7,125.2 251.4,122.6 253.7,120.9 256.4,118.3 258.3,117.5 262,114.9 264.8,114 266.7,112.3 270.5,111.4 273.8,109.7 
				276.2,109.7 278.1,109.7 282.8,109.7 285.6,111.4 290.4,110.6 292.7,111.4 297.9,113.1 302.1,114 304.9,114.9 307.2,115.7 
				310.9,116.6 313,138.2 316.2,173.6 319.1,207.2 320.5,215 323.4,225.4 324.9,229.7 326.3,233.1 328.6,227.1 331.6,219.3 
				333.8,214.1 336.2,206.4 339,196 342.3,185.7 343.7,180.5 345.5,175.3 347.3,173.6 349.1,168.4 351.3,164.1 353.6,161.5 
				355.1,158.9 357.9,155.4 359.8,152 362.7,146.8 365.9,145.9 367.6,142.5 369.7,140.8 372.2,137.3 373.9,136.5 375.6,134.7 
				377.8,133.9 379.9,132.1 383,129.5 385.6,129.5 389.6,129.5 393.5,129.5 396.6,131.3 399.6,132.1 401.3,131.3 403.1,131.3 
				407,133 410.6,145.9 413.7,157.2 415.9,167.5 417.7,173.6 420.5,178.8 421.8,185.7 423.7,189.1 426.4,189.1 429,187.4 433,183.9 
				434.4,182.2 436.5,178.8 440,174.4 442.5,170.1 445.6,180.5 448.4,197.7 449.9,227.1 452.1,246.9 453.9,255.6 455.1,263.3 
				456.3,270.3 457.6,275.4 458.4,278.9 460,285.8 460.8,289.2 461.4,289.2 462.3,286.7 463.2,284.1 463.8,280.6 464.6,276.3 
				466.8,265.1 468.2,253 469.7,251.3 470.8,251.3 472.3,258.2 473.7,259.9 474.8,263.3 477.1,272 477.9,273.7 478.7,273.7 
				479.4,271.1 480.9,266.8 482.7,257.3 483.5,253.9 485,248.7 486.6,240 488.1,230.5 489.9,222.8 492.2,210.7 494.6,205.5 
				495.8,200.3 497.4,196.9 500.3,190.8 502.6,186.5 506,214.1 507.5,225.4 509.5,246.9 511.5,256.4 512.4,265.1 513.6,269.4 
				514.8,275.4 515.6,279.7 516.6,284.9 517.9,288.4 519.1,292.7 520.2,291 520.7,290.1 521.7,284.9 523.5,276.3 524.8,267.7 
				525.8,259.9 528,245.2 529.4,237.4 530.7,228 532,221 534,210.7 537.1,197.7 539.7,190.8 541.3,184.8 544.1,177 551.1,166.7 
				554.9,160.6 558.9,154.6 561.2,151.1 564.4,150.3 568.5,146.8 573,145.1 575,150.3 576.9,162.3 578.1,194.3 580,219.3 
				581.3,224.5 582.5,237.4 583.7,240 584.7,247.8 585.8,253 586.6,253.9 587.8,258.2 588.5,261.6 589.9,263.3 591.1,266.8 
				593.2,263.3 595.1,248.7 596.5,241.8 599.4,223.6 601.3,216.7 602.7,209.8 605.5,197.7 608,195.2 610.4,184.8 611.8,177.9 
				613.5,176.2 618,165.8 619.5,163.2 621.4,159.8 625.3,153.7 628.1,150.3 631.8,145.9 633.8,144.2 635.9,142.5 637.6,139.9 
				640.9,137.3 644.8,133.9 648.3,133 650,131.3 653.1,128.7 655.7,128.7 658.8,127 660.6,126.1 662.8,124.4 665.1,123.5 
				666.9,122.6 670.1,120.9 672.8,120.1 675.6,118.3 678.3,118.3 680.2,117.5 682.5,115.7 684.8,114.9 686.7,114.9 690.9,113.1 
				694.2,112.3 697.9,112.3 700.8,110.6 704.1,110.6 707.9,111.4 709.8,110.6 715,109.7 719.8,108.8 721.7,108.8 724.1,108.8 
				726.9,108 728.8,108 733.2,107.1 735.6,107.1 			"/>
			<polyline class="st7" points="122.3,104.5 124.7,105.4 127.6,105.4 130,105.4 132.4,105.4 135.8,105.4 137.7,106.2 142,107.1 
				145.9,107.1 149.7,108 151.6,108 154.9,111.4 158,125.2 161.1,183.1 162.4,192.6 164.1,212.4 165.3,226.2 166.3,232.3 
				168.3,247.8 169.5,250.4 170.9,262.5 172.3,264.2 173.4,268.5 175,272 176,272 176.7,271.1 177.4,267.7 179.4,256.4 180.9,247.8 
				182.6,236.6 183.8,234.9 185.7,234.9 187.4,231.4 188.4,231.4 190,226.2 193.1,213.3 194.8,206.4 196.7,196 199,188.2 
				200.6,188.2 202,181.3 204.5,176.2 208.1,168.4 211.9,161.5 213.8,157.2 216.2,154.6 219.4,151.1 222.2,147.7 223.8,144.2 
				225.9,142.5 228,139.9 231.8,136.5 235.3,133.9 237.9,130.4 242.3,126.1 245.5,123.5 247.7,121.8 249.5,119.2 252.3,119.2 
				256.5,115.7 258.8,114 262.1,113.1 264.4,112.3 266.3,110.6 269.7,108.8 273,107.1 277.4,106.2 280.8,105.4 283.7,103.7 
				287.1,105.4 290,104.5 294.3,103.7 296.8,104.5 299.7,104.5 303.6,104.5 305.5,105.4 309.2,115.7 311.3,143.4 314.1,176.2 
				316.8,198.6 319.1,211.6 320.5,221 321.7,225.4 323.2,232.3 325.2,234 326.1,233.1 327.6,229.7 328.9,227.1 330.5,221.9 
				331.6,219.3 333.3,211.6 334.8,203.8 336.6,200.3 339.2,189.1 341.6,180.5 343.4,175.3 345.2,173.6 347.4,167.5 350.8,160.6 
				353.1,157.2 355.1,154.6 357.1,152 359.5,147.7 363.6,143.4 365.7,139 367.8,137.3 371.7,134.7 374.7,133 376.9,130.4 
				378.6,128.7 381.3,126.1 384,126.1 385.7,124.4 388.4,124.4 392,124.4 394.7,123.5 397.9,123.5 400.1,122.6 401.9,122.6 
				405,130.4 406.7,139.9 409,150.3 411.7,160.6 414.6,171.8 417.6,181.3 419.7,183.1 422.7,186.5 424.3,188.2 426.9,189.1 
				428.9,189.1 431.8,190 434.4,189.1 436.1,185.7 438.1,182.2 440.5,178.8 441.9,178.8 444.3,180.5 445.8,205.5 446.8,220.2 
				448.5,236.6 449.6,246.1 450.4,256.4 451.5,263.3 452.3,267.7 453.3,272.8 454.9,282.3 456.4,288.4 456.9,289.2 457.9,291 
				458.9,291.8 459.9,288.4 460.6,286.7 461.4,279.7 462.2,278 463.6,268.5 465.4,257.3 467.5,255.6 468.4,257.3 470.4,259 
				471.3,266.8 472.4,266.8 473.4,270.3 474.6,273.7 475.6,275.4 476.8,272.8 478,267.7 478.8,265.9 480.8,256.4 481.8,253.9 
				482.7,246.9 485.6,233.1 486.6,233.1 488.2,218.5 490.2,211.6 492.6,205.5 493.8,197.7 497.1,189.1 499.1,185.7 501.1,183.9 
				502.7,190 504.7,190 506.9,233.1 508.8,250.4 510.1,265.1 511.4,276.3 512.6,283.2 513.2,284.9 513.7,285.8 514.6,288.4 
				515.5,290.1 516.2,291 517.4,287.5 518.4,284.9 519.2,282.3 519.8,281.5 521,272.8 522.8,263.3 524.5,253 526.3,241.8 
				529.2,224.5 530.9,213.3 533.2,204.6 539.7,182.2 543.2,175.3 546.1,168.4 549.1,164.9 551,161.5 553.7,157.2 556.5,152.9 
				559.2,150.3 560.8,149.4 563.3,147.7 566.6,144.2 569.5,142.5 571.5,141.6 573.8,160.6 575.3,169.3 577.5,213.3 578.6,223.6 
				580.5,235.7 582.3,253 583.1,257.3 583.9,260.8 585.2,264.2 586,264.2 586.9,267.7 587.6,266.8 588.3,270.3 589.3,269.4 
				590.6,265.9 591.8,261.6 594.1,247.8 595.5,240.9 597.8,225.4 599.2,218.5 601.8,208.1 603.3,205.5 607.2,190.8 609.2,182.2 
				612.8,173.6 614.6,171 616,167.5 619,163.2 621.4,157.2 622.9,156.3 625.7,152 627.3,149.4 631,145.1 634.3,141.6 636,140.8 
				638.9,137.3 641,137.3 644,133.9 647.5,133 649.7,130.4 651.4,128.7 655.4,126.1 657.7,124.4 661.3,121.8 664,120.1 667.3,117.5 
				670,116.6 671.9,114.9 675.2,114 678.4,113.1 682.2,111.4 686,108.8 687.9,108.8 691.3,108 693.7,107.1 696.1,106.2 700.4,106.2 
				703.8,105.4 707.2,104.5 709.6,104.5 711.6,102.8 716,102.8 717.9,101.9 722.3,101.9 725.8,101.1 728.2,101.1 731.2,100.2 
				735.1,100.2 737.1,99.3 			"/>
			<rect x="164.3" y="93.7" class="st8" width="107.9" height="52.5"/>
			<text transform="matrix(1 0 0 1 164.3315 100.4565)" class="st9"><tspan x="0" y="0" class="st10 st11 st12">Russell got a headstart  </tspan><tspan x="0" y="9.6" class="st10 st11 st12">on the lap and shot ahead </tspan></text>
			<rect x="683.5" y="184.9" class="st8" width="107.3" height="46.8"/>
			<text transform="matrix(1 0 0 1 626.8024 173.5836)" class="st9"><tspan x="0" y="0" class="st10 st11 st13">Sainz had the faster lap </tspan><tspan x="0" y="12" class="st10 st11 st13">but couldn’t overtake Hamilton</tspan></text>
			<polyline class="st14" points="767.9,306.2 91.5,306.2 91.5,85.9 			"/>
		</g>
	</g>
</g>
<g>
	<defs>
		<rect id="SVGID_00000005235752436955260770000011535143179875411600_" x="53.3" y="40.3" width="720" height="360"/>
	</defs>
	<clipPath id="SVGID_00000088829771233148522760000009947489429425001151_">
		<use xlink:href="#SVGID_00000005235752436955260770000011535143179875411600_"  style="overflow:visible;"/>
	</clipPath>
	<g style="clip-path:url(#SVGID_00000088829771233148522760000009947489429425001151_);">
		<rect x="71.9" y="272.8" class="st8" width="14.7" height="10.4"/>
		<text transform="matrix(1 0 0 1 71.8878 280.3128)" class="st10 st16 st17">100</text>
		<rect x="71.9" y="229.6" class="st8" width="14.7" height="10.4"/>
		<text transform="matrix(1 0 0 1 71.8878 237.1527)" class="st10 st16 st17">150</text>
		<rect x="71.9" y="186.4" class="st8" width="14.7" height="10.4"/>
		<text transform="matrix(1 0 0 1 71.8878 193.9823)" class="st10 st16 st17">200</text>
		<rect x="71.9" y="143.3" class="st8" width="14.7" height="10.4"/>
		<text transform="matrix(1 0 0 1 71.8878 150.8226)" class="st10 st16 st17">250</text>
		<rect x="71.9" y="100.1" class="st8" width="14.7" height="10.4"/>
		<text transform="matrix(1 0 0 1 71.8878 107.6624)" class="st10 st16 st17">300</text>
		<line class="st18" x1="88.8" y1="277.2" x2="91.5" y2="277.2"/>
		<line class="st18" x1="88.8" y1="234" x2="91.5" y2="234"/>
		<line class="st18" x1="88.8" y1="190.8" x2="91.5" y2="190.8"/>
		<line class="st18" x1="88.8" y1="147.7" x2="91.5" y2="147.7"/>
		<line class="st18" x1="88.8" y1="104.5" x2="91.5" y2="104.5"/>
		<line class="st18" x1="120.9" y1="308.9" x2="120.9" y2="306.2"/>
		<line class="st18" x1="266.4" y1="308.9" x2="266.4" y2="306.2"/>
		<line class="st18" x1="411.9" y1="308.9" x2="411.9" y2="306.2"/>
		<line class="st18" x1="557.3" y1="308.9" x2="557.3" y2="306.2"/>
		<line class="st18" x1="702.8" y1="308.9" x2="702.8" y2="306.2"/>
		<rect x="118.5" y="309.9" class="st8" width="4.9" height="10.4"/>
		<text transform="matrix(1 0 0 1 118.4933 317.4027)" class="st10 st16 st17">0</text>
		<rect x="256.6" y="309.9" class="st8" width="19.6" height="10.4"/>
		<text transform="matrix(1 0 0 1 256.612 317.4027)" class="st10 st16 st17">1000</text>
		<rect x="402.1" y="309.9" class="st8" width="19.6" height="10.4"/>
		<text transform="matrix(1 0 0 1 402.0729 317.4027)" class="st10 st16 st17">2000</text>
		<rect x="547.5" y="309.9" class="st8" width="19.6" height="10.4"/>
		<text transform="matrix(1 0 0 1 547.5427 317.4027)" class="st10 st16 st17">3000</text>
		<rect x="693" y="309.9" class="st8" width="19.6" height="10.4"/>
		<text transform="matrix(1 0 0 1 693.0027 317.4027)" class="st10 st16 st17">4000</text>
		<rect x="384.1" y="320.5" class="st8" width="91.1" height="13"/>
		<rect x="57.3" y="160.9" class="st8" width="13" height="70.3"/>
		<rect x="273.1" y="343.4" width="313.2" height="28.2"/>
		<text transform="matrix(1 0 0 1 278.5405 361.4324)" class="st10 st16 st19">Driver</text>
		<rect x="313.4" y="348.9" width="17.3" height="17.3"/>
		<line class="st5" x1="315.1" y1="357.5" x2="328.9" y2="357.5"/>
		<rect x="404.2" y="348.9" width="17.3" height="17.3"/>
		<line class="st6" x1="405.9" y1="357.5" x2="419.7" y2="357.5"/>
		<rect x="498.9" y="348.9" width="17.3" height="17.3"/>
		<line class="st7" x1="500.6" y1="357.5" x2="514.5" y2="357.5"/>
		<text transform="matrix(1 0 0 1 336.1105 360.6424)" class="st10 st16 st17">RUS - 1st Place</text>
		<text transform="matrix(1 0 0 1 426.9205 360.6424)" class="st10 st16 st17">HAM - 2nd Place</text>
		<text transform="matrix(1 0 0 1 521.6605 360.6424)" class="st10 st16 st17">SAI - 3rd Place</text>
		<rect x="123.4" y="43" class="st8" width="605" height="23.7"/>
		<rect x="698.4" y="375.9" class="st8" width="71.9" height="10.4"/>
		<text transform="matrix(1 0 0 1 698.4011 383.4027)" class="st10 st16 st17">By</text>
		<text transform="matrix(1 0 0 1 708.7012 383.4027)" class="st10 st16 st17"> </text>
		<text transform="matrix(1 0 0 1 712.3011 383.4027)" class="st10 st16 st17">Shivani</text>
		<text transform="matrix(1 0 0 1 741.2012 383.4027)" class="st10 st16 st17"> </text>
		<text transform="matrix(1 0 0 1 744.8011 383.4027)" class="st10 st16 st17">Reddy</text>
		<rect x="686.2" y="385.4" class="st8" width="84.6" height="10.4"/>
		<text transform="matrix(1 0 0 1 686.1852 392.9027)" class="st10 st16 st17">Source:</text>
		<text transform="matrix(1 0 0 1 716.4851 392.9027)" class="st10 st16 st17"> </text>
		<text transform="matrix(1 0 0 1 720.1852 392.9027)" class="st10 st16 st17">Fast-F1</text>
		<text transform="matrix(1 0 0 1 750.4851 392.9027)" class="st10 st16 st17"> </text>
		<text transform="matrix(1 0 0 1 754.0852 392.9027)" class="st10 st16 st17">API.</text>
	</g>
</g>
<g>
	<rect x="91.5" y="54" class="st8" width="636.9" height="25.1"/>
	<text transform="matrix(1 0 0 1 96.4795 63.5107)"><tspan x="0" y="0" class="st10 st11 st20">Among the podium finishers of 2022&apos;s Brazilian Grand Prix, winner George Russell was the quickest, but 2nd fastest Carlos Sainz only </tspan><tspan x="220.6" y="13.5" class="st10 st11 st20">took third place behind Lewis Hamilton.</tspan></text>
</g>
<g>
	<rect x="102.8" y="325.5" class="st8" width="636.9" height="25.1"/>
	<text transform="matrix(1 0 0 1 365.3597 337.2695)" class="st10 st21 st22">Distance in meters</text>
</g>
<g>
	<text transform="matrix(6.123234e-17 -1 1 6.123234e-17 60.0294 233.7207)" class="st10 st21 st23">Speed in km/hr</text>
</g>
<g>
	<rect x="102.8" y="24.6" class="st8" width="636.9" height="25.1"/>
	<text transform="matrix(1 0 0 1 116.8318 41.4094)" class="st10 st24 st25">Sainz was consistently faster than Hamilton, but had to settle for third</text>
</g>
</svg>
