<?xml version="1.0" encoding="utf-8"?>
<!-- Generator: Adobe Illustrator 27.2.0, SVG Export Plug-In . SVG Version: 6.00 Build 0)  -->
<svg version="1.1" id="Layer_1" xmlns="http://www.w3.org/2000/svg" xmlns:xlink="http://www.w3.org/1999/xlink" x="0px" y="0px"
	 viewBox="0 0 1080 394.8" style="enable-background:new 0 0 1080 394.8;" xml:space="preserve">
<style type="text/css">
	.st0{fill:#FFFFFF;stroke:#000000;stroke-width:0.5;stroke-linejoin:round;}
	.st1{fill:#FFFFFF;}
	.st2{fill:#FFFFFF;stroke:#FFFFFF;stroke-width:0.5;stroke-linejoin:round;}
	
		.st3{clip-path:url(#SVGID_00000133518536874986732480000007479700090303012267_);fill:none;stroke:#00FFFF;stroke-width:1.5;stroke-linecap:square;stroke-linejoin:round;}
	
		.st4{clip-path:url(#SVGID_00000012434670969785516250000006661515676114367409_);fill:none;stroke:#9F00C6;stroke-width:1.5;stroke-linecap:square;stroke-linejoin:round;}
	
		.st5{clip-path:url(#SVGID_00000167380949023221328770000015862791157766540734_);fill:none;stroke:#E23333;stroke-width:1.5;stroke-linecap:square;stroke-linejoin:round;}
	.st6{stroke:#FFFFFF;stroke-linecap:square;}
	.st7{fill:none;stroke:#000000;stroke-width:0.5;stroke-linecap:square;}
	.st8{stroke:#000000;stroke-width:0.5;stroke-linecap:square;}
	.st9{opacity:0.3;fill:#FFFFFF;stroke:#000000;enable-background:new    ;}
	.st10{fill:none;stroke:#00FFFF;stroke-width:1.5;stroke-linecap:square;stroke-linejoin:round;}
	.st11{fill:#00FFFF;}
	.st12{fill:none;stroke:#9900CC;stroke-width:1.5;stroke-linecap:square;stroke-linejoin:round;}
	.st13{fill:#9900CC;}
	.st14{fill:none;stroke:#CC3333;stroke-width:1.5;stroke-linecap:square;stroke-linejoin:round;}
	.st15{stroke:#CC3333;}
	.st16{fill:none;}
	.st17{font-family:'MyriadPro-Regular';}
	.st18{font-size:12.0298px;}
	.st19{font-family:'TitilliumWeb-Regular';}
	.st20{font-family:'TitilliumWeb-Bold';}
	.st21{font-size:17.9175px;}
	.st22{font-size:18.8978px;}
	.st23{font-size:14.4358px;}
	.st24{font-size:20px;}
</style>
<rect x="-1.4" width="1116.2" height="394.8"/>
<g id="matplotlib.axis_1">
	<g id="xtick_1">
		<g id="line2d_1">
			<g>
				<g>
					<path id="ma0ec325868" class="st0" d="M161.1,333.7v4.2"/>
				</g>
			</g>
		</g>
		<g id="text_1">
			<g transform="translate(158.327841 270.918437) scale(0.1 -0.1)">
				<g>
					<path id="DejaVuSans-30" class="st1" d="M27.6-723.8c-6.1,0-10.7-3-13.8-9s-4.6-15-4.6-27.1c0-12,1.6-21.1,4.6-27.1
						c3.1-6,7.7-9,13.8-9s10.7,3,13.8,9c3.1,6,4.6,15,4.6,27.1c0,12-1.6,21.1-4.6,27.1C38.3-726.8,33.7-723.8,27.6-723.8z
						 M27.6-714.4c9.9,0,17.3-3.8,22.5-11.7s7.8-19,7.8-33.8c0-14.8-2.6-26-7.8-33.8s-12.8-11.7-22.5-11.7
						c-9.9,0-17.3,3.8-22.5,11.7s-7.8,19-7.8,33.8c0,14.8,2.6,26.1,7.8,33.8C10.1-718.3,17.7-714.4,27.6-714.4z"/>
				</g>
			</g>
		</g>
	</g>
	<g id="xtick_2">
		<g id="line2d_2">
			<g>
				<g>
					<path id="ma0ec325868_00000077283457598270606720000017307105215322514093_" class="st0" d="M364.3,333.7v4.2"/>
				</g>
			</g>
		</g>
		<g id="text_2">
			<g transform="translate(317.713567 270.918437) scale(0.1 -0.1)">
				<g>
					<path id="DejaVuSans-31" class="st1" d="M327.8-793.7h19.4v66.9l-21.1-4.2v10.8L347-716h11.9v-77.7h19.4v-10h-50.5V-793.7z"/>
				</g>
				<g>
					<path id="DejaVuSans-30_00000049927668699577525450000010434424006532201407_" class="st1" d="M427.6-723.8
						c-6.1,0-10.7-3-13.8-9c-3.1-6-4.6-15-4.6-27.1c0-12,1.6-21.1,4.6-27.1c3.1-6,7.7-9,13.8-9c6.1,0,10.7,3,13.8,9s4.6,15,4.6,27.1
						c0,12-1.6,21.1-4.6,27.1C438.3-726.8,433.7-723.8,427.6-723.8z M427.6-714.4c9.9,0,17.3-3.8,22.5-11.7c5.2-7.8,7.8-19,7.8-33.8
						c0-14.8-2.6-26-7.8-33.8c-5.2-7.8-12.8-11.7-22.5-11.7c-9.9,0-17.3,3.8-22.5,11.7c-5.2,7.8-7.8,19-7.8,33.8
						c0,14.8,2.6,26.1,7.8,33.8C410.3-718.3,417.7-714.4,427.6-714.4z"/>
				</g>
				<g>
					<path id="DejaVuSans-30_00000096029599595009725650000004230335939338243259_" class="st1" d="M504.1-723.8
						c-6.1,0-10.7-3-13.8-9s-4.6-15-4.6-27.1c0-12,1.6-21.1,4.6-27.1c3.1-6,7.7-9,13.8-9c6.1,0,10.7,3,13.8,9c3.1,6,4.6,15,4.6,27.1
						c0,12-1.6,21.1-4.6,27.1S510.3-723.8,504.1-723.8z M504.1-714.4c9.9,0,17.3-3.8,22.5-11.7s7.8-19,7.8-33.8
						c0-14.8-2.6-26-7.8-33.8s-12.8-11.7-22.5-11.7c-9.9,0-17.3,3.8-22.5,11.7c-5.2,7.8-7.8,19-7.8,33.8c0,14.8,2.6,26.1,7.8,33.8
						C486.8-718.3,494.3-714.4,504.1-714.4z"/>
				</g>
				<g>
					<path id="DejaVuSans-30_00000119806805582221941320000002077756627094103728_" class="st1" d="M580.6-723.8
						c-6.1,0-10.7-3-13.8-9s-4.6-15-4.6-27.1c0-12,1.6-21.1,4.6-27.1c3.1-6,7.7-9,13.8-9s10.7,3,13.8,9c3.1,6,4.6,15,4.6,27.1
						c0,12-1.6,21.1-4.6,27.1S586.8-723.8,580.6-723.8z M580.6-714.4c9.9,0,17.3-3.8,22.5-11.7s7.8-19,7.8-33.8
						c0-14.8-2.6-26-7.8-33.8s-12.8-11.7-22.5-11.7c-9.9,0-17.3,3.8-22.5,11.7s-7.8,19-7.8,33.8c0,14.8,2.6,26.1,7.8,33.8
						C563.3-718.3,570.9-714.4,580.6-714.4z"/>
				</g>
			</g>
		</g>
	</g>
	<g id="xtick_3">
		<g id="line2d_3">
			<g>
				<g>
					<path id="ma0ec325868_00000163048360243713804880000018122899811033899168_" class="st0" d="M567.6,333.7v4.2"/>
				</g>
			</g>
		</g>
		<g id="text_3">
			<g transform="translate(486.643044 270.918437) scale(0.1 -0.1)">
				<g>
					<path id="DejaVuSans-32" class="st1" d="M678.8-793.7h41.4v-10h-55.7v10c4.5,4.7,10.6,10.9,18.4,18.8
						c7.8,7.8,12.6,12.9,14.7,15.2c3.8,4.2,6.5,7.8,7.9,10.8c1.6,3,2.3,5.9,2.3,8.7c0,4.7-1.7,8.4-4.9,11.4
						c-3.2,2.9-7.6,4.5-12.8,4.5c-3.7,0-7.7-0.6-11.8-1.9c-4.1-1.3-8.5-3.2-13.2-5.9v12c4.8,1.9,9.3,3.4,13.4,4.3
						c4.2,1,7.9,1.4,11.4,1.4c9.1,0,16.4-2.3,21.8-6.9c5.4-4.6,8.1-10.6,8.1-18.2c0-3.6-0.7-7-2-10.2c-1.3-3.2-3.8-7-7.3-11.4
						c-1-1.1-4.1-4.5-9.4-9.9C695.8-776.4,688.3-783.9,678.8-793.7z"/>
				</g>
				<g>
					<path id="DejaVuSans-30_00000082352994208277430010000012661090470059183497_" class="st1" d="M770.5-723.8
						c-6.1,0-10.7-3-13.8-9c-3.1-6-4.6-15-4.6-27.1c0-12,1.6-21.1,4.6-27.1c3.1-6,7.7-9,13.8-9c6.1,0,10.7,3,13.8,9
						c3.1,6,4.6,15,4.6,27.1c0,12-1.6,21.1-4.6,27.1C781.2-726.8,776.6-723.8,770.5-723.8z M770.5-714.4c9.9,0,17.3-3.8,22.5-11.7
						c5.2-7.8,7.8-19,7.8-33.8c0-14.8-2.6-26-7.8-33.8c-5.2-7.8-12.8-11.7-22.5-11.7c-9.9,0-17.3,3.8-22.5,11.7
						c-5.2,7.8-7.8,19-7.8,33.8c0,14.8,2.6,26.1,7.8,33.8C753.2-718.3,760.6-714.4,770.5-714.4z"/>
				</g>
				<g>
					<path id="DejaVuSans-30_00000100352297254193324000000014128119459440386744_" class="st1" d="M847-723.8c-6.1,0-10.7-3-13.8-9
						c-3.1-6-4.6-15-4.6-27.1c0-12,1.6-21.1,4.6-27.1c3.1-6,7.7-9,13.8-9s10.7,3,13.8,9s4.6,15,4.6,27.1c0,12-1.6,21.1-4.6,27.1
						S853.2-723.8,847-723.8z M847-714.4c9.9,0,17.3-3.8,22.5-11.7s7.8-19,7.8-33.8c0-14.8-2.6-26-7.8-33.8s-12.8-11.7-22.5-11.7
						c-9.9,0-17.3,3.8-22.5,11.7s-7.8,19-7.8,33.8c0,14.8,2.6,26.1,7.8,33.8C829.7-718.3,837.2-714.4,847-714.4z"/>
				</g>
				<g>
					<path id="DejaVuSans-30_00000066473761793607258500000005787744618234792619_" class="st1" d="M923.5-723.8
						c-6.1,0-10.7-3-13.8-9c-3.1-6-4.6-15-4.6-27.1c0-12,1.6-21.1,4.6-27.1c3.1-6,7.7-9,13.8-9s10.7,3,13.8,9s4.6,15,4.6,27.1
						c0,12-1.6,21.1-4.6,27.1S929.7-723.8,923.5-723.8z M923.5-714.4c9.9,0,17.3-3.8,22.5-11.7s7.8-19,7.8-33.8
						c0-14.8-2.6-26-7.8-33.8s-12.8-11.7-22.5-11.7c-9.9,0-17.3,3.8-22.5,11.7s-7.8,19-7.8,33.8c0,14.8,2.6,26.1,7.8,33.8
						C906.2-718.3,913.8-714.4,923.5-714.4z"/>
				</g>
			</g>
		</g>
	</g>
	<g id="xtick_4">
		<g id="line2d_4">
			<g>
				<g>
					<path id="ma0ec325868_00000046329645681000238010000007478846046972601232_" class="st0" d="M770.8,333.7v4.2"/>
				</g>
			</g>
		</g>
		<g id="text_4">
			<g transform="translate(655.57252 270.918437) scale(0.1 -0.1)">
				<g>
					<path id="DejaVuSans-33" class="st1" d="M1047.5-756.4c5.7-1.2,10.1-3.7,13.2-7.6c3.2-3.8,4.8-8.5,4.8-14.2
						c0-8.7-3-15.4-8.9-20.1c-5.9-4.7-14.4-7.1-25.4-7.1c-3.7,0-7.5,0.4-11.3,1.1c-3.8,0.7-7.9,1.8-12,3.2v11.4
						c3.2-1.9,6.9-3.4,10.8-4.3s8.1-1.4,12.3-1.4c7.5,0,13.1,1.4,17,4.5c3.8,2.9,5.9,7.2,5.9,12.8c0,5.2-1.8,9.3-5.4,12.2
						c-3.6,2.9-8.7,4.3-15.2,4.3h-10.2v9.7h10.7c5.8,0,10.3,1.2,13.4,3.5c3.1,2.3,4.7,5.7,4.7,10.1c0,4.5-1.6,7.9-4.8,10.3
						c-3.1,2.4-7.7,3.6-13.7,3.6c-3.2,0-6.7-0.4-10.5-1.1c-3.7-0.7-7.8-1.8-12.3-3.2v10.6c4.6,1.2,8.8,2.2,12.6,2.8
						c4,0.6,7.7,1,11.1,1c9,0,16.1-2,21.4-6.1c5.3-4.1,7.8-9.6,7.8-16.6c0-4.8-1.4-9-4.2-12.3S1052.5-755.1,1047.5-756.4z"/>
				</g>
				<g>
					<path id="DejaVuSans-30_00000147204703673984486800000008232525909757303456_" class="st1" d="M1113.4-723.8
						c-6.1,0-10.7-3-13.8-9c-3.1-6-4.6-15-4.6-27.1c0-12,1.6-21.1,4.6-27.1c3.1-6,7.7-9,13.8-9c6.1,0,10.7,3,13.8,9
						c3.1,6,4.6,15,4.6,27.1c0,12-1.6,21.1-4.6,27.1C1124.1-726.8,1119.5-723.8,1113.4-723.8z M1113.4-714.4
						c9.9,0,17.3-3.8,22.5-11.7c5.2-7.8,7.8-19,7.8-33.8c0-14.8-2.6-26-7.8-33.8c-5.2-7.8-12.8-11.7-22.5-11.7
						c-9.9,0-17.3,3.8-22.5,11.7c-5.2,7.8-7.8,19-7.8,33.8c0,14.8,2.6,26.1,7.8,33.8C1096.1-718.3,1103.5-714.4,1113.4-714.4z"/>
				</g>
				<g>
					<path id="DejaVuSans-30_00000082361923639282949070000010773726816483686052_" class="st1" d="M1189.9-723.8
						c-6.1,0-10.7-3-13.8-9c-3.1-6-4.6-15-4.6-27.1c0-12,1.6-21.1,4.6-27.1c3.1-6,7.7-9,13.8-9c6.1,0,10.7,3,13.8,9
						c3.1,6,4.6,15,4.6,27.1c0,12-1.6,21.1-4.6,27.1C1200.7-726.8,1196-723.8,1189.9-723.8z M1189.9-714.4c9.9,0,17.3-3.8,22.5-11.7
						c5.2-7.8,7.8-19,7.8-33.8c0-14.8-2.6-26-7.8-33.8c-5.2-7.8-12.8-11.7-22.5-11.7c-9.9,0-17.3,3.8-22.5,11.7
						c-5.2,7.8-7.8,19-7.8,33.8c0,14.8,2.6,26.1,7.8,33.8C1172.6-718.3,1180-714.4,1189.9-714.4z"/>
				</g>
				<g>
					<path id="DejaVuSans-30_00000092433013185929140980000017766289666794081414_" class="st1" d="M1266.4-723.8
						c-6.1,0-10.7-3-13.8-9c-3.1-6-4.6-15-4.6-27.1c0-12,1.6-21.1,4.6-27.1c3.1-6,7.7-9,13.8-9c6.1,0,10.7,3,13.8,9
						c3.1,6,4.6,15,4.6,27.1c0,12-1.6,21.1-4.6,27.1C1277.2-726.8,1272.6-723.8,1266.4-723.8z M1266.4-714.4
						c9.9,0,17.3-3.8,22.5-11.7c5.2-7.8,7.8-19,7.8-33.8c0-14.8-2.6-26-7.8-33.8c-5.2-7.8-12.8-11.7-22.5-11.7
						c-9.9,0-17.3,3.8-22.5,11.7c-5.2,7.8-7.8,19-7.8,33.8c0,14.8,2.6,26.1,7.8,33.8C1249.1-718.3,1256.7-714.4,1266.4-714.4z"/>
				</g>
			</g>
		</g>
	</g>
	<g id="xtick_5">
		<g id="line2d_5">
			<g>
				<g>
					<path id="ma0ec325868_00000158723979303878750400000012153238996161146017_" class="st0" d="M973.9,333.7v4.2"/>
				</g>
			</g>
		</g>
		<g id="text_5">
			<g transform="translate(824.501997 270.918437) scale(0.1 -0.1)">
				<g>
					<path id="DejaVuSans-34" class="st1" d="M1387-726.3l-30-46.8h30V-726.3z M1383.9-716h14.9v-57.1h12.5v-9.9h-12.5v-20.7H1387
						v20.7h-39.6v11.4L1383.9-716z"/>
				</g>
				<g>
					<path id="DejaVuSans-30_00000158716800432931835030000014019629162392704431_" class="st1" d="M1456.3-723.8
						c-6.1,0-10.7-3-13.8-9c-3.1-6-4.6-15-4.6-27.1c0-12,1.6-21.1,4.6-27.1c3.1-6,7.7-9,13.8-9c6.1,0,10.7,3,13.8,9
						c3.1,6,4.6,15,4.6,27.1c0,12-1.6,21.1-4.6,27.1C1467-726.8,1462.4-723.8,1456.3-723.8z M1456.3-714.4c9.9,0,17.3-3.8,22.5-11.7
						c5.2-7.8,7.8-19,7.8-33.8c0-14.8-2.6-26-7.8-33.8c-5.2-7.8-12.8-11.7-22.5-11.7c-9.9,0-17.3,3.8-22.5,11.7
						c-5.2,7.8-7.8,19-7.8,33.8c0,14.8,2.6,26.1,7.8,33.8C1439-718.3,1446.4-714.4,1456.3-714.4z"/>
				</g>
				<g>
					<path id="DejaVuSans-30_00000011737026683558300670000015173857588049815942_" class="st1" d="M1532.8-723.8
						c-6.1,0-10.7-3-13.8-9c-3.1-6-4.6-15-4.6-27.1c0-12,1.6-21.1,4.6-27.1c3.1-6,7.7-9,13.8-9c6.1,0,10.7,3,13.8,9
						c3.1,6,4.6,15,4.6,27.1c0,12-1.6,21.1-4.6,27.1S1538.9-723.8,1532.8-723.8z M1532.8-714.4c9.9,0,17.3-3.8,22.5-11.7
						c5.2-7.8,7.8-19,7.8-33.8c0-14.8-2.6-26-7.8-33.8c-5.2-7.8-12.8-11.7-22.5-11.7c-9.9,0-17.3,3.8-22.5,11.7
						c-5.2,7.8-7.8,19-7.8,33.8c0,14.8,2.6,26.1,7.8,33.8C1515.5-718.3,1522.9-714.4,1532.8-714.4z"/>
				</g>
				<g>
					<path id="DejaVuSans-30_00000176725813045441297950000006279107544535686049_" class="st1" d="M1609.3-723.8
						c-6.1,0-10.7-3-13.8-9c-3.1-6-4.6-15-4.6-27.1c0-12,1.6-21.1,4.6-27.1c3.1-6,7.7-9,13.8-9c6.1,0,10.7,3,13.8,9
						c3.1,6,4.6,15,4.6,27.1c0,12-1.6,21.1-4.6,27.1S1615.5-723.8,1609.3-723.8z M1609.3-714.4c9.9,0,17.3-3.8,22.5-11.7
						c5.2-7.8,7.8-19,7.8-33.8c0-14.8-2.6-26-7.8-33.8c-5.2-7.8-12.8-11.7-22.5-11.7c-9.9,0-17.3,3.8-22.5,11.7
						c-5.2,7.8-7.8,19-7.8,33.8c0,14.8,2.6,26.1,7.8,33.8C1592-718.3,1599.6-714.4,1609.3-714.4z"/>
				</g>
			</g>
		</g>
	</g>
</g>
<path id="mc869108818" class="st2" d="M118.4,321.5h-9.2"/>
<path id="DejaVuSans-30_00000023998285585592658690000016211039275142477493_" class="st1" d="M100.1,318.2c-0.6,0-1.1,0.3-1.4,0.9
	s-0.5,1.5-0.5,2.7c0,1.2,0.2,2.1,0.5,2.7c0.3,0.6,0.8,0.9,1.4,0.9s1.1-0.3,1.4-0.9c0.3-0.6,0.5-1.5,0.5-2.7c0-1.2-0.2-2.1-0.5-2.7
	C101.2,318.5,100.7,318.2,100.1,318.2z M100.1,317.2c1,0,1.7,0.4,2.2,1.2s0.8,1.9,0.8,3.4c0,1.5-0.3,2.6-0.8,3.4
	c-0.5,0.8-1.3,1.2-2.2,1.2c-1,0-1.7-0.4-2.2-1.2c-0.5-0.8-0.8-1.9-0.8-3.4c0-1.5,0.3-2.6,0.8-3.4C98.4,317.6,99.1,317.2,100.1,317.2
	z"/>
<path id="mc869108818_00000018919032297514291300000008704082162917893255_" class="st2" d="M118.4,273.1h-9.2"/>
<path id="DejaVuSans-32_00000165928574177253433270000001070469143906169226_" class="st1" d="M90.9,276.7h4.1v1h-5.6v-1
	c0.4-0.5,1.1-1.1,1.8-1.9c0.8-0.8,1.3-1.3,1.5-1.5c0.4-0.4,0.6-0.8,0.8-1.1c0.2-0.3,0.2-0.6,0.2-0.9c0-0.5-0.2-0.8-0.5-1.1
	c-0.3-0.3-0.8-0.4-1.3-0.4c-0.4,0-0.8,0.1-1.2,0.2c-0.4,0.1-0.9,0.3-1.3,0.6v-1.2c0.5-0.2,0.9-0.3,1.3-0.4c0.4-0.1,0.8-0.1,1.1-0.1
	c0.9,0,1.6,0.2,2.2,0.7c0.5,0.5,0.8,1.1,0.8,1.8c0,0.4-0.1,0.7-0.2,1c-0.1,0.3-0.4,0.7-0.7,1.1c-0.1,0.1-0.4,0.4-0.9,1
	C92.6,274.9,91.9,275.7,90.9,276.7z"/>
<path id="DejaVuSans-30_00000170276155898603416550000011065909798552742069_" class="st1" d="M100.1,269.7c-0.6,0-1.1,0.3-1.4,0.9
	s-0.5,1.5-0.5,2.7c0,1.2,0.2,2.1,0.5,2.7c0.3,0.6,0.8,0.9,1.4,0.9s1.1-0.3,1.4-0.9s0.5-1.5,0.5-2.7c0-1.2-0.2-2.1-0.5-2.7
	C101.2,270,100.7,269.7,100.1,269.7z M100.1,268.7c1,0,1.7,0.4,2.2,1.2c0.5,0.8,0.8,1.9,0.8,3.4c0,1.5-0.3,2.6-0.8,3.4
	c-0.5,0.8-1.3,1.2-2.2,1.2c-1,0-1.7-0.4-2.2-1.2c-0.5-0.8-0.8-1.9-0.8-3.4c0-1.5,0.3-2.6,0.8-3.4C98.4,269.1,99.1,268.7,100.1,268.7
	z"/>
<path id="mc869108818_00000011726130851211105810000002565441102811148459_" class="st2" d="M118.4,224.6h-9.2"/>
<path id="DejaVuSans-34_00000147180841542231855560000014291348924645182364_" class="st1" d="M93.2,221.4l-3,4.7h3V221.4z
	 M92.9,220.4h1.5v5.7h1.3v1h-1.3v2.1h-1.2v-2.1h-4v-1.1L92.9,220.4z"/>
<path id="DejaVuSans-30_00000160171856671940974390000002091275977595606923_" class="st1" d="M100.1,221.2c-0.6,0-1.1,0.3-1.4,0.9
	c-0.3,0.6-0.5,1.5-0.5,2.7c0,1.2,0.2,2.1,0.5,2.7c0.3,0.6,0.8,0.9,1.4,0.9s1.1-0.3,1.4-0.9c0.3-0.6,0.5-1.5,0.5-2.7
	c0-1.2-0.2-2.1-0.5-2.7C101.2,221.5,100.7,221.2,100.1,221.2z M100.1,220.2c1,0,1.7,0.4,2.2,1.2s0.8,1.9,0.8,3.4
	c0,1.5-0.3,2.6-0.8,3.4s-1.3,1.2-2.2,1.2c-1,0-1.7-0.4-2.2-1.2s-0.8-1.9-0.8-3.4c0-1.5,0.3-2.6,0.8-3.4
	C98.4,220.6,99.1,220.2,100.1,220.2z"/>
<path id="mc869108818_00000106839692925589377400000005502694621587874195_" class="st2" d="M118.4,176.1h-9.2"/>
<path id="DejaVuSans-36" class="st1" d="M92.6,175.8c-0.5,0-1,0.2-1.3,0.5c-0.3,0.4-0.5,0.9-0.5,1.5c0,0.6,0.2,1.1,0.5,1.5
	c0.3,0.4,0.7,0.6,1.3,0.6c0.5,0,1-0.2,1.3-0.6c0.3-0.4,0.5-0.9,0.5-1.5c0-0.6-0.2-1.1-0.5-1.5C93.5,176,93.1,175.8,92.6,175.8z
	 M95,172.1v1.1c-0.3-0.1-0.6-0.3-0.9-0.3c-0.3-0.1-0.6-0.1-0.9-0.1c-0.8,0-1.4,0.3-1.8,0.8s-0.6,1.3-0.7,2.4
	c0.2-0.3,0.5-0.6,0.9-0.8s0.7-0.3,1.2-0.3c0.9,0,1.6,0.3,2.1,0.8c0.5,0.5,0.8,1.3,0.8,2.2c0,0.9-0.3,1.6-0.8,2.2
	c-0.5,0.5-1.2,0.8-2.1,0.8c-1,0-1.8-0.4-2.3-1.2c-0.5-0.8-0.8-1.9-0.8-3.4c0-1.4,0.3-2.5,1-3.3c0.7-0.8,1.5-1.2,2.6-1.2
	c0.3,0,0.6,0,0.9,0.1C94.3,171.9,94.6,172,95,172.1z"/>
<path id="DejaVuSans-30_00000152957468468995975280000010763937859699198351_" class="st1" d="M100.1,172.7c-0.6,0-1.1,0.3-1.4,0.9
	c-0.3,0.6-0.5,1.5-0.5,2.7c0,1.2,0.2,2.1,0.5,2.7c0.3,0.6,0.8,0.9,1.4,0.9s1.1-0.3,1.4-0.9c0.3-0.6,0.5-1.5,0.5-2.7
	c0-1.2-0.2-2.1-0.5-2.7C101.2,173,100.7,172.7,100.1,172.7z M100.1,171.7c1,0,1.7,0.4,2.2,1.2s0.8,1.9,0.8,3.4
	c0,1.5-0.3,2.6-0.8,3.4s-1.3,1.2-2.2,1.2c-1,0-1.7-0.4-2.2-1.2s-0.8-1.9-0.8-3.4c0-1.5,0.3-2.6,0.8-3.4
	C98.4,172.1,99.1,171.7,100.1,171.7z"/>
<path id="mc869108818_00000018948714191944381580000009487233767635987092_" class="st2" d="M118.4,127.6h-9.2"/>
<path id="DejaVuSans-38" class="st1" d="M92.5,128c-0.6,0-1,0.2-1.3,0.5c-0.3,0.3-0.5,0.7-0.5,1.2c0,0.5,0.2,0.9,0.5,1.3
	c0.3,0.3,0.8,0.5,1.3,0.5c0.6,0,1-0.2,1.3-0.5c0.3-0.3,0.5-0.7,0.5-1.2c0-0.5-0.2-0.9-0.5-1.2C93.5,128.1,93,128,92.5,128z
	 M91.3,127.5c-0.5-0.1-0.9-0.4-1.2-0.7c-0.3-0.3-0.4-0.8-0.4-1.3c0-0.7,0.3-1.3,0.7-1.7c0.5-0.4,1.2-0.6,2.1-0.6s1.6,0.2,2.1,0.6
	c0.5,0.4,0.7,1,0.7,1.7c0,0.5-0.1,0.9-0.4,1.3c-0.3,0.3-0.7,0.6-1.2,0.7c0.6,0.1,1,0.4,1.3,0.8c0.3,0.4,0.5,0.9,0.5,1.4
	c0,0.9-0.3,1.5-0.8,2c-0.5,0.5-1.3,0.7-2.2,0.7s-1.7-0.2-2.2-0.7c-0.5-0.5-0.8-1.1-0.8-2c0-0.6,0.2-1,0.5-1.4
	C90.2,127.9,90.7,127.6,91.3,127.5z M90.8,125.6c0,0.5,0.1,0.8,0.4,1.1c0.3,0.3,0.7,0.4,1.2,0.4c0.5,0,0.9-0.1,1.2-0.4
	c0.3-0.3,0.4-0.6,0.4-1.1c0-0.5-0.1-0.8-0.4-1.1c-0.3-0.3-0.7-0.4-1.2-0.4c-0.5,0-0.9,0.1-1.2,0.4C91,124.8,90.8,125.1,90.8,125.6z"
	/>
<path id="DejaVuSans-30_00000132792214580110383910000004384152210208006842_" class="st1" d="M100.1,124.2c-0.6,0-1.1,0.3-1.4,0.9
	c-0.3,0.6-0.5,1.5-0.5,2.7c0,1.2,0.2,2.1,0.5,2.7c0.3,0.6,0.8,0.9,1.4,0.9s1.1-0.3,1.4-0.9c0.3-0.6,0.5-1.5,0.5-2.7
	c0-1.2-0.2-2.1-0.5-2.7C101.2,124.5,100.7,124.2,100.1,124.2z M100.1,123.2c1,0,1.7,0.4,2.2,1.2c0.5,0.8,0.8,1.9,0.8,3.4
	c0,1.5-0.3,2.6-0.8,3.4c-0.5,0.8-1.3,1.2-2.2,1.2c-1,0-1.7-0.4-2.2-1.2c-0.5-0.8-0.8-1.9-0.8-3.4c0-1.5,0.3-2.6,0.8-3.4
	C98.4,123.6,99.1,123.2,100.1,123.2z"/>
<path id="mc869108818_00000154384566901288898060000006856601223532563892_" class="st2" d="M118.4,79.3l-9.2-0.6"/>
<path id="DejaVuSans-31_00000006695238101888945950000008486168570698553783_" class="st1" d="M75.2,82.6h1.9V76l-2.1,0.4v-1.1
	l2.1-0.4h1.2v7.8h1.9v1h-5.1V82.6z"/>
<path id="DejaVuSans-30_00000154419188665946687630000013166475100242904734_" class="st1" d="M85.2,75.7c-0.6,0-1.1,0.3-1.4,0.9
	c-0.3,0.6-0.5,1.5-0.5,2.7c0,1.2,0.2,2.1,0.5,2.7c0.3,0.6,0.8,0.9,1.4,0.9s1.1-0.3,1.4-0.9c0.3-0.6,0.5-1.5,0.5-2.7
	c0-1.2-0.2-2.1-0.5-2.7C86.3,76,85.8,75.7,85.2,75.7z M85.2,74.7c1,0,1.7,0.4,2.2,1.2c0.5,0.8,0.8,1.9,0.8,3.4s-0.3,2.6-0.8,3.4
	s-1.3,1.2-2.2,1.2c-1,0-1.7-0.4-2.2-1.2s-0.8-1.9-0.8-3.4s0.3-2.6,0.8-3.4C83.5,75.1,84.2,74.7,85.2,74.7z"/>
<path id="DejaVuSans-30_00000036219724953574839320000009188209450694792347_" class="st1" d="M92.9,75.7c-0.6,0-1.1,0.3-1.4,0.9
	c-0.3,0.6-0.5,1.5-0.5,2.7c0,1.2,0.2,2.1,0.5,2.7c0.3,0.6,0.8,0.9,1.4,0.9s1.1-0.3,1.4-0.9c0.3-0.6,0.5-1.5,0.5-2.7
	c0-1.2-0.2-2.1-0.5-2.7C94,76,93.5,75.7,92.9,75.7z M92.9,74.7c1,0,1.7,0.4,2.2,1.2c0.5,0.8,0.8,1.9,0.8,3.4s-0.3,2.6-0.8,3.4
	s-1.3,1.2-2.2,1.2c-1,0-1.7-0.4-2.2-1.2s-0.8-1.9-0.8-3.4s0.3-2.6,0.8-3.4C91.1,75.1,91.9,74.7,92.9,74.7z"/>
<g>
	<g>
		<defs>
			<rect id="SVGID_1_" x="118.4" y="67" width="939.8" height="266.8"/>
		</defs>
		<clipPath id="SVGID_00000010300609799457879360000008060457270965519253_">
			<use xlink:href="#SVGID_1_"  style="overflow:visible;"/>
		</clipPath>
		
			<path style="clip-path:url(#SVGID_00000010300609799457879360000008060457270965519253_);fill:none;stroke:#00FFFF;stroke-width:1.5;stroke-linecap:square;stroke-linejoin:round;" d="
			M161.1,295v-2.4l0,0l0.7-48.5l0.6-21.8h0.4l1.1-2.4l2.5-63l2.6-29.2l1.4-4.8l2.2-43.7h31.8l4.7,242.5h17.1l1.9-12.2l2.5-4.8l1,4.8
			l1.1,4.8l1.1,7.2l2.3-38.9l2.9-26.7l1.2-36.3l1-53.4l1.6-9.7l1.4,31.5l2.8,133.4l1.1-12.2l2.8-89.7l1.4-19.4l1.2-43.7l2.4-46.1
			l2-31.5h144.7l4.9,242.5h31l3.2-21.8l4.5-92.1l2.3-21.8l1.3-33.9l2.4-26.7l1.8-4.8l4.3-41.3h74.3l5.7,114l2.5,128.5h23.9l3.5-55.8
			l3.8-46.1l4.7-14.6l1.7-4.8h2.2l2.5,14.6l2.5,7.2l3-17l3.4-14.6l1.7,2.4l2.2-12.2l1.7-12.2l4,2.4l4.5,150.4h20.1l2-17l1.4-65.4
			l1.4,4.8l5.1-89.7l1.3-21.8l1.3,189.1h11.4l1.7-60.6l2.4-9.7l1.4-41.3l1.6-4.8l3.6-31.5l2-17l3.8-19.4l1.3-36.3l2.2-21.8h15
			l2.3,242.5h23.8l1-48.5l1.3-7.2l1.2-31.5l1.9-7.2l2.3-26.7l1-14.6l1-55.8l2.9-24.3l1.4-26.7h4.6l3.6,4.8l2.8,48.6l3.4-7.2
			l1.7,21.8l2.2,174.7h49.6l0.7-7.2l1.3-4.8l0.7-4.8h0.6l1.2-26.7l0.6-9.7l1.7-4.8l1.4-2.4l1,14.6l1.7,46.1h2l1.1-14.6h1.1l0.7-2.4
			l4.3-29.1l0.7-12.2l2-19.4l2.2-24.3l1.9-31.5l1.2-4.8l1.1-7.2l2.9-7.2l1.2-2.4l1.9-33.9l1.7,2.4l1.7-12.2l5.7-43.7h12.2l2.3,242.5
			h24.3l2.5-50.9l1.4-19.4l1.4-2.4l2.3-12.2h1.2l3.6-24.3l1.2-26.7l1.6-9.7l2.6-21.8l1.3,4.8h3.5l2.6-4.8h1.9l3.1-4.8l2.4-7.2
			l2.9-21.8l3,2.4l3.1-9.7l5.1-33.9H954l2.2,242.5H979l4.6-38.9h2.3l2.3-84.9h3.1l3.2-17l2.8-7.2l1.9,2.4h6.1l10.7,17l0,0"/>
	</g>
</g>
<g id="line2d_13">
	<g>
		<g>
			<defs>
				<rect id="SVGID_00000170971174876395870360000018149590692462551212_" x="118.4" y="67" width="939.8" height="266.8"/>
			</defs>
			<clipPath id="SVGID_00000047027552463029845590000002605658262382862731_">
				<use xlink:href="#SVGID_00000170971174876395870360000018149590692462551212_"  style="overflow:visible;"/>
			</clipPath>
			
				<path style="clip-path:url(#SVGID_00000047027552463029845590000002605658262382862731_);fill:none;stroke:#9F00C6;stroke-width:1.5;stroke-linecap:square;stroke-linejoin:round;" d="
				M161.1,270.7h0.4l0.4-2.4l1.1-29.1l0.5-26.7l3-65.4l1.2,7.2l3-31.5l1.6-14.6l2.5-29.1h33.2l4.3,211l2.9,29.1l2.3-21.8h2.4
				l1.9-26.7L223,244l1.6,36.3l1.3,7.2l1.1-2.4l2,7.2l2.5,4.8l1-2.4l1.1-24.3l1.1-31.5l2.4-43.7l3.7-63l1.6,12.2l1.2,46.1l1.8,58.2
				l1.6-29.1l3.1-9.7l1.2-46.1l3.2-12.2l1.7-24.3l1.4-2.4l3.1-46.1H410l3.5,36.3l4.5,184.3l2.3,21.8h12.4l3.6-2.4l2.4-2.4l2.3-12.2
				l2.5-31.5l3.2-99.5l1.3-29.1l6.3-60.6l1.6-4.8h88.7l5.7,101.9l2.3,116.4l2.3,7.2l3.1-2.4l4.5-12.2l1.9-9.7l4.2-21.8l3.2-26.7
				l2.8-29.1l3.6-29.1l4,41.3l4.8-60.6l1.8-7.2l2.2,4.8l5.4-29.1l3.2,9.7l3.8-2.4l1.9,21.8l2.3,38.9l1.8,131h19.2l1.3-63l2-33.9
				l2.3-19.4l1.6-19.4l1.8-33.9l2.5-16.8l1.7,116.4l2.2-17l1.4,33.9l1.3,14.6l1.1,21.8l1.6,4.8l1,7.2h1.2l2.6-33.9l2.3-84.9
				l3.5-26.7l3-29.1l1.9-24.3l2-4.8l2.9-29.1l1.9-4.8h9.9l2.8,2.4l3.1,225.6l2.2,14.6h20.5l1.7-19.4l1-53.4l0.7-19.4l1.8-29.1
				l1.1-2.4l1.1-24.3l1.7-14.6l4.3-53.4l3.5-26.7h14.8l4.3,14.6l3.4,2.4l4,24.3l2,2.4l2.5,43.7l4.9,123.7l3.2,31.5H797l1.1-19.4
				l0.5-12.2l1.1-4.8l0.7-24.3l1.3-36.3h0.8l0.7-2.4l1.6-17l0.8-19.4l2.2,50.9l1.8,2.4l1.1-2.4l2.2-50.9l1.2-17l3.2-19.4l1.8-24.3
				h1.2l4.1-2.4l4.1,36.3l1.6-2.4l3.8,14.6l3.8-2.4l3.1-14.6h2l1.7,24.3l3.8,143h10.7l2.6-29.1l1.4-31.5l1.2-14.6l1.4-9.7l1.2,12.2
				l1.2,2.4l1.2-2.4l1.8,2.4l2.5-21.8l3.2-24.3l2.5-7.2l1.8-7.2l1.8-2.4l2.5-4.8l3-14.6l1.7-4.8h1.7l2.9,2.4l1.4,7.2l2.2,7.2
				l2.3-2.4l1.6-4.8h1.9l3.1-14.6l1.6,7.2l2.4,4.8l1.7,2.4l2.9-19.4l2,12.2l3.5-7.2l2.6-7.2l3.1-7.2h3.1l3.2-2.4l5.2,9.7l3.8-7.2
				l3.8-4.8l2.9-4.8l1.9,2.4l3,2.4h2l3.6-14.6l4.1,2.4h2l3.1-7.2l2,7.2l3.1-7.2l4.2,2.4h2.2l2.2,9.7l3.8-4.8l6.6,4.8l2.8-2.4h5.5
				l2.8-2.4l2.8,2.4h7.9l0,0"/>
		</g>
	</g>
</g>
<g>
	<g>
		<defs>
			<rect id="SVGID_00000137842514949495160200000006752674901186796705_" x="118.4" y="67" width="939.8" height="266.8"/>
		</defs>
		<clipPath id="SVGID_00000086682789905560750530000007484843574666410148_">
			<use xlink:href="#SVGID_00000137842514949495160200000006752674901186796705_"  style="overflow:visible;"/>
		</clipPath>
		
			<path style="clip-path:url(#SVGID_00000086682789905560750530000007484843574666410148_);fill:none;stroke:#E23333;stroke-width:1.5;stroke-linecap:square;stroke-linejoin:round;" d="
			M161.1,268.3l0.1,2.4l0.2-2.4h0.2l0.4-4.8l0.4-19.4l1.2-41.3L166,164h0.8l1.2-26.7l3.1-24.3l1.7-33.9h36.5l3.6,242.5h14.7l1.8-17
			l2.5-89.7l1-17l1.3-33.9l1.3-41.3l3.1-14.6l4.2,148l1.7-24.3l1.3-58.2h2l1.7-36.3l3.7-48.5l1.6-9.7h154.6l4.1,29.1l5.2,213.4h18
			l3.2-12.2l2.3-143l2.4-41.3l2.9-26.7l4-19.4h89.6l6.3,143l2.4,72.8l2.3,4.8l2.3,14.6l4.7-2.4h2l2-2.4l2.9-2.4l4.1-9.7l1.8-14.6
			l3.8-99.5h3l2.6-14.6l3.5-14.6l4-19.4l5.1-41.3l1.9,4.8l2.4-4.8l2.9,29.1l3,184.3l3.2,14.6h20.1l1-55.8l1.2-41.3l1.7-2.4l1.6-19.4
			l2.4-43.7l2.8-9.7l2,67.8l1.9,104.3h8.9l1.3-48.5l1-77.6l1.2-14.6l3-26.7l2.6-21.8l1.9-9.7l2.3-7.2l3.7-36.3h13.6l5.3,242.5h21.3
			l1.7-19.4l1.3-43.7l0.7-19.4l1.8-38.9l1.1-14.6l1-17l2.3-24.3l1.3-7.2h1.4l2.3-58.2h13l4.6,14.6h2.3l1.9-14.6h16.7l2.2,242.5h45.7
			l1.4-55.8l0.8,7.2l1.2,4.8l1.7,24.3l0.7-4.8l1.4-14.6l1-7.2l1.7-4.8l1,2.4l2.4-7.2l2.9-17h1.7l1.1-19.4l2-14.6h2.6l1.6,19.4
			l1.6,26.7l1,9.7l3.1-9.7l2.9-2.4h1.1l2.5,63l2.5-14.6l1.9-33.9l1.2-7.2h1l2.5-29.1h1l1.6-2.4h2.6l1.9,2.4l2.2,9.7l1.9,14.6
			l1.1,4.8l1.6,19.4l1.3-9.7l2.9-55.8l1.3-9.7l1.4-21.8l2-29.1l3.1-24.3l4.3-29.1l3.5-4.8l2.4-12.2l2.5-7.2l3.5-2.4h22.5l2.5,53.4
			l4.1,7.2l2-7.2l3.1,4.8l2,17l3.6,19.4l2.6-4.8l4.1-19.4l3.1,2.4l3.6,7.2l3.6-2.4l3.6-14.6l5.9-9.6l4.2,4.8l4.2-12.2l3.2,43.7
			l2.2-21.8l3.1-7.2l2.2-2.4l3.7,14.6l4.3-17l2.2,7.2h3.2l2.2-4.8l3.2-2.4l4.3-2.4l2.2,2.4l2.2,24.3l0,0"/>
	</g>
</g>
<g id="patch_3">
	<path class="st6" d="M118.4,333.7V67"/>
</g>
<g id="patch_4">
	<path class="st7" d="M1022.1,333.7V67"/>
</g>
<g id="patch_5">
	<path class="st6" d="M118.4,333.7h939.8"/>
</g>
<g id="patch_6">
	<path class="st8" d="M118.4,67h939.8"/>
</g>
<g id="legend_1">
	<g id="patch_7">
		<path class="st9" d="M1003.1,318.2h66.2c1.6,0,2.4-0.8,2.4-2.4V264c0-1.6-0.8-2.4-2.4-2.4h-66.2c-1.6,0-2.4,0.8-2.4,2.4v51.7
			C1000.7,317.3,1001.5,318.2,1003.1,318.2z"/>
	</g>
	<g id="line2d_15">
		<path class="st10" d="M1005.5,271.4h12h12"/>
	</g>
	<g id="text_12">
		<g transform="translate(875.210938 51.158438) scale(0.1 -0.1)">
			<g>
				<path id="DejaVuSans-56" class="st11" d="M1674.2-2243.6l-33.4,87.7h12.4l27.8-73.9l27.8,73.9h12.3l-33.3-87.7H1674.2z"/>
			</g>
			<g>
				<path id="DejaVuSans-45" class="st11" d="M1733.9-2155.9h55.5v-10h-43.5v-26h41.7v-10h-41.7v-31.8h44.6v-10h-56.5V-2155.9z"/>
			</g>
			<g>
				<path id="DejaVuSans-52" class="st11" d="M1851.5-2202.5c2.5-0.8,5.1-2.6,7.5-5.5c2.4-2.9,4.8-6.7,7.2-11.7l12-23.9h-12.8
					l-11.2,22.5c-2.9,5.9-5.8,9.7-8.4,11.7c-2.8,1.9-6.4,2.9-11.1,2.9h-13v-37.1h-11.9v87.7h26.8c10,0,17.6-2,22.5-6.3
					c4.9-4.2,7.5-10.5,7.5-19c0-5.5-1.3-10.1-3.8-13.7C1860.1-2198.6,1856.3-2201,1851.5-2202.5z M1821.7-2165.7v-31.2h14.9
					c5.8,0,10,1.3,13,4c2.9,2.6,4.3,6.5,4.3,11.7s-1.4,9-4.3,11.5c-2.9,2.6-7.2,4-13,4H1821.7z"/>
			</g>
		</g>
	</g>
	<g id="line2d_16">
		<path class="st12" d="M1005.5,288.9h12h12"/>
	</g>
	<g id="text_13">
		<g transform="translate(875.210938 65.836563) scale(0.1 -0.1)">
			<g>
				<path id="DejaVuSans-48" class="st13" d="M1651.6-2185.7h11.9v-36h43.1v36h11.9v-87.7h-11.9v41.7h-43.1v-41.7h-11.9V-2185.7z"/>
			</g>
			<g>
				<path id="DejaVuSans-41" class="st13" d="M1771.4-2197.4l-16.1-43.7h32.2L1771.4-2197.4z M1764.7-2185.7h13.5l33.3-87.7h-12.3
					l-7.9,22.5h-39.6l-7.9-22.5h-12.5L1764.7-2185.7z"/>
			</g>
			<g>
				<path id="DejaVuSans-4d" class="st13" d="M1824.3-2185.7h17.7l22.4-59.7l22.5,59.7h17.7v-87.7H1893v77l-22.6-60.1h-11.9
					l-22.6,60.1v-77h-11.5C1824.3-2273.4,1824.3-2185.7,1824.3-2185.7z"/>
			</g>
		</g>
	</g>
	<g id="line2d_17">
		<path class="st14" d="M1005.5,306.6h12h12"/>
	</g>
	<g id="text_14">
		<g transform="translate(875.210938 80.514688) scale(0.1 -0.1)">
			<g>
				<path id="DejaVuSans-52_00000012433177760035784890000011126880278919269271_" class="st15" d="M1693.2-2262.1
					c2.5-0.8,5.1-2.6,7.5-5.5c2.4-2.9,4.8-6.7,7.2-11.7l12-23.9h-12.8l-11.2,22.5c-2.9,5.9-5.8,9.7-8.4,11.7
					c-2.8,1.9-6.4,2.9-11.1,2.9h-13v-37.1h-11.9v87.7h26.8c10,0,17.6-2,22.5-6.3c4.9-4.2,7.5-10.5,7.5-19c0-5.5-1.3-10.1-3.8-13.7
					C1701.7-2258.2,1698-2260.6,1693.2-2262.1z M1663.4-2225.3v-31.2h14.9c5.8,0,10,1.3,13,4c2.9,2.6,4.3,6.5,4.3,11.7
					s-1.4,9-4.3,11.5c-2.9,2.6-7.2,4-13,4H1663.4z"/>
			</g>
			<g>
				<path id="DejaVuSans-55" class="st15" d="M1733.7-2215.5h11.9v-53.3c0-9.4,1.7-16.1,5.1-20.3c3.4-4.1,8.9-6.1,16.6-6.1
					c7.6,0,13.1,2,16.5,6.1c3.4,4.1,5.1,10.9,5.1,20.3v53.3h11.9v-54.7c0-11.4-2.9-20.1-8.5-25.9c-5.7-5.9-14-8.8-25-8.8
					c-11.1,0-19.5,2.9-25.1,8.8c-5.7,5.9-8.4,14.4-8.4,25.9v54.7H1733.7z"/>
			</g>
			<g>
				<path id="DejaVuSans-53" class="st15" d="M1875.8-2218.4v-11.5c-4.5,2.2-8.8,3.7-12.8,4.8c-4,1.1-7.8,1.6-11.5,1.6
					c-6.5,0-11.4-1.2-14.9-3.7c-3.5-2.5-5.3-6-5.3-10.7c0-3.8,1.2-6.9,3.5-8.8c2.3-1.9,6.7-3.6,13.2-4.8l7.2-1.4
					c8.9-1.7,15.4-4.7,19.6-8.9c4.2-4.2,6.3-10,6.3-17.1c0-8.5-2.9-14.9-8.5-19.4c-5.7-4.3-14.1-6.6-25-6.6c-4.1,0-8.5,0.5-13.2,1.4
					c-4.7,1-9.5,2.3-14.6,4.2v12.3c4.8-2.6,9.5-4.7,14.2-6.1c4.6-1.3,9.1-2,13.6-2c6.7,0,12,1.3,15.6,4c3.7,2.6,5.5,6.5,5.5,11.4
					c0,4.3-1.3,7.7-4,10.1c-2.6,2.4-7,4.2-13,5.4l-7.2,1.4c-8.9,1.8-15.3,4.6-19.2,8.3c-4,3.7-5.9,9-5.9,15.6
					c0,7.7,2.8,13.8,8.2,18.3c5.4,4.5,13,6.7,22.6,6.7c4.1,0,8.3-0.4,12.6-1.1C1866.9-2215.7,1871.4-2217,1875.8-2218.4z"/>
			</g>
		</g>
	</g>
</g>
<rect x="98.1" y="74.8" class="st16" width="14" height="10.3"/>
<text transform="matrix(1 0 0 1 98.0913 83.3367)" class="st1 st17 st18">%</text>
<rect x="771" y="33.4" class="st16" width="107.6" height="77.4"/>
<text transform="matrix(1 0 0 1 771.0264 41.9954)"><tspan x="0" y="0" class="st1 st19 st18">All three step off the </tspan><tspan x="0" y="14.4" class="st1 st19 st18">throttle due to the </tspan><tspan x="0" y="28.9" class="st1 st19 st18">yellow flag call.</tspan></text>
<path class="st1" d="M785.2,146.9c1.4,1.3,3.1,1.5,4.6,1.1c-4.6-19.7-2.6-40.5,5.6-59c0.6-1.4,2.7-0.2,2.1,1.2
	c-7.6,17-9.6,36.3-5.9,54.5c0.6-1.2,1.2-2.4,1.8-3.6c0.5-0.9,2-0.7,2.2,0.3c0.8,3.1-0.5,6.5-3.3,8.2c-2.8,1.7-6.4,1.1-8.8-1.1
	C782.3,147.6,784,145.9,785.2,146.9z"/>
<text transform="matrix(6.123234e-17 -1.113 1 6.814921e-17 55.6284 235.9075)" class="st1 st20 st21">Throttle</text>
<text transform="matrix(1 0 0 1 537.8594 378.0335)" class="st1 st20 st22">Distance</text>
<text transform="matrix(1 0 0 1 -86.8257 -167.9435)" class="st17" style="font-size:10px;">v</text>
<rect x="991.6" y="341.7" class="st16" width="30.5" height="15.4"/>
<text transform="matrix(0.8985 0 0 1 991.5801 352.1077)" class="st1 st19 st23">m</text>
<text transform="matrix(1 0 0 1 11.7233 31.7009)" class="st1 st20 st24">Two-thirds of the way through Lap 1, the top 3 drivers can no longer go full-throttle</text>
</svg>
