<?xml version="1.0" encoding="utf-8"?>
<!-- Generator: Adobe Illustrator 27.2.0, SVG Export Plug-In . SVG Version: 6.00 Build 0)  -->
<svg version="1.1" id="Layer_1" xmlns="http://www.w3.org/2000/svg" xmlns:xlink="http://www.w3.org/1999/xlink" x="0px" y="0px"
	 viewBox="0 0 847.5 288" style="enable-background:new 0 0 847.5 288;" xml:space="preserve">
<style type="text/css">
	.st0{fill:#FFFFFF;stroke:#000000;stroke-width:0.5;stroke-linejoin:round;}
	.st1{fill:#FFFFFF;}
	
		.st2{clip-path:url(#SVGID_00000048461659230736605670000007764356870237790614_);fill:none;stroke:#00FFFF;stroke-width:1.5;stroke-linecap:square;stroke-linejoin:round;}
	
		.st3{clip-path:url(#SVGID_00000147938296050308974560000001098073862616202916_);fill:none;stroke:#9F00C6;stroke-width:1.5;stroke-linecap:square;stroke-linejoin:round;}
	
		.st4{clip-path:url(#SVGID_00000128454470598472860910000000869157262548469397_);fill:none;stroke:#E23333;stroke-width:1.5;stroke-linecap:square;stroke-linejoin:round;}
	.st5{stroke:#FFFFFF;stroke-width:0.5;stroke-linecap:square;}
	.st6{fill:none;stroke:#000000;stroke-width:0.5;stroke-linecap:square;}
	.st7{stroke:#000000;stroke-width:0.5;stroke-linecap:square;}
	.st8{opacity:0.8;fill:#FFFFFF;stroke:#000000;enable-background:new    ;}
	.st9{fill:none;stroke:#00FFFF;stroke-width:1.5;stroke-linecap:square;stroke-linejoin:round;}
	.st10{fill:none;stroke:#9F00C6;stroke-width:1.5;stroke-linecap:square;stroke-linejoin:round;}
	.st11{fill:none;stroke:#E23333;stroke-width:1.5;stroke-linecap:square;stroke-linejoin:round;}
</style>
<rect width="847.5" height="288"/>
<g id="matplotlib.axis_1">
	<g id="xtick_1">
		<g id="line2d_1">
			<g>
				<g>
					<path id="ma0ec325868" class="st0" d="M82.8,256.3v3.5"/>
				</g>
			</g>
		</g>
		<g id="text_1">
			<g transform="translate(158.327841 270.918437) scale(0.1 -0.1)">
				<g>
					<path id="DejaVuSans-30" class="st1" d="M-755.3,66.4c-5.1,0-8.9-2.5-11.5-7.5s-3.8-12.5-3.8-22.5s1.3-17.5,3.8-22.5
						c2.6-5,6.4-7.5,11.5-7.5s8.9,2.5,11.5,7.5s3.8,12.5,3.8,22.5s-1.3,17.5-3.8,22.5C-746.4,63.9-750.2,66.4-755.3,66.4z
						 M-755.3,74.2c8.2,0,14.4-3.2,18.7-9.7s6.5-15.8,6.5-28.1s-2.2-21.6-6.5-28.1s-10.6-9.7-18.7-9.7c-8.2,0-14.4,3.2-18.7,9.7
						s-6.5,15.8-6.5,28.1s2.2,21.7,6.5,28.1C-769.8,71-763.5,74.2-755.3,74.2z"/>
				</g>
			</g>
		</g>
	</g>
	<g id="xtick_2">
		<g id="line2d_2">
			<g>
				<g>
					<path id="ma0ec325868_00000077283457598270606720000017307105215322514093_" class="st0" d="M251.7,256.3v3.5"/>
				</g>
			</g>
		</g>
		<g id="text_2">
			<g transform="translate(317.713567 270.918437) scale(0.1 -0.1)">
				<g>
					<path id="DejaVuSans-31" class="st1" d="M-774.7,8.3h16.1v55.6l-17.5-3.5v9l17.4,3.5h9.9V8.3h16.1V0h-42V8.3z"/>
				</g>
				<g>
					<path id="DejaVuSans-30_00000049927668699577525450000010434424006532201407_" class="st1" d="M-691.7,66.4
						c-5.1,0-8.9-2.5-11.5-7.5s-3.8-12.5-3.8-22.5s1.3-17.5,3.8-22.5c2.6-5,6.4-7.5,11.5-7.5s8.9,2.5,11.5,7.5s3.8,12.5,3.8,22.5
						s-1.3,17.5-3.8,22.5C-682.8,63.9-686.6,66.4-691.7,66.4z M-691.7,74.2c8.2,0,14.4-3.2,18.7-9.7s6.5-15.8,6.5-28.1
						s-2.2-21.6-6.5-28.1s-10.6-9.7-18.7-9.7c-8.2,0-14.4,3.2-18.7,9.7s-6.5,15.8-6.5,28.1s2.2,21.7,6.5,28.1
						C-706.1,71-699.9,74.2-691.7,74.2z"/>
				</g>
				<g>
					<path id="DejaVuSans-30_00000096029599595009725650000004230335939338243259_" class="st1" d="M-628.1,66.4
						c-5.1,0-8.9-2.5-11.5-7.5s-3.8-12.5-3.8-22.5s1.3-17.5,3.8-22.5c2.6-5,6.4-7.5,11.5-7.5s8.9,2.5,11.5,7.5s3.8,12.5,3.8,22.5
						s-1.3,17.5-3.8,22.5S-623,66.4-628.1,66.4z M-628.1,74.2c8.2,0,14.4-3.2,18.7-9.7s6.5-15.8,6.5-28.1s-2.2-21.6-6.5-28.1
						s-10.6-9.7-18.7-9.7c-8.2,0-14.4,3.2-18.7,9.7s-6.5,15.8-6.5,28.1s2.2,21.7,6.5,28.1C-642.5,71-636.3,74.2-628.1,74.2z"/>
				</g>
				<g>
					<path id="DejaVuSans-30_00000119806805582221941320000002077756627094103728_" class="st1" d="M-564.5,66.4
						c-5.1,0-8.9-2.5-11.5-7.5s-3.8-12.5-3.8-22.5s1.3-17.5,3.8-22.5c2.6-5,6.4-7.5,11.5-7.5s8.9,2.5,11.5,7.5s3.8,12.5,3.8,22.5
						s-1.3,17.5-3.8,22.5S-559.4,66.4-564.5,66.4z M-564.5,74.2c8.2,0,14.4-3.2,18.7-9.7s6.5-15.8,6.5-28.1s-2.2-21.6-6.5-28.1
						s-10.6-9.7-18.7-9.7c-8.2,0-14.4,3.2-18.7,9.7s-6.5,15.8-6.5,28.1s2.2,21.7,6.5,28.1C-578.9,71-572.6,74.2-564.5,74.2z"/>
				</g>
			</g>
		</g>
	</g>
	<g id="xtick_3">
		<g id="line2d_3">
			<g>
				<g>
					<path id="ma0ec325868_00000163048360243713804880000018122899811033899168_" class="st0" d="M420.7,256.3v3.5"/>
				</g>
			</g>
		</g>
		<g id="text_3">
			<g transform="translate(486.643044 270.918437) scale(0.1 -0.1)">
				<g>
					<path id="DejaVuSans-32" class="st1" d="M-767.9,8.3h34.4V0h-46.3v8.3c3.7,3.9,8.8,9.1,15.3,15.6s10.5,10.7,12.2,12.6
						c3.2,3.5,5.4,6.5,6.6,9c1.3,2.5,1.9,4.9,1.9,7.2c0,3.9-1.4,7-4.1,9.5c-2.7,2.4-6.3,3.7-10.6,3.7c-3.1,0-6.4-0.5-9.8-1.6
						c-3.4-1.1-7.1-2.7-11-4.9v10c4,1.6,7.7,2.8,11.1,3.6c3.5,0.8,6.6,1.2,9.5,1.2c7.6,0,13.6-1.9,18.1-5.7
						c4.5-3.8,6.7-8.8,6.7-15.1c0-3-0.6-5.8-1.7-8.5c-1.1-2.7-3.2-5.8-6.1-9.5c-0.8-0.9-3.4-3.7-7.8-8.2
						C-753.8,22.7-760,16.4-767.9,8.3z"/>
				</g>
				<g>
					<path id="DejaVuSans-30_00000082352994208277430010000012661090470059183497_" class="st1" d="M-691.7,66.4
						c-5.1,0-8.9-2.5-11.5-7.5s-3.8-12.5-3.8-22.5s1.3-17.5,3.8-22.5c2.6-5,6.4-7.5,11.5-7.5s8.9,2.5,11.5,7.5s3.8,12.5,3.8,22.5
						s-1.3,17.5-3.8,22.5C-682.8,63.9-686.6,66.4-691.7,66.4z M-691.7,74.2c8.2,0,14.4-3.2,18.7-9.7s6.5-15.8,6.5-28.1
						s-2.2-21.6-6.5-28.1s-10.6-9.7-18.7-9.7c-8.2,0-14.4,3.2-18.7,9.7s-6.5,15.8-6.5,28.1s2.2,21.7,6.5,28.1
						C-706.1,71-699.9,74.2-691.7,74.2z"/>
				</g>
				<g>
					<path id="DejaVuSans-30_00000100352297254193324000000014128119459440386744_" class="st1" d="M-628.1,66.4
						c-5.1,0-8.9-2.5-11.5-7.5s-3.8-12.5-3.8-22.5s1.3-17.5,3.8-22.5c2.6-5,6.4-7.5,11.5-7.5s8.9,2.5,11.5,7.5s3.8,12.5,3.8,22.5
						s-1.3,17.5-3.8,22.5S-623,66.4-628.1,66.4z M-628.1,74.2c8.2,0,14.4-3.2,18.7-9.7s6.5-15.8,6.5-28.1s-2.2-21.6-6.5-28.1
						s-10.6-9.7-18.7-9.7c-8.2,0-14.4,3.2-18.7,9.7s-6.5,15.8-6.5,28.1s2.2,21.7,6.5,28.1C-642.5,71-636.3,74.2-628.1,74.2z"/>
				</g>
				<g>
					<path id="DejaVuSans-30_00000066473761793607258500000005787744618234792619_" class="st1" d="M-564.5,66.4
						c-5.1,0-8.9-2.5-11.5-7.5s-3.8-12.5-3.8-22.5s1.3-17.5,3.8-22.5c2.6-5,6.4-7.5,11.5-7.5s8.9,2.5,11.5,7.5s3.8,12.5,3.8,22.5
						s-1.3,17.5-3.8,22.5S-559.4,66.4-564.5,66.4z M-564.5,74.2c8.2,0,14.4-3.2,18.7-9.7s6.5-15.8,6.5-28.1s-2.2-21.6-6.5-28.1
						s-10.6-9.7-18.7-9.7c-8.2,0-14.4,3.2-18.7,9.7s-6.5,15.8-6.5,28.1s2.2,21.7,6.5,28.1C-578.9,71-572.6,74.2-564.5,74.2z"/>
				</g>
			</g>
		</g>
	</g>
	<g id="xtick_4">
		<g id="line2d_4">
			<g>
				<g>
					<path id="ma0ec325868_00000046329645681000238010000007478846046972601232_" class="st0" d="M589.6,256.3v3.5"/>
				</g>
			</g>
		</g>
		<g id="text_4">
			<g transform="translate(655.57252 270.918437) scale(0.1 -0.1)">
				<g>
					<path id="DejaVuSans-33" class="st1" d="M-746.5,39.3c4.7-1,8.4-3.1,11-6.3c2.7-3.2,4-7.1,4-11.8c0-7.2-2.5-12.8-7.4-16.7
						s-12-5.9-21.1-5.9c-3.1,0-6.2,0.3-9.4,0.9s-6.6,1.5-10,2.7v9.5c2.7-1.6,5.7-2.8,9-3.6c3.3-0.8,6.7-1.2,10.2-1.2
						c6.2,0,10.9,1.2,14.1,3.7c3.2,2.4,4.9,6,4.9,10.6c0,4.3-1.5,7.7-4.5,10.1s-7.2,3.6-12.6,3.6h-8.5V43h8.9c4.8,0,8.6,1,11.1,2.9
						c2.6,1.9,3.9,4.7,3.9,8.4c0,3.7-1.3,6.6-4,8.6c-2.6,2-6.4,3-11.4,3c-2.7,0-5.6-0.3-8.7-0.9c-3.1-0.6-6.5-1.5-10.2-2.7v8.8
						c3.8,1,7.3,1.8,10.5,2.3c3.3,0.5,6.4,0.8,9.2,0.8c7.5,0,13.4-1.7,17.8-5.1c4.4-3.4,6.5-8,6.5-13.8c0-4-1.2-7.5-3.5-10.2
						S-742.3,40.4-746.5,39.3z"/>
				</g>
				<g>
					<path id="DejaVuSans-30_00000147204703673984486800000008232525909757303456_" class="st1" d="M-691.7,66.4
						c-5.1,0-8.9-2.5-11.5-7.5s-3.8-12.5-3.8-22.5s1.3-17.5,3.8-22.5c2.6-5,6.4-7.5,11.5-7.5s8.9,2.5,11.5,7.5s3.8,12.5,3.8,22.5
						s-1.3,17.5-3.8,22.5C-682.8,63.9-686.6,66.4-691.7,66.4z M-691.7,74.2c8.2,0,14.4-3.2,18.7-9.7s6.5-15.8,6.5-28.1
						s-2.2-21.6-6.5-28.1s-10.6-9.7-18.7-9.7c-8.2,0-14.4,3.2-18.7,9.7s-6.5,15.8-6.5,28.1s2.2,21.7,6.5,28.1
						C-706.1,71-699.9,74.2-691.7,74.2z"/>
				</g>
				<g>
					<path id="DejaVuSans-30_00000082361923639282949070000010773726816483686052_" class="st1" d="M-628.1,66.4
						c-5.1,0-8.9-2.5-11.5-7.5s-3.8-12.5-3.8-22.5s1.3-17.5,3.8-22.5c2.6-5,6.4-7.5,11.5-7.5s8.9,2.5,11.5,7.5s3.8,12.5,3.8,22.5
						s-1.3,17.5-3.8,22.5S-623,66.4-628.1,66.4z M-628.1,74.2c8.2,0,14.4-3.2,18.7-9.7s6.5-15.8,6.5-28.1s-2.2-21.6-6.5-28.1
						s-10.6-9.7-18.7-9.7c-8.2,0-14.4,3.2-18.7,9.7s-6.5,15.8-6.5,28.1s2.2,21.7,6.5,28.1C-642.5,71-636.3,74.2-628.1,74.2z"/>
				</g>
				<g>
					<path id="DejaVuSans-30_00000092433013185929140980000017766289666794081414_" class="st1" d="M-564.5,66.4
						c-5.1,0-8.9-2.5-11.5-7.5s-3.8-12.5-3.8-22.5s1.3-17.5,3.8-22.5c2.6-5,6.4-7.5,11.5-7.5s8.9,2.5,11.5,7.5s3.8,12.5,3.8,22.5
						s-1.3,17.5-3.8,22.5S-559.4,66.4-564.5,66.4z M-564.5,74.2c8.2,0,14.4-3.2,18.7-9.7s6.5-15.8,6.5-28.1s-2.2-21.6-6.5-28.1
						s-10.6-9.7-18.7-9.7c-8.2,0-14.4,3.2-18.7,9.7s-6.5,15.8-6.5,28.1s2.2,21.7,6.5,28.1C-578.9,71-572.6,74.2-564.5,74.2z"/>
				</g>
			</g>
		</g>
	</g>
	<g id="xtick_5">
		<g id="line2d_5">
			<g>
				<g>
					<path id="ma0ec325868_00000158723979303878750400000012153238996161146017_" class="st0" d="M758.5,256.3v3.5"/>
				</g>
			</g>
		</g>
		<g id="text_5">
			<g transform="translate(824.501997 270.918437) scale(0.1 -0.1)">
				<g>
					<path id="DejaVuSans-34" class="st1" d="M-749.3,64.3l-24.9-38.9h24.9V64.3z M-751.9,72.9h12.4V25.4h10.4v-8.2h-10.4V0h-9.8
						v17.2h-32.9v9.5L-751.9,72.9z"/>
				</g>
				<g>
					<path id="DejaVuSans-30_00000158716800432931835030000014019629162392704431_" class="st1" d="M-691.7,66.4
						c-5.1,0-8.9-2.5-11.5-7.5s-3.8-12.5-3.8-22.5s1.3-17.5,3.8-22.5c2.6-5,6.4-7.5,11.5-7.5s8.9,2.5,11.5,7.5s3.8,12.5,3.8,22.5
						s-1.3,17.5-3.8,22.5C-682.8,63.9-686.6,66.4-691.7,66.4z M-691.7,74.2c8.2,0,14.4-3.2,18.7-9.7s6.5-15.8,6.5-28.1
						s-2.2-21.6-6.5-28.1s-10.6-9.7-18.7-9.7c-8.2,0-14.4,3.2-18.7,9.7s-6.5,15.8-6.5,28.1s2.2,21.7,6.5,28.1
						C-706.1,71-699.9,74.2-691.7,74.2z"/>
				</g>
				<g>
					<path id="DejaVuSans-30_00000011737026683558300670000015173857588049815942_" class="st1" d="M-628.1,66.4
						c-5.1,0-8.9-2.5-11.5-7.5s-3.8-12.5-3.8-22.5s1.3-17.5,3.8-22.5c2.6-5,6.4-7.5,11.5-7.5s8.9,2.5,11.5,7.5s3.8,12.5,3.8,22.5
						s-1.3,17.5-3.8,22.5S-623,66.4-628.1,66.4z M-628.1,74.2c8.2,0,14.4-3.2,18.7-9.7s6.5-15.8,6.5-28.1s-2.2-21.6-6.5-28.1
						s-10.6-9.7-18.7-9.7c-8.2,0-14.4,3.2-18.7,9.7s-6.5,15.8-6.5,28.1s2.2,21.7,6.5,28.1C-642.5,71-636.3,74.2-628.1,74.2z"/>
				</g>
				<g>
					<path id="DejaVuSans-30_00000176725813045441297950000006279107544535686049_" class="st1" d="M-564.5,66.4
						c-5.1,0-8.9-2.5-11.5-7.5s-3.8-12.5-3.8-22.5s1.3-17.5,3.8-22.5c2.6-5,6.4-7.5,11.5-7.5s8.9,2.5,11.5,7.5s3.8,12.5,3.8,22.5
						s-1.3,17.5-3.8,22.5S-559.4,66.4-564.5,66.4z M-564.5,74.2c8.2,0,14.4-3.2,18.7-9.7s6.5-15.8,6.5-28.1s-2.2-21.6-6.5-28.1
						s-10.6-9.7-18.7-9.7c-8.2,0-14.4,3.2-18.7,9.7s-6.5,15.8-6.5,28.1s2.2,21.7,6.5,28.1C-578.9,71-572.6,74.2-564.5,74.2z"/>
				</g>
			</g>
		</g>
	</g>
</g>
<g id="matplotlib.axis_2">
	<g id="ytick_1">
		<g id="line2d_6">
			<g>
				<g>
					<path id="mc869108818" class="st0" d="M47.3,246.2h-3.5"/>
				</g>
			</g>
		</g>
		<g id="text_6">
			<g transform="translate(112.6375 250.039219) scale(0.1 -0.1)">
				<g>
					<path id="DejaVuSans-30_00000023998285585592658690000016211039275142477493_" class="st1" d="M-755.3,66.4
						c-5.1,0-8.9-2.5-11.5-7.5s-3.8-12.5-3.8-22.5s1.3-17.5,3.8-22.5c2.6-5,6.4-7.5,11.5-7.5s8.9,2.5,11.5,7.5s3.8,12.5,3.8,22.5
						s-1.3,17.5-3.8,22.5C-746.4,63.9-750.2,66.4-755.3,66.4z M-755.3,74.2c8.2,0,14.4-3.2,18.7-9.7s6.5-15.8,6.5-28.1
						s-2.2-21.6-6.5-28.1s-10.6-9.7-18.7-9.7c-8.2,0-14.4,3.2-18.7,9.7s-6.5,15.8-6.5,28.1s2.2,21.7,6.5,28.1
						C-769.8,71-763.5,74.2-755.3,74.2z"/>
				</g>
			</g>
		</g>
	</g>
	<g id="ytick_2">
		<g id="line2d_7">
			<g>
				<g>
					<path id="mc869108818_00000018919032297514291300000008704082162917893255_" class="st0" d="M47.3,205.9h-3.5"/>
				</g>
			</g>
		</g>
		<g id="text_7">
			<g transform="translate(106.275 209.719219) scale(0.1 -0.1)">
				<g>
					<path id="DejaVuSans-32_00000165928574177253433270000001070469143906169226_" class="st1" d="M-767.9,8.3h34.4V0h-46.3v8.3
						c3.7,3.9,8.8,9.1,15.3,15.6s10.5,10.7,12.2,12.6c3.2,3.5,5.4,6.5,6.6,9c1.3,2.5,1.9,4.9,1.9,7.2c0,3.9-1.4,7-4.1,9.5
						c-2.7,2.4-6.3,3.7-10.6,3.7c-3.1,0-6.4-0.5-9.8-1.6c-3.4-1.1-7.1-2.7-11-4.9v10c4,1.6,7.7,2.8,11.1,3.6
						c3.5,0.8,6.6,1.2,9.5,1.2c7.6,0,13.6-1.9,18.1-5.7c4.5-3.8,6.7-8.8,6.7-15.1c0-3-0.6-5.8-1.7-8.5c-1.1-2.7-3.2-5.8-6.1-9.5
						c-0.8-0.9-3.4-3.7-7.8-8.2C-753.8,22.7-760,16.4-767.9,8.3z"/>
				</g>
				<g>
					<path id="DejaVuSans-30_00000170276155898603416550000011065909798552742069_" class="st1" d="M-691.7,66.4
						c-5.1,0-8.9-2.5-11.5-7.5s-3.8-12.5-3.8-22.5s1.3-17.5,3.8-22.5c2.6-5,6.4-7.5,11.5-7.5s8.9,2.5,11.5,7.5s3.8,12.5,3.8,22.5
						s-1.3,17.5-3.8,22.5C-682.8,63.9-686.6,66.4-691.7,66.4z M-691.7,74.2c8.2,0,14.4-3.2,18.7-9.7s6.5-15.8,6.5-28.1
						s-2.2-21.6-6.5-28.1s-10.6-9.7-18.7-9.7c-8.2,0-14.4,3.2-18.7,9.7s-6.5,15.8-6.5,28.1s2.2,21.7,6.5,28.1
						C-706.1,71-699.9,74.2-691.7,74.2z"/>
				</g>
			</g>
		</g>
	</g>
	<g id="ytick_3">
		<g id="line2d_8">
			<g>
				<g>
					<path id="mc869108818_00000011726130851211105810000002565441102811148459_" class="st0" d="M47.3,165.6h-3.5"/>
				</g>
			</g>
		</g>
		<g id="text_8">
			<g transform="translate(106.275 169.399219) scale(0.1 -0.1)">
				<g>
					<path id="DejaVuSans-34_00000147180841542231855560000014291348924645182364_" class="st1" d="M-749.3,64.3l-24.9-38.9h24.9
						V64.3z M-751.9,72.9h12.4V25.4h10.4v-8.2h-10.4V0h-9.8v17.2h-32.9v9.5L-751.9,72.9z"/>
				</g>
				<g>
					<path id="DejaVuSans-30_00000160171856671940974390000002091275977595606923_" class="st1" d="M-691.7,66.4
						c-5.1,0-8.9-2.5-11.5-7.5s-3.8-12.5-3.8-22.5s1.3-17.5,3.8-22.5c2.6-5,6.4-7.5,11.5-7.5s8.9,2.5,11.5,7.5s3.8,12.5,3.8,22.5
						s-1.3,17.5-3.8,22.5C-682.8,63.9-686.6,66.4-691.7,66.4z M-691.7,74.2c8.2,0,14.4-3.2,18.7-9.7s6.5-15.8,6.5-28.1
						s-2.2-21.6-6.5-28.1s-10.6-9.7-18.7-9.7c-8.2,0-14.4,3.2-18.7,9.7s-6.5,15.8-6.5,28.1s2.2,21.7,6.5,28.1
						C-706.1,71-699.9,74.2-691.7,74.2z"/>
				</g>
			</g>
		</g>
	</g>
	<g id="ytick_4">
		<g id="line2d_9">
			<g>
				<g>
					<path id="mc869108818_00000106839692925589377400000005502694621587874195_" class="st0" d="M47.3,125.3h-3.5"/>
				</g>
			</g>
		</g>
		<g id="text_9">
			<g transform="translate(106.275 129.079219) scale(0.1 -0.1)">
				<g>
					<path id="DejaVuSans-36" class="st1" d="M-754.1,40.4c-4.4,0-7.9-1.5-10.5-4.5s-3.9-7.2-3.9-12.4s1.3-9.4,3.9-12.4
						c2.6-3,6.1-4.6,10.5-4.6s7.9,1.5,10.5,4.6s3.9,7.2,3.9,12.4c0,5.3-1.3,9.4-3.9,12.4S-749.7,40.4-754.1,40.4z M-734.5,71.3v-9
						c-2.5,1.2-5,2.1-7.5,2.7s-5,0.9-7.5,0.9c-6.5,0-11.5-2.2-14.9-6.6s-5.4-11-5.9-19.9c1.9,2.8,4.3,5,7.2,6.5s6.1,2.3,9.6,2.3
						c7.3,0,13.1-2.2,17.4-6.7c4.2-4.4,6.4-10.5,6.4-18.1c0-7.5-2.2-13.5-6.6-18c-4.4-4.5-10.3-6.8-17.7-6.8
						c-8.4,0-14.9,3.2-19.3,9.7c-4.5,6.5-6.7,15.8-6.7,28.1c0,11.5,2.7,20.7,8.2,27.6c5.5,6.9,12.8,10.3,22,10.3
						c2.5,0,5-0.2,7.5-0.7C-739.9,73-737.3,72.3-734.5,71.3z"/>
				</g>
				<g>
					<path id="DejaVuSans-30_00000152957468468995975280000010763937859699198351_" class="st1" d="M-691.7,66.4
						c-5.1,0-8.9-2.5-11.5-7.5s-3.8-12.5-3.8-22.5s1.3-17.5,3.8-22.5c2.6-5,6.4-7.5,11.5-7.5s8.9,2.5,11.5,7.5s3.8,12.5,3.8,22.5
						s-1.3,17.5-3.8,22.5C-682.8,63.9-686.6,66.4-691.7,66.4z M-691.7,74.2c8.2,0,14.4-3.2,18.7-9.7s6.5-15.8,6.5-28.1
						s-2.2-21.6-6.5-28.1s-10.6-9.7-18.7-9.7c-8.2,0-14.4,3.2-18.7,9.7s-6.5,15.8-6.5,28.1s2.2,21.7,6.5,28.1
						C-706.1,71-699.9,74.2-691.7,74.2z"/>
				</g>
			</g>
		</g>
	</g>
	<g id="ytick_5">
		<g id="line2d_10">
			<g>
				<g>
					<path id="mc869108818_00000018948714191944381580000009487233767635987092_" class="st0" d="M47.3,85h-3.5"/>
				</g>
			</g>
		</g>
		<g id="text_10">
			<g transform="translate(106.275 88.759219) scale(0.1 -0.1)">
				<g>
					<path id="DejaVuSans-38" class="st1" d="M-755.3,34.6c-4.7,0-8.4-1.3-11.1-3.8c-2.7-2.5-4-6-4-10.3c0-4.4,1.3-7.8,4-10.4
						c2.7-2.5,6.4-3.8,11.1-3.8s8.4,1.3,11.1,3.8c2.7,2.5,4.1,6,4.1,10.3c0,4.4-1.3,7.8-4,10.3C-746.9,33.4-750.6,34.6-755.3,34.6z
						 M-765.2,38.8c-4.2,1-7.5,3-9.9,5.9s-3.5,6.4-3.5,10.6c0,5.8,2.1,10.4,6.2,13.8c4.2,3.4,9.8,5.1,17.1,5.1s13-1.7,17.1-5.1
						s6.2-8,6.2-13.8c0-4.2-1.2-7.7-3.5-10.6c-2.4-2.9-5.6-4.9-9.8-5.9c4.8-1.1,8.4-3.3,11.1-6.5c2.7-3.2,4-7.2,4-11.8
						c0-7.1-2.2-12.5-6.5-16.3s-10.5-5.7-18.5-5.7s-14.2,1.9-18.5,5.7s-6.5,9.2-6.5,16.3c0,4.6,1.3,8.6,4,11.8
						C-773.7,35.5-770,37.7-765.2,38.8z M-768.8,54.4c0-3.8,1.2-6.7,3.5-8.8c2.4-2.1,5.7-3.2,9.9-3.2s7.6,1.1,9.9,3.2
						c2.4,2.1,3.6,5.1,3.6,8.8c0,3.8-1.2,6.7-3.6,8.8c-2.4,2.1-5.7,3.2-9.9,3.2c-4.3,0-7.6-1.1-9.9-3.2
						C-767.6,61.1-768.8,58.2-768.8,54.4z"/>
				</g>
				<g>
					<path id="DejaVuSans-30_00000132792214580110383910000004384152210208006842_" class="st1" d="M-691.7,66.4
						c-5.1,0-8.9-2.5-11.5-7.5s-3.8-12.5-3.8-22.5s1.3-17.5,3.8-22.5c2.6-5,6.4-7.5,11.5-7.5s8.9,2.5,11.5,7.5s3.8,12.5,3.8,22.5
						s-1.3,17.5-3.8,22.5C-682.8,63.9-686.6,66.4-691.7,66.4z M-691.7,74.2c8.2,0,14.4-3.2,18.7-9.7s6.5-15.8,6.5-28.1
						s-2.2-21.6-6.5-28.1s-10.6-9.7-18.7-9.7c-8.2,0-14.4,3.2-18.7,9.7s-6.5,15.8-6.5,28.1s2.2,21.7,6.5,28.1
						C-706.1,71-699.9,74.2-691.7,74.2z"/>
				</g>
			</g>
		</g>
	</g>
	<g id="ytick_6">
		<g id="line2d_11">
			<g>
				<g>
					<path id="mc869108818_00000154384566901288898060000006856601223532563892_" class="st0" d="M47.3,44.6h-3.5"/>
				</g>
			</g>
		</g>
		<g id="text_11">
			<g transform="translate(99.9125 48.439219) scale(0.1 -0.1)">
				<g>
					<path id="DejaVuSans-31_00000006695238101888945950000008486168570698553783_" class="st1" d="M-774.7,8.3h16.1v55.6l-17.5-3.5
						v9l17.4,3.5h9.9V8.3h16.1V0h-42V8.3z"/>
				</g>
				<g>
					<path id="DejaVuSans-30_00000154419188665946687630000013166475100242904734_" class="st1" d="M-691.7,66.4
						c-5.1,0-8.9-2.5-11.5-7.5s-3.8-12.5-3.8-22.5s1.3-17.5,3.8-22.5c2.6-5,6.4-7.5,11.5-7.5s8.9,2.5,11.5,7.5s3.8,12.5,3.8,22.5
						s-1.3,17.5-3.8,22.5C-682.8,63.9-686.6,66.4-691.7,66.4z M-691.7,74.2c8.2,0,14.4-3.2,18.7-9.7s6.5-15.8,6.5-28.1
						s-2.2-21.6-6.5-28.1s-10.6-9.7-18.7-9.7c-8.2,0-14.4,3.2-18.7,9.7s-6.5,15.8-6.5,28.1s2.2,21.7,6.5,28.1
						C-706.1,71-699.9,74.2-691.7,74.2z"/>
				</g>
				<g>
					<path id="DejaVuSans-30_00000036219724953574839320000009188209450694792347_" class="st1" d="M-628.1,66.4
						c-5.1,0-8.9-2.5-11.5-7.5s-3.8-12.5-3.8-22.5s1.3-17.5,3.8-22.5c2.6-5,6.4-7.5,11.5-7.5s8.9,2.5,11.5,7.5s3.8,12.5,3.8,22.5
						s-1.3,17.5-3.8,22.5S-623,66.4-628.1,66.4z M-628.1,74.2c8.2,0,14.4-3.2,18.7-9.7s6.5-15.8,6.5-28.1s-2.2-21.6-6.5-28.1
						s-10.6-9.7-18.7-9.7c-8.2,0-14.4,3.2-18.7,9.7s-6.5,15.8-6.5,28.1s2.2,21.7,6.5,28.1C-642.5,71-636.3,74.2-628.1,74.2z"/>
				</g>
			</g>
		</g>
	</g>
</g>
<g>
	<g>
		<defs>
			<rect id="SVGID_1_" x="47.3" y="34.6" width="781.2" height="221.8"/>
		</defs>
		<clipPath id="SVGID_00000047780551321904630620000008309978812342778536_">
			<use xlink:href="#SVGID_1_"  style="overflow:visible;"/>
		</clipPath>
		
			<path style="clip-path:url(#SVGID_00000047780551321904630620000008309978812342778536_);fill:none;stroke:#00FFFF;stroke-width:1.5;stroke-linecap:square;stroke-linejoin:round;" d="
			M82.8,224.1v-2l0,0l0.6-40.3l0.5-18.1h0.3l0.9-2l2.1-52.4L89.4,85l1.2-4l1.8-36.3h26.4l3.9,201.6h14.2l1.6-10.1l2.1-4l0.8,4l0.9,4
			l0.9,6l1.9-32.3l2.4-22.2l1-30.2l0.8-44.4l1.3-8.1l1.2,26.2l2.3,110.9L155,236l2.3-74.6l1.2-16.1l1-36.3l2-38.3l1.7-26.2h120.3
			l4.1,201.6h25.8l2.7-18.1l3.7-76.6l1.9-18.1l1.1-28.2l2-22.2l1.5-4l3.6-34.3h61.8l4.7,94.8l2.1,106.8h19.9l2.9-46.4l3.2-38.3
			l3.9-12.1l1.4-4h1.8l2.1,12.1l2.1,6l2.5-14.1l2.8-12.1l1.4,2l1.8-10.1l1.4-10.1l3.3,2l3.7,125h16.7l1.7-14.1l1.2-54.4l1.2,4
			l4.2-74.6l1.1-18.1l1.1,157.2h9.5l1.4-50.4l2-8.1l1.2-34.3l1.3-4l3-26.2L500,109l3.2-16.1l1.1-30.2l1.8-18.1h12.5l1.9,201.6h19.8
			l0.8-40.3l1.1-6l1-26.2l1.6-6l1.9-22.2l0.8-12.1l0.8-46.4l2.4-20.2l1.2-22.2h3.8l3,4L561,89l2.8-6l1.4,18.1l1.8,145.2h41.2l0.6-6
			l1.1-4l0.6-4h0.5l1-22.2l0.5-8.1l1.4-4l1.2-2l0.8,12.1l1.4,38.3h1.7l0.9-12.1h0.9l0.6-2l3.6-24.2l0.6-10.1l1.7-16.1l1.8-20.2
			l1.6-26.2l1-4l0.9-6l2.4-6l1-2l1.6-28.2l1.4,2l1.4-10.1l4.7-36.3h10.1l1.9,201.6h20.2l2.1-42.3l1.2-16.1l1.2-2l1.9-10.1h1l3-20.2
			l1-22.2l1.3-8.1l2.2-18.1l1.1,4h2.9l2.2-4h1.6l2.6-4l2-6l2.4-18.1l2.5,2l2.6-8.1l4.2-28.2h25.6l1.8,201.6h19l3.8-32.3h1.9
			l1.9-70.6h2.6l2.7-14.1l2.3-6l1.6,2h5.1l8.9,14.1l0,0"/>
	</g>
</g>
<g id="line2d_13">
	<g>
		<g>
			<defs>
				<rect id="SVGID_00000163053652415109409330000012461916391992525467_" x="47.3" y="34.6" width="781.2" height="221.8"/>
			</defs>
			<clipPath id="SVGID_00000041286617443883261150000006878784329598640035_">
				<use xlink:href="#SVGID_00000163053652415109409330000012461916391992525467_"  style="overflow:visible;"/>
			</clipPath>
			
				<path style="clip-path:url(#SVGID_00000041286617443883261150000006878784329598640035_);fill:none;stroke:#9F00C6;stroke-width:1.5;stroke-linecap:square;stroke-linejoin:round;" d="
				M82.8,203.9h0.3l0.3-2l0.9-24.2l0.4-22.2l2.5-54.4l1,6l2.5-26.2L92,68.8l2.1-24.2h27.6l3.6,175.4l2.4,24.2l1.9-18.1h2l1.6-22.2
				l1.1-22.2l1.3,30.2l1.1,6l0.9-2l1.7,6l2.1,4l0.8-2l0.9-20.2l0.9-26.2l2-36.3l3.1-52.4l1.3,10.1l1,38.3l1.5,48.4l1.3-24.2l2.6-8.1
				l1-38.3l2.7-10.1l1.4-20.2l1.2-2l2.6-38.3h124l2.9,30.2l3.7,153.2l1.9,18.1h10.3l3-2l2-2l1.9-10.1l2.1-26.2l2.7-82.7l1.1-24.2
				l5.2-50.4l1.3-4h73.7l4.7,84.7l1.9,96.8l1.9,6l2.6-2l3.7-10.1l1.6-8.1l3.5-18.1l2.7-22.2l2.3-24.2l3-24.2l3.3,34.3l4-50.4l1.5-6
				l1.8,4l4.5-24.2l2.7,8.1l3.2-2l1.6,18.1l1.9,32.3l1.5,108.9h16l1.1-52.4l1.7-28.2l1.9-16.1l1.3-16.1l1.5-28.2l2.1-14l1.4,96.8
				l1.8-14.1l1.2,28.2l1.1,12.1l0.9,18.1l1.3,4l0.8,6h1l2.2-28.2l1.9-70.6l2.9-22.2l2.5-24.2l1.6-20.2l1.7-4l2.4-24.2l1.6-4h8.2
				l2.3,2l2.6,187.5l1.8,12.1h17l1.4-16.1l0.8-44.4l0.6-16.1l1.5-24.2l0.9-2l0.9-20.2l1.4-12.1l3.6-44.4l2.9-22.2h12.3l3.6,12.1
				l2.8,2l3.3,20.2l1.7,2L579,117l4.1,102.8l2.7,26.2h25.6l0.9-16.1l0.4-10.1l0.9-4l0.6-20.2l1.1-30.2h0.7l0.6-2l1.3-14.1l0.7-16.1
				l1.8,42.3l1.5,2l0.9-2l1.8-42.3l1-14.1l2.7-16.1l1.5-20.2h1l3.4-2l3.4,30.2l1.3-2l3.2,12.1l3.2-2l2.6-12.1h1.7l1.4,20.2
				l3.2,118.9h8.9l2.2-24.2l1.2-26.2l1-12.1l1.2-8.1l1,10.1l1,2l1-2l1.5,2l2.1-18.1l2.7-20.2l2.1-6l1.5-6l1.5-2l2.1-4l2.5-12.1
				l1.4-4h1.4l2.4,2l1.2,6l1.8,6l1.9-2l1.3-4h1.6l2.6-12.1l1.3,6l2,4l1.4,2l2.4-16.1l1.7,10.1l2.9-6l2.2-6l2.6-6h2.6l2.7-2l4.3,8.1
				l3.2-6l3.2-4l2.4-4l1.6,2l2.5,2h1.7l3-12.1l3.4,2h1.7l2.6-6l1.7,6l2.6-6l3.5,2h1.8l1.8,8.1l3.2-4l5.5,4l2.3-2h4.6l2.3-2l2.3,2
				h6.6l0,0"/>
		</g>
	</g>
</g>
<g>
	<g>
		<defs>
			<rect id="SVGID_00000136410380128121056090000004993634885027624597_" x="47.3" y="34.6" width="781.2" height="221.8"/>
		</defs>
		<clipPath id="SVGID_00000077309004256327570980000006615349908455801780_">
			<use xlink:href="#SVGID_00000136410380128121056090000004993634885027624597_"  style="overflow:visible;"/>
		</clipPath>
		
			<path style="clip-path:url(#SVGID_00000077309004256327570980000006615349908455801780_);fill:none;stroke:#E23333;stroke-width:1.5;stroke-linecap:square;stroke-linejoin:round;" d="
			M82.8,201.9l0.1,2l0.2-2h0.2l0.3-4l0.3-16.1l1-34.3l2-32.3h0.7l1-22.2l2.6-20.2l1.4-28.2h30.3l3,201.6h12.2l1.5-14.1l2.1-74.6
			l0.8-14.1l1.1-28.2l1.1-34.3l2.6-12.1l3.5,123l1.4-20.2l1.1-48.4h1.7l1.4-30.2l3.1-40.3l1.3-8.1h128.5l3.4,24.2l4.3,177.4h15
			l2.7-10.1l1.9-118.9l2-34.3l2.4-22.2l3.3-16.1h74.5l5.2,118.9l2,60.5l1.9,4l1.9,12.1l3.9-2h1.7l1.7-2l2.4-2l3.4-8.1l1.5-12.1
			l3.2-82.7h2.5l2.2-12.1l2.9-12.1l3.3-16.1l4.2-34.3l1.6,4l2-4l2.4,24.2l2.5,153.2l2.7,12.1h16.7l0.8-46.4l1-34.3l1.4-2l1.3-16.1
			l2-36.3l2.3-8.1l1.7,56.4l1.6,86.7h7.4l1.1-40.3l0.8-64.5l1-12.1l2.5-22.2l2.2-18.1l1.6-8.1l1.9-6l3.1-30.2h11.3l4.4,201.6h17.7
			l1.4-16.1l1.1-36.3l0.6-16.1l1.5-32.3l0.9-12.1l0.8-14.1l1.9-20.2l1.1-6h1.2l1.9-48.4h10.8l3.8,12.1h1.9l1.6-12.1h13.9l1.8,201.6
			h38l1.2-46.4l0.7,6l1,4l1.4,20.2l0.6-4l1.2-12.1l0.8-6l1.4-4l0.8,2l2-6l2.4-14.1h1.4l0.9-16.1l1.7-12.1h2.2l1.3,16.1l1.3,22.2
			l0.8,8.1l2.6-8.1l2.4-2h0.9l2.1,52.4l2.1-12.1l1.6-28.2l1-6h0.8l2.1-24.2h0.8l1.3-2h2.2l1.6,2l1.8,8.1l1.6,12.1l0.9,4l1.3,16.1
			l1.1-8.1l2.4-46.4l1.1-8.1l1.2-18.1l1.7-24.2l2.6-20.2l3.6-24.2l2.9-4l2-10.1l2.1-6l2.9-2h18.7l2.1,44.4l3.4,6l1.7-6l2.6,4
			l1.7,14.1l3,16.1l2.2-4l3.4-16.1l2.6,2l3,6l3-2l3-12.1l4.9-8l3.5,4l3.5-10.1l2.7,36.3l1.8-18.1l2.6-6l1.8-2l3.1,12.1l3.6-14.1
			l1.8,6h2.7l1.8-4l2.7-2l3.6-2l1.8,2l1.8,20.2l0,0"/>
	</g>
</g>
<g id="patch_3">
	<path class="st5" d="M47.3,256.3V34.6"/>
</g>
<g id="patch_4">
	<path class="st6" d="M828.5,256.3V34.6"/>
</g>
<g id="patch_5">
	<path class="st5" d="M47.3,256.3h781.2"/>
</g>
<g id="patch_6">
	<path class="st7" d="M47.3,34.6h781.2"/>
</g>
<g id="legend_1">
	<g id="patch_7">
		<path class="st8" d="M766.5,86.6h55c1.3,0,2-0.7,2-2v-43c0-1.3-0.7-2-2-2h-55c-1.3,0-2,0.7-2,2v43
			C764.5,85.9,765.2,86.6,766.5,86.6z"/>
	</g>
	<g id="line2d_15">
		<path class="st9" d="M768.5,47.7h10h10"/>
	</g>
	<g id="text_12">
		<g transform="translate(875.210938 51.158438) scale(0.1 -0.1)">
			<g>
				<path id="DejaVuSans-56" d="M-758.5,0l-27.8,72.9h10.3l23.1-61.4l23.1,61.4h10.2L-747.3,0H-758.5z"/>
			</g>
			<g>
				<path id="DejaVuSans-45" d="M-708.9,72.9h46.1v-8.3H-699V43h34.7v-8.3H-699V8.3h37.1V0h-47V72.9z"/>
			</g>
			<g>
				<path id="DejaVuSans-52" d="M-611.1,34.2c2.1-0.7,4.2-2.2,6.2-4.6s4-5.6,6-9.7l10-19.9h-10.6l-9.3,18.7c-2.4,4.9-4.8,8.1-7,9.7
					c-2.3,1.6-5.3,2.4-9.2,2.4h-10.8V0h-9.9v72.9h22.3c8.3,0,14.6-1.7,18.7-5.2c4.1-3.5,6.2-8.7,6.2-15.8c0-4.6-1.1-8.4-3.2-11.4
					C-604,37.4-607.1,35.4-611.1,34.2z M-635.9,64.8V38.9h12.4c4.8,0,8.3,1.1,10.8,3.3c2.4,2.2,3.6,5.4,3.6,9.7s-1.2,7.5-3.6,9.6
					c-2.4,2.2-6,3.3-10.8,3.3H-635.9z"/>
			</g>
		</g>
	</g>
	<g id="line2d_16">
		<path class="st10" d="M768.5,62.3h10h10"/>
	</g>
	<g id="text_13">
		<g transform="translate(875.210938 65.836563) scale(0.1 -0.1)">
			<g>
				<path id="DejaVuSans-48" d="M-777.3,72.9h9.9V43h35.8v29.9h9.9V0h-9.9v34.7h-35.8V0h-9.9V72.9z"/>
			</g>
			<g>
				<path id="DejaVuSans-41" d="M-677.7,63.2l-13.4-36.3h26.8L-677.7,63.2z M-683.3,72.9h11.2L-644.4,0h-10.2l-6.6,18.7h-32.9
					L-700.7,0h-10.4L-683.3,72.9z"/>
			</g>
			<g>
				<path id="DejaVuSans-4d" d="M-633.7,72.9h14.7l18.6-49.6l18.7,49.6h14.7V0h-9.6v64l-18.8-50h-9.9l-18.8,50V0h-9.6
					C-633.7,0-633.7,72.9-633.7,72.9z"/>
			</g>
		</g>
	</g>
	<g id="line2d_17">
		<path class="st11" d="M768.5,77h10h10"/>
	</g>
	<g id="text_14">
		<g transform="translate(875.210938 80.514688) scale(0.1 -0.1)">
			<g>
				<path id="DejaVuSans-52_00000012433177760035784890000011126880278919269271_" d="M-742.7,34.2c2.1-0.7,4.2-2.2,6.2-4.6
					s4-5.6,6-9.7l10-19.9h-10.6l-9.3,18.7c-2.4,4.9-4.8,8.1-7,9.7c-2.3,1.6-5.3,2.4-9.2,2.4h-10.8V0h-9.9v72.9h22.3
					c8.3,0,14.6-1.7,18.7-5.2c4.1-3.5,6.2-8.7,6.2-15.8c0-4.6-1.1-8.4-3.2-11.4C-735.6,37.4-738.7,35.4-742.7,34.2z M-767.5,64.8
					V38.9h12.4c4.8,0,8.3,1.1,10.8,3.3c2.4,2.2,3.6,5.4,3.6,9.7s-1.2,7.5-3.6,9.6c-2.4,2.2-6,3.3-10.8,3.3H-767.5z"/>
			</g>
			<g>
				<path id="DejaVuSans-55" d="M-709,72.9h9.9V28.6c0-7.8,1.4-13.4,4.2-16.9c2.8-3.4,7.4-5.1,13.8-5.1c6.3,0,10.9,1.7,13.7,5.1
					s4.2,9.1,4.2,16.9v44.3h9.9V27.4c0-9.5-2.4-16.7-7.1-21.5c-4.7-4.9-11.6-7.3-20.8-7.3s-16.2,2.4-20.9,7.3s-7,12-7,21.5
					L-709,72.9L-709,72.9z"/>
			</g>
			<g>
				<path id="DejaVuSans-53" d="M-590.9,70.5v-9.6c-3.7,1.8-7.3,3.1-10.6,4s-6.5,1.3-9.6,1.3c-5.4,0-9.5-1-12.4-3.1
					c-2.9-2.1-4.4-5-4.4-8.9c0-3.2,1-5.7,2.9-7.3s5.6-3,11-4l6-1.2c7.4-1.4,12.8-3.9,16.3-7.4s5.2-8.3,5.2-14.2
					c0-7.1-2.4-12.4-7.1-16.1c-4.7-3.6-11.7-5.5-20.8-5.5c-3.4,0-7.1,0.4-11,1.2s-7.9,1.9-12.1,3.5v10.2c4-2.2,7.9-3.9,11.8-5.1
					c3.8-1.1,7.6-1.7,11.3-1.7c5.6,0,10,1.1,13,3.3c3.1,2.2,4.6,5.4,4.6,9.5c0,3.6-1.1,6.4-3.3,8.4s-5.8,3.5-10.8,4.5l-6,1.2
					c-7.4,1.5-12.7,3.8-16,6.9c-3.3,3.1-4.9,7.5-4.9,13c0,6.4,2.3,11.5,6.8,15.2s10.8,5.6,18.8,5.6c3.4,0,6.9-0.3,10.5-0.9
					C-598.3,72.7-594.6,71.7-590.9,70.5z"/>
			</g>
		</g>
	</g>
</g>
</svg>
