<?xml version="1.0" encoding="utf-8" standalone="no"?>
<!DOCTYPE svg PUBLIC "-//W3C//DTD SVG 1.1//EN"
  "http://www.w3.org/Graphics/SVG/1.1/DTD/svg11.dtd">
<svg xmlns:xlink="http://www.w3.org/1999/xlink" width="1008pt" height="288pt" viewBox="0 0 1008 288" xmlns="http://www.w3.org/2000/svg" version="1.1">
 <metadata>
  <rdf:RDF xmlns:dc="http://purl.org/dc/elements/1.1/" xmlns:cc="http://creativecommons.org/ns#" xmlns:rdf="http://www.w3.org/1999/02/22-rdf-syntax-ns#">
   <cc:Work>
    <dc:type rdf:resource="http://purl.org/dc/dcmitype/StillImage"/>
    <dc:date>2023-02-19T18:26:48.552847</dc:date>
    <dc:format>image/svg+xml</dc:format>
    <dc:creator>
     <cc:Agent>
      <dc:title>Matplotlib v3.6.2, https://matplotlib.org/</dc:title>
     </cc:Agent>
    </dc:creator>
   </cc:Work>
  </rdf:RDF>
 </metadata>
 <defs>
  <style type="text/css">*{stroke-linejoin: round; stroke-linecap: butt}</style>
 </defs>
 <g id="figure_1">
  <g id="patch_1">
   <path d="M 0 288 
L 1008 288 
L 1008 0 
L 0 0 
z
" style="fill: #ffffff"/>
  </g>
  <g id="axes_1">
   <g id="patch_2">
    <path d="M 126 256.32 
L 907.2 256.32 
L 907.2 34.56 
L 126 34.56 
z
" style="fill: #ffffff"/>
   </g>
   <g id="matplotlib.axis_1">
    <g id="xtick_1">
     <g id="line2d_1">
      <defs>
       <path id="ma0ec325868" d="M 0 0 
L 0 3.5 
" style="stroke: #000000; stroke-width: 0.8"/>
      </defs>
      <g>
       <use xlink:href="#ma0ec325868" x="161.509091" y="256.32" style="stroke: #000000; stroke-width: 0.8"/>
      </g>
     </g>
     <g id="text_1">
      <!-- 0 -->
      <g transform="translate(158.327841 270.918437) scale(0.1 -0.1)">
       <defs>
        <path id="DejaVuSans-30" d="M 2034 4250 
Q 1547 4250 1301 3770 
Q 1056 3291 1056 2328 
Q 1056 1369 1301 889 
Q 1547 409 2034 409 
Q 2525 409 2770 889 
Q 3016 1369 3016 2328 
Q 3016 3291 2770 3770 
Q 2525 4250 2034 4250 
z
M 2034 4750 
Q 2819 4750 3233 4129 
Q 3647 3509 3647 2328 
Q 3647 1150 3233 529 
Q 2819 -91 2034 -91 
Q 1250 -91 836 529 
Q 422 1150 422 2328 
Q 422 3509 836 4129 
Q 1250 4750 2034 4750 
z
" transform="scale(0.015625)"/>
       </defs>
       <use xlink:href="#DejaVuSans-30"/>
      </g>
     </g>
    </g>
    <g id="xtick_2">
     <g id="line2d_2">
      <g>
       <use xlink:href="#ma0ec325868" x="330.438567" y="256.32" style="stroke: #000000; stroke-width: 0.8"/>
      </g>
     </g>
     <g id="text_2">
      <!-- 1000 -->
      <g transform="translate(317.713567 270.918437) scale(0.1 -0.1)">
       <defs>
        <path id="DejaVuSans-31" d="M 794 531 
L 1825 531 
L 1825 4091 
L 703 3866 
L 703 4441 
L 1819 4666 
L 2450 4666 
L 2450 531 
L 3481 531 
L 3481 0 
L 794 0 
L 794 531 
z
" transform="scale(0.015625)"/>
       </defs>
       <use xlink:href="#DejaVuSans-31"/>
       <use xlink:href="#DejaVuSans-30" x="63.623047"/>
       <use xlink:href="#DejaVuSans-30" x="127.246094"/>
       <use xlink:href="#DejaVuSans-30" x="190.869141"/>
      </g>
     </g>
    </g>
    <g id="xtick_3">
     <g id="line2d_3">
      <g>
       <use xlink:href="#ma0ec325868" x="499.368044" y="256.32" style="stroke: #000000; stroke-width: 0.8"/>
      </g>
     </g>
     <g id="text_3">
      <!-- 2000 -->
      <g transform="translate(486.643044 270.918437) scale(0.1 -0.1)">
       <defs>
        <path id="DejaVuSans-32" d="M 1228 531 
L 3431 531 
L 3431 0 
L 469 0 
L 469 531 
Q 828 903 1448 1529 
Q 2069 2156 2228 2338 
Q 2531 2678 2651 2914 
Q 2772 3150 2772 3378 
Q 2772 3750 2511 3984 
Q 2250 4219 1831 4219 
Q 1534 4219 1204 4116 
Q 875 4013 500 3803 
L 500 4441 
Q 881 4594 1212 4672 
Q 1544 4750 1819 4750 
Q 2544 4750 2975 4387 
Q 3406 4025 3406 3419 
Q 3406 3131 3298 2873 
Q 3191 2616 2906 2266 
Q 2828 2175 2409 1742 
Q 1991 1309 1228 531 
z
" transform="scale(0.015625)"/>
       </defs>
       <use xlink:href="#DejaVuSans-32"/>
       <use xlink:href="#DejaVuSans-30" x="63.623047"/>
       <use xlink:href="#DejaVuSans-30" x="127.246094"/>
       <use xlink:href="#DejaVuSans-30" x="190.869141"/>
      </g>
     </g>
    </g>
    <g id="xtick_4">
     <g id="line2d_4">
      <g>
       <use xlink:href="#ma0ec325868" x="668.29752" y="256.32" style="stroke: #000000; stroke-width: 0.8"/>
      </g>
     </g>
     <g id="text_4">
      <!-- 3000 -->
      <g transform="translate(655.57252 270.918437) scale(0.1 -0.1)">
       <defs>
        <path id="DejaVuSans-33" d="M 2597 2516 
Q 3050 2419 3304 2112 
Q 3559 1806 3559 1356 
Q 3559 666 3084 287 
Q 2609 -91 1734 -91 
Q 1441 -91 1130 -33 
Q 819 25 488 141 
L 488 750 
Q 750 597 1062 519 
Q 1375 441 1716 441 
Q 2309 441 2620 675 
Q 2931 909 2931 1356 
Q 2931 1769 2642 2001 
Q 2353 2234 1838 2234 
L 1294 2234 
L 1294 2753 
L 1863 2753 
Q 2328 2753 2575 2939 
Q 2822 3125 2822 3475 
Q 2822 3834 2567 4026 
Q 2313 4219 1838 4219 
Q 1578 4219 1281 4162 
Q 984 4106 628 3988 
L 628 4550 
Q 988 4650 1302 4700 
Q 1616 4750 1894 4750 
Q 2613 4750 3031 4423 
Q 3450 4097 3450 3541 
Q 3450 3153 3228 2886 
Q 3006 2619 2597 2516 
z
" transform="scale(0.015625)"/>
       </defs>
       <use xlink:href="#DejaVuSans-33"/>
       <use xlink:href="#DejaVuSans-30" x="63.623047"/>
       <use xlink:href="#DejaVuSans-30" x="127.246094"/>
       <use xlink:href="#DejaVuSans-30" x="190.869141"/>
      </g>
     </g>
    </g>
    <g id="xtick_5">
     <g id="line2d_5">
      <g>
       <use xlink:href="#ma0ec325868" x="837.226997" y="256.32" style="stroke: #000000; stroke-width: 0.8"/>
      </g>
     </g>
     <g id="text_5">
      <!-- 4000 -->
      <g transform="translate(824.501997 270.918437) scale(0.1 -0.1)">
       <defs>
        <path id="DejaVuSans-34" d="M 2419 4116 
L 825 1625 
L 2419 1625 
L 2419 4116 
z
M 2253 4666 
L 3047 4666 
L 3047 1625 
L 3713 1625 
L 3713 1100 
L 3047 1100 
L 3047 0 
L 2419 0 
L 2419 1100 
L 313 1100 
L 313 1709 
L 2253 4666 
z
" transform="scale(0.015625)"/>
       </defs>
       <use xlink:href="#DejaVuSans-34"/>
       <use xlink:href="#DejaVuSans-30" x="63.623047"/>
       <use xlink:href="#DejaVuSans-30" x="127.246094"/>
       <use xlink:href="#DejaVuSans-30" x="190.869141"/>
      </g>
     </g>
    </g>
   </g>
   <g id="matplotlib.axis_2">
    <g id="ytick_1">
     <g id="line2d_6">
      <defs>
       <path id="mc869108818" d="M 0 0 
L -3.5 0 
" style="stroke: #000000; stroke-width: 0.8"/>
      </defs>
      <g>
       <use xlink:href="#mc869108818" x="126" y="246.24" style="stroke: #000000; stroke-width: 0.8"/>
      </g>
     </g>
     <g id="text_6">
      <!-- 0 -->
      <g transform="translate(112.6375 250.039219) scale(0.1 -0.1)">
       <use xlink:href="#DejaVuSans-30"/>
      </g>
     </g>
    </g>
    <g id="ytick_2">
     <g id="line2d_7">
      <g>
       <use xlink:href="#mc869108818" x="126" y="205.92" style="stroke: #000000; stroke-width: 0.8"/>
      </g>
     </g>
     <g id="text_7">
      <!-- 20 -->
      <g transform="translate(106.275 209.719219) scale(0.1 -0.1)">
       <use xlink:href="#DejaVuSans-32"/>
       <use xlink:href="#DejaVuSans-30" x="63.623047"/>
      </g>
     </g>
    </g>
    <g id="ytick_3">
     <g id="line2d_8">
      <g>
       <use xlink:href="#mc869108818" x="126" y="165.6" style="stroke: #000000; stroke-width: 0.8"/>
      </g>
     </g>
     <g id="text_8">
      <!-- 40 -->
      <g transform="translate(106.275 169.399219) scale(0.1 -0.1)">
       <use xlink:href="#DejaVuSans-34"/>
       <use xlink:href="#DejaVuSans-30" x="63.623047"/>
      </g>
     </g>
    </g>
    <g id="ytick_4">
     <g id="line2d_9">
      <g>
       <use xlink:href="#mc869108818" x="126" y="125.28" style="stroke: #000000; stroke-width: 0.8"/>
      </g>
     </g>
     <g id="text_9">
      <!-- 60 -->
      <g transform="translate(106.275 129.079219) scale(0.1 -0.1)">
       <defs>
        <path id="DejaVuSans-36" d="M 2113 2584 
Q 1688 2584 1439 2293 
Q 1191 2003 1191 1497 
Q 1191 994 1439 701 
Q 1688 409 2113 409 
Q 2538 409 2786 701 
Q 3034 994 3034 1497 
Q 3034 2003 2786 2293 
Q 2538 2584 2113 2584 
z
M 3366 4563 
L 3366 3988 
Q 3128 4100 2886 4159 
Q 2644 4219 2406 4219 
Q 1781 4219 1451 3797 
Q 1122 3375 1075 2522 
Q 1259 2794 1537 2939 
Q 1816 3084 2150 3084 
Q 2853 3084 3261 2657 
Q 3669 2231 3669 1497 
Q 3669 778 3244 343 
Q 2819 -91 2113 -91 
Q 1303 -91 875 529 
Q 447 1150 447 2328 
Q 447 3434 972 4092 
Q 1497 4750 2381 4750 
Q 2619 4750 2861 4703 
Q 3103 4656 3366 4563 
z
" transform="scale(0.015625)"/>
       </defs>
       <use xlink:href="#DejaVuSans-36"/>
       <use xlink:href="#DejaVuSans-30" x="63.623047"/>
      </g>
     </g>
    </g>
    <g id="ytick_5">
     <g id="line2d_10">
      <g>
       <use xlink:href="#mc869108818" x="126" y="84.96" style="stroke: #000000; stroke-width: 0.8"/>
      </g>
     </g>
     <g id="text_10">
      <!-- 80 -->
      <g transform="translate(106.275 88.759219) scale(0.1 -0.1)">
       <defs>
        <path id="DejaVuSans-38" d="M 2034 2216 
Q 1584 2216 1326 1975 
Q 1069 1734 1069 1313 
Q 1069 891 1326 650 
Q 1584 409 2034 409 
Q 2484 409 2743 651 
Q 3003 894 3003 1313 
Q 3003 1734 2745 1975 
Q 2488 2216 2034 2216 
z
M 1403 2484 
Q 997 2584 770 2862 
Q 544 3141 544 3541 
Q 544 4100 942 4425 
Q 1341 4750 2034 4750 
Q 2731 4750 3128 4425 
Q 3525 4100 3525 3541 
Q 3525 3141 3298 2862 
Q 3072 2584 2669 2484 
Q 3125 2378 3379 2068 
Q 3634 1759 3634 1313 
Q 3634 634 3220 271 
Q 2806 -91 2034 -91 
Q 1263 -91 848 271 
Q 434 634 434 1313 
Q 434 1759 690 2068 
Q 947 2378 1403 2484 
z
M 1172 3481 
Q 1172 3119 1398 2916 
Q 1625 2713 2034 2713 
Q 2441 2713 2670 2916 
Q 2900 3119 2900 3481 
Q 2900 3844 2670 4047 
Q 2441 4250 2034 4250 
Q 1625 4250 1398 4047 
Q 1172 3844 1172 3481 
z
" transform="scale(0.015625)"/>
       </defs>
       <use xlink:href="#DejaVuSans-38"/>
       <use xlink:href="#DejaVuSans-30" x="63.623047"/>
      </g>
     </g>
    </g>
    <g id="ytick_6">
     <g id="line2d_11">
      <g>
       <use xlink:href="#mc869108818" x="126" y="44.64" style="stroke: #000000; stroke-width: 0.8"/>
      </g>
     </g>
     <g id="text_11">
      <!-- 100 -->
      <g transform="translate(99.9125 48.439219) scale(0.1 -0.1)">
       <use xlink:href="#DejaVuSans-31"/>
       <use xlink:href="#DejaVuSans-30" x="63.623047"/>
       <use xlink:href="#DejaVuSans-30" x="127.246094"/>
      </g>
     </g>
    </g>
   </g>
   <g id="line2d_12">
    <path d="M 161.509091 224.064 
L 161.509091 222.048 
L 161.546631 222.048 
L 162.187624 181.728 
L 162.673766 163.584 
L 163.004117 163.584 
L 163.899443 161.568 
L 165.998673 109.152 
L 168.070875 84.96 
L 169.253381 80.928 
L 171.100343 44.64 
L 197.502144 44.64 
L 201.353736 246.24 
L 215.56108 246.24 
L 217.152771 236.16 
L 219.279406 232.128 
L 220.030203 236.16 
L 220.9687 240.192 
L 221.888427 246.24 
L 223.765422 213.984 
L 226.205514 191.808 
L 227.181551 161.568 
L 227.984905 117.216 
L 229.325078 109.152 
L 230.4982 135.36 
L 232.825673 246.24 
L 233.749154 236.16 
L 236.039087 161.568 
L 237.202823 145.44 
L 238.156336 109.152 
L 240.18349 70.848 
L 241.845897 44.64 
L 362.10604 44.64 
L 366.179117 246.24 
L 391.935232 246.24 
L 394.607227 228.096 
L 398.338691 151.488 
L 400.230701 133.344 
L 401.31185 105.12 
L 403.361528 82.944 
L 404.872508 78.912 
L 408.51871 44.64 
L 470.318321 44.64 
L 475.065239 139.392 
L 477.152457 246.24 
L 497.088857 246.24 
L 500.016968 199.872 
L 503.243521 161.568 
L 507.166438 149.472 
L 508.600462 145.44 
L 510.383606 145.44 
L 512.52338 157.536 
L 514.663153 163.584 
L 517.159555 149.472 
L 519.997571 137.376 
L 521.40907 139.392 
L 523.192215 129.312 
L 524.61873 119.232 
L 527.905066 121.248 
L 531.621514 246.24 
L 548.305975 246.24 
L 549.957729 232.128 
L 551.140236 177.696 
L 552.335881 181.728 
L 556.525332 107.136 
L 557.604604 88.992 
L 558.721415 246.24 
L 568.203521 246.24 
L 569.556833 195.84 
L 571.508907 187.776 
L 572.7252 153.504 
L 573.997802 149.472 
L 576.957822 123.264 
L 578.679025 109.152 
L 581.922471 93.024 
L 583.026144 62.784 
L 584.805534 44.64 
L 597.330716 44.64 
L 599.217096 246.24 
L 618.982642 246.24 
L 619.75221 205.92 
L 620.85194 199.872 
L 621.820469 173.664 
L 623.374621 167.616 
L 625.289155 145.44 
L 626.054968 133.344 
L 626.895862 86.976 
L 629.298414 66.816 
L 630.546615 44.64 
L 634.35316 44.64 
L 637.309425 48.672 
L 639.713855 88.992 
L 642.536854 82.944 
L 643.970878 101.088 
L 645.763407 246.24 
L 686.927391 246.24 
L 687.509259 240.192 
L 688.573515 236.16 
L 689.164768 232.128 
L 689.645279 232.128 
L 690.636332 209.952 
L 691.154382 201.888 
L 692.521162 197.856 
L 693.707423 195.84 
L 694.47699 207.936 
L 695.895998 246.24 
L 697.596555 246.24 
L 698.497512 234.144 
L 699.398469 234.144 
L 700.006615 232.128 
L 703.608567 207.936 
L 704.254253 197.856 
L 705.962318 181.728 
L 707.783002 161.568 
L 709.334479 135.36 
L 710.329286 131.328 
L 711.192703 125.28 
L 713.557716 119.232 
L 714.526245 117.216 
L 716.080396 88.992 
L 717.431832 91.008 
L 718.839577 80.928 
L 723.494523 44.64 
L 733.552349 44.64 
L 735.438728 246.24 
L 755.631432 246.24 
L 757.748916 203.904 
L 758.931422 187.776 
L 760.123313 185.76 
L 762.045355 175.68 
L 763.013884 175.68 
L 765.987043 155.52 
L 767.008128 133.344 
L 768.312639 125.28 
L 770.489952 107.136 
L 771.616149 111.168 
L 774.548061 111.168 
L 776.715989 107.136 
L 778.302049 107.136 
L 780.884793 103.104 
L 782.889423 97.056 
L 785.32013 78.912 
L 787.829671 80.928 
L 790.418046 72.864 
L 794.609374 44.64 
L 820.164134 44.64 
L 821.95854 246.24 
L 840.977653 246.24 
L 844.769182 213.984 
L 846.655561 213.984 
L 848.532555 143.424 
L 851.173486 143.424 
L 853.840694 129.312 
L 856.149397 123.264 
L 857.703548 125.28 
L 862.812727 125.28 
L 871.690909 139.392 
L 871.690909 139.392 
" clip-path="url(#p219608d5e4)" style="fill: none; stroke: #1f77b4; stroke-width: 1.5; stroke-linecap: square"/>
   </g>
   <g id="line2d_13">
    <path d="M 161.509091 203.904 
L 161.826303 203.904 
L 162.080964 201.888 
L 162.991306 177.696 
L 163.359197 155.52 
L 165.884083 101.088 
L 166.875136 107.136 
L 169.330244 80.928 
L 170.726728 68.832 
L 172.813945 44.64 
L 200.463947 44.64 
L 204.028359 220.032 
L 206.468545 244.224 
L 208.334277 226.08 
L 210.346415 226.08 
L 211.988785 203.904 
L 213.133751 181.728 
L 214.462663 211.968 
L 215.555214 218.016 
L 216.418632 216 
L 218.070387 222.048 
L 220.217668 226.08 
L 220.975974 224.064 
L 221.914471 203.904 
L 222.862353 177.696 
L 224.889507 141.408 
L 228.037226 88.992 
L 229.313582 99.072 
L 230.349683 137.376 
L 231.88131 185.76 
L 233.157666 161.568 
L 235.710378 153.504 
L 236.753987 115.2 
L 239.494398 105.12 
L 240.864604 84.96 
L 242.050864 82.944 
L 244.618592 44.64 
L 368.640326 44.64 
L 371.493357 74.88 
L 375.172266 228.096 
L 377.094308 246.24 
L 387.348327 246.24 
L 390.351518 244.224 
L 392.309223 242.208 
L 394.214372 232.128 
L 396.361653 205.92 
L 399.108916 123.264 
L 400.220096 99.072 
L 405.451279 48.672 
L 406.795207 44.64 
L 480.523069 44.64 
L 485.202416 129.312 
L 487.139474 226.08 
L 489.00896 232.128 
L 491.632998 230.112 
L 495.322277 220.032 
L 496.928984 211.968 
L 500.425824 193.824 
L 503.093033 171.648 
L 505.345426 147.456 
L 508.3336 123.264 
L 511.627725 157.536 
L 515.653878 107.136 
L 517.132949 101.088 
L 518.981788 105.12 
L 523.497836 80.928 
L 526.204462 88.992 
L 529.357812 86.976 
L 530.941995 105.12 
L 532.847144 137.376 
L 534.318708 246.24 
L 550.323462 246.24 
L 551.453412 193.824 
L 553.180247 165.6 
L 555.057241 149.472 
L 556.397415 133.344 
L 557.882117 105.12 
L 559.759112 91.008 
L 561.166857 187.776 
L 563.013819 173.664 
L 564.168171 201.888 
L 565.294367 213.984 
L 566.172801 232.128 
L 567.467927 236.16 
L 568.30882 242.208 
L 569.331782 242.208 
L 571.546025 213.984 
L 573.421142 143.424 
L 576.306082 121.248 
L 578.764945 97.056 
L 580.319096 76.896 
L 582.008391 72.864 
L 584.358528 48.672 
L 585.944588 44.64 
L 594.115144 44.64 
L 596.412585 46.656 
L 599.040377 234.144 
L 600.851676 246.24 
L 617.889668 246.24 
L 619.257997 230.112 
L 620.027565 185.76 
L 620.658235 169.632 
L 622.1786 145.44 
L 623.070172 143.424 
L 624.018054 123.264 
L 625.458178 111.168 
L 629.011328 66.816 
L 631.920669 44.64 
L 644.245013 44.64 
L 647.809425 56.736 
L 650.621162 58.752 
L 653.939688 78.912 
L 655.598951 80.928 
L 657.682414 117.216 
L 661.774262 220.032 
L 664.464182 246.24 
L 690.1096 246.24 
L 691.004927 230.112 
L 691.402849 220.032 
L 692.258759 216 
L 692.821857 195.84 
L 693.970577 165.6 
L 694.646295 165.6 
L 695.216901 163.584 
L 696.478242 149.472 
L 697.131436 133.344 
L 698.947568 175.68 
L 700.449164 177.696 
L 701.397046 175.68 
L 703.187698 133.344 
L 704.201275 119.232 
L 706.949194 103.104 
L 708.435774 82.944 
L 709.479383 82.944 
L 712.90302 80.928 
L 716.268471 111.168 
L 717.522303 109.152 
L 720.694423 121.248 
L 723.941623 119.232 
L 726.577626 107.136 
L 728.248151 107.136 
L 729.599587 127.296 
L 732.828017 246.24 
L 741.694938 246.24 
L 743.857939 222.048 
L 745.040445 195.84 
L 746.035252 183.744 
L 747.251544 175.68 
L 748.274506 185.76 
L 749.306853 187.776 
L 750.348585 185.76 
L 751.820148 187.776 
L 753.959921 169.632 
L 756.617745 149.472 
L 758.746257 143.424 
L 760.19905 137.376 
L 761.708153 135.36 
L 763.780355 131.328 
L 766.236637 119.232 
L 767.625612 115.2 
L 769.052128 115.2 
L 771.424648 117.216 
L 772.625925 123.264 
L 774.439101 129.312 
L 776.308587 127.296 
L 777.562419 123.264 
L 779.157864 123.264 
L 781.77064 111.168 
L 783.084536 117.216 
L 785.100428 121.248 
L 786.450878 123.264 
L 788.881586 107.136 
L 790.62719 117.216 
L 793.495238 111.168 
L 795.657535 105.12 
L 798.232771 99.072 
L 800.873702 99.072 
L 803.527772 97.056 
L 807.801687 105.12 
L 810.955037 99.072 
L 814.153436 95.04 
L 816.552234 91.008 
L 818.181465 93.024 
L 820.659097 95.04 
L 822.31836 95.04 
L 825.271998 82.944 
L 828.68062 84.96 
L 830.407454 84.96 
L 833.008968 78.912 
L 834.750819 84.96 
L 837.386119 78.912 
L 840.929884 80.928 
L 842.716782 80.928 
L 844.518697 88.992 
L 847.672047 84.96 
L 853.145362 88.992 
L 855.433183 86.976 
L 860.069359 86.976 
L 862.387447 84.96 
L 864.705534 86.976 
L 871.301292 86.976 
L 871.301292 86.976 
" clip-path="url(#p219608d5e4)" style="fill: none; stroke: #ff7f0e; stroke-width: 1.5; stroke-linecap: square"/>
   </g>
   <g id="line2d_14">
    <path d="M 161.509091 201.888 
L 161.576663 203.904 
L 161.726822 201.888 
L 161.899506 201.888 
L 162.182463 197.856 
L 162.529706 181.728 
L 163.511374 147.456 
L 165.551761 115.2 
L 166.204955 115.2 
L 167.274842 93.024 
L 169.910141 72.864 
L 171.340411 44.64 
L 201.653867 44.64 
L 204.660812 246.24 
L 216.865122 246.24 
L 218.411765 232.128 
L 220.497106 157.536 
L 221.307967 143.424 
L 222.368469 115.2 
L 223.457125 80.928 
L 226.103687 68.832 
L 229.641821 191.808 
L 231.002642 171.648 
L 232.083791 123.264 
L 233.750561 123.264 
L 235.167692 93.024 
L 238.227193 52.704 
L 239.481025 44.64 
L 367.982111 44.64 
L 371.338177 68.832 
L 375.628985 246.24 
L 390.633677 246.24 
L 393.299009 236.16 
L 395.164741 117.216 
L 397.148724 82.944 
L 399.566292 60.768 
L 402.878061 44.64 
L 477.417582 44.64 
L 482.635626 163.584 
L 484.617732 224.064 
L 486.547282 228.096 
L 488.401752 240.192 
L 492.304023 238.176 
L 494.015842 238.176 
L 495.675105 236.16 
L 498.073903 234.144 
L 501.493646 226.08 
L 502.987733 213.984 
L 506.231179 131.328 
L 508.766998 131.328 
L 510.929296 119.232 
L 513.842391 107.136 
L 517.170301 91.008 
L 521.382276 56.736 
L 522.943935 60.768 
L 524.933549 56.736 
L 527.366134 80.928 
L 529.821242 234.144 
L 532.488451 246.24 
L 549.154657 246.24 
L 549.957729 199.872 
L 550.93752 165.6 
L 552.303972 163.584 
L 553.565312 147.456 
L 555.554926 111.168 
L 557.863629 103.104 
L 559.532277 159.552 
L 561.148369 246.24 
L 568.560619 246.24 
L 569.709339 205.92 
L 570.490169 141.408 
L 571.513131 129.312 
L 574.017088 107.136 
L 576.213171 88.992 
L 577.801108 80.928 
L 579.732535 74.88 
L 582.792036 44.64 
L 594.131427 44.64 
L 598.546117 246.24 
L 616.264942 246.24 
L 617.620132 230.112 
L 618.697527 193.824 
L 619.335705 177.696 
L 620.85607 145.44 
L 621.747642 133.344 
L 622.505948 119.232 
L 624.381065 99.072 
L 625.488492 93.024 
L 626.680383 93.024 
L 628.539452 44.64 
L 639.339676 44.64 
L 643.131204 56.736 
L 645.064508 56.736 
L 646.648692 44.64 
L 660.54408 44.64 
L 662.308454 246.24 
L 700.277512 246.24 
L 701.525714 199.872 
L 702.238971 205.92 
L 703.280656 209.952 
L 704.632092 230.112 
L 705.23273 226.08 
L 706.449022 213.984 
L 707.21859 207.936 
L 708.637598 203.904 
L 709.444705 205.92 
L 711.426811 199.872 
L 713.862492 185.76 
L 715.304024 185.76 
L 716.223751 169.632 
L 717.963725 157.536 
L 720.174824 157.536 
L 721.436164 173.664 
L 722.708766 195.84 
L 723.557167 203.904 
L 726.124895 195.84 
L 728.51994 193.824 
L 729.390865 193.824 
L 731.511869 246.24 
L 733.576562 234.144 
L 735.218416 205.92 
L 736.241378 199.872 
L 737.059747 199.872 
L 739.143211 175.68 
L 739.984104 175.68 
L 741.267968 173.664 
L 743.445282 173.664 
L 745.008818 175.68 
L 746.810732 183.744 
L 748.394868 195.84 
L 749.295826 199.872 
L 750.635999 216 
L 751.743426 207.936 
L 754.177887 161.568 
L 755.304084 153.504 
L 756.458435 135.36 
L 758.1665 111.168 
L 760.813062 91.008 
L 764.371843 66.816 
L 767.27743 62.784 
L 769.293322 52.704 
L 771.365523 46.656 
L 774.278618 44.64 
L 793.012897 44.64 
L 795.162055 88.992 
L 798.600709 95.04 
L 800.327543 88.992 
L 802.940319 93.024 
L 804.671283 107.136 
L 807.706383 123.264 
L 809.874311 119.232 
L 813.312965 103.104 
L 815.891955 105.12 
L 818.900776 111.168 
L 821.909598 109.152 
L 824.931558 97.056 
L 829.701001 88.992 
L 833.199718 93.024 
L 836.728467 82.944 
L 839.386291 119.232 
L 841.150665 101.088 
L 843.785965 95.04 
L 845.557848 93.024 
L 848.669716 105.12 
L 852.228497 91.008 
L 854.015396 97.056 
L 856.695743 97.056 
L 858.482642 93.024 
L 861.185513 91.008 
L 864.804358 88.992 
L 866.613781 91.008 
L 868.415695 111.168 
L 868.415695 111.168 
" clip-path="url(#p219608d5e4)" style="fill: none; stroke: #2ca02c; stroke-width: 1.5; stroke-linecap: square"/>
   </g>
   <g id="patch_3">
    <path d="M 126 256.32 
L 126 34.56 
" style="fill: none; stroke: #000000; stroke-width: 0.8; stroke-linejoin: miter; stroke-linecap: square"/>
   </g>
   <g id="patch_4">
    <path d="M 907.2 256.32 
L 907.2 34.56 
" style="fill: none; stroke: #000000; stroke-width: 0.8; stroke-linejoin: miter; stroke-linecap: square"/>
   </g>
   <g id="patch_5">
    <path d="M 126 256.32 
L 907.2 256.32 
" style="fill: none; stroke: #000000; stroke-width: 0.8; stroke-linejoin: miter; stroke-linecap: square"/>
   </g>
   <g id="patch_6">
    <path d="M 126 34.56 
L 907.2 34.56 
" style="fill: none; stroke: #000000; stroke-width: 0.8; stroke-linejoin: miter; stroke-linecap: square"/>
   </g>
   <g id="legend_1">
    <g id="patch_7">
     <path d="M 845.210938 86.594375 
L 900.2 86.594375 
Q 902.2 86.594375 902.2 84.594375 
L 902.2 41.56 
Q 902.2 39.56 900.2 39.56 
L 845.210938 39.56 
Q 843.210938 39.56 843.210938 41.56 
L 843.210938 84.594375 
Q 843.210938 86.594375 845.210938 86.594375 
z
" style="fill: #ffffff; opacity: 0.8; stroke: #cccccc; stroke-linejoin: miter"/>
    </g>
    <g id="line2d_15">
     <path d="M 847.210938 47.658438 
L 857.210938 47.658438 
L 867.210938 47.658438 
" style="fill: none; stroke: #1f77b4; stroke-width: 1.5; stroke-linecap: square"/>
    </g>
    <g id="text_12">
     <!-- VER -->
     <g transform="translate(875.210938 51.158438) scale(0.1 -0.1)">
      <defs>
       <path id="DejaVuSans-56" d="M 1831 0 
L 50 4666 
L 709 4666 
L 2188 738 
L 3669 4666 
L 4325 4666 
L 2547 0 
L 1831 0 
z
" transform="scale(0.015625)"/>
       <path id="DejaVuSans-45" d="M 628 4666 
L 3578 4666 
L 3578 4134 
L 1259 4134 
L 1259 2753 
L 3481 2753 
L 3481 2222 
L 1259 2222 
L 1259 531 
L 3634 531 
L 3634 0 
L 628 0 
L 628 4666 
z
" transform="scale(0.015625)"/>
       <path id="DejaVuSans-52" d="M 2841 2188 
Q 3044 2119 3236 1894 
Q 3428 1669 3622 1275 
L 4263 0 
L 3584 0 
L 2988 1197 
Q 2756 1666 2539 1819 
Q 2322 1972 1947 1972 
L 1259 1972 
L 1259 0 
L 628 0 
L 628 4666 
L 2053 4666 
Q 2853 4666 3247 4331 
Q 3641 3997 3641 3322 
Q 3641 2881 3436 2590 
Q 3231 2300 2841 2188 
z
M 1259 4147 
L 1259 2491 
L 2053 2491 
Q 2509 2491 2742 2702 
Q 2975 2913 2975 3322 
Q 2975 3731 2742 3939 
Q 2509 4147 2053 4147 
L 1259 4147 
z
" transform="scale(0.015625)"/>
      </defs>
      <use xlink:href="#DejaVuSans-56"/>
      <use xlink:href="#DejaVuSans-45" x="68.408203"/>
      <use xlink:href="#DejaVuSans-52" x="131.591797"/>
     </g>
    </g>
    <g id="line2d_16">
     <path d="M 847.210938 62.336563 
L 857.210938 62.336563 
L 867.210938 62.336563 
" style="fill: none; stroke: #ff7f0e; stroke-width: 1.5; stroke-linecap: square"/>
    </g>
    <g id="text_13">
     <!-- HAM -->
     <g transform="translate(875.210938 65.836563) scale(0.1 -0.1)">
      <defs>
       <path id="DejaVuSans-48" d="M 628 4666 
L 1259 4666 
L 1259 2753 
L 3553 2753 
L 3553 4666 
L 4184 4666 
L 4184 0 
L 3553 0 
L 3553 2222 
L 1259 2222 
L 1259 0 
L 628 0 
L 628 4666 
z
" transform="scale(0.015625)"/>
       <path id="DejaVuSans-41" d="M 2188 4044 
L 1331 1722 
L 3047 1722 
L 2188 4044 
z
M 1831 4666 
L 2547 4666 
L 4325 0 
L 3669 0 
L 3244 1197 
L 1141 1197 
L 716 0 
L 50 0 
L 1831 4666 
z
" transform="scale(0.015625)"/>
       <path id="DejaVuSans-4d" d="M 628 4666 
L 1569 4666 
L 2759 1491 
L 3956 4666 
L 4897 4666 
L 4897 0 
L 4281 0 
L 4281 4097 
L 3078 897 
L 2444 897 
L 1241 4097 
L 1241 0 
L 628 0 
L 628 4666 
z
" transform="scale(0.015625)"/>
      </defs>
      <use xlink:href="#DejaVuSans-48"/>
      <use xlink:href="#DejaVuSans-41" x="75.195312"/>
      <use xlink:href="#DejaVuSans-4d" x="143.603516"/>
     </g>
    </g>
    <g id="line2d_17">
     <path d="M 847.210938 77.014688 
L 857.210938 77.014688 
L 867.210938 77.014688 
" style="fill: none; stroke: #2ca02c; stroke-width: 1.5; stroke-linecap: square"/>
    </g>
    <g id="text_14">
     <!-- RUS -->
     <g transform="translate(875.210938 80.514688) scale(0.1 -0.1)">
      <defs>
       <path id="DejaVuSans-55" d="M 556 4666 
L 1191 4666 
L 1191 1831 
Q 1191 1081 1462 751 
Q 1734 422 2344 422 
Q 2950 422 3222 751 
Q 3494 1081 3494 1831 
L 3494 4666 
L 4128 4666 
L 4128 1753 
Q 4128 841 3676 375 
Q 3225 -91 2344 -91 
Q 1459 -91 1007 375 
Q 556 841 556 1753 
L 556 4666 
z
" transform="scale(0.015625)"/>
       <path id="DejaVuSans-53" d="M 3425 4513 
L 3425 3897 
Q 3066 4069 2747 4153 
Q 2428 4238 2131 4238 
Q 1616 4238 1336 4038 
Q 1056 3838 1056 3469 
Q 1056 3159 1242 3001 
Q 1428 2844 1947 2747 
L 2328 2669 
Q 3034 2534 3370 2195 
Q 3706 1856 3706 1288 
Q 3706 609 3251 259 
Q 2797 -91 1919 -91 
Q 1588 -91 1214 -16 
Q 841 59 441 206 
L 441 856 
Q 825 641 1194 531 
Q 1563 422 1919 422 
Q 2459 422 2753 634 
Q 3047 847 3047 1241 
Q 3047 1584 2836 1778 
Q 2625 1972 2144 2069 
L 1759 2144 
Q 1053 2284 737 2584 
Q 422 2884 422 3419 
Q 422 4038 858 4394 
Q 1294 4750 2059 4750 
Q 2388 4750 2728 4690 
Q 3069 4631 3425 4513 
z
" transform="scale(0.015625)"/>
      </defs>
      <use xlink:href="#DejaVuSans-52"/>
      <use xlink:href="#DejaVuSans-55" x="69.482422"/>
      <use xlink:href="#DejaVuSans-53" x="142.675781"/>
     </g>
    </g>
   </g>
  </g>
 </g>
 <defs>
  <clipPath id="p219608d5e4">
   <rect x="126" y="34.56" width="781.2" height="221.76"/>
  </clipPath>
 </defs>
</svg>
