<?xml version="1.0" encoding="utf-8"?>
<!-- Generator: Adobe Illustrator 27.2.0, SVG Export Plug-In . SVG Version: 6.00 Build 0)  -->
<svg version="1.1" id="Layer_1" xmlns="http://www.w3.org/2000/svg" xmlns:xlink="http://www.w3.org/1999/xlink" x="0px" y="0px"
	 viewBox="0 0 1080 382" style="enable-background:new 0 0 1080 382;" xml:space="preserve">
<style type="text/css">
	.st0{fill:none;}
	.st1{fill:none;stroke:#00FFFF;stroke-width:1.28;stroke-linejoin:round;stroke-miterlimit:10;}
	.st2{fill:none;stroke:#9F00C6;stroke-width:1.28;stroke-linejoin:round;stroke-miterlimit:10;}
	.st3{fill:none;stroke:#FFFFFF;stroke-width:1.07;stroke-linecap:round;stroke-linejoin:round;stroke-miterlimit:10;}
	.st4{fill:#FFFFFF;}
	.st5{font-family:'ArialMT';}
	.st6{font-size:10.1252px;}
	.st7{fill:none;stroke:#333333;stroke-width:1.07;stroke-linejoin:round;stroke-miterlimit:10;}
	.st8{font-size:12.6565px;}
	.st9{fill:none;stroke:#00FFFF;stroke-miterlimit:10;}
	.st10{enable-background:new    ;}
	.st11{fill:none;stroke:#9F00C6;stroke-linecap:round;stroke-linejoin:round;stroke-miterlimit:10;}
	.st12{font-size:20px;}
</style>
<rect x="-0.2" y="0" width="1080.5" height="382"/>
<rect x="157.8" y="34.8" class="st0" width="778.2" height="298.4"/>
<rect x="157.8" y="34.8" width="778.2" height="298.4"/>
<polyline class="st1" points="194.5,109.4 196.4,107 200.8,100 203.2,96.5 205.2,92.9 209.2,90.6 211.7,88.3 217.9,83.6 220.4,82.4 
	223.5,81.2 226.1,81.2 231.8,77.7 233.9,77.7 235.9,94.1 238.7,110.6 242.9,141.1 244.6,223.3 246.8,237.4 248.8,243.3 250.3,255 
	251.2,257.4 252.6,260.9 253.7,267.9 255.4,273.8 256.7,271.4 257.6,267.9 259.2,263.2 261.7,259.7 263,253.8 264.2,244.4 266,248 
	267.7,252.7 269.3,263.2 271.6,287.9 272.6,296.1 274,299.6 275.2,297.3 276.5,287.9 278,276.1 279.3,265.6 280.3,256.2 
	282.1,239.7 283.5,229.2 285,219.8 286.2,215.1 288.5,205.7 291.3,208 293.4,217.4 294.6,221 295.7,226.8 297.4,230.3 298.5,233.9 
	300.1,240.9 301.6,245.6 303.1,248 304.8,251.5 306.8,255 307.7,256.2 308.7,257.4 310.6,256.2 311.5,251.5 312.8,244.4 
	316.2,226.8 317.8,217.4 319,217.4 320.6,203.3 321.9,199.8 324.7,183.4 326.1,178.7 328,166.9 329.6,163.4 333.2,150.5 
	335.3,144.6 337,139.9 340.5,130.5 344.1,124.7 347.7,117.6 350.5,110.6 352.9,105.9 354.8,104.7 358.7,97.6 364.3,88.3 366.3,85.9 
	369.9,82.4 372,78.9 375.1,76.5 377.7,75.3 379.8,73 383.5,69.5 386.8,67.1 388.9,63.6 392.2,61.2 394.4,58.9 398.8,56.5 
	401.5,63.6 403.6,76.5 405.6,95.3 408.7,127 411.1,148.1 413.3,176.3 415.4,190.4 417.6,209.2 418.8,215.1 420.8,229.2 421.8,237.4 
	423.9,246.8 426.3,255 427.2,259.7 428.8,260.9 429.8,262.1 432,263.2 433.2,260.9 434.7,251.5 436.2,243.3 437.7,250.3 
	440.2,232.7 441.6,225.6 444,218.6 445.2,215.1 446.7,213.9 449.2,209.2 450.8,205.7 452.4,203.3 454.8,191.6 456.2,188.1 
	458.8,177.5 460.6,174 462.9,165.8 465.3,156.4 467.3,152.8 471,143.4 475.8,130.5 477.6,128.2 480.3,121.1 483.5,115.3 
	485.9,110.6 489.2,105.9 492.6,100 495.6,95.3 498.5,91.8 500.6,88.3 502.6,87.1 504.6,84.7 507.7,83.6 510.8,80 513.3,90.6 
	515.2,102.3 517.9,124.7 520,141.1 522.8,151.7 525.8,171.6 528.3,178.7 530.1,181 532.1,189.2 534.5,193.9 537.2,196.3 
	538.8,197.5 540.5,198.6 541.8,198.6 543.8,196.3 545.4,197.5 546.8,197.5 550.1,198.6 552.7,201 556.6,198.6 558.3,196.3 
	560,191.6 562.1,185.7 563.8,192.8 565.4,209.2 568.4,233.9 569.6,246.8 572.3,267.9 573.3,273.8 575,287.9 575.8,291.4 
	576.9,300.8 578.1,304.3 579.4,311.4 580.9,314.9 582,312.6 582.9,306.7 584.3,299.6 585.2,294.9 586.1,289.1 587.3,280.8 
	588.4,273.8 590.2,259.7 591.6,262.1 592.5,264.4 594.5,269.1 595.3,271.4 597,273.8 598.1,275 599.9,276.1 600.9,278.5 
	602.2,278.5 603.4,277.3 604.9,275 606.4,270.3 609.2,258.5 610.6,255 612.8,238.6 614.2,229.2 615.4,219.8 618.2,205.7 
	619.6,197.5 622,185.7 625.2,179.9 626.7,181 628.5,181 630.5,191.6 631.8,196.3 633.4,206.9 635.9,230.3 638,243.3 639.8,263.2 
	641.2,267.9 642.7,286.7 644.1,291.4 645,298.5 646,302 647.5,310.2 648.3,313.7 649.9,316.1 650.6,313.7 651.5,310.2 652.2,305.5 
	654.1,294.9 655.1,285.5 656.3,277.3 658.7,257.4 661.4,237.4 662.5,226.8 665.7,206.9 668,196.3 670.1,189.2 672.2,181 
	675.6,172.8 677.4,170.5 679.7,164.6 682,163.4 684,159.9 686,157.5 688.3,156.4 691.6,149.3 695.4,141.1 697.1,137.6 700.1,130.5 
	702.8,128.2 705.5,123.5 708.2,118.8 709.9,128.2 712.3,156.4 717,211.6 719.2,229.2 720.5,240.9 722.9,258.5 724.4,267.9 
	725.7,273.8 727.4,285.5 729.1,290.2 730.7,292.6 731.5,289.1 732.8,284.4 733.6,278.5 734.7,272.6 735.8,263.2 737.3,255 
	739.7,236.2 742.1,221 744.2,211.6 748,191.6 749.4,183.4 750.9,176.3 753.5,169.3 757.4,157.5 759.9,149.3 761.5,149.3 
	765.3,136.4 768.4,129.4 772.9,121.1 777.6,112.9 780.4,108.2 782.8,108.2 786.2,100 790.6,95.3 796.1,90.6 801.2,85.9 803.7,82.4 
	805.8,78.9 808.9,80 812.6,75.3 817.3,73 821.1,68.3 824.9,63.6 827.6,63.6 830.8,62.4 834.1,60.1 836.9,60.1 841.3,58.9 
	845.1,60.1 847.9,56.5 854,56.5 859,54.2 862.3,53 864.6,53 867.4,53 871.3,51.9 874.1,51.9 877.5,50.7 882,50.7 888.2,49.5 
	891.6,49.5 897.2,48.3 900.6,48.3 "/>
<polyline class="st2" points="193.2,117.6 195.1,110.6 199.4,103.5 201.8,100 203.7,97.6 207.7,92.9 210.2,91.8 216.3,83.6 
	218.9,82.4 222,80 224.6,78.9 230.3,75.3 232.5,73 234.5,75.3 237.7,75.3 241.6,156.4 243.6,196.3 246,217.4 248.2,237.4 
	249.7,251.5 250.6,256.2 252,266.7 253.1,267.9 254.8,267.9 256.1,276.1 256.9,269.1 258.6,259.7 261.2,256.2 262.5,245.6 
	263.8,236.2 265.7,238.6 267.4,252.7 268.9,267.9 271.4,278.5 272.6,280.8 274.1,284.4 275.4,289.1 276.8,282 278.2,283.2 
	279.5,271.4 280.4,267.9 281.9,270.3 283,273.8 284,275 284.8,278.5 286.3,277.3 288.2,273.8 289.7,266.7 290.6,264.4 291.6,257.4 
	293,251.5 294.1,243.3 295.7,236.2 297.4,225.6 299.2,217.4 301.5,204.5 304.1,199.8 305.4,199.8 306.7,199.8 309,228 310.1,230.3 
	311.5,232.7 314.9,224.5 316.4,213.9 317.7,206.9 319.4,198.6 320.7,193.9 323.6,181 325,174 326.9,165.8 328.5,158.7 332.2,150.5 
	334.3,141.1 336,135.2 339.5,127 343.2,118.8 346.9,110.6 349.8,104.7 352.2,101.2 354.1,98.8 358.1,91.8 363.7,85.9 365.8,82.4 
	369.4,77.7 371.5,77.7 374.6,76.5 377.2,77.7 379.3,76.5 382.9,76.5 386.1,73 388.2,70.6 391.4,68.3 393.6,71.8 397.7,77.7 
	400.3,87.1 402.2,97.6 404.1,102.3 407.3,123.5 409.8,138.8 412.3,145.8 414.5,177.5 416.8,199.8 418,213.9 420,224.5 421.1,233.9 
	423.1,245.6 425.5,258.5 426.4,262.1 428,266.7 428.8,270.3 431,271.4 432.1,269.1 433.4,264.4 434.9,255 436.4,248 438.8,235 
	440.3,221 442.8,206.9 444.2,196.3 445.9,191.6 448.8,176.3 450.6,170.5 452.6,163.4 455.4,154 457,150.5 459.9,142.3 462,138.8 
	464.7,131.7 467.3,128.2 469.5,123.5 473.7,116.4 478.8,109.4 480.7,105.9 483.6,103.5 487,98.8 489.5,96.5 493,91.8 496.5,90.6 
	499.5,85.9 502.6,84.7 504.6,82.4 506.7,82.4 508.7,81.2 511.8,85.9 514.6,109.4 516.8,124.7 518.5,131.7 520.9,155.2 522.8,164.6 
	525.4,175.1 528.3,181 530.7,190.4 532.4,195.1 534.3,196.3 536.7,196.3 539.4,193.9 541,197.5 542.7,201 543.9,204.5 545.8,205.7 
	547.4,206.9 548.7,210.4 551.8,211.6 554.3,209.2 558.2,199.8 559.9,195.1 561.6,192.8 563.6,192.8 565.2,204.5 566.7,217.4 
	569.7,232.7 571,249.1 573.5,273.8 574.5,280.8 576.2,292.6 576.9,293.8 578.1,300.8 579.1,307.8 580.5,310.2 582.2,304.3 
	583.3,300.8 584.4,296.1 585.9,289.1 586.9,283.2 587.9,276.1 589.2,267.9 590.4,263.2 592.1,272.6 593.3,278.5 594.1,280.8 
	595.8,287.9 596.5,291.4 598,294.9 598.8,298.5 600.4,297.3 601.3,297.3 602.3,297.3 603.4,287.9 604.9,271.4 606.5,260.9 
	609.5,250.3 611,246.8 613.2,237.4 614.6,229.2 615.8,221 618.6,211.6 619.8,211.6 622.1,198.6 625.3,178.7 626.8,171.6 
	628.7,171.6 630.8,189.2 632.1,189.2 633.7,217.4 636.1,235 638,258.5 639.8,263.2 641,283.2 642.5,289.1 643.8,299.6 644.7,303.2 
	645.6,305.5 647.1,313.7 647.8,316.1 649.5,312.6 650.2,310.2 651.2,307.8 651.9,298.5 654,285.5 654.9,285.5 656.3,263.2 
	658.8,249.1 661.8,221 662.9,221 666.2,198.6 668.7,186.9 670.8,183.4 673,179.9 676.1,183.4 677.9,185.7 680,181 682.2,178.7 
	684,176.3 685.9,172.8 688.2,162.2 691.4,152.8 695.1,148.1 696.7,142.3 699.7,136.4 702.4,130.5 705,124.7 707.7,124.7 
	709.4,143.4 711.7,159.9 716.5,206.9 718.7,230.3 720,243.3 722.3,263.2 723.8,273.8 725,280.8 726.6,289.1 728.3,293.8 
	729.9,290.2 730.7,287.9 732.1,280.8 732.9,277.3 734,272.6 735.1,264.4 736.5,253.8 738.9,239.7 741.2,223.3 743.4,210.4 
	747.2,188.1 748.6,184.5 750.1,177.5 752.7,169.3 756.7,157.5 759.1,154 760.7,145.8 764.5,138.8 767.6,132.9 772,124.7 
	776.6,116.4 779.4,112.9 781.8,110.6 785.1,105.9 789.4,103.5 794.7,100 799.7,92.9 802.2,90.6 804.2,89.4 807.2,87.1 810.8,83.6 
	815.4,80 819.1,77.7 822.8,75.3 825.4,73 828.6,70.6 831.8,69.5 834.5,67.1 838.7,67.1 842.5,64.8 845.2,63.6 851.2,64.8 
	855.7,87.1 858.6,105.9 860.4,123.5 862.5,141.1 865.3,155.2 867.1,172.8 869.2,185.7 871.9,198.6 874.8,238.6 876.3,250.3 
	878.4,272.6 879.6,283.2 880.3,294.9 882,319.6 883.4,316.1 884.3,316.1 885.4,314.9 886.3,314.9 887.8,314.9 889,314.9 
	890.3,314.9 890.9,314.9 892,314.9 893.1,314.9 893.8,313.7 "/>
<rect x="157.8" y="34.8" class="st3" width="788.4" height="298.4"/>
<rect x="113.9" y="0.6" class="st0" width="828.4" height="414.2"/>
<rect x="135.2" y="285.2" class="st0" width="16.9" height="12"/>
<text transform="matrix(1 0 0 1 135.2244 293.8665)" class="st4 st5 st6">100</text>
<rect x="135.2" y="226.5" class="st0" width="16.9" height="12"/>
<text transform="matrix(1 0 0 1 135.2244 235.1517)" class="st4 st5 st6">150</text>
<rect x="135.2" y="167.7" class="st0" width="16.9" height="12"/>
<text transform="matrix(1 0 0 1 135.2244 176.4364)" class="st4 st5 st6">200</text>
<rect x="135.2" y="109" class="st0" width="16.9" height="12"/>
<text transform="matrix(1 0 0 1 135.2244 117.7225)" class="st4 st5 st6">250</text>
<rect x="135.2" y="50.3" class="st0" width="16.9" height="12"/>
<text transform="matrix(1 0 0 1 135.2244 58.9959)" class="st4 st5 st6">300</text>
<line class="st7" x1="154.6" y1="290.2" x2="157.8" y2="290.2"/>
<line class="st7" x1="154.6" y1="231.5" x2="157.8" y2="231.5"/>
<line class="st7" x1="154.6" y1="172.8" x2="157.8" y2="172.8"/>
<line class="st7" x1="154.6" y1="114.1" x2="157.8" y2="114.1"/>
<line class="st7" x1="154.6" y1="55.4" x2="157.8" y2="55.4"/>
<line class="st7" x1="191.4" y1="336.3" x2="191.4" y2="333.2"/>
<line class="st7" x1="358" y1="336.3" x2="358" y2="333.2"/>
<line class="st7" x1="524.5" y1="336.3" x2="524.5" y2="333.2"/>
<line class="st7" x1="691.1" y1="336.3" x2="691.1" y2="333.2"/>
<line class="st7" x1="857.7" y1="336.3" x2="857.7" y2="333.2"/>
<rect x="188.6" y="337.4" class="st0" width="5.6" height="12"/>
<text transform="matrix(1 0 0 1 188.5603 346.0921)" class="st4 st5 st6">0</text>
<rect x="346.7" y="337.4" class="st0" width="22.5" height="12"/>
<text transform="matrix(1 0 0 1 346.6956 346.0921)" class="st4 st5 st6">1000</text>
<rect x="513.3" y="337.4" class="st0" width="22.5" height="12"/>
<text transform="matrix(1 0 0 1 513.2786 346.0921)" class="st4 st5 st6">2000</text>
<rect x="679.9" y="337.4" class="st0" width="22.5" height="12"/>
<text transform="matrix(1 0 0 1 679.8733 346.0921)" class="st4 st5 st6">3000</text>
<rect x="846.5" y="337.4" class="st0" width="22.5" height="12"/>
<text transform="matrix(1 0 0 1 846.4543 346.0921)" class="st4 st5 st6">4000</text>
<rect x="494.5" y="349.7" class="st0" width="104.8" height="15"/>
<text transform="matrix(1 0 0 1 494.4944 360.5658)" class="st5 st8">Distance in meters</text>
<rect x="118.4" y="165.7" class="st0" width="15" height="36.6"/>
<text transform="matrix(6.123234e-17 -1 1 6.123234e-17 129.2629 202.2601)" class="st5 st8">Speed</text>
<text transform="matrix(1 0 0 1 464.3762 373.7513)" class="st4 st5 st8">Driver</text>
<line class="st1" x1="506.4" y1="369.2" x2="522.3" y2="369.2"/>
<line class="st2" x1="559.7" y1="369.2" x2="575.6" y2="369.2"/>
<text transform="matrix(1 0 0 1 530.6165 372.8314)" class="st9 st5 st6">VER</text>
<g class="st10">
	<text transform="matrix(1 0 0 1 583.9231 372.8314)" class="st11 st5 st6">HAM</text>
</g>
<rect x="461.1" y="47.6" class="st0" width="50" height="23.7"/>
<text transform="matrix(1 0 0 1 461.0866 64.7733)" class="st4 st5 st12">Lap 7</text>
</svg>
