<?xml version="1.0" encoding="utf-8"?>
<!-- Generator: Adobe Illustrator 27.2.0, SVG Export Plug-In . SVG Version: 6.00 Build 0)  -->
<svg version="1.1" id="Layer_1" xmlns="http://www.w3.org/2000/svg" xmlns:xlink="http://www.w3.org/1999/xlink" x="0px" y="0px"
	 viewBox="0 0 753.6 382" style="enable-background:new 0 0 753.6 382;" xml:space="preserve">
<style type="text/css">
	.st0{clip-path:url(#SVGID_00000139263567879186751520000011716424207800603023_);}
	.st1{fill:none;stroke:#00FFFF;stroke-width:1.28;stroke-linejoin:round;stroke-miterlimit:10;}
	.st2{fill:none;stroke:#9F00C6;stroke-width:1.28;stroke-linejoin:round;stroke-miterlimit:10;}
	.st3{fill:none;stroke:#FFFFFF;stroke-width:1.07;stroke-linecap:round;stroke-linejoin:round;stroke-miterlimit:10;}
	.st4{fill:none;}
	.st5{fill:#FFFFFF;}
	.st6{font-family:'ArialMT';}
	.st7{font-size:8.8px;}
	.st8{fill:none;stroke:#333333;stroke-width:1.07;stroke-linejoin:round;stroke-miterlimit:10;}
	.st9{font-size:11px;}
	.st10{fill:none;stroke:#00FFFF;stroke-miterlimit:10;}
	.st11{enable-background:new    ;}
	.st12{fill:none;stroke:#9F00C6;stroke-linecap:round;stroke-linejoin:round;stroke-miterlimit:10;}
	.st13{font-size:20px;}
</style>
<rect x="-0.5" y="0" width="753.6" height="382"/>
<g>
	<defs>
		<rect id="SVGID_1_" x="8" y="24" width="720" height="360"/>
	</defs>
	<clipPath id="SVGID_00000008845368598919053310000005238986417321138344_">
		<use xlink:href="#SVGID_1_"  style="overflow:visible;"/>
	</clipPath>
</g>
<g>
	<defs>
		<rect id="SVGID_00000132775306149147813220000011414532306545003438_" x="46.2" y="53.7" width="676.4" height="259.3"/>
	</defs>
	<clipPath id="SVGID_00000121973130254347913260000003787367402178130838_">
		<use xlink:href="#SVGID_00000132775306149147813220000011414532306545003438_"  style="overflow:visible;"/>
	</clipPath>
	<g style="clip-path:url(#SVGID_00000121973130254347913260000003787367402178130838_);">
		<rect x="46.2" y="53.7" width="676.4" height="259.3"/>
		<polyline class="st1" points="78.1,118.6 79.7,116.5 83.5,110.4 85.7,107.4 87.4,104.3 90.9,102.3 93.1,100.2 98.4,96.1 
			100.6,95.1 103.3,94.1 105.5,94.1 110.5,91 112.3,91 114,105.3 116.5,119.6 120.1,146.1 121.6,217.6 123.5,229.8 125.3,234.9 
			126.6,245.1 127.4,247.2 128.6,250.2 129.5,256.4 131,261.5 132.1,259.4 132.9,256.4 134.3,252.3 136.5,249.2 137.6,244.1 
			138.7,236 140.2,239 141.7,243.1 143.1,252.3 145.1,273.7 146,280.9 147.1,283.9 148.2,281.9 149.4,273.7 150.6,263.5 
			151.8,254.3 152.6,246.2 154.2,231.9 155.4,222.7 156.7,214.5 157.8,210.4 159.7,202.3 162.2,204.3 164,212.5 165,215.5 
			166,220.6 167.5,223.7 168.4,226.8 169.8,232.9 171.1,237 172.5,239 174,242.1 175.6,245.1 176.5,246.2 177.3,247.2 178.9,246.2 
			179.8,242.1 180.9,236 183.9,220.6 185.2,212.5 186.2,212.5 187.6,200.2 188.8,197.2 191.2,182.9 192.5,178.8 194.1,168.6 
			195.5,165.5 198.6,154.3 200.4,149.2 201.9,145.1 204.9,137 208.1,131.9 211.2,125.7 213.7,119.6 215.7,115.5 217.4,114.5 
			220.8,108.4 225.6,100.2 227.4,98.2 230.5,95.1 232.3,92 235,90 237.3,89 239.1,86.9 242.4,83.9 245.2,81.8 247.1,78.8 
			249.9,76.7 251.8,74.7 255.7,72.7 258,78.8 259.8,90 261.5,106.3 264.2,133.9 266.4,152.3 268.3,176.8 270,189 272,205.3 
			273,210.4 274.7,222.7 275.6,229.8 277.4,238 279.5,245.1 280.3,249.2 281.7,250.2 282.5,251.3 284.5,252.3 285.5,250.2 
			286.8,242.1 288.1,234.9 289.4,241.1 291.6,225.7 292.8,219.6 294.9,213.5 296,210.4 297.3,209.4 299.5,205.3 300.9,202.3 
			302.2,200.2 304.3,190 305.5,187 307.7,177.8 309.3,174.7 311.3,167.6 313.4,159.4 315.1,156.3 318.4,148.2 322.6,137 
			324.1,134.9 326.5,128.8 329.3,123.7 331.3,119.6 334.2,115.5 337.1,110.4 339.7,106.3 342.3,103.3 344.1,100.2 345.8,99.2 
			347.6,97.2 350.2,96.1 352.9,93.1 355.1,102.3 356.8,112.5 359.1,131.9 360.9,146.1 363.4,155.3 366,172.7 368.2,178.8 
			369.7,180.8 371.5,188 373.6,192.1 375.9,194.1 377.3,195.1 378.8,196.2 379.9,196.2 381.6,194.1 383.1,195.1 384.2,195.1 
			387.1,196.2 389.4,198.2 392.8,196.2 394.2,194.1 395.7,190 397.5,184.9 399,191 400.4,205.3 403,226.8 404.1,238 406.4,256.4 
			407.3,261.5 408.8,273.7 409.4,276.8 410.5,284.9 411.4,288 412.6,294.1 413.9,297.2 414.8,295.2 415.6,290 416.8,283.9 
			417.6,279.8 418.4,274.7 419.5,267.6 420.4,261.5 422,249.2 423.2,251.3 424,253.3 425.7,257.4 426.4,259.4 427.9,261.5 
			428.8,262.5 430.4,263.5 431.3,265.6 432.4,265.6 433.5,264.5 434.7,262.5 436,258.4 438.5,248.2 439.7,245.1 441.6,230.9 
			442.8,222.7 443.9,214.5 446.3,202.3 447.5,195.1 449.6,184.9 452.4,179.8 453.7,180.8 455.2,180.8 457,190 458.2,194.1 
			459.5,203.3 461.7,223.7 463.5,234.9 465.1,252.3 466.3,256.4 467.6,272.7 468.9,276.8 469.6,282.9 470.5,286 471.8,293.1 
			472.5,296.2 473.8,298.2 474.5,296.2 475.3,293.1 475.8,289 477.5,279.8 478.4,271.7 479.4,264.5 481.5,247.2 483.8,229.8 
			484.8,220.6 487.6,203.3 489.6,194.1 491.4,188 493.3,180.8 496.2,173.7 497.8,171.7 499.8,166.6 501.8,165.5 503.5,162.5 
			505.2,160.4 507.3,159.4 510.1,153.3 513.4,146.1 514.9,143.1 517.5,137 519.8,134.9 522.2,130.8 524.5,126.7 526,134.9 
			528.1,159.4 532.2,207.4 534.1,222.7 535.2,232.9 537.3,248.2 538.6,256.4 539.7,261.5 541.2,271.7 542.7,275.8 544.1,277.8 
			544.8,274.7 545.9,270.7 546.7,265.6 547.6,260.5 548.6,252.3 549.8,245.1 551.9,228.8 554,215.5 555.8,207.4 559.1,190 
			560.3,182.9 561.6,176.8 563.9,170.6 567.3,160.4 569.4,153.3 570.9,153.3 574.2,142.1 576.9,135.9 580.8,128.8 584.8,121.6 
			587.3,117.6 589.4,117.6 592.3,110.4 596.2,106.3 600.9,102.3 605.3,98.2 607.6,95.1 609.4,92 612.1,93.1 615.2,89 619.4,86.9 
			622.6,82.9 625.9,78.8 628.3,78.8 631.1,77.8 634,75.7 636.3,75.7 640.2,74.7 643.5,75.7 645.9,72.7 651.2,72.7 655.6,70.6 
			658.5,69.6 660.4,69.6 662.9,69.6 666.3,68.6 668.7,68.6 671.7,67.6 675.6,67.6 681,66.5 683.9,66.5 688.8,65.5 691.8,65.5 		"/>
		<polyline class="st2" points="76.9,125.7 78.6,119.6 82.3,113.5 84.4,110.4 86.1,108.4 89.6,104.3 91.7,103.3 97,96.1 99.3,95.1 
			101.9,93.1 104.2,92 109.2,89 111.1,86.9 112.9,89 115.6,89 119,159.4 120.8,194.1 122.9,212.5 124.7,229.8 126,242.1 
			126.8,246.2 128,255.3 129,256.4 130.5,256.4 131.6,263.5 132.3,257.4 133.8,249.2 136,246.2 137.1,237 138.3,228.8 139.9,230.9 
			141.4,243.1 142.8,256.4 144.9,265.6 145.9,267.6 147.3,270.7 148.4,274.7 149.6,268.6 150.8,269.6 151.9,259.4 152.7,256.4 
			154,258.4 154.9,261.5 155.9,262.5 156.6,265.6 157.8,264.5 159.5,261.5 160.8,255.3 161.6,253.3 162.4,247.2 163.7,242.1 
			164.6,234.9 166,228.8 167.5,219.6 169.1,212.5 171,201.3 173.3,197.2 174.4,197.2 175.6,197.2 177.5,221.7 178.5,223.7 
			179.7,225.7 182.7,218.6 184.1,209.4 185.1,203.3 186.6,196.2 187.8,192.1 190.2,180.8 191.5,174.7 193.2,167.6 194.5,161.5 
			197.7,154.3 199.5,146.1 201,141 204.1,133.9 207.3,126.7 210.5,119.6 213,114.5 215.1,111.4 216.8,109.4 220.3,103.3 225.1,98.2 
			226.9,95.1 230.1,91 231.9,91 234.6,90 236.9,91 238.7,90 241.9,90 244.6,86.9 246.4,84.9 249.2,82.9 251.1,85.9 254.7,91 
			256.9,99.2 258.6,108.4 260.3,112.5 263,130.8 265.2,144.1 267.4,150.2 269.2,177.8 271.2,197.2 272.3,209.4 274,218.6 275,226.8 
			276.8,237 278.8,248.2 279.6,251.3 281,255.3 281.7,258.4 283.6,259.4 284.5,257.4 285.7,253.3 287,245.1 288.3,239 290.4,227.8 
			291.7,215.5 293.9,203.3 295,194.1 296.5,190 299.1,176.8 300.7,171.7 302.4,165.5 304.8,157.4 306.2,154.3 308.8,147.2 
			310.6,144.1 312.9,138 315.2,134.9 317.1,130.8 320.7,124.7 325.2,118.6 326.8,115.5 329.3,113.5 332.3,109.4 334.4,107.4 
			337.5,103.3 340.5,102.3 343.2,98.2 345.8,97.2 347.6,95.1 349.4,95.1 351.2,94.1 353.8,98.2 356.2,118.6 358.2,131.9 359.7,138 
			361.8,158.4 363.4,166.6 365.7,175.7 368.2,180.8 370.2,189 371.7,193.1 373.4,194.1 375.5,194.1 377.8,192.1 379.2,195.1 
			380.7,198.2 381.8,201.3 383.4,202.3 384.8,203.3 385.9,206.4 388.6,207.4 390.8,205.3 394.2,197.2 395.6,193.1 397.1,191 
			398.9,191 400.3,201.3 401.6,212.5 404.2,225.7 405.3,240 407.5,261.5 408.4,267.6 409.8,277.8 410.4,278.8 411.4,284.9 
			412.4,291.1 413.6,293.1 415,288 416,284.9 416.9,280.9 418.2,274.7 419.1,269.6 420,263.5 421.1,256.4 422.1,252.3 423.6,260.5 
			424.7,265.6 425.4,267.6 426.8,273.7 427.5,276.8 428.7,279.8 429.5,282.9 430.8,281.9 431.6,281.9 432.5,281.9 433.5,273.7 
			434.8,259.4 436.2,250.2 438.8,241.1 440.1,238 442,229.8 443.2,222.7 444.2,215.5 446.6,207.4 447.7,207.4 449.7,196.2 
			452.5,178.8 453.8,172.7 455.4,172.7 457.2,188 458.4,188 459.7,212.5 461.9,227.8 463.5,248.2 465.1,252.3 466.1,269.6 
			467.4,274.7 468.6,283.9 469.3,287 470.1,289 471.4,296.2 472.1,298.2 473.5,295.2 474.2,293.1 475,291.1 475.6,282.9 
			477.4,271.7 478.2,271.7 479.4,252.3 481.6,240 484.2,215.5 485.2,215.5 488.1,196.2 490.2,185.9 492,182.9 493.9,179.8 
			496.7,182.9 498.2,184.9 500,180.8 501.9,178.8 503.5,176.8 505.1,173.7 507.1,164.5 509.9,156.3 513.1,152.3 514.6,147.2 
			517.2,142.1 519.5,137 521.8,131.9 524.1,131.9 525.5,148.2 527.6,162.5 531.7,203.3 533.7,223.7 534.8,234.9 536.8,252.3 
			538,261.5 539.1,267.6 540.6,274.7 542,278.8 543.4,275.8 544.1,273.7 545.3,267.6 546,264.5 546.9,260.5 547.9,253.3 
			549.2,244.1 551.2,231.9 553.2,217.6 555.2,206.4 558.5,187 559.7,183.9 560.9,177.8 563.2,170.6 566.7,160.4 568.7,157.4 
			570.2,150.2 573.5,144.1 576.1,139 580,131.9 584,124.7 586.4,121.6 588.5,119.6 591.3,115.5 595.1,113.5 599.7,110.4 604,104.3 
			606.2,102.3 608,101.2 610.6,99.2 613.7,96.1 617.7,93.1 620.9,91 624.1,89 626.4,86.9 629.2,84.9 631.9,83.9 634.3,81.8 
			638,81.8 641.3,79.8 643.6,78.8 648.8,79.8 652.8,99.2 655.2,115.5 656.8,130.8 658.6,146.1 661,158.4 662.7,173.7 664.5,184.9 
			666.8,196.2 669.3,230.9 670.6,241.1 672.5,260.5 673.5,269.6 674.1,279.8 675.5,301.3 676.8,298.2 677.6,298.2 678.6,297.2 
			679.3,297.2 680.6,297.2 681.6,297.2 682.8,297.2 683.3,297.2 684.3,297.2 685.2,297.2 685.8,296.2 		"/>
		<rect x="46.2" y="53.7" class="st3" width="676.4" height="259.3"/>
	</g>
</g>
<rect x="8" y="24" class="st4" width="720" height="360"/>
<rect x="26.5" y="271.4" class="st4" width="14.7" height="10.4"/>
<text transform="matrix(1 0 0 1 26.5474 278.9145)" class="st5 st6 st7">100</text>
<rect x="26.5" y="220.3" class="st4" width="14.7" height="10.4"/>
<text transform="matrix(1 0 0 1 26.5474 227.8847)" class="st5 st6 st7">150</text>
<rect x="26.5" y="169.3" class="st4" width="14.7" height="10.4"/>
<text transform="matrix(1 0 0 1 26.5474 176.8544)" class="st5 st6 st7">200</text>
<rect x="26.5" y="118.3" class="st4" width="14.7" height="10.4"/>
<text transform="matrix(1 0 0 1 26.5474 125.8246)" class="st5 st6 st7">250</text>
<rect x="26.5" y="67.2" class="st4" width="14.7" height="10.4"/>
<text transform="matrix(1 0 0 1 26.5474 74.7846)" class="st5 st6 st7">300</text>
<line class="st8" x1="43.4" y1="275.8" x2="46.2" y2="275.8"/>
<line class="st8" x1="43.4" y1="224.7" x2="46.2" y2="224.7"/>
<line class="st8" x1="43.4" y1="173.7" x2="46.2" y2="173.7"/>
<line class="st8" x1="43.4" y1="122.7" x2="46.2" y2="122.7"/>
<line class="st8" x1="43.4" y1="71.6" x2="46.2" y2="71.6"/>
<line class="st8" x1="75.3" y1="315.8" x2="75.3" y2="313.1"/>
<line class="st8" x1="220.1" y1="315.8" x2="220.1" y2="313.1"/>
<line class="st8" x1="364.9" y1="315.8" x2="364.9" y2="313.1"/>
<line class="st8" x1="509.7" y1="315.8" x2="509.7" y2="313.1"/>
<line class="st8" x1="654.5" y1="315.8" x2="654.5" y2="313.1"/>
<rect x="72.9" y="316.8" class="st4" width="4.9" height="10.4"/>
<text transform="matrix(1 0 0 1 72.9028 324.3046)" class="st5 st6 st7">0</text>
<rect x="210.3" y="316.8" class="st4" width="19.6" height="10.4"/>
<text transform="matrix(1 0 0 1 210.3418 324.3046)" class="st5 st6 st7">1000</text>
<rect x="355.1" y="316.8" class="st4" width="19.6" height="10.4"/>
<text transform="matrix(1 0 0 1 355.1221 324.3046)" class="st5 st6 st7">2000</text>
<rect x="499.9" y="316.8" class="st4" width="19.6" height="10.4"/>
<text transform="matrix(1 0 0 1 499.9121 324.3046)" class="st5 st6 st7">3000</text>
<rect x="644.7" y="316.8" class="st4" width="19.6" height="10.4"/>
<text transform="matrix(1 0 0 1 644.6914 324.3046)" class="st5 st6 st7">4000</text>
<rect x="338.8" y="327.4" class="st4" width="91.1" height="13"/>
<text transform="matrix(1 0 0 1 338.7959 336.8852)" class="st6 st9">Distance in meters</text>
<rect x="11.9" y="167.5" class="st4" width="13" height="31.8"/>
<text transform="matrix(6.123234e-17 -1 1 6.123234e-17 21.3662 199.2982)" class="st6 st9">Speed</text>
<text transform="matrix(1 0 0 1 312.62 348.3445)" class="st5 st6 st9">Driver</text>
<line class="st1" x1="349.2" y1="344.4" x2="363" y2="344.4"/>
<line class="st2" x1="395.5" y1="344.4" x2="409.3" y2="344.4"/>
<text transform="matrix(1 0 0 1 370.19 347.5445)" class="st10 st6 st7">VER</text>
<g class="st11">
	<text transform="matrix(1 0 0 1 416.52 347.5445)" class="st12 st6 st7">HAM</text>
</g>
<rect x="355.2" y="16.8" class="st4" width="50" height="23.7"/>
<text transform="matrix(1 0 0 1 355.2034 33.998)" class="st5 st6 st13">Lap 7</text>
</svg>
