<?xml version="1.0" encoding="utf-8"?>
<!-- Generator: Adobe Illustrator 27.2.0, SVG Export Plug-In . SVG Version: 6.00 Build 0)  -->
<svg version="1.1" id="Layer_1" xmlns="http://www.w3.org/2000/svg" xmlns:xlink="http://www.w3.org/1999/xlink" x="0px" y="0px"
	 viewBox="0 0 1022.1 382" style="enable-background:new 0 0 1022.1 382;" xml:space="preserve">
<style type="text/css">
	.st0{fill:none;}
	.st1{fill:none;stroke:#00FFFF;stroke-width:1.28;stroke-linejoin:round;stroke-miterlimit:10;}
	.st2{fill:none;stroke:#9F00C6;stroke-width:1.28;stroke-linejoin:round;stroke-miterlimit:10;}
	.st3{fill:none;stroke:#FFFFFF;stroke-width:1.07;stroke-linecap:round;stroke-linejoin:round;stroke-miterlimit:10;}
	.st4{fill:#FFFFFF;}
	.st5{font-family:'TitilliumWeb-Regular';}
	.st6{font-size:10.1252px;}
	.st7{fill:#FFFFFF;stroke:#FFFFFF;stroke-miterlimit:10;}
	.st8{font-family:'ArialMT';}
	.st9{font-size:12.6565px;}
	.st10{fill:none;stroke:#00FFFF;stroke-miterlimit:10;}
	.st11{enable-background:new    ;}
	.st12{fill:none;stroke:#9F00C6;stroke-linecap:round;stroke-linejoin:round;stroke-miterlimit:10;}
	.st13{font-family:'TitilliumWeb-Bold';}
	.st14{font-size:20px;}
	.st15{font-size:12px;}
</style>
<rect x="-0.2" width="1080.5" height="382"/>
<rect x="77.8" y="44.8" class="st0" width="778.2" height="298.4"/>
<polyline class="st1" points="114.5,119.4 116.4,117 120.8,110 123.2,106.5 125.2,102.9 129.2,100.6 131.7,98.3 137.9,93.6 
	140.4,92.4 143.5,91.2 146.1,91.2 151.8,87.7 153.9,87.7 155.9,104.1 158.7,120.6 162.9,151.1 164.6,233.3 166.8,247.4 168.8,253.3 
	170.3,265 171.2,267.4 172.6,270.9 173.7,277.9 175.4,283.8 176.7,281.4 177.6,277.9 179.2,273.2 181.7,269.7 183,263.8 
	184.2,254.4 186,258 187.7,262.7 189.3,273.2 191.6,297.9 192.6,306.1 194,309.6 195.2,307.3 196.5,297.9 198,286.1 199.3,275.6 
	200.3,266.2 202.1,249.7 203.5,239.2 205,229.8 206.2,225.1 208.5,215.7 211.3,218 213.4,227.4 214.6,231 215.7,236.8 217.4,240.3 
	218.5,243.9 220.1,250.9 221.6,255.6 223.1,258 224.8,261.5 226.8,265 227.7,266.2 228.7,267.4 230.6,266.2 231.5,261.5 
	232.8,254.4 236.2,236.8 237.8,227.4 239,227.4 240.6,213.3 241.9,209.8 244.7,193.4 246.1,188.7 248,176.9 249.6,173.4 
	253.2,160.5 255.3,154.6 257,149.9 260.5,140.5 264.1,134.7 267.7,127.6 270.5,120.6 272.9,115.9 274.8,114.7 278.7,107.6 
	284.3,98.3 286.3,95.9 289.9,92.4 292,88.9 295.1,86.5 297.7,85.3 299.8,83 303.5,79.5 306.8,77.1 308.9,73.6 312.2,71.2 
	314.4,68.9 318.8,66.5 321.5,73.6 323.6,86.5 325.6,105.3 328.7,137 331.1,158.1 333.3,186.3 335.4,200.4 337.6,219.2 338.8,225.1 
	340.8,239.2 341.8,247.4 343.9,256.8 346.3,265 347.2,269.7 348.8,270.9 349.8,272.1 352,273.2 353.2,270.9 354.7,261.5 
	356.2,253.3 357.7,260.3 360.2,242.7 361.6,235.6 364,228.6 365.2,225.1 366.7,223.9 369.2,219.2 370.8,215.7 372.4,213.3 
	374.8,201.6 376.2,198.1 378.8,187.5 380.6,184 382.9,175.8 385.3,166.4 387.3,162.8 391,153.4 395.8,140.5 397.6,138.2 
	400.3,131.1 403.5,125.3 405.9,120.6 409.2,115.9 412.6,110 415.6,105.3 418.5,101.8 420.6,98.3 422.6,97.1 424.6,94.7 427.7,93.6 
	430.8,90 433.3,100.6 435.2,112.3 437.9,134.7 440,151.1 442.8,161.7 445.8,181.6 448.3,188.7 450.1,191 452.1,199.2 454.5,203.9 
	457.2,206.3 458.8,207.5 460.5,208.6 461.8,208.6 463.8,206.3 465.4,207.5 466.8,207.5 470.1,208.6 472.7,211 476.6,208.6 
	478.3,206.3 480,201.6 482.1,195.7 483.8,202.8 485.4,219.2 488.4,243.9 489.6,256.8 492.3,277.9 493.3,283.8 495,297.9 
	495.8,301.4 496.9,310.8 498.1,314.3 499.4,321.4 500.9,324.9 502,322.6 502.9,316.7 504.3,309.6 505.2,304.9 506.1,299.1 
	507.3,290.8 508.4,283.8 510.2,269.7 511.6,272.1 512.5,274.4 514.5,279.1 515.3,281.4 517,283.8 518.1,285 519.9,286.1 
	520.9,288.5 522.2,288.5 523.4,287.3 524.9,285 526.4,280.3 529.2,268.5 530.6,265 532.8,248.6 534.2,239.2 535.4,229.8 
	538.2,215.7 539.6,207.5 542,195.7 545.2,189.9 546.7,191 548.5,191 550.5,201.6 551.8,206.3 553.4,216.9 555.9,240.3 558,253.3 
	559.8,273.2 561.2,277.9 562.7,296.7 564.1,301.4 565,308.5 566,312 567.5,320.2 568.3,323.7 569.9,326.1 570.6,323.7 571.5,320.2 
	572.2,315.5 574.1,304.9 575.1,295.5 576.3,287.3 578.7,267.4 581.4,247.4 582.5,236.8 585.7,216.9 588,206.3 590.1,199.2 
	592.2,191 595.6,182.8 597.4,180.5 599.7,174.6 602,173.4 604,169.9 606,167.5 608.3,166.4 611.6,159.3 615.4,151.1 617.1,147.6 
	620.1,140.5 622.8,138.2 625.5,133.5 628.2,128.8 629.9,138.2 632.3,166.4 637,221.6 639.2,239.2 640.5,250.9 642.9,268.5 
	644.4,277.9 645.7,283.8 647.4,295.5 649.1,300.2 650.7,302.6 651.5,299.1 652.8,294.4 653.6,288.5 654.7,282.6 655.8,273.2 
	657.3,265 659.7,246.2 662.1,231 664.2,221.6 668,201.6 669.4,193.4 670.9,186.3 673.5,179.3 677.4,167.5 679.9,159.3 681.5,159.3 
	685.3,146.4 688.4,139.4 692.9,131.1 697.6,122.9 700.4,118.2 702.8,118.2 706.2,110 710.6,105.3 716.1,100.6 721.2,95.9 
	723.7,92.4 725.8,88.9 728.9,90 732.6,85.3 737.3,83 741.1,78.3 744.9,73.6 747.6,73.6 750.8,72.4 754.1,70.1 756.9,70.1 
	761.3,68.9 765.1,70.1 767.9,66.5 774,66.5 779,64.2 782.3,63 784.6,63 787.4,63 791.3,61.9 794.1,61.9 797.5,60.7 802,60.7 
	808.2,59.5 811.6,59.5 817.2,58.3 820.6,58.3 "/>
<polyline class="st2" points="113.2,127.6 115.1,120.6 119.4,113.5 121.8,110 123.7,107.6 127.7,102.9 130.2,101.8 136.3,93.6 
	138.9,92.4 142,90 144.6,88.9 150.3,85.3 152.5,83 154.5,85.3 157.7,85.3 161.6,166.4 163.6,206.3 166,227.4 168.2,247.4 
	169.7,261.5 170.6,266.2 172,276.7 173.1,277.9 174.8,277.9 176.1,286.1 176.9,279.1 178.6,269.7 181.2,266.2 182.5,255.6 
	183.8,246.2 185.7,248.6 187.4,262.7 188.9,277.9 191.4,288.5 192.6,290.8 194.1,294.4 195.4,299.1 196.8,292 198.2,293.2 
	199.5,281.4 200.4,277.9 201.9,280.3 203,283.8 204,285 204.8,288.5 206.3,287.3 208.2,283.8 209.7,276.7 210.6,274.4 211.6,267.4 
	213,261.5 214.1,253.3 215.7,246.2 217.4,235.6 219.2,227.4 221.5,214.5 224.1,209.8 225.4,209.8 226.7,209.8 229,238 230.1,240.3 
	231.5,242.7 234.9,234.5 236.4,223.9 237.7,216.9 239.4,208.6 240.7,203.9 243.6,191 245,184 246.9,175.8 248.5,168.7 252.2,160.5 
	254.3,151.1 256,145.2 259.5,137 263.2,128.8 266.9,120.6 269.8,114.7 272.2,111.2 274.1,108.8 278.1,101.8 283.7,95.9 285.8,92.4 
	289.4,87.7 291.5,87.7 294.6,86.5 297.2,87.7 299.3,86.5 302.9,86.5 306.1,83 308.2,80.6 311.4,78.3 313.6,81.8 317.7,87.7 
	320.3,97.1 322.2,107.6 324.1,112.3 327.3,133.5 329.8,148.8 332.3,155.8 334.5,187.5 336.8,209.8 338,223.9 340,234.5 341.1,243.9 
	343.1,255.6 345.5,268.5 346.4,272.1 348,276.7 348.8,280.3 351,281.4 352.1,279.1 353.4,274.4 354.9,265 356.4,258 358.8,245 
	360.3,231 362.8,216.9 364.2,206.3 365.9,201.6 368.8,186.3 370.6,180.5 372.6,173.4 375.4,164 377,160.5 379.9,152.3 382,148.8 
	384.7,141.7 387.3,138.2 389.5,133.5 393.7,126.4 398.8,119.4 400.7,115.9 403.6,113.5 407,108.8 409.5,106.5 413,101.8 
	416.5,100.6 419.5,95.9 422.6,94.7 424.6,92.4 426.7,92.4 428.7,91.2 431.8,95.9 434.6,119.4 436.8,134.7 438.5,141.7 440.9,165.2 
	442.8,174.6 445.4,185.1 448.3,191 450.7,200.4 452.4,205.1 454.3,206.3 456.7,206.3 459.4,203.9 461,207.5 462.7,211 463.9,214.5 
	465.8,215.7 467.4,216.9 468.7,220.4 471.8,221.6 474.3,219.2 478.2,209.8 479.9,205.1 481.6,202.8 483.6,202.8 485.2,214.5 
	486.7,227.4 489.7,242.7 491,259.1 493.5,283.8 494.5,290.8 496.2,302.6 496.9,303.8 498.1,310.8 499.1,317.8 500.5,320.2 
	502.2,314.3 503.3,310.8 504.4,306.1 505.9,299.1 506.9,293.2 507.9,286.1 509.2,277.9 510.4,273.2 512.1,282.6 513.3,288.5 
	514.1,290.8 515.8,297.9 516.5,301.4 518,304.9 518.8,308.5 520.4,307.3 521.3,307.3 522.3,307.3 523.4,297.9 524.9,281.4 
	526.5,270.9 529.5,260.3 531,256.8 533.2,247.4 534.6,239.2 535.8,231 538.6,221.6 539.8,221.6 542.1,208.6 545.3,188.7 
	546.8,181.6 548.7,181.6 550.8,199.2 552.1,199.2 553.7,227.4 556.1,245 558,268.5 559.8,273.2 561,293.2 562.5,299.1 563.8,309.6 
	564.7,313.2 565.6,315.5 567.1,323.7 567.8,326.1 569.5,322.6 570.2,320.2 571.2,317.8 571.9,308.5 574,295.5 574.9,295.5 
	576.3,273.2 578.8,259.1 581.8,231 582.9,231 586.2,208.6 588.7,196.9 590.8,193.4 593,189.9 596.1,193.4 597.9,195.7 600,191 
	602.2,188.7 604,186.3 605.9,182.8 608.2,172.2 611.4,162.8 615.1,158.1 616.7,152.3 619.7,146.4 622.4,140.5 625,134.7 
	627.7,134.7 629.4,153.4 631.7,169.9 636.5,216.9 638.7,240.3 640,253.3 642.3,273.2 643.8,283.8 645,290.8 646.6,299.1 
	648.3,303.8 649.9,300.2 650.7,297.9 652.1,290.8 652.9,287.3 654,282.6 655.1,274.4 656.5,263.8 658.9,249.7 661.2,233.3 
	663.4,220.4 667.2,198.1 668.6,194.5 670.1,187.5 672.7,179.3 676.7,167.5 679.1,164 680.7,155.8 684.5,148.8 687.6,142.9 
	692,134.7 696.6,126.4 699.4,122.9 701.8,120.6 705.1,115.9 709.4,113.5 714.7,110 719.7,102.9 722.2,100.6 724.2,99.4 727.2,97.1 
	730.8,93.6 735.4,90 739.1,87.7 742.8,85.3 745.4,83 748.6,80.6 751.8,79.5 754.5,77.1 758.7,77.1 762.5,74.8 765.2,73.6 
	771.2,74.8 775.7,97.1 778.6,115.9 780.4,133.5 782.5,151.1 785.3,165.2 787.1,182.8 789.2,195.7 791.9,208.6 794.8,248.6 
	796.3,260.3 798.4,282.6 799.6,293.2 800.3,304.9 802,329.6 803.4,326.1 804.3,326.1 805.4,324.9 806.3,324.9 807.8,324.9 
	809,324.9 810.3,324.9 810.9,324.9 812,324.9 813.1,324.9 813.8,323.7 "/>
<rect x="77.8" y="44.8" class="st3" width="788.4" height="298.4"/>
<rect x="55.2" y="295.2" class="st0" width="16.9" height="12"/>
<text transform="matrix(1 0 0 1 45.2244 303.8665)" class="st4 st5 st6">100</text>
<rect x="55.2" y="236.5" class="st0" width="16.9" height="12"/>
<text transform="matrix(1 0 0 1 45.2244 245.1517)" class="st4 st5 st6">150</text>
<rect x="55.2" y="177.7" class="st0" width="16.9" height="12"/>
<text transform="matrix(1 0 0 1 45.2244 186.4364)" class="st4 st5 st6">200</text>
<rect x="55.2" y="119" class="st0" width="16.9" height="12"/>
<text transform="matrix(1 0 0 1 45.2244 127.7225)" class="st4 st5 st6">250</text>
<rect x="55.2" y="60.3" class="st0" width="16.9" height="12"/>
<text transform="matrix(1 0 0 1 19.2244 68.9959)" class="st4 st5 st6">300 km/h</text>
<line class="st7" x1="65.8" y1="300.2" x2="76.9" y2="300.2"/>
<line class="st7" x1="65.8" y1="241.5" x2="76.9" y2="241.5"/>
<line class="st7" x1="65.8" y1="182.8" x2="76.9" y2="182.8"/>
<line class="st7" x1="65.8" y1="124.1" x2="76.9" y2="124.1"/>
<line class="st7" x1="65.8" y1="65.4" x2="76.9" y2="65.4"/>
<rect x="108.6" y="347.4" class="st0" width="5.6" height="12"/>
<text transform="matrix(1 0 0 1 108.5603 356.0921)" class="st4 st5 st6">0</text>
<rect x="266.7" y="347.4" class="st0" width="22.5" height="12"/>
<text transform="matrix(1 0 0 1 266.6956 356.0921)" class="st4 st5 st6">1000</text>
<rect x="433.3" y="347.4" class="st0" width="22.5" height="12"/>
<text transform="matrix(1 0 0 1 433.2786 356.0921)" class="st4 st5 st6">2000</text>
<rect x="599.9" y="347.4" class="st0" width="22.5" height="12"/>
<text transform="matrix(1 0 0 1 599.8733 356.0921)" class="st4 st5 st6">3000</text>
<rect x="766.5" y="347.4" class="st0" width="22.5" height="12"/>
<text transform="matrix(1 0 0 1 766.4543 356.0921)" class="st4 st5 st6">4000 m</text>
<rect x="38.4" y="175.7" class="st0" width="15" height="36.6"/>
<text transform="matrix(6.123234e-17 -1 1 6.123234e-17 49.2629 212.2598)" class="st8 st9">Speed</text>
<text transform="matrix(1 0 0 1 986.9742 166.127)" class="st4 st8 st9">Driver</text>
<line class="st1" x1="980.6" y1="185.4" x2="996.5" y2="185.4"/>
<line class="st2" x1="978.8" y1="209.6" x2="994.7" y2="209.6"/>
<text transform="matrix(1 0 0 1 1004.837 188.989)" class="st10 st8 st6">VER</text>
<g class="st11">
	<text transform="matrix(1 0 0 1 1003.0604 213.2732)" class="st12 st8 st6">HAM</text>
</g>
<rect x="381.1" y="57.6" class="st0" width="50" height="23.7"/>
<text transform="matrix(1 0 0 1 15.9087 22.933)" class="st4 st13 st14">Hamilton skids to a near-stop after collision with Verstappen</text>
<rect x="78.4" y="36.2" width="788.8" height="15"/>
<rect x="857" y="13.9" width="10.2" height="328.3"/>
<rect x="836.7" y="289.7" class="st0" width="168.9" height="92.3"/>
<text transform="matrix(1 0 0 1 836.7009 298.3286)"><tspan x="0" y="0" class="st4 st5 st15">Hamilton skid off-track and had </tspan><tspan x="0" y="14.4" class="st4 st5 st15">to slow down significantly quickly </tspan><tspan x="0" y="28.8" class="st4 st5 st15">so he wouldn’t hit a barrier.</tspan></text>
</svg>
