<?xml version="1.0" encoding="utf-8"?>
<!-- Generator: Adobe Illustrator 27.2.0, SVG Export Plug-In . SVG Version: 6.00 Build 0)  -->
<svg version="1.1" id="Layer_1" xmlns="http://www.w3.org/2000/svg" xmlns:xlink="http://www.w3.org/1999/xlink" x="0px" y="0px"
	 viewBox="0 0 1080 330.3" style="enable-background:new 0 0 1080 330.3;" xml:space="preserve">
<style type="text/css">
	.st0{fill:#FFFFFF;stroke:#FFFFFF;stroke-width:0.8;stroke-linejoin:round;}
	.st1{fill:#FFFFFF;}
	
		.st2{clip-path:url(#SVGID_00000130629754840727327260000008834176816948432038_);fill:none;stroke:#FFFFFF;stroke-width:1.5;stroke-linecap:square;stroke-linejoin:round;}
	
		.st3{clip-path:url(#SVGID_00000001622603464857813350000004122637879439893669_);fill:none;stroke:#00FFFF;stroke-width:1.5;stroke-linecap:square;stroke-linejoin:round;}
	.st4{opacity:0.8;fill:#FFFFFF;stroke:#CCCCCC;enable-background:new    ;}
	.st5{fill:none;stroke:#FFFFFF;stroke-width:1.5;stroke-linecap:square;stroke-linejoin:round;}
	.st6{fill:none;stroke:#00FFFF;stroke-width:1.5;stroke-linecap:square;stroke-linejoin:round;}
	.st7{font-family:'TitilliumWeb-Bold';}
	.st8{font-size:19.1585px;}
	.st9{font-size:15.7091px;}
	.st10{fill:none;}
	.st11{font-family:'ArialMT';}
	.st12{font-size:8.8px;}
</style>
<rect width="1080" height="330.3"/>
<g id="figure_1">
	<g id="axes_2">
		<g id="matplotlib.axis_3">
			<g id="xtick_6">
				<g id="line2d_10">
					<g>
						<g>
							<path id="m15b636099e_00000147903226906215441080000005255359712567785376_" class="st0" d="M152.5,267.4v3.5"/>
						</g>
					</g>
				</g>
			</g>
			<g id="xtick_7">
				<g id="line2d_11">
					<g>
						<g>
							<path id="m15b636099e_00000065036772106445890160000010456345323277320618_" class="st0" d="M331.9,267.4v3.5"/>
						</g>
					</g>
				</g>
			</g>
			<g id="xtick_8">
				<g id="line2d_12">
					<g>
						<g>
							<path id="m15b636099e_00000050652860800026125770000013818421686267002790_" class="st0" d="M511.3,267.4v3.5"/>
						</g>
					</g>
				</g>
			</g>
			<g id="xtick_9">
				<g id="line2d_13">
					<g>
						<g>
							<path id="m15b636099e_00000177474738582315594400000006206559644393122998_" class="st0" d="M690.6,267.4v3.5"/>
						</g>
					</g>
				</g>
			</g>
			<g id="xtick_10">
				<g id="line2d_14">
					<g>
						<g>
							<path id="m15b636099e_00000016075069623885586690000002737961164619818664_" class="st0" d="M870,267.4v3.5"/>
						</g>
					</g>
				</g>
			</g>
		</g>
		<g id="matplotlib.axis_4">
			<g id="ytick_3">
				<g id="line2d_15">
					<g>
						<g>
							<path id="m9fb5d58158_00000161633867722928920940000001396957355133724053_" class="st0" d="M114.5,243.7H111"/>
						</g>
					</g>
				</g>
				<g id="text_5">
					<g transform="translate(108.9125 388.183922) scale(0.1 -0.1)">
						<g>
							<path id="DejaVuSans-31" class="st1" d="M-192.7,1414.7h16.1v55.6l-17.5-3.5v9l17.4,3.5h9.9v-64.6h16.1v-8.3h-42V1414.7z"/>
						</g>
						<g>
							<path id="DejaVuSans-30_00000172410329100120522370000001639704421413531021_" class="st1" d="M-109.7,1472.8
								c-5.1,0-8.9-2.5-11.5-7.5c-2.6-5-3.8-12.5-3.8-22.5c0-10,1.3-17.5,3.8-22.5c2.6-5,6.4-7.5,11.5-7.5c5.1,0,8.9,2.5,11.5,7.5
								c2.6,5,3.8,12.5,3.8,22.5c0,10-1.3,17.5-3.8,22.5C-100.8,1470.3-104.6,1472.8-109.7,1472.8z M-109.7,1480.6
								c8.2,0,14.4-3.2,18.7-9.7c4.3-6.5,6.5-15.8,6.5-28.1c0-12.3-2.2-21.6-6.5-28.1c-4.3-6.5-10.6-9.7-18.7-9.7
								c-8.2,0-14.4,3.2-18.7,9.7c-4.3,6.5-6.5,15.8-6.5,28.1c0,12.3,2.2,21.7,6.5,28.1C-124.1,1477.3-117.9,1480.6-109.7,1480.6z"
								/>
						</g>
						<g>
							<path id="DejaVuSans-30_00000040572900029994467650000008579771058618165127_" class="st1" d="M-46.1,1472.8
								c-5.1,0-8.9-2.5-11.5-7.5c-2.6-5-3.8-12.5-3.8-22.5c0-10,1.3-17.5,3.8-22.5c2.6-5,6.4-7.5,11.5-7.5c5.1,0,8.9,2.5,11.5,7.5
								c2.6,5,3.8,12.5,3.8,22.5c0,10-1.3,17.5-3.8,22.5C-37.1,1470.3-41,1472.8-46.1,1472.8z M-46.1,1480.6
								c8.2,0,14.4-3.2,18.7-9.7c4.3-6.5,6.5-15.8,6.5-28.1c0-12.3-2.2-21.6-6.5-28.1c-4.3-6.5-10.6-9.7-18.7-9.7
								c-8.2,0-14.4,3.2-18.7,9.7c-4.3,6.5-6.5,15.8-6.5,28.1c0,12.3,2.2,21.7,6.5,28.1C-60.5,1477.3-54.2,1480.6-46.1,1480.6z"/>
						</g>
					</g>
				</g>
			</g>
			<g id="ytick_4">
				<g id="line2d_16">
					<g>
						<g>
							<path id="m9fb5d58158_00000088827918397659973500000003482374538792609676_" class="st0" d="M114.5,208.4H111"/>
						</g>
					</g>
				</g>
				<g id="text_6">
					<g transform="translate(108.9125 352.840776) scale(0.1 -0.1)">
						<g>
							<path id="DejaVuSans-31_00000161627120593095177080000004269925903390609800_" class="st1" d="M-192.7,1414.7h16.1v55.6
								l-17.5-3.5v9l17.4,3.5h9.9v-64.6h16.1v-8.3h-42V1414.7z"/>
						</g>
						<g>
							<path id="DejaVuSans-35_00000007419073063707672090000003900451169888114609_" class="st1" d="M-130.7,1479.3H-92v-8.3h-29.7
								v-17.9c1.4,0.5,2.9,0.9,4.3,1.1c1.4,0.2,2.9,0.4,4.3,0.4c8.1,0,14.6-2.2,19.3-6.7c4.8-4.5,7.1-10.5,7.1-18.1
								c0-7.8-2.4-13.9-7.3-18.3c-4.9-4.3-11.8-6.5-20.7-6.5c-3.1,0-6.2,0.3-9.4,0.8c-3.2,0.5-6.4,1.3-9.8,2.3v9.9
								c2.9-1.6,6-2.8,9.1-3.6s6.4-1.2,9.9-1.2c5.6,0,10.1,1.5,13.4,4.4c3.3,3,4.9,7,4.9,12.1c0,5.1-1.6,9.1-4.9,12
								c-3.3,3-7.7,4.5-13.4,4.5c-2.6,0-5.3-0.3-7.9-0.9c-2.6-0.6-5.3-1.5-8-2.7V1479.3z"/>
						</g>
						<g>
							<path id="DejaVuSans-30_00000145740501015149578470000006047903544077196180_" class="st1" d="M-46.1,1472.8
								c-5.1,0-8.9-2.5-11.5-7.5c-2.6-5-3.8-12.5-3.8-22.5c0-10,1.3-17.5,3.8-22.5c2.6-5,6.4-7.5,11.5-7.5c5.1,0,8.9,2.5,11.5,7.5
								c2.6,5,3.8,12.5,3.8,22.5c0,10-1.3,17.5-3.8,22.5C-37.1,1470.3-41,1472.8-46.1,1472.8z M-46.1,1480.6
								c8.2,0,14.4-3.2,18.7-9.7c4.3-6.5,6.5-15.8,6.5-28.1c0-12.3-2.2-21.6-6.5-28.1c-4.3-6.5-10.6-9.7-18.7-9.7
								c-8.2,0-14.4,3.2-18.7,9.7c-4.3,6.5-6.5,15.8-6.5,28.1c0,12.3,2.2,21.7,6.5,28.1C-60.5,1477.3-54.2,1480.6-46.1,1480.6z"/>
						</g>
					</g>
				</g>
			</g>
			<g id="ytick_5">
				<g id="line2d_17">
					<g>
						<g>
							<path id="m9fb5d58158_00000094610857754949174100000008220078067906685347_" class="st0" d="M114.5,173.1H111"/>
						</g>
					</g>
				</g>
				<g id="text_7">
					<g transform="translate(108.9125 317.497629) scale(0.1 -0.1)">
						<g>
							<path id="DejaVuSans-32" class="st1" d="M-185.9,1414.7h34.4v-8.3h-46.3v8.3c3.7,3.9,8.8,9.1,15.3,15.6
								c6.5,6.5,10.5,10.7,12.2,12.6c3.2,3.5,5.4,6.5,6.6,9c1.3,2.5,1.9,4.9,1.9,7.2c0,3.9-1.4,7-4.1,9.5c-2.7,2.4-6.3,3.7-10.6,3.7
								c-3.1,0-6.4-0.5-9.8-1.6c-3.4-1.1-7.1-2.7-11-4.9v10c4,1.6,7.7,2.8,11.1,3.6c3.5,0.8,6.6,1.2,9.5,1.2
								c7.6,0,13.6-1.9,18.1-5.7c4.5-3.8,6.7-8.8,6.7-15.1c0-3-0.6-5.8-1.7-8.5c-1.1-2.7-3.2-5.8-6.1-9.5c-0.8-0.9-3.4-3.7-7.8-8.2
								C-171.8,1429.1-178,1422.8-185.9,1414.7z"/>
						</g>
						<g>
							<path id="DejaVuSans-30_00000014622212619739816970000013401301151322773144_" class="st1" d="M-109.7,1472.8
								c-5.1,0-8.9-2.5-11.5-7.5c-2.6-5-3.8-12.5-3.8-22.5c0-10,1.3-17.5,3.8-22.5c2.6-5,6.4-7.5,11.5-7.5c5.1,0,8.9,2.5,11.5,7.5
								c2.6,5,3.8,12.5,3.8,22.5c0,10-1.3,17.5-3.8,22.5C-100.8,1470.3-104.6,1472.8-109.7,1472.8z M-109.7,1480.6
								c8.2,0,14.4-3.2,18.7-9.7c4.3-6.5,6.5-15.8,6.5-28.1c0-12.3-2.2-21.6-6.5-28.1c-4.3-6.5-10.6-9.7-18.7-9.7
								c-8.2,0-14.4,3.2-18.7,9.7c-4.3,6.5-6.5,15.8-6.5,28.1c0,12.3,2.2,21.7,6.5,28.1C-124.1,1477.3-117.9,1480.6-109.7,1480.6z"
								/>
						</g>
						<g>
							<path id="DejaVuSans-30_00000024697125522513661040000006923667331581475769_" class="st1" d="M-46.1,1472.8
								c-5.1,0-8.9-2.5-11.5-7.5c-2.6-5-3.8-12.5-3.8-22.5c0-10,1.3-17.5,3.8-22.5c2.6-5,6.4-7.5,11.5-7.5c5.1,0,8.9,2.5,11.5,7.5
								c2.6,5,3.8,12.5,3.8,22.5c0,10-1.3,17.5-3.8,22.5C-37.1,1470.3-41,1472.8-46.1,1472.8z M-46.1,1480.6
								c8.2,0,14.4-3.2,18.7-9.7c4.3-6.5,6.5-15.8,6.5-28.1c0-12.3-2.2-21.6-6.5-28.1c-4.3-6.5-10.6-9.7-18.7-9.7
								c-8.2,0-14.4,3.2-18.7,9.7c-4.3,6.5-6.5,15.8-6.5,28.1c0,12.3,2.2,21.7,6.5,28.1C-60.5,1477.3-54.2,1480.6-46.1,1480.6z"/>
						</g>
					</g>
				</g>
			</g>
			<g id="ytick_6">
				<g id="line2d_18">
					<g>
						<g>
							<path id="m9fb5d58158_00000151501228374680778700000006160079941025624464_" class="st0" d="M114.5,137.7H111"/>
						</g>
					</g>
				</g>
				<g id="text_8">
					<g transform="translate(108.9125 282.154483) scale(0.1 -0.1)">
						<g>
							<path id="DejaVuSans-32_00000163786332915759920800000010494857318674332076_" class="st1" d="M-185.9,1414.7h34.4v-8.3
								h-46.3v8.3c3.7,3.9,8.8,9.1,15.3,15.6c6.5,6.5,10.5,10.7,12.2,12.6c3.2,3.5,5.4,6.5,6.6,9c1.3,2.5,1.9,4.9,1.9,7.2
								c0,3.9-1.4,7-4.1,9.5c-2.7,2.4-6.3,3.7-10.6,3.7c-3.1,0-6.4-0.5-9.8-1.6c-3.4-1.1-7.1-2.7-11-4.9v10c4,1.6,7.7,2.8,11.1,3.6
								c3.5,0.8,6.6,1.2,9.5,1.2c7.6,0,13.6-1.9,18.1-5.7c4.5-3.8,6.7-8.8,6.7-15.1c0-3-0.6-5.8-1.7-8.5c-1.1-2.7-3.2-5.8-6.1-9.5
								c-0.8-0.9-3.4-3.7-7.8-8.2C-171.8,1429.1-178,1422.8-185.9,1414.7z"/>
						</g>
						<g>
							<path id="DejaVuSans-35_00000052101778867942627530000011108920323624469890_" class="st1" d="M-130.7,1479.3H-92v-8.3h-29.7
								v-17.9c1.4,0.5,2.9,0.9,4.3,1.1c1.4,0.2,2.9,0.4,4.3,0.4c8.1,0,14.6-2.2,19.3-6.7c4.8-4.5,7.1-10.5,7.1-18.1
								c0-7.8-2.4-13.9-7.3-18.3c-4.9-4.3-11.8-6.5-20.7-6.5c-3.1,0-6.2,0.3-9.4,0.8c-3.2,0.5-6.4,1.3-9.8,2.3v9.9
								c2.9-1.6,6-2.8,9.1-3.6s6.4-1.2,9.9-1.2c5.6,0,10.1,1.5,13.4,4.4c3.3,3,4.9,7,4.9,12.1c0,5.1-1.6,9.1-4.9,12
								c-3.3,3-7.7,4.5-13.4,4.5c-2.6,0-5.3-0.3-7.9-0.9c-2.6-0.6-5.3-1.5-8-2.7V1479.3z"/>
						</g>
						<g>
							<path id="DejaVuSans-30_00000154421648997874022190000006386323294406591108_" class="st1" d="M-46.1,1472.8
								c-5.1,0-8.9-2.5-11.5-7.5c-2.6-5-3.8-12.5-3.8-22.5c0-10,1.3-17.5,3.8-22.5c2.6-5,6.4-7.5,11.5-7.5c5.1,0,8.9,2.5,11.5,7.5
								c2.6,5,3.8,12.5,3.8,22.5c0,10-1.3,17.5-3.8,22.5C-37.1,1470.3-41,1472.8-46.1,1472.8z M-46.1,1480.6
								c8.2,0,14.4-3.2,18.7-9.7c4.3-6.5,6.5-15.8,6.5-28.1c0-12.3-2.2-21.6-6.5-28.1c-4.3-6.5-10.6-9.7-18.7-9.7
								c-8.2,0-14.4,3.2-18.7,9.7c-4.3,6.5-6.5,15.8-6.5,28.1c0,12.3,2.2,21.7,6.5,28.1C-60.5,1477.3-54.2,1480.6-46.1,1480.6z"/>
						</g>
					</g>
				</g>
			</g>
			<g id="ytick_7">
				<g id="line2d_19">
					<g>
						<g>
							<path id="m9fb5d58158_00000178200485152677753520000016487899356426663569_" class="st0" d="M114.5,102.4H111"/>
						</g>
					</g>
				</g>
				<g id="text_9">
					<g transform="translate(108.9125 246.811336) scale(0.1 -0.1)">
						<g>
							<path id="DejaVuSans-33" class="st1" d="M-164.5,1445.7c4.7-1,8.4-3.1,11-6.3c2.7-3.2,4-7.1,4-11.8c0-7.2-2.5-12.8-7.4-16.7
								c-4.9-3.9-12-5.9-21.1-5.9c-3.1,0-6.2,0.3-9.4,0.9c-3.2,0.6-6.6,1.5-10,2.7v9.5c2.7-1.6,5.7-2.8,9-3.6
								c3.3-0.8,6.7-1.2,10.2-1.2c6.2,0,10.9,1.2,14.1,3.7s4.9,6,4.9,10.6c0,4.3-1.5,7.7-4.5,10.1c-3,2.4-7.2,3.6-12.6,3.6h-8.5v8.1
								h8.9c4.8,0,8.6,1,11.1,2.9s3.9,4.7,3.9,8.4c0,3.7-1.3,6.6-4,8.6c-2.6,2-6.4,3-11.4,3c-2.7,0-5.6-0.3-8.7-0.9
								c-3.1-0.6-6.5-1.5-10.2-2.7v8.8c3.8,1,7.3,1.8,10.5,2.3c3.3,0.5,6.4,0.8,9.2,0.8c7.5,0,13.4-1.7,17.8-5.1
								c4.4-3.4,6.5-8,6.5-13.8c0-4-1.2-7.5-3.5-10.2S-160.3,1446.7-164.5,1445.7z"/>
						</g>
						<g>
							<path id="DejaVuSans-30_00000070820527054048885570000005949726148301737372_" class="st1" d="M-109.7,1472.8
								c-5.1,0-8.9-2.5-11.5-7.5c-2.6-5-3.8-12.5-3.8-22.5c0-10,1.3-17.5,3.8-22.5c2.6-5,6.4-7.5,11.5-7.5c5.1,0,8.9,2.5,11.5,7.5
								c2.6,5,3.8,12.5,3.8,22.5c0,10-1.3,17.5-3.8,22.5C-100.8,1470.3-104.6,1472.8-109.7,1472.8z M-109.7,1480.6
								c8.2,0,14.4-3.2,18.7-9.7c4.3-6.5,6.5-15.8,6.5-28.1c0-12.3-2.2-21.6-6.5-28.1c-4.3-6.5-10.6-9.7-18.7-9.7
								c-8.2,0-14.4,3.2-18.7,9.7c-4.3,6.5-6.5,15.8-6.5,28.1c0,12.3,2.2,21.7,6.5,28.1C-124.1,1477.3-117.9,1480.6-109.7,1480.6z"
								/>
						</g>
						<g>
							<path id="DejaVuSans-30_00000183245368844333802490000018114472848430420388_" class="st1" d="M-46.1,1472.8
								c-5.1,0-8.9-2.5-11.5-7.5c-2.6-5-3.8-12.5-3.8-22.5c0-10,1.3-17.5,3.8-22.5c2.6-5,6.4-7.5,11.5-7.5c5.1,0,8.9,2.5,11.5,7.5
								c2.6,5,3.8,12.5,3.8,22.5c0,10-1.3,17.5-3.8,22.5C-37.1,1470.3-41,1472.8-46.1,1472.8z M-46.1,1480.6
								c8.2,0,14.4-3.2,18.7-9.7c4.3-6.5,6.5-15.8,6.5-28.1c0-12.3-2.2-21.6-6.5-28.1c-4.3-6.5-10.6-9.7-18.7-9.7
								c-8.2,0-14.4,3.2-18.7,9.7c-4.3,6.5-6.5,15.8-6.5,28.1c0,12.3,2.2,21.7,6.5,28.1C-60.5,1477.3-54.2,1480.6-46.1,1480.6z"/>
						</g>
					</g>
				</g>
			</g>
		</g>
		<g id="line2d_20">
			<g>
				<defs>
					<rect id="SVGID_1_" x="114.5" y="73.8" width="837" height="193.6"/>
				</defs>
				<clipPath id="SVGID_00000049926499892068185930000001515349780215343758_">
					<use xlink:href="#SVGID_1_"  style="overflow:visible;"/>
				</clipPath>
				
					<path style="clip-path:url(#SVGID_00000049926499892068185930000001515349780215343758_);fill:none;stroke:#FFFFFF;stroke-width:1.5;stroke-linecap:square;stroke-linejoin:round;" d="
					M152.5,89.7h9.6l0-0.7h2.2l2.3-0.7h0.9l6.4-0.7l2.9-0.7l8.3,1.4l1.6,0.7l2.9,0.7l0.9,0.7l2.2,0.7l3.3,27.6l0.3,7.8l2.3,7.8
					l0.5,7.1l1.4,12l2.1,11.3l0.2,9.9l3.4,15.6l3.2,17l0.3,4.2l0.9,1.4l0.3,1.4l0.8,2.1l0.3,2.1l0.9,2.8l0.4,2.1l1,0.7l0.5,0.7
					l0.5,1.4l1.2,1.4l0.3,2.1l1.8,1.4l0.2,1.4l0.9,1.4l0.7,1.4l0.9,0.7h0.7l0.2-0.7l1.7-4.2l0.7-4.2l2.1-4.9l0-4.9l1.7-5.7l1.2-5.7
					h1.2l1.2-0.7l0.3-0.7l1.3-1.4l2-0.7l0.5-1.4l2.6-2.1l0.4-2.8l2.4-2.8l0-2.8l2.2-4.2l0.4-4.2h1.9l2.7-6.4l0.4-6.4l1.7-2.1
					l0.4-2.1l2.3-2.1l0.7-2.8l3.3-2.1l0.2-2.1l2.8-4.2l2.3-2.1l0.2-1.4l0.5-1.4l2.4-1.4l1.2-1.4l1.2-0.7l1.2-1.4l2.2-0.7l0.8-0.7
					l2.5-1.4l1.3-2.1l0.8-2.1l2-0.7l1.6-1.4h0.7l4.2-2.1l0.8-1.4l0.8-0.7l1.9-0.7l1-1.4l2.2-2.1l2.4-0.7l0.8-0.7l1.9-0.7l0.3-1.4
					l2.2-1.4l0.5-1.4l3.1-2.1l1.4-2.1l2.3-0.7l2.3-1.4l2.6-0.7l0.3-1.4l4.7-2.8l1.8-0.7l2.3-0.7l0.6-0.7l3-2.1l2.7-0.7l3.6-1.4
					l1.6-1.4l3.9-0.7l0.9-1.4l4-0.7l0.9-0.7l5.6-1.4h1.5l2.2-0.7l3.1-1.4l0.3-0.7l3.5-0.7h2.5l3.2-0.7h1.6l1-0.7l3.9-1.4l1.2,0.7h2
					l5.1,0.7l3.2,0.7l0,0.7l3.3,12l0.3,12l3.8,31.8l0.4,8.5l2.8,8.5l1.4,7.8l0.2,4.9l2.5,4.2l1.6,4.9l0.2,4.2l2.7,5.7l0.1,2.8
					l2.4,4.2l0.3,1.4l1.5,2.8l1.4,0.7l0.8,0.7l2.2-2.8l1-2.8l0-3.5l2.7-4.2l0.4-4.2l2.1-1.4l0.7-2.1l3.6-16.3l4.6-4.2l0-2.1l2-5.7
					l3-5.7h0.4l1.9-0.7l2.3-2.8l1.4-2.8l0.7-0.7l2.2-1.4l0.2-1.4l1.9-1.4l1.3-1.4l2-1.4l1-1.4l5.1-2.8l0.7-0.7l2.3-1.4l2.6-1.4
					l1.1-1.4l1.6-1.4l2.7-2.1l6.2-2.1l2.2-1.4l0.8-1.4h1.6l1.7-0.7h2.8l0.8-0.7l2.5-1.4l2.2-0.7l2.8-0.7h2.2l2.3-0.7h0.5l3.7-0.7
					l1.4-0.7l0.8,0.7h4.8l1.1,1.4l1.7,0.7l1.1,8.5l2.6,8.5l0.2,4.2l2.4,4.2l1.2,4.2l1.6,7.1l2,6.4l1.7,2.8l0.4,1.4l2.1,1.4l0.6,0.7
					h3.6l1.3-2.1l3-2.1h1.5l0.2-0.7l1.7-1.4l0.9-1.4l2.7-1.4h1.3l2.7-0.7h0.6l1.6-0.7h2.7l0.2-0.7l1.6-0.7h1.8l0-0.7l2.8-3.5
					l2.2,9.2l0.8,9.2l1.9,10.6l0.2,7.1l2.2,7.1l2.5,17l0.3,4.9l1.3,4.2l0,4.2l1,2.8l0.3,2.8l0.8,2.8l0.7,3.5l0.2,3.5l1.3,5.7
					l1.6,4.2l0.4,2.1l0.4,0.7l0.7,0.7l0.7,1.4l0.7-0.7l0.7-1.4l0.1-0.7l0.7-0.7l0.5-1.4l0.8-1.4l0.5-1.4l1-4.2l0.1-2.1l0.8-2.1
					l0.7-2.8l0.5-3.5l0.7-3.5l0.3-3.5l2.4-4.2l0.6,2.1l1.1,2.1l1.5,4.2l0.2,2.1l0.1,2.1l1.7,2.8l0.2,1.4l0.9,0.7l0.3,0.7h2.7
					l0.6-0.7l0.2-0.7l0.9-2.1l0.9-1.4l0-2.1l1.7-2.8l0.3-3.5l1.4-1.4l0.1-2.1l1.1-4.9l0.4-2.8l1-2.8l0.3-2.8l2.3-2.8l0.2-2.8
					l1.1-3.5l1.3-3.5l0.2-4.2l1.9-2.8l0.2-2.8l2.3-4.2l1-4.9l2.2-4.9l1.6-2.1l0.2-2.1l1.9-2.1l1.1-1.4l0.7-1.4l2.6-1.4l1.3-1.4
					l2.3,4.9l0.6,4.2l2.1,8.5l0.2,7.8l1.9,5.7l1.9,4.9l0.3,4.9l2,12.7l0.1,5.7l2.4,13.4l1,2.1l0.2,2.1l0.7,1.4l0.4,2.1l1.6,3.5
					l0.9,2.8l0.5,2.1l1.2,2.1l0.8,2.8l0.8,0.7h0.3l0.7-0.7l0.4-0.7l0.4-1.4l0.8-2.1l0.1-1.4l1.3-1.4l0-1.4l0.8-2.8l0.7-2.8l0.8-2.1
					l0.4-2.8l2-7.1l0.1-4.2l2.2-4.2l0.2-4.9l2.5-12l0.2-5.7l3-6.4l0.3-2.1l1.5-2.8l0.8-2.8l0.9-2.1l1-2.8l2-2.1l0.8-2.1l1.8-4.2
					l1.5-4.2l0.6-1.4l2.4-2.1l0.6-2.1l2-2.8l0.2-2.1l3-2.8l0.9-2.1l4.3-2.8l0.2-0.7l1.7-0.7l2.9-2.1l1.5-1.4l3.2-1.4l0.3-2.1
					l2.5-0.7l0.5-0.7l3.5-0.7l0-1.4l2-1.4l0-1.4l5.7-0.7l0-1.4l2.3,3.5l0.3,2.8l1.6,10.6l0.7,9.9l1.6,11.3l2.9,10.6l0.2,10.6
					l2.2,13.4l0.6,12.7l0.5,2.8l0.8,2.8l1.4,2.1l0.1,2.1l2.2,3.5l0,3.5l0.9,1.4l1.4,1.4l0.2,0.7h0.9l1.1,2.1l0.7-0.7l0.9-0.7
					l2.1-2.8l0.2-1.4l1.1-2.8l1.4-2.8l1.4-3.5l0.1-3.5l0.4-2.8l1.3-2.8l0.9-3.5l1.3-5.7l0.3-2.8l1.5-3.5l0.5-3.5l2.5-5.7l0.2-2.8
					l1.9-3.5l1.4-3.5l1.6-2.8l1.8-2.8l0.6-2.8l2.1-4.9l0.4-1.4l1.3-2.1l0.9-2.1l2.2-3.5h0.4l1.8-0.7l5.8-9.2l3.6-1.4l0.5-1.4
					l3.2-2.1l1.3-2.8l1.7-0.7l0.3-0.7h2.5l1-2.1l3.1-2.1l0.5-0.7l1.6-1.4l3.1-1.4l2.6-0.7l6.4-4.2l2.7-0.7h1.3l3-1.4l1.1-1.4
					l2.7,0.7l4.4-2.1l0.8-0.7l3.1-0.7l1.9-0.7l0.3-1.4l3.6-0.7l1.4-0.7h2l0.3-0.7l3.7-1.4l0.9-1.4l2-0.7l0.3-1.4h2.3l0.6-1.4
					l5.9-2.8l3-0.7l1.5-0.7l2.4-2.1l4-0.7l3-1.4h0.6l2.5-0.7l1.8-0.7l3.1-1.4h0.9l1.6-0.7h3.7l1.3-0.7l5.6-1.4h0.9l1.6-0.7h1.9
					l2.5-0.7h3.1l5-0.7l2.9-0.7l1.6-0.7h2.5l5.1-0.7l0.3,0.7l3.2,0.7l2.7,0.7l0,0"/>
			</g>
		</g>
		<g id="line2d_21">
			<g>
				<defs>
					<rect id="SVGID_00000178910975894236351550000007393863057919395746_" x="114.5" y="73.8" width="837" height="193.6"/>
				</defs>
				<clipPath id="SVGID_00000033343004586153460000000016133327778823249571_">
					<use xlink:href="#SVGID_00000178910975894236351550000007393863057919395746_"  style="overflow:visible;"/>
				</clipPath>
				
					<path style="clip-path:url(#SVGID_00000033343004586153460000000016133327778823249571_);fill:none;stroke:#00FFFF;stroke-width:1.5;stroke-linecap:square;stroke-linejoin:round;" d="
					M152.5,85.4h3.3l3.6-0.7h2.3L162,84h4.9l1-0.7H187l0.4-0.7l5.1,6.4l0.6,13.4l3.7,12.7l1.9,12.7l0.2,9.2l3.1,8.5l2,11.3l0.2,10.6
					l3,17.7l0.2,5.7l2.5,9.9l0.3,4.2l1.4,7.8l1.2,4.2l0.7,4.2l1.8,2.8l0.7,2.8l0,2.8l1.9,1.4l0.2,1.4l1.4,1.4l0.5,1.4h2l1.3-2.8
					l1.3-3.5l0-3.5l1.2-4.9l1.8-5.7l0.3-3.5l1.2-4.2l1.5-0.7l0.9-1.4h0.5l1.6-0.7h1.2l0.8-0.7l1.2-0.7l0.6-0.7l3.3-5.7l0.5-0.7
					l1.5-1.4l1.7-3.5l1.8-8.5l2-4.9l1.6-2.8l3.1-6.4l1.7-2.8l0.7-2.8l2.6-5.7h2.2l0.7-2.8l2.1-2.8l6.1-7.1l2-2.8l0.5-1.4l3.2-1.4
					l2-3.5l4.4-1.4l1-0.7l1.6-1.4l1-1.4l2.6-2.1h0.2l2.6-0.7l1.3-0.7l1.9-1.4l2.4-2.1l2.2-2.1l0.5-1.4l3.6-2.8l1.4-0.7l0.8-0.7
					l2.6-1.4l1.7-2.1l4.1-2.1l2-0.7l0.3-1.4l2.3-0.7l1.2-1.4l3.6-0.7l1.8-1.4l3.6-1.4l0.9-1.4l2.2-2.1l2.4-0.7l1.3-0.7h0.3l4.6-1.4
					l0-0.7l3.7-0.7l3.1-0.7l1.3-1.4l3.2-1.4h0.3l4.1-0.7l1.9-0.7l3.2-1.4h3.8l0-0.7l2.6-0.7h5.8l2.6-1.4h1.6l1.7-0.7l3.8,4.2
					l1.3,4.2l1.1,16.3l2.2,15.6h2.1l4,19.1l0.2,9.2l1.7,9.2l1,9.2l1.7,7.1l0.9,7.1l1.7,6.4l0.2,2.1l1.2,1.4l1,0.7l0.7,0.7l1,1.4
					l0.3,0.7l2.9,2.8l0.8-2.1l1.5-2.1l1-2.1h1.3l0.2-2.8l1.3-2.8l1.4-2.1l0.3-0.7l1.5-1.4l0.5-2.1l1.3-2.8l0.4-4.9l3.3-4.9l1.2-0.7
					l0.4-0.7l1.7-1.4l1.7-2.8l0-2.8l3-1.4l0.5-2.1l2.5-3.5l0.3-3.5l1.9-2.8l0.7-0.7l1.7-1.4l0.5-1.4l3.6-2.1l0.3-2.1l1.7-0.7l2-1.4
					l0.3-1.4l2.7-0.7l0.3-1.4l3.1-2.1l1.3-0.7l2.9-1.4l2.1-2.8l0.3-0.7l2.4-1.4h1.3l0.8-0.7l3.2-0.7l1.6-1.4l3-1.4l0.8-1.4h3
					l0.3-0.7l6.1-1.4l0.6-0.7l3.9-2.1h0.3l4.8-1.4h0.8l2.6-0.7h6.2l1.7-0.7l2.5,6.4l1.4,6.4l3.3,7.8l2.2,9.2l2.2,2.1l0.7,2.1
					l1.8,2.1l1,1.4l1.1,0.7l2.1,0.7l0.2,0.7l3,0.7l1.8,0.7h3.7l3.6,2.1l0.2,0.7l7.3,1.4l0.2-2.1l3.9-2.8l0.4-0.7l1.8-1.4l0.9-1.4
					l2.3-1.4l2.3,6.4l0.9,6.4l1.8,9.9l1.3,9.9l0.5,7.8l2.3,9.9l1.5,1.4l0.1,7.1l1.9,7.1l0.5,7.1l2.2,6.4l0.1,3.5l0.8,2.8l0.5,2.8
					l1.5,6.4l1.3,2.8l0.1,2.1l0.9,2.8l0.2,2.1l1.2,2.8l0,2.1l0.6,0.7l0,0.7l1.8-2.1l0-2.1l0.8-1.4l0.1-2.1l0.6-1.4l0.3-2.1l0.8-2.1
					l1.5-2.1l0.1-2.8l1.6-7.1l0.5-7.1l1.3-3.5l1.4,2.1l0.1,1.4l2.2,2.1l0,2.1l0.9,2.1l1.4,1.4l0.2,1.4l0.9,2.1l0.6,0.7h0.4l0.6,1.4
					l0.8,0.7h1.9l0.2-0.7l2.2-4.9l1.2-1.4l0.1-1.4l0.3-2.1l1.1-2.8l0.8-2.8l1.1-2.1l0.3-1.4l1.2-2.1l0.4-2.1l2.1-6.4l0.1-3.5
					l1.6-3.5l1.2-3.5l2.9-7.8l0.6-4.2l1.9-4.9l0.4-1.4l1.1-1.4l0.8-1.4l2-4.2l0.4-1.4l1.6-2.1l1.6-3.5l2.2-4.2l1.5,3.5l3.1,2.1
					l0.4,1.4l2.4,12l0.9,11.3l1.1,4.9l0.2,4.9l1.4,9.2l0.5,5.7l1.6,5.7l0.2,2.1l0.7,2.1l1.4,7.1l1.1,1.4l0.9,2.8l1.5,8.5l0.9,1.4
					l0.9,2.8h0.9l0.8,2.1l0,1.4l1.4-2.8l0.3-2.1l1-2.1l0.7-0.7l0.1-0.7l1.3-3.5l0.5-4.2l0.7-0.7l0.1-1.4l1.5-5.7l0.4-6.4l0.9-1.4
					l0.1-2.1l1.1-5.7l0.3-3.5l1.5-3.5l0.9-2.8l0.6-3.5l2.5-8.5l0.9-3.5l0.5-4.2l2.5-4.2l1.9-4.9l0.4-1.4l1.6-2.1l1.2-4.2l2.1-4.2
					l0.6-0.7l1.1-0.7l2.6-2.8l0.9-2.8l2-2.8l2.1-3.5l1.9-2.1l1.4-0.7l1.9-1.4l2.4-1.4l0-1.4l3.4-3.5l0.5-0.7l2.2-0.7l1.3-0.7l2-0.7
					l0-1.4l4.1-2.8l0.2,6.4l2.4,6.4l2.1,6.4l8.4,19.1l1.1,7.1l0.4,7.1l0.7,7.8l1.6,7.8l1.2,4.2l3,14.1l0.2,2.8l0.8,2.1l0.9,1.4
					l0.1,1.4l1.2,4.2l0.7,1.4l0.5,1.4l1.4,1.4l0.8,1.4l1.2,0.7l1.3-0.7l0.6-0.7l1.8-4.9l1.3-1.4l0.1-1.4l0.7-2.1l0.5-2.1l1.3-4.2
					l0.8-4.2l1.1-2.8l0-3.5l2.9-5.7l0.2-6.4l3.5-12l0.9-3.5l1.7-4.2l0.8-2.8l2.2-2.8l1-2.8l0.6-2.1l1.5-2.1l2.1-3.5l1.7-2.1l0.4-1.4
					l2.3-2.1l0.9-2.8l1.4-1.4h2.8l1.6-4.2l3.1-4.9l2.7-0.7l0.8-0.7l0.5-1.4l2.7-1.4l0.3-2.1l2-0.7l1.2-1.4l2-1.4l1.3-1.4l1-0.7
					l3.4-0.7l1.3-1.4l1-0.7l3.4-1.4l0.8-1.4l1.6-0.7l2.2-1.4l1.3-0.7l2.7-0.7l0.3-0.7h2.2l0-0.7l2.2-0.7l2.8-1.4l1.7-1.4h0.8l2-0.7
					l3.9-2.1l2.3-0.7l1.4-0.7l2.6-0.7h2.6l0.9-0.7l0-0.7l5.2-0.7l0.6-1.4l2.6-2.1l1.5-2.1l1.8-1.4l4.2-1.4l6.1-2.8h2.1l0.9-0.7
					l3.1-0.7l2.4-0.7l2.8-1.4l1-1.4l2.8-0.7l5.3-0.7l0-0.7h5l0-0.7l3.2-0.7h2.8l0.3-0.7h2.2l2.3-0.7h1.9l3.2-0.7l2.6-0.7h4.8l1-0.7
					h2.9l1-0.7l3.9-0.7h1.5l0,0"/>
			</g>
		</g>
		<g id="legend_1">
			<g id="patch_12">
				<path class="st4" d="M889.4,262.4h55c1.3,0,2-0.7,2-2V232c0-1.3-0.7-2-2-2h-55c-1.3,0-2,0.7-2,2v28.4
					C887.4,261.7,888.1,262.4,889.4,262.4z"/>
			</g>
			<g id="line2d_22">
				<path class="st5" d="M891.4,238.1h10h10"/>
			</g>
			<g id="text_11">
				<g transform="translate(939.957813 382.271456) scale(0.1 -0.1)">
					<g>
						<path id="DejaVuSans-4d_00000165195745354832171520000014962341501385129350_" d="M-195.3,1479.3h14.7l18.6-49.6l18.7,49.6
							h14.7v-72.9h-9.6v64l-18.8-50h-9.9l-18.8,50v-64h-9.6V1479.3z"/>
					</g>
					<g>
						<path id="DejaVuSans-41_00000012438681430459958370000012044059910989178271_" d="M-84.6,1469.6l-13.4-36.3h26.8L-84.6,1469.6
							z M-90.2,1479.3H-79l27.8-72.9h-10.2l-6.6,18.7H-101l-6.6-18.7H-118L-90.2,1479.3z"/>
					</g>
					<g>
						<path id="DejaVuSans-47_00000101823324631521163930000009791916484200224418_" d="M7.3,1416.8v19.6H-8.8v8.1h25.9v-31.3
							c-3.8-2.7-8-4.7-12.6-6.1c-4.6-1.4-9.5-2.1-14.7-2.1c-11.4,0-20.3,3.3-26.8,10c-6.4,6.7-9.6,15.9-9.6,27.8
							c0,11.9,3.2,21.2,9.6,27.9c6.4,6.7,15.4,10,26.8,10c4.8,0,9.3-0.6,13.5-1.8c4.3-1.2,8.2-2.9,11.8-5.2v-10.5
							c-3.6,3.1-7.5,5.4-11.6,7s-8.4,2.3-12.9,2.3c-8.9,0-15.6-2.5-20.1-7.5c-4.5-5-6.7-12.4-6.7-22.3c0-9.8,2.2-17.2,6.7-22.2
							c4.5-5,11.2-7.5,20.1-7.5c3.5,0,6.6,0.3,9.3,0.9C2.7,1414.6,5.2,1415.5,7.3,1416.8z"/>
					</g>
				</g>
			</g>
			<g id="line2d_23">
				<path class="st6" d="M891.4,252.8h10h10"/>
			</g>
			<g id="text_12">
				<g transform="translate(939.957813 396.949581) scale(0.1 -0.1)">
					<g>
						<path id="DejaVuSans-56" d="M-176.5,1406.4l-27.8,72.9h10.3l23.1-61.4l23.1,61.4h10.2l-27.8-72.9H-176.5z"/>
					</g>
					<g>
						<path id="DejaVuSans-45" d="M-126.9,1479.3h46.1v-8.3H-117v-21.6h34.7v-8.3H-117v-26.4h37.1v-8.3h-47V1479.3z"/>
					</g>
					<g>
						<path id="DejaVuSans-52" d="M-29.1,1440.6c2.1-0.7,4.2-2.2,6.2-4.6s4-5.6,6-9.7l10-19.9h-10.6l-9.3,18.7
							c-2.4,4.9-4.8,8.1-7,9.7s-5.3,2.4-9.2,2.4h-10.8v-30.8h-9.9v72.9h22.3c8.3,0,14.6-1.7,18.7-5.2c4.1-3.5,6.2-8.7,6.2-15.8
							c0-4.6-1.1-8.4-3.2-11.4C-22,1443.8-25.1,1441.7-29.1,1440.6z M-53.8,1471.2v-25.9h12.4c4.8,0,8.3,1.1,10.8,3.3
							s3.6,5.4,3.6,9.7s-1.2,7.5-3.6,9.6s-6,3.2-10.8,3.2H-53.8z"/>
					</g>
				</g>
			</g>
		</g>
	</g>
</g>
<text transform="matrix(1 0 0 1 391.1019 52.1093)" class="st1 st7 st8">Magnussen scored his maiden pole! </text>
<text transform="matrix(1 0 0 1 510.5618 297.3655)" class="st1 st7 st9">Distance</text>
<text transform="matrix(6.123234e-17 -1 1 6.123234e-17 72.9836 195.3069)" class="st1 st7 st9">Speed</text>
<rect x="145.3" y="273.8" class="st10" width="4.9" height="10.4"/>
<text transform="matrix(1 0 0 1 145.2555 281.3172)" class="st1 st11 st12">0</text>
<rect x="322.1" y="276.1" class="st10" width="19.6" height="10.4"/>
<text transform="matrix(1 0 0 1 322.1125 283.6644)" class="st1 st11 st12">1000</text>
<rect x="501.5" y="273.8" class="st10" width="19.6" height="10.4"/>
<text transform="matrix(1 0 0 1 501.4807 281.3172)" class="st1 st11 st12">2000</text>
<rect x="680.8" y="273.8" class="st10" width="19.6" height="10.4"/>
<text transform="matrix(1 0 0 1 680.8486 281.3172)" class="st1 st11 st12">3000</text>
<rect x="860.2" y="276.1" class="st10" width="19.6" height="10.4"/>
<text transform="matrix(1 0 0 1 860.2158 283.6644)" class="st1 st11 st12">4000</text>
</svg>
