<?xml version="1.0" encoding="utf-8"?>
<!-- Generator: Adobe Illustrator 27.2.0, SVG Export Plug-In . SVG Version: 6.00 Build 0)  -->
<svg version="1.1" id="Layer_1" xmlns="http://www.w3.org/2000/svg" xmlns:xlink="http://www.w3.org/1999/xlink" x="0px" y="0px"
	 viewBox="0 0 1080 353.3" style="enable-background:new 0 0 1080 353.3;" xml:space="preserve">
<style type="text/css">
	.st0{fill:#FFFFFF;stroke:#FFFFFF;stroke-width:0.8;stroke-linejoin:round;}
	
		.st1{clip-path:url(#SVGID_00000120545607021661484480000015775478815020001198_);fill:none;stroke:#FFFFFF;stroke-width:1.5;stroke-linecap:square;stroke-linejoin:round;}
	.st2{fill:none;stroke:#FFFFFF;}
	.st3{opacity:0.9;fill:none;stroke:#00FFFF;stroke-miterlimit:10;}
	.st4{opacity:0.3;fill:#FFFFFF;stroke:#CCCCCC;enable-background:new    ;}
	.st5{fill:none;stroke:#FFFFFF;stroke-width:1.5;stroke-linecap:square;stroke-linejoin:round;}
	.st6{fill:#FFFFFF;}
	.st7{fill:none;stroke:#00FFFF;stroke-width:1.5;stroke-linecap:square;stroke-linejoin:round;}
	.st8{fill:#00FFFF;}
	.st9{font-family:'TitilliumWeb-Bold';}
	.st10{font-size:16px;}
	.st11{fill:none;}
	.st12{font-family:'TitilliumWeb-Regular';}
	.st13{font-size:12px;}
	.st14{enable-background:new    ;}
	.st15{opacity:0.3;fill:#FFFFFF;}
	.st16{stroke:#000000;}
	.st17{font-size:20px;}
	.st18{fill:#FF0000;}
</style>
<rect width="1080" height="353.3"/>
<g>
	<path id="m9fb5d58158_00000161633867722928920940000001396957355133724053_" class="st0" d="M95.2,266h-15"/>
</g>
<g>
	<path id="m9fb5d58158_00000088827918397659973500000003482374538792609676_" class="st0" d="M95.2,222.6h-15"/>
</g>
<g>
	<path id="m9fb5d58158_00000094610857754949174100000008220078067906685347_" class="st0" d="M95.2,179.2h-15"/>
</g>
<g>
	<path id="m9fb5d58158_00000151501228374680778700000006160079941025624464_" class="st0" d="M95.2,135.8h-15"/>
</g>
<g>
	<path id="m9fb5d58158_00000178200485152677753520000016487899356426663569_" class="st0" d="M95.2,92.4h-15"/>
</g>
<g id="line2d_20">
	<g>
		<defs>
			<rect id="SVGID_1_" x="95.2" y="57.3" width="923.5" height="237.7"/>
		</defs>
		<clipPath id="SVGID_00000146499322636771873190000010634556758083195570_">
			<use xlink:href="#SVGID_1_"  style="overflow:visible;"/>
		</clipPath>
		
			<path style="clip-path:url(#SVGID_00000146499322636771873190000010634556758083195570_);fill:none;stroke:#FFFFFF;stroke-width:1.5;stroke-linecap:square;stroke-linejoin:round;" d="
			M137.1,76.8h10.6l0-0.9h2.4l2.5-0.9h1l7.1-0.9l3.2-0.9l9.2,1.7l1.7,0.9l3.2,0.9l1,0.9l2.5,0.9l3.6,33.9l0.3,9.5l2.5,9.5l0.6,8.7
			l1.5,14.8l2.3,13.9l0.2,12.2l3.8,19.1l3.5,20.8l0.3,5.2l0.9,1.7l0.3,1.7l0.9,2.6l0.3,2.6l1,3.5l0.4,2.6l1.1,0.9l0.6,0.9l0.5,1.7
			l1.4,1.7l0.4,2.6l1.9,1.7l0.3,1.7l1,1.7l0.7,1.7l1,0.9h0.7l0.3-0.9l1.8-5.2l0.8-5.2l2.3-6.1l0-6.1l1.9-6.9l1.4-6.9h1.4l1.3-0.9
			l0.4-0.9l1.4-1.7l2.3-0.9l0.5-1.7l2.9-2.6l0.4-3.5l2.6-3.5l0-3.5l2.4-5.2l0.4-5.2h2.1l3-7.8l0.5-7.8l1.8-2.6l0.5-2.6l2.6-2.6
			l0.7-3.5l3.6-2.6l0.3-2.6l3-5.2l2.6-2.6l0.2-1.7l0.5-1.7l2.6-1.7l1.3-1.7l1.3-0.9l1.4-1.7l2.4-0.9l0.8-0.9l2.7-1.7l1.4-2.6
			l0.9-2.6l2.2-0.9l1.7-1.7h0.8l4.6-2.6l0.9-1.7l0.8-0.9l2.1-0.9l1.1-1.7l2.4-2.6l2.7-0.9l0.9-0.9l2.1-0.9l0.3-1.7l2.4-1.7l0.6-1.7
			l3.4-2.6l1.6-2.6l2.5-0.9l2.6-1.7l2.8-0.9l0.4-1.7l5.1-3.5l2-0.9l2.6-0.9l0.7-0.9l3.3-2.6l3-0.9l4-1.7l1.7-1.7l4.4-0.9l1-1.7
			l4.4-0.9l1-0.9l6.2-1.7h1.7l2.4-0.9l3.5-1.7l0.3-0.9l3.9-0.9h2.8l3.5-0.9h1.7l1.1-0.9l4.2-1.7l1.4,0.9h2.2l5.6,0.9l3.5,0.9l0,0.9
			l3.6,14.8l0.3,14.8l4.2,39.1l0.5,10.4l3.1,10.4l1.6,9.5l0.2,6.1l2.8,5.2l1.8,6.1l0.2,5.2l3,6.9l0.2,3.5l2.7,5.2l0.4,1.7l1.7,3.5
			l1.5,0.9l0.9,0.9l2.4-3.5l1.1-3.5l0-4.3l3-5.2l0.4-5.2l2.3-1.7l0.8-2.6l3.9-20l5.1-5.2l0-2.6l2.2-6.9l3.3-6.9h0.5l2-0.9l2.6-3.5
			l1.6-3.5l0.8-0.9l2.4-1.7l0.3-1.7l2.2-1.7l1.4-1.7l2.2-1.7l1.1-1.7l5.6-3.5l0.8-0.9l2.6-1.7l2.9-1.7l1.2-1.7l1.7-1.7l3-2.6
			l6.8-2.6l2.4-1.7l0.9-1.7h1.8l1.9-0.9h3l0.9-0.9l2.8-1.7l2.4-0.9l3.1-0.9h2.4l2.5-0.9h0.6l4-0.9l1.6-0.9l0.9,0.9h5.3l1.2,1.7
			l1.9,0.9l1.2,10.4l2.8,10.4l0.3,5.2l2.7,5.2l1.3,5.2l1.7,8.7l2.2,7.8l1.9,3.5l0.5,1.7l2.3,1.7l0.7,0.9h3.9l1.4-2.6l3.3-2.6h1.6
			l0.3-0.9l1.9-1.7l1-1.7l2.9-1.7h1.4l3-0.9h0.7l1.8-0.9h3l0.2-0.9l1.8-0.9h2l0-0.9l3.1-4.3l2.4,11.3l0.9,11.3l2.1,13l0.2,8.7
			l2.5,8.7l2.7,20.8l0.3,6.1l1.5,5.2l0,5.2l1.1,3.5l0.4,3.5l0.9,3.5l0.7,4.3l0.2,4.3l1.4,6.9l1.8,5.2l0.4,2.6l0.4,0.9l0.8,0.9
			l0.8,1.7l0.8-0.9l0.8-1.7l0.1-0.9l0.8-0.9l0.5-1.7l0.9-1.7l0.5-1.7l1.1-5.2l0.1-2.6l0.8-2.6l0.7-3.5l0.5-4.3l0.8-4.3l0.3-4.3
			l2.7-5.2l0.7,2.6l1.3,2.6l1.6,5.2l0.3,2.6l0.1,2.6l1.9,3.5l0.2,1.7l1,0.9l0.3,0.9h3l0.7-0.9l0.3-0.9l1-2.6l1-1.7l0-2.6l1.9-3.5
			l0.3-4.3l1.5-1.7l0.2-2.6l1.2-6.1l0.5-3.5l1.1-3.5l0.3-3.5l2.6-3.5l0.2-3.5l1.2-4.3l1.5-4.3l0.2-5.2l2.1-3.5l0.2-3.5l2.5-5.2
			l1.1-6.1l2.5-6.1l1.8-2.6l0.2-2.6l2.1-2.6l1.2-1.7l0.7-1.7l2.9-1.7l1.5-1.7l2.6,6.1l0.7,5.2l2.3,10.4l0.2,9.5l2.1,6.9l2,6.1
			l0.4,6.1l2.2,15.6l0.1,6.9l2.7,16.5l1.1,2.6l0.2,2.6l0.7,1.7l0.5,2.6l1.8,4.3l0.9,3.5l0.5,2.6l1.3,2.6l0.9,3.5l0.9,0.9h0.3
			l0.8-0.9l0.4-0.9l0.5-1.7l0.9-2.6l0.1-1.7l1.4-1.7l0-1.7l0.9-3.5l0.7-3.5l0.8-2.6l0.4-3.5l2.2-8.7l0.1-5.2l2.4-5.2l0.2-6.1
			l2.8-14.8l0.2-6.9l3.3-7.8l0.4-2.6l1.6-3.5l0.8-3.5l1-2.6l1.1-3.5l2.2-2.6l0.9-2.6l2-5.2l1.7-5.2l0.7-1.7l2.6-2.6l0.7-2.6l2.3-3.5
			l0.2-2.6l3.3-3.5l1-2.6l4.8-3.5l0.2-0.9l1.9-0.9l3.2-2.6l1.6-1.7l3.5-1.7l0.3-2.6l2.7-0.9l0.6-0.9l3.9-0.9l0-1.7l2.2-1.7l0-1.7
			l6.3-0.9l0-1.7l2.5,4.3l0.3,3.5l1.8,13l0.8,12.2l1.8,13.9l3.2,13l0.2,13l2.4,16.5l0.6,15.6l0.6,3.5l0.9,3.5l1.6,2.6l0.2,2.6
			l2.4,4.3l0,4.3l1,1.7l1.5,1.7l0.3,0.9h1l1.2,2.6l0.7-0.9l1-0.9l2.3-3.5l0.3-1.7l1.2-3.5l1.5-3.5l1.6-4.3l0.2-4.3l0.4-3.5l1.4-3.5
			l1-4.3l1.4-6.9l0.3-3.5l1.6-4.3l0.6-4.3l2.8-6.9l0.2-3.5l2.1-4.3l1.5-4.3l1.7-3.5l2-3.5l0.7-3.5l2.3-6.1l0.4-1.7l1.4-2.6l1-2.6
			l2.5-4.3h0.5l2-0.9l6.4-11.3l4-1.7l0.6-1.7l3.5-2.6l1.4-3.5l1.9-0.9l0.3-0.9h2.8l1.1-2.6l3.4-2.6l0.5-0.9l1.7-1.7l3.5-1.7l2.9-0.9
			l7.1-5.2l3-0.9h1.5l3.3-1.7l1.2-1.7l3,0.9l4.9-2.6l0.9-0.9l3.4-0.9l2.1-0.9l0.3-1.7l4-0.9l1.6-0.9h2.2l0.3-0.9l4.1-1.7l1-1.7
			l2.2-0.9l0.4-1.7h2.6l0.6-1.7l6.6-3.5l3.3-0.9l1.6-0.9l2.7-2.6l4.4-0.9l3.4-1.7h0.6l2.7-0.9l2-0.9l3.4-1.7h1l1.7-0.9h4.1l1.4-0.9
			l6.2-1.7h1l1.8-0.9h2l2.8-0.9h3.5l5.6-0.9l3.1-0.9l1.8-0.9h2.8l5.6-0.9l0.3,0.9l3.5,0.9l2.9,0.9l0,0"/>
		<use xlink:href="#SVGID_1_"  style="overflow:visible;fill:none;stroke:#FFFFFF;stroke-miterlimit:10;"/>
	</g>
</g>
<rect x="95.2" y="57.3" class="st2" width="923.5" height="237.7"/>
<path class="st3" d="M137.1,71.6h3.6l3.9-0.9h2.5l0.4-0.9h5.4L154,69h21.2l0.4-0.9l5.6,7.8l0.6,16.5l4,15.6l2.1,15.6l0.2,11.3
	l3.4,10.4l2.2,13.9l0.3,13l3.3,21.7l0.2,6.9l2.7,12.2l0.4,5.2l1.6,9.5l1.4,5.2l0.7,5.2l2,3.5l0.8,3.5l0,3.5l2.1,1.7l0.3,1.7l1.5,1.7
	l0.5,1.7h2.2l1.4-3.5l1.5-4.3l0-4.3l1.3-6.1l2-6.9l0.3-4.3l1.3-5.2l1.7-0.9l1-1.7h0.5l1.7-0.9h1.4l0.9-0.9l1.4-0.9l0.7-0.9l3.6-6.9
	l0.5-0.9l1.7-1.7l1.9-4.3l2-10.4l2.2-6.1l1.7-3.5l3.4-7.8l1.9-3.5l0.7-3.5l2.9-6.9h2.5l0.7-3.5l2.3-3.5l6.8-8.7l2.2-3.5l0.5-1.7
	l3.6-1.7l2.2-4.3l4.8-1.7l1.1-0.9l1.7-1.7l1.1-1.7l2.9-2.6h0.3l2.9-0.9l1.5-0.9l2-1.7l2.7-2.6l2.4-2.6l0.6-1.7l4-3.5l1.6-0.9
	l0.9-0.9l2.8-1.7l1.9-2.6l4.5-2.6l2.2-0.9l0.4-1.7l2.6-0.9l1.3-1.7l3.9-0.9l1.9-1.7l4-1.7l1-1.7l2.4-2.6l2.7-0.9l1.4-0.9h0.3
	l5.1-1.7l0-0.9l4.1-0.9l3.4-0.9l1.4-1.7l3.5-1.7h0.3l4.5-0.9l2.1-0.9l3.5-1.7h4.2l0-0.9l2.8-0.9h6.4l2.9-1.7h1.8l1.8-0.9l4.2,5.2
	l1.4,5.2l1.3,20l2.4,19.1h2.4l4.4,23.4l0.2,11.3l1.9,11.3l1.1,11.3l1.9,8.7l1,8.7l1.9,7.8l0.2,2.6l1.3,1.7l1.1,0.9l0.7,0.9l1.1,1.7
	l0.4,0.9l3.2,3.5l0.9-2.6l1.6-2.6l1.1-2.6h1.5l0.2-3.5l1.4-3.5l1.6-2.6l0.4-0.9l1.6-1.7l0.6-2.6l1.5-3.5l0.4-6.1l3.6-6.1l1.3-0.9
	l0.5-0.9l1.8-1.7l1.8-3.5l0-3.5l3.3-1.7l0.5-2.6l2.7-4.3l0.3-4.3l2.1-3.5l0.8-0.9l1.9-1.7l0.5-1.7l4-2.6l0.3-2.6l1.9-0.9l2.2-1.7
	l0.3-1.7l3-0.9l0.3-1.7l3.4-2.6l1.4-0.9l3.2-1.7l2.3-3.5l0.3-0.9l2.7-1.7h1.5l0.9-0.9l3.5-0.9l1.8-1.7l3.3-1.7l0.9-1.7h3.3l0.3-0.9
	l6.7-1.7l0.6-0.9l4.3-2.6h0.3l5.3-1.7h0.9l2.9-0.9h6.9l1.9-0.9l2.7,7.8l1.5,7.8l3.6,9.5l2.4,11.3l2.4,2.6l0.8,2.6l2,2.6l1.1,1.7
	l1.2,0.9l2.3,0.9l0.2,0.9l3.3,0.9l2,0.9h4l4,2.6l0.2,0.9l8.1,1.7l0.2-2.6l4.3-3.5l0.5-0.9l2-1.7l1-1.7l2.6-1.7l2.5,7.8l1,7.8l2,12.2
	l1.5,12.2l0.6,9.5l2.6,12.2l1.6,1.7l0.2,8.7l2.1,8.7l0.6,8.7l2.5,7.8l0.1,4.3l0.9,3.5l0.5,3.5l1.6,7.8l1.4,3.5l0.1,2.6l1,3.5
	l0.2,2.6l1.3,3.5l0,2.6l0.7,0.9l0,0.9l2-2.6l0-2.6l0.9-1.7l0.1-2.6l0.7-1.7l0.3-2.6l0.9-2.6l1.7-2.6l0.1-3.5l1.8-8.7l0.6-8.7
	l1.4-4.3l1.5,2.6l0.2,1.7l2.4,2.6l0,2.6l1,2.6l1.5,1.7l0.3,1.7l1,2.6l0.7,0.9h0.5l0.7,1.7l0.9,0.9h2.1l0.2-0.9l2.4-6.1l1.4-1.7
	l0.1-1.7l0.4-2.6l1.2-3.5l0.9-3.5l1.2-2.6l0.3-1.7l1.3-2.6l0.5-2.6l2.3-7.8l0.2-4.3l1.7-4.3l1.3-4.3l3.2-9.5l0.6-5.2l2.1-6.1
	l0.4-1.7l1.3-1.7l0.9-1.7l2.2-5.2l0.4-1.7l1.8-2.6l1.8-4.3l2.4-5.2l1.6,4.3l3.4,2.6l0.5,1.7l2.7,14.8l1,13.9l1.3,6.1l0.2,6.1
	l1.6,11.3l0.6,6.9l1.7,6.9l0.3,2.6l0.8,2.6l1.5,8.7l1.2,1.7l1,3.5l1.7,10.4l1,1.7l1,3.5h1l0.9,2.6l0,1.7l1.5-3.5l0.3-2.6l1.1-2.6
	l0.7-0.9l0.1-0.9l1.4-4.3l0.6-5.2l0.8-0.9l0.1-1.7l1.7-6.9l0.4-7.8l1-1.7l0.2-2.6l1.2-6.9l0.3-4.3l1.7-4.3l1-3.5l0.7-4.3l2.8-10.4
	l1-4.3l0.6-5.2l2.7-5.2l2.1-6.1l0.4-1.7l1.8-2.6l1.3-5.2l2.4-5.2l0.7-0.9l1.2-0.9l2.9-3.5l1-3.5l2.2-3.5l2.3-4.3l2.1-2.6l1.5-0.9
	l2.1-1.7l2.6-1.7l0-1.7l3.8-4.3l0.5-0.9l2.5-0.9l1.4-0.9l2.2-0.9l0-1.7l4.5-3.5l0.2,7.8l2.6,7.8l2.3,7.8l9.3,23.4l1.2,8.7l0.4,8.7
	l0.7,9.5l1.8,9.5l1.4,5.2l3.4,17.4l0.3,3.5l0.9,2.6l0.9,1.7l0.1,1.7l1.3,5.2l0.7,1.7l0.5,1.7l1.6,1.7l0.9,1.7l1.3,0.9l1.4-0.9
	l0.6-0.9l2-6.1l1.4-1.7l0.1-1.7l0.8-2.6l0.6-2.6l1.4-5.2l0.9-5.2l1.2-3.5l0-4.3l3.2-6.9l0.2-7.8l3.9-14.8l1-4.3l1.9-5.2l0.9-3.5
	l2.4-3.5l1.1-3.5l0.7-2.6l1.6-2.6l2.4-4.3l1.9-2.6l0.5-1.7l2.5-2.6l1-3.5l1.5-1.7h3l1.8-5.2l3.5-6.1l3-0.9l0.8-0.9l0.5-1.7l3-1.7
	l0.3-2.6l2.2-0.9l1.4-1.7l2.3-1.7l1.5-1.7l1.1-0.9l3.7-0.9l1.5-1.7l1.1-0.9l3.8-1.7l0.9-1.7l1.7-0.9l2.4-1.7l1.5-0.9l3-0.9l0.3-0.9
	h2.4l0-0.9l2.4-0.9l3.1-1.7l1.9-1.7h0.9l2.2-0.9l4.3-2.6l2.5-0.9l1.6-0.9l2.9-0.9h2.8l0.9-0.9l0-0.9l5.7-0.9l0.7-1.7l2.9-2.6
	l1.7-2.6l1.9-1.7l4.7-1.7l6.7-3.5h2.3l1-0.9l3.4-0.9l2.7-0.9l3.1-1.7l1.1-1.7l3.1-0.9l5.9-0.9l0-0.9h5.5l0-0.9l3.5-0.9h3.1l0.4-0.9
	h2.4l2.5-0.9h2.1l3.6-0.9l2.8-0.9h5.3l1.1-0.9h3.2l1.1-0.9l4.3-0.9h1.6l0,0"/>
<g id="legend_1">
	<g id="patch_12">
		<path class="st4" d="M952.3,266h60.7c1.5,0,2.2-0.8,2.2-2.5v-34.8c0-1.6-0.7-2.5-2.2-2.5h-60.7c-1.5,0-2.2,0.8-2.2,2.5v34.8
			C950,265.2,950.8,266,952.3,266z"/>
	</g>
	<g id="line2d_22">
		<path class="st5" d="M954.5,236.2h11h11"/>
	</g>
	<g id="text_11">
		<g transform="translate(939.957813 382.271456) scale(0.1 -0.1)">
			<g>
				<path id="DejaVuSans-4d_00000165195745354832171520000014962341501385129350_" class="st6" d="M464.8,1507.2H481l20.5-60.9
					l20.6,60.9h16.2v-89.5h-10.6v78.6l-20.7-61.4h-10.9l-20.7,61.4v-78.6h-10.6V1507.2z"/>
			</g>
			<g>
				<path id="DejaVuSans-41_00000012438681430459958370000012044059910989178271_" class="st6" d="M586.8,1495.3l-14.8-44.6h29.6
					L586.8,1495.3z M580.7,1507.2H593l30.7-89.5h-11.3l-7.3,23h-36.3l-7.3-23H550L580.7,1507.2z"/>
			</g>
			<g>
				<path id="DejaVuSans-47_00000101823324631521163930000009791916484200224418_" class="st6" d="M688.3,1430.5v24h-17.8v10h28.5
					V1426c-4.2-3.3-8.8-5.8-13.9-7.5c-5.1-1.7-10.5-2.6-16.2-2.6c-12.6,0-22.4,4.1-29.5,12.3c-7.1,8.2-10.6,19.6-10.6,34.2
					c0,14.6,3.5,26,10.6,34.2c7.1,8.2,16.9,12.3,29.5,12.3c5.2,0,10.2-0.7,14.9-2.2c4.7-1.4,9.1-3.5,13.1-6.4v-12.9
					c-4,3.8-8.3,6.7-12.8,8.6s-9.3,2.9-14.3,2.9c-9.8,0-17.2-3.1-22.2-9.2c-4.9-6.1-7.4-15.2-7.4-27.3c0-12.1,2.5-21.2,7.4-27.3
					c4.9-6.1,12.3-9.2,22.2-9.2c3.8,0,7.3,0.4,10.3,1.1C683.2,1427.8,685.9,1428.9,688.3,1430.5z"/>
			</g>
		</g>
	</g>
	<g id="line2d_23">
		<path class="st7" d="M954.5,254.2h11h11"/>
	</g>
	<g id="text_12">
		<g transform="translate(939.957813 396.949581) scale(0.1 -0.1)">
			<g>
				<path id="DejaVuSans-56" class="st8" d="M485.5,1384.2l-30.7,89.5h11.4l25.5-75.4l25.5,75.4h11.3l-30.7-89.5H485.5z"/>
			</g>
			<g>
				<path id="DejaVuSans-45" class="st8" d="M540.2,1473.8h50.9v-10.2h-40v-26.5h38.3v-10.2h-38.3v-32.4h40.9v-10.2h-51.8V1473.8z"
					/>
			</g>
			<g>
				<path id="DejaVuSans-52" class="st8" d="M648.1,1426.2c2.3-0.9,4.6-2.8,6.8-5.6s4.4-6.8,6.7-11.9l11.1-24.5h-11.7l-10.3,23
					c-2.7,6-5.2,10-7.7,11.9c-2.5,2-5.9,2.9-10.2,2.9h-11.9v-37.8h-10.9v89.5h24.6c9.2,0,16.1-2.1,20.6-6.4
					c4.5-4.3,6.8-10.7,6.8-19.4c0-5.6-1.2-10.3-3.5-14C656,1430.2,652.6,1427.7,648.1,1426.2z M620.8,1463.8V1432h13.7
					c5.2,0,9.2,1.3,11.9,4c2.7,2.7,4,6.7,4,11.9c0,5.2-1.3,9.2-4,11.8c-2.7,2.7-6.6,4-11.9,4H620.8z"/>
			</g>
		</g>
	</g>
</g>
<text transform="matrix(1 0 0 1 506.7354 336.9837)" class="st6 st9 st10">Distance</text>
<text transform="matrix(6.123234e-17 -1.113 1 6.814921e-17 34.1187 195.3733)" class="st6 st9 st10">Speed</text>
<rect x="134.6" y="303.5" class="st11" width="7.3" height="10.3"/>
<text transform="matrix(0.8985 0 0 1 134.6274 313.6646)" class="st6 st12 st13">0</text>
<rect x="324.2" y="301.6" class="st11" width="25.3" height="12.8"/>
<text transform="matrix(0.8985 0 0 1 324.2417 311.7913)" class="st14"><tspan x="0" y="0" class="st6 st12 st13">100</tspan><tspan x="21.5" y="0" class="st6 st12 st13">0</tspan></text>
<rect x="522.1" y="302.9" class="st11" width="33.6" height="12.8"/>
<rect x="593.5" y="57.5" class="st15" width="195.7" height="237.6"/>
<rect x="59.3" y="42" class="st16" width="972.6" height="26.1"/>
<text transform="matrix(1 0 0 1 12.8733 27.3177)" class="st6 st9 st17">Magnussen’s superior speed in two key moments scored him his maiden pole </text>
<rect x="1015" y="68.1" width="13.2" height="229.1"/>
<text transform="matrix(1 0 0 1 955.0186 311.8962)" class="st12 st13">Lorem ipsum</text>
<text transform="matrix(1 0 0 1 945.3896 313.7302)" class="st12 st13">Lorem ipsum</text>
<rect x="24.3" y="87.9" class="st11" width="51.2" height="37.2"/>
<text transform="matrix(1 0 0 1 24.3342 96.5426)" class="st6 st12 st13">300 km/h</text>
<rect x="53.1" y="131.1" class="st11" width="21.3" height="15.5"/>
<text transform="matrix(1 0 0 1 53.0608 139.7136)" class="st6 st12 st13">250</text>
<rect x="53.1" y="174.5" class="st11" width="21.3" height="15.5"/>
<text transform="matrix(1 0 0 1 53.0608 183.1136)" class="st6 st12 st13">200</text>
<rect x="53.1" y="217.9" class="st11" width="21.3" height="15.5"/>
<text transform="matrix(1 0 0 1 53.0608 226.5137)" class="st6 st12 st13">150</text>
<rect x="53.1" y="261.3" class="st11" width="21.3" height="15.5"/>
<text transform="matrix(1 0 0 1 53.0608 269.9137)" class="st6 st12 st13">100</text>
<rect x="520.3" y="302.3" class="st11" width="25.3" height="12.8"/>
<text transform="matrix(0.8985 0 0 1 520.2758 312.416)" class="st14"><tspan x="0" y="0" class="st6 st12 st13">200</tspan><tspan x="21.5" y="0" class="st6 st12 st13">0</tspan></text>
<rect x="916.1" y="302.3" class="st11" width="25.3" height="12.8"/>
<text transform="matrix(0.8985 0 0 1 916.0792 312.4156)" class="st14"><tspan x="0" y="0" class="st6 st12 st13">400</tspan><tspan x="21.5" y="0" class="st6 st12 st13">0 </tspan></text>
<rect x="718.2" y="302.2" class="st11" width="25.3" height="12.8"/>
<text transform="matrix(0.8985 0 0 1 718.1776 312.316)" class="st14"><tspan x="0" y="0" class="st6 st12 st13">300</tspan><tspan x="21.5" y="0" class="st6 st12 st13">0</tspan></text>
<rect x="598.3" y="76.9" class="st11" width="103.5" height="47.9"/>
<text transform="matrix(1 0 0 1 598.3027 85.551)"><tspan x="0" y="0" class="st6 st12 st13">The two peaks </tspan><tspan x="0" y="14.4" class="st6 st12 st13">where Magnussen </tspan><tspan x="0" y="28.8" class="st6 st12 st13">carried higher speed </tspan></text>
<path class="st18" d="M739.4,107.4c-0.2,1.4-0.5,2.9-0.7,4.3c-5.3-10-16.5-16.3-27.8-16.2c-3.4,0-6.9,0.7-10.1,1.9
	c-1.2,0.5-0.7,2.4,0.5,1.9c10.7-4.2,23.3-0.9,31.2,7.3c1.8,1.9,3.4,4.1,4.6,6.4c-1.7,0-3.3,0-5,0c-0.8,0-1.3,1.1-0.7,1.7
	c2.3,2.2,5.7,2.2,8.1,0.3c0.1,0,0.1-0.1,0.1-0.2c0.3-0.1,0.5-0.3,0.6-0.6c0.3-2.1,0.7-4.2,1-6.4
	C741.5,106.7,739.6,106.1,739.4,107.4z"/>
<path class="st18" d="M665.8,156.2c-0.6,0-1.3,0-1.9-0.1c6.2-6.5,8.9-20.2,5.2-30.5c-0.6-1.7-2.3-0.2-1.7,1.5
	c3.5,9.8,0.3,23.6-6.4,28.1c-0.3-1.7-0.6-3.5-0.8-5.2c-0.3-1.6-2-1.3-2,0.4c0.1,2.4,0.2,4.8,0.3,7.1c0,0.8,0.4,1.5,1,1.5
	c2.1,0.1,4.2,0.1,6.3,0.2C667.1,159.2,667.1,156.2,665.8,156.2z"/>
<path d="M667.1,441.8c-1.3,0-1.3,2,0,2C668.4,443.8,668.4,441.8,667.1,441.8z"/>
<path d="M-190.5-144.2c-1.3,0-1.3,2,0,2C-189.2-142.2-189.2-144.2-190.5-144.2z"/>
<rect x="943.4" y="303.8" class="st11" width="25.3" height="12.8"/>
<text transform="matrix(0.8985 0 0 1 943.4176 312.4315)" class="st6 st12 st13">m</text>
</svg>
