<?xml version="1.0" encoding="utf-8"?>
<!-- Generator: Adobe Illustrator 27.2.0, SVG Export Plug-In . SVG Version: 6.00 Build 0)  -->
<svg version="1.1" id="Layer_1" xmlns="http://www.w3.org/2000/svg" xmlns:xlink="http://www.w3.org/1999/xlink" x="0px" y="0px"
	 viewBox="0 0 842.4 595.4" style="enable-background:new 0 0 842.4 595.4;" xml:space="preserve">
<style type="text/css">
	.st0{fill:#FFFFFF;}
	.st1{fill:#040416;}
	
		.st2{clip-path:url(#SVGID_00000092450133752169447510000002627942629855784081_);fill:none;stroke:#8C8C8C;stroke-width:1.5;stroke-linecap:round;stroke-linejoin:round;}
	
		.st3{clip-path:url(#SVGID_00000007398311451401991910000009753768763744908939_);fill:none;stroke:#8C8C8C;stroke-width:1.5;stroke-linecap:round;stroke-linejoin:round;}
	
		.st4{clip-path:url(#SVGID_00000096750687720200474410000012571681923678731918_);fill:none;stroke:#9F00C6;stroke-width:3;stroke-miterlimit:10;}
	
		.st5{clip-path:url(#SVGID_00000151524565841206230860000013171289901662195074_);fill:none;stroke:#E23333;stroke-width:3;stroke-linecap:round;stroke-linejoin:round;}
	
		.st6{clip-path:url(#SVGID_00000162340390801255151870000001176360690968869768_);fill:none;stroke:#FFFFFF;stroke-width:3;stroke-miterlimit:10;}
	
		.st7{clip-path:url(#SVGID_00000077324310952465549600000007664051006439018632_);fill:none;stroke:#8C8C8C;stroke-width:1.5;stroke-linecap:round;stroke-linejoin:round;}
	
		.st8{clip-path:url(#SVGID_00000139975979786775165620000014491151534821628576_);fill:none;stroke:#8C8C8C;stroke-width:1.5;stroke-linecap:round;stroke-linejoin:round;}
	
		.st9{clip-path:url(#SVGID_00000020367709945306687840000010708673579185440441_);fill:none;stroke:#8C8C8C;stroke-width:1.5;stroke-linecap:round;stroke-linejoin:round;}
	
		.st10{clip-path:url(#SVGID_00000137130794479523794800000009317118459286829998_);fill:none;stroke:#8C8C8C;stroke-width:1.5;stroke-linecap:round;stroke-linejoin:round;}
	
		.st11{clip-path:url(#SVGID_00000008842896805835180020000010884269889681188528_);fill:none;stroke:#8C8C8C;stroke-width:1.5;stroke-linecap:round;stroke-linejoin:round;}
	
		.st12{clip-path:url(#SVGID_00000004516169353823254160000010320003762032678588_);fill:none;stroke:#8C8C8C;stroke-width:1.5;stroke-linecap:round;stroke-linejoin:round;}
	
		.st13{clip-path:url(#SVGID_00000168084698626762367920000010093980164890639513_);fill:none;stroke:#8C8C8C;stroke-width:1.5;stroke-linecap:round;stroke-linejoin:round;}
	
		.st14{clip-path:url(#SVGID_00000130620999813540285960000016866847731708049284_);fill:none;stroke:#8C8C8C;stroke-width:1.5;stroke-linecap:round;stroke-linejoin:round;}
	
		.st15{clip-path:url(#SVGID_00000059295317877684959920000003303553530254871441_);fill:none;stroke:#8C8C8C;stroke-width:1.5;stroke-linecap:round;stroke-linejoin:round;}
	
		.st16{clip-path:url(#SVGID_00000035505431220226456410000014857629607410415033_);fill:none;stroke:#8C8C8C;stroke-width:1.5;stroke-linecap:round;stroke-linejoin:round;}
	
		.st17{clip-path:url(#SVGID_00000155115216787079958010000005947316953868692646_);fill:none;stroke:#8C8C8C;stroke-width:1.5;stroke-linecap:round;stroke-linejoin:round;}
	
		.st18{clip-path:url(#SVGID_00000070820910337985948670000002312557333136129204_);fill:none;stroke:#8C8C8C;stroke-width:1.5;stroke-linecap:round;stroke-linejoin:round;}
	
		.st19{clip-path:url(#SVGID_00000148643600180943436010000003918044895694796934_);fill:none;stroke:#00FFFF;stroke-width:3;stroke-linecap:round;stroke-linejoin:round;}
	
		.st20{clip-path:url(#SVGID_00000149383719951675764600000016849297223229762435_);fill:none;stroke:#8C8C8C;stroke-width:1.5;stroke-linecap:round;stroke-linejoin:round;}
	
		.st21{clip-path:url(#SVGID_00000090254902875260611780000008080710923606001340_);fill:none;stroke:#8C8C8C;stroke-width:1.5;stroke-linecap:round;stroke-linejoin:round;}
	
		.st22{clip-path:url(#SVGID_00000025405902869796152910000013452258244099935114_);fill:none;stroke:#8C8C8C;stroke-width:1.5;stroke-linecap:round;stroke-linejoin:round;}
	.st23{fill:#8C8C8C;}
	.st24{fill:#9F00C6;stroke:#9F00C6;stroke-miterlimit:10;}
	.st25{fill:#E23333;stroke:#E23333;stroke-miterlimit:10;}
	.st26{fill:#FFFFFF;stroke:#FFFFFF;stroke-miterlimit:10;}
	.st27{fill:#00FFFF;stroke:#00FFFF;stroke-miterlimit:10;}
	.st28{font-family:'TitilliumWeb-Bold';}
	.st29{font-size:19.1585px;}
	.st30{font-size:15.4658px;}
</style>
<g id="figure_1">
	<g id="patch_1">
		<path class="st0" d="M0,595.4h842.4V0H0V595.4z"/>
	</g>
	<g id="axes_1">
		<g id="patch_2">
			<path class="st1" d="M0,595.4h842.4V0H0V595.4z"/>
		</g>
		<g id="PolyCollection_1">
		</g>
		<g id="PolyCollection_2">
		</g>
		<g id="PolyCollection_3">
		</g>
		<g id="PolyCollection_4">
		</g>
		<g id="PolyCollection_5">
		</g>
		<g id="PolyCollection_6">
		</g>
		<g id="PolyCollection_7">
		</g>
		<g id="PolyCollection_8">
		</g>
		<g id="PolyCollection_9">
		</g>
		<g id="PolyCollection_10">
		</g>
		<g id="PolyCollection_11">
		</g>
		<g id="PolyCollection_12">
		</g>
		<g id="PolyCollection_13">
		</g>
		<g id="PolyCollection_14">
		</g>
		<g id="PolyCollection_15">
		</g>
		<g id="PolyCollection_16">
		</g>
		<g id="PolyCollection_17">
		</g>
		<g id="PolyCollection_18">
		</g>
		<g id="PolyCollection_19">
		</g>
		<g id="PolyCollection_20">
		</g>
		<g id="PolyCollection_21">
		</g>
		<g>
			<g id="matplotlib.axis_1">
				<g id="xtick_1">
					<g id="text_1">
						<g transform="translate(131.916939 547.315194) scale(0.11 -0.11)">
							<g>
								<path id="ArialMT-31" class="st0" d="M-56,108.5h-9.2v58.8c-2.2-2.1-5.1-4.2-8.7-6.3c-3.6-2.1-6.8-3.7-9.7-4.8v8.9
									c5.2,2.4,9.7,5.4,13.5,8.8c3.9,3.5,6.6,6.8,8.2,10.1h5.9V108.5z"/>
							</g>
						</g>
					</g>
				</g>
				<g id="xtick_2">
					<g id="text_2">
						<g transform="translate(160.179277 547.315194) scale(0.11 -0.11)">
							<g>
								<path id="ArialMT-32" class="st0" d="M-29.5,117.4v-8.9h-49.7c-0.1,2.2,0.3,4.4,1.1,6.4c1.3,3.4,3.3,6.7,6.1,10
									c2.8,3.3,6.8,7.1,12.1,11.4c8.2,6.7,13.7,12,16.5,15.9c2.9,3.9,4.3,7.6,4.3,11.1c0,3.7-1.3,6.7-3.9,9.2
									c-2.6,2.5-6,3.8-10.2,3.8c-4.4,0-8-1.3-10.7-4c-2.7-2.7-4-6.3-4.1-11.1l-9.5,1c0.6,7.1,3.1,12.5,7.3,16.2
									c4.2,3.7,9.9,5.6,17.1,5.6c7.2,0,12.9-2,17.1-6c4.2-4,6.3-8.9,6.3-14.9c0-3-0.6-6-1.9-8.9c-1.2-2.9-3.3-6-6.1-9.2
									c-2.9-3.2-7.6-7.6-14.2-13.2c-5.5-4.6-9.1-7.8-10.7-9.5c-1.6-1.7-2.9-3.3-3.9-5H-29.5z"/>
							</g>
						</g>
					</g>
				</g>
				<g id="xtick_3">
					<g id="text_3">
						<g transform="translate(188.441614 547.315194) scale(0.11 -0.11)">
							<g>
								<path id="ArialMT-33" class="st0" d="M-65.2,128.4l9.2,1.2c1.1-5.2,2.9-9,5.4-11.3c2.5-2.3,5.6-3.5,9.3-3.5
									c4.3,0,8,1.5,11,4.5c3,3,4.5,6.7,4.5,11.2c0,4.2-1.4,7.7-4.1,10.5c-2.8,2.8-6.3,4.1-10.6,4.1c-1.7,0-3.9-0.3-6.5-1l1,8.1
									c0.6-0.1,1.1-0.1,1.5-0.1c3.9,0,7.5,1,10.6,3.1c3.1,2.1,4.7,5.2,4.7,9.5c0,3.4-1.1,6.2-3.4,8.4c-2.3,2.2-5.2,3.3-8.9,3.3
									c-3.6,0-6.6-1.1-9-3.4c-2.4-2.3-3.9-5.6-4.6-10.1l-9.2,1.6c1.1,6.2,3.7,11,7.7,14.4c4,3.4,9,5.1,14.9,5.1
									c4.1,0,7.9-0.9,11.3-2.6c3.5-1.8,6.1-4.2,7.9-7.2c1.8-3,2.8-6.3,2.8-9.7c0-3.2-0.9-6.2-2.6-8.9c-1.7-2.7-4.3-4.8-7.7-6.4
									c4.4-1,7.9-3.1,10.3-6.4c2.5-3.2,3.7-7.3,3.7-12.1c0-6.6-2.4-12.1-7.2-16.7c-4.8-4.6-10.8-6.8-18.1-6.8
									c-6.6,0-12.1,2-16.4,5.9C-62.1,117-64.6,122.1-65.2,128.4z"/>
							</g>
						</g>
					</g>
				</g>
				<g id="xtick_4">
					<g id="text_4">
						<g transform="translate(216.703952 547.315194) scale(0.11 -0.11)">
							<g>
								<path id="ArialMT-34" class="st0" d="M-23,108.5v18h-32.6v8.5l34.3,48.7h7.5V135h10.2v-8.5h-10.2v-18H-23z M-23,135v33.9
									L-46.5,135H-23z"/>
							</g>
						</g>
					</g>
				</g>
				<g id="xtick_5">
					<g id="text_5">
						<g transform="translate(244.96629 547.315194) scale(0.11 -0.11)">
							<g>
								<path id="ArialMT-35" class="st0" d="M-39.8,128.2l9.7,0.8c0.7-4.7,2.4-8.3,5-10.6c2.6-2.4,5.8-3.6,9.5-3.6
									c4.4,0,8.2,1.7,11.3,5c3.1,3.4,4.6,7.8,4.6,13.3c0,5.3-1.5,9.4-4.4,12.4c-3,3.1-6.8,4.6-11.6,4.6c-3,0-5.7-0.7-8.1-2
									c-2.4-1.3-4.3-3.1-5.6-5.2l-8.7,1.1l7.3,38.6H6.5v-8.8h-30l-4-20.2c4.5,3.1,9.2,4.7,14.2,4.7c6.6,0,12.1-2.3,16.6-6.8
									C7.8,147,10,141.1,10,134c0-6.8-2-12.7-5.9-17.6c-4.8-6.1-11.4-9.1-19.7-9.1c-6.8,0-12.4,1.9-16.7,5.7
									C-36.7,116.8-39.2,121.9-39.8,128.2z"/>
							</g>
						</g>
					</g>
				</g>
				<g id="xtick_6">
					<g id="text_6">
						<g transform="translate(273.228627 547.315194) scale(0.11 -0.11)">
							<g>
								<path id="ArialMT-36" class="st0" d="M20.8,165.3l-9.2-0.7c-0.8,3.6-2,6.2-3.5,7.9c-2.5,2.6-5.6,4-9.2,4
									c-2.9,0-5.5-0.8-7.7-2.5c-2.9-2.1-5.2-5.2-6.9-9.3c-1.7-4.1-2.5-9.9-2.6-17.4c2.2,3.4,4.9,5.9,8.2,7.5s6.6,2.5,10.1,2.5
									c6.1,0,11.4-2.3,15.7-6.8c4.3-4.5,6.5-10.4,6.5-17.5c0-4.7-1-9.1-3.1-13.2s-4.8-7.1-8.4-9.3s-7.6-3.2-12.1-3.2
									c-7.7,0-14,2.8-18.8,8.5c-4.8,5.7-7.3,15-7.3,28c0,14.5,2.7,25.1,8,31.7c4.7,5.7,11,8.6,18.9,8.6c5.9,0,10.8-1.7,14.5-5
									C17.8,175.7,20.1,171.1,20.8,165.3z M-16.9,132.9c0-3.2,0.7-6.2,2-9.1c1.3-2.9,3.2-5.1,5.7-6.6c2.4-1.5,5-2.3,7.6-2.3
									c3.9,0,7.2,1.6,10,4.7c2.8,3.1,4.2,7.4,4.2,12.8c0,5.2-1.4,9.3-4.2,12.3c-2.8,3-6.2,4.5-10.4,4.5c-4.2,0-7.7-1.5-10.6-4.5
									C-15.4,141.6-16.9,137.7-16.9,132.9z"/>
							</g>
						</g>
					</g>
				</g>
				<g id="xtick_7">
					<g id="text_7">
						<g transform="translate(301.490965 547.315194) scale(0.11 -0.11)">
							<g>
								<path id="ArialMT-37" class="st0" d="M-13.7,173.8v8.9h48.6v-7.2c-4.8-5.1-9.5-11.8-14.2-20.3c-4.7-8.4-8.3-17.1-10.9-26
									c-1.8-6.3-3-13.2-3.5-20.6h-9.5c0.1,5.9,1.3,13.1,3.5,21.4c2.2,8.4,5.4,16.4,9.6,24.2c4.2,7.8,8.6,14.3,13.3,19.6H-13.7z"/>
							</g>
						</g>
					</g>
				</g>
				<g id="xtick_8">
					<g id="text_8">
						<g transform="translate(329.753303 547.315194) scale(0.11 -0.11)">
							<g>
								<path id="ArialMT-38" class="st0" d="M12.6,149.3c-3.8,1.4-6.7,3.4-8.5,6c-1.8,2.6-2.8,5.7-2.8,9.3c0,5.5,2,10.1,5.9,13.8
									c3.9,3.7,9.2,5.6,15.7,5.6c6.6,0,11.8-1.9,15.8-5.7c4-3.8,6-8.4,6-13.9c0-3.5-0.9-6.5-2.8-9.1c-1.8-2.6-4.6-4.6-8.3-6
									c4.6-1.5,8.1-3.9,10.5-7.3c2.4-3.3,3.6-7.3,3.6-12c0-6.4-2.3-11.8-6.8-16.2c-4.5-4.4-10.5-6.6-17.9-6.6s-13.4,2.2-17.9,6.6
									c-4.5,4.4-6.8,9.9-6.8,16.4c0,4.9,1.2,9,3.7,12.3C4.5,145.8,8,148.1,12.6,149.3z M10.8,164.9c0-3.6,1.1-6.5,3.4-8.7
									c2.3-2.3,5.3-3.4,8.9-3.4c3.6,0,6.5,1.1,8.7,3.3c2.3,2.2,3.4,5,3.4,8.2c0,3.4-1.2,6.2-3.5,8.5c-2.3,2.3-5.2,3.5-8.7,3.5
									c-3.5,0-6.4-1.1-8.8-3.4C11.9,170.7,10.8,168.1,10.8,164.9z M7.8,130.2c0-2.6,0.6-5.2,1.9-7.6c1.2-2.5,3.1-4.4,5.6-5.7
									c2.5-1.3,5.1-2,7.9-2c4.4,0,8,1.4,10.9,4.2c2.9,2.8,4.3,6.5,4.3,10.8c0,4.4-1.5,8.1-4.4,11s-6.7,4.4-11.1,4.4
									c-4.3,0-7.9-1.4-10.8-4.3C9.2,138.1,7.8,134.5,7.8,130.2z"/>
							</g>
						</g>
					</g>
				</g>
				<g id="xtick_9">
					<g id="text_9">
						<g transform="translate(358.01564 547.315194) scale(0.11 -0.11)">
							<g>
								<path id="ArialMT-39" class="st0" d="M12.5,125.9l8.9,0.8c0.7-4.2,2.2-7.2,4.3-9.1c2.1-1.9,4.8-2.8,8.2-2.8
									c2.8,0,5.3,0.7,7.4,2c2.1,1.3,3.9,3,5.3,5.2c1.4,2.2,2.5,5.1,3.4,8.8c0.9,3.7,1.4,7.5,1.4,11.3c0,0.4,0,1,0,1.8
									c-1.8-2.9-4.4-5.3-7.6-7.2c-3.2-1.8-6.7-2.7-10.4-2.7c-6.2,0-11.5,2.3-15.8,6.8c-4.3,4.5-6.4,10.5-6.4,17.8
									c0,7.6,2.2,13.8,6.7,18.4c4.5,4.6,10.1,7,16.9,7c4.9,0,9.4-1.3,13.4-4c4.1-2.6,7.1-6.4,9.2-11.3c2.1-4.9,3.1-11.9,3.1-21.1
									c0-9.6-1-17.2-3.1-22.9c-2.1-5.7-5.2-10-9.3-13c-4.1-3-8.9-4.5-14.5-4.5c-5.9,0-10.7,1.6-14.4,4.9
									C15.5,115.4,13.3,120,12.5,125.9z M50.3,159.1c0,5.3-1.4,9.5-4.2,12.6c-2.8,3.1-6.2,4.7-10.2,4.7c-4.1,0-7.7-1.7-10.7-5
									c-3-3.3-4.6-7.7-4.6-13c0-4.8,1.4-8.7,4.3-11.7c2.9-3,6.4-4.5,10.7-4.5c4.3,0,7.8,1.5,10.5,4.5
									C48.9,149.6,50.3,153.8,50.3,159.1z"/>
							</g>
						</g>
					</g>
				</g>
				<g id="xtick_10">
					<g id="text_10">
						<g transform="translate(383.219462 547.315194) scale(0.11 -0.11)">
							<g>
								<path id="ArialMT-31_00000012451355373302062150000016783685768437392031_" class="st0" d="M57.3,108.5H48v58.8
									c-2.2-2.1-5.1-4.2-8.7-6.3c-3.6-2.1-6.8-3.7-9.7-4.8v8.9c5.2,2.4,9.7,5.4,13.5,8.8c3.9,3.5,6.6,6.8,8.2,10.1h5.9V108.5z"/>
							</g>
							<g>
								<path id="ArialMT-30" class="st0" d="M80.9,145.6c0,8.9,0.9,16,2.7,21.5c1.8,5.4,4.5,9.6,8.1,12.5c3.6,2.9,8.1,4.4,13.6,4.4
									c4,0,7.6-0.8,10.6-2.4c3-1.6,5.5-4,7.5-7c2-3.1,3.5-6.8,4.7-11.2c1.1-4.4,1.7-10.3,1.7-17.8c0-8.8-0.9-15.9-2.7-21.3
									c-1.8-5.4-4.5-9.6-8.1-12.6c-3.6-3-8.2-4.4-13.7-4.4c-7.2,0-12.9,2.6-17.1,7.8C83.4,121.3,80.9,131.5,80.9,145.6z
									 M90.4,145.6c0-12.3,1.4-20.5,4.3-24.6c2.9-4.1,6.4-6.1,10.7-6.1c4.2,0,7.8,2,10.7,6.1c2.9,4.1,4.3,12.3,4.3,24.6
									c0,12.4-1.4,20.6-4.3,24.6c-2.9,4.1-6.5,6.1-10.8,6.1c-4.2,0-7.6-1.8-10.2-5.4C92,166.4,90.4,157.9,90.4,145.6z"/>
							</g>
						</g>
					</g>
				</g>
				<g id="xtick_11">
					<g id="text_11">
						<g transform="translate(411.887425 547.315194) scale(0.11 -0.11)">
							<g>
								<path id="ArialMT-31_00000018939711728799739720000012568239734069567897_" class="st0" d="M70.2,108.5H61v58.8
									c-2.2-2.1-5.1-4.2-8.7-6.3c-3.6-2.1-6.8-3.7-9.7-4.8v8.9c5.2,2.4,9.7,5.4,13.5,8.8c3.9,3.5,6.6,6.8,8.2,10.1h5.9V108.5z"/>
							</g>
							<g>
								<path id="ArialMT-31_00000158027398251095037590000000424440502004397187_" class="st0" d="M120.8,108.5h-9.2v58.8
									c-2.2-2.1-5.1-4.2-8.7-6.3c-3.6-2.1-6.8-3.7-9.7-4.8v8.9c5.2,2.4,9.7,5.4,13.5,8.8c3.9,3.5,6.6,6.8,8.2,10.1h5.9V108.5z"/>
							</g>
						</g>
					</g>
				</g>
				<g id="xtick_12">
					<g id="text_12">
						<g transform="translate(439.744138 547.315194) scale(0.11 -0.11)">
							<g>
								<path id="ArialMT-31_00000012434294997536080970000001298310882673025953_" class="st0" d="M82.7,108.5h-9.2v58.8
									c-2.2-2.1-5.1-4.2-8.7-6.3c-3.6-2.1-6.8-3.7-9.7-4.8v8.9c5.2,2.4,9.7,5.4,13.5,8.8c3.9,3.5,6.6,6.8,8.2,10.1h5.9V108.5z"/>
							</g>
							<g>
								<path id="ArialMT-32_00000108990807626815439780000006417151347155721651_" class="st0" d="M154.9,117.4v-8.9h-49.7
									c-0.1,2.2,0.3,4.4,1.1,6.4c1.3,3.4,3.3,6.7,6.1,10c2.8,3.3,6.8,7.1,12.1,11.4c8.2,6.7,13.7,12,16.5,15.9
									c2.9,3.9,4.3,7.6,4.3,11.1c0,3.7-1.3,6.7-3.9,9.2c-2.6,2.5-6,3.8-10.2,3.8c-4.4,0-8-1.3-10.7-4c-2.7-2.7-4-6.3-4.1-11.1
									l-9.5,1c0.6,7.1,3.1,12.5,7.3,16.2c4.2,3.7,9.9,5.6,17.1,5.6c7.2,0,12.9-2,17.1-6c4.2-4,6.3-8.9,6.3-14.9c0-3-0.6-6-1.9-8.9
									c-1.2-2.9-3.3-6-6.1-9.2c-2.9-3.2-7.6-7.6-14.2-13.2c-5.5-4.6-9.1-7.8-10.7-9.5c-1.6-1.7-2.9-3.3-3.9-5H154.9z"/>
							</g>
						</g>
					</g>
				</g>
				<g id="xtick_13">
					<g id="text_13">
						<g transform="translate(468.006475 547.315194) scale(0.11 -0.11)">
							<g>
								<path id="ArialMT-31_00000148659985663385171580000016187530921459098804_" class="st0" d="M95.5,108.5h-9.2v58.8
									c-2.2-2.1-5.1-4.2-8.7-6.3c-3.6-2.1-6.8-3.7-9.7-4.8v8.9c5.2,2.4,9.7,5.4,13.5,8.8c3.9,3.5,6.6,6.8,8.2,10.1h5.9V108.5z"/>
							</g>
							<g>
								<path id="ArialMT-33_00000125563911507810151860000003832254082198159805_" class="st0" d="M119.2,128.4l9.2,1.2
									c1.1-5.2,2.9-9,5.4-11.3c2.5-2.3,5.6-3.5,9.3-3.5c4.3,0,8,1.5,11,4.5c3,3,4.5,6.7,4.5,11.2c0,4.2-1.4,7.7-4.1,10.5
									c-2.8,2.8-6.3,4.1-10.6,4.1c-1.7,0-3.9-0.3-6.5-1l1,8.1c0.6-0.1,1.1-0.1,1.5-0.1c3.9,0,7.5,1,10.6,3.1
									c3.1,2.1,4.7,5.2,4.7,9.5c0,3.4-1.1,6.2-3.4,8.4c-2.3,2.2-5.2,3.3-8.9,3.3c-3.6,0-6.6-1.1-9-3.4c-2.4-2.3-3.9-5.6-4.6-10.1
									l-9.2,1.6c1.1,6.2,3.7,11,7.7,14.4c4,3.4,9,5.1,14.9,5.1c4.1,0,7.9-0.9,11.3-2.6c3.5-1.8,6.1-4.2,7.9-7.2
									c1.8-3,2.8-6.3,2.8-9.7c0-3.2-0.9-6.2-2.6-8.9c-1.7-2.7-4.3-4.8-7.7-6.4c4.4-1,7.9-3.1,10.3-6.4c2.5-3.2,3.7-7.3,3.7-12.1
									c0-6.6-2.4-12.1-7.2-16.7c-4.8-4.6-10.8-6.8-18.1-6.8c-6.6,0-12.1,2-16.4,5.9C122.3,117,119.8,122.1,119.2,128.4z"/>
							</g>
						</g>
					</g>
				</g>
				<g id="xtick_14">
					<g id="text_14">
						<g transform="translate(496.268813 547.315194) scale(0.11 -0.11)">
							<g>
								<path id="ArialMT-31_00000176012257145851266560000002135090019068147106_" class="st0" d="M108.2,108.5H99v58.8
									c-2.2-2.1-5.1-4.2-8.7-6.3c-3.6-2.1-6.8-3.7-9.7-4.8v8.9c5.2,2.4,9.7,5.4,13.5,8.8c3.9,3.5,6.6,6.8,8.2,10.1h5.9V108.5z"/>
							</g>
							<g>
								<path id="ArialMT-34_00000047046413737331661160000014515055238627874494_" class="st0" d="M161.4,108.5v18h-32.6v8.5
									l34.3,48.7h7.5V135h10.2v-8.5h-10.2v-18H161.4z M161.4,135v33.9L137.9,135H161.4z"/>
							</g>
						</g>
					</g>
				</g>
				<g id="xtick_15">
					<g id="text_15">
						<g transform="translate(524.531151 547.315194) scale(0.11 -0.11)">
							<g>
								<path id="ArialMT-31_00000150103494825702149030000016205016265427726484_" class="st0" d="M121,108.5h-9.2v58.8
									c-2.2-2.1-5.1-4.2-8.7-6.3c-3.6-2.1-6.8-3.7-9.7-4.8v8.9c5.2,2.4,9.7,5.4,13.5,8.8c3.9,3.5,6.6,6.8,8.2,10.1h5.9V108.5z"/>
							</g>
							<g>
								<path id="ArialMT-35_00000111162240852227634770000008484620626126482877_" class="st0" d="M144.6,128.2l9.7,0.8
									c0.7-4.7,2.4-8.3,5-10.6c2.6-2.4,5.8-3.6,9.5-3.6c4.4,0,8.2,1.7,11.3,5c3.1,3.4,4.6,7.8,4.6,13.3c0,5.3-1.5,9.4-4.4,12.4
									c-3,3.1-6.8,4.6-11.6,4.6c-3,0-5.7-0.7-8.1-2c-2.4-1.3-4.3-3.1-5.6-5.2l-8.7,1.1l7.3,38.6h37.4v-8.8h-30l-4-20.2
									c4.5,3.1,9.2,4.7,14.2,4.7c6.6,0,12.1-2.3,16.6-6.8c4.5-4.5,6.8-10.4,6.8-17.5c0-6.8-2-12.7-5.9-17.6
									c-4.8-6.1-11.4-9.1-19.7-9.1c-6.8,0-12.4,1.9-16.7,5.7C147.7,116.8,145.2,121.9,144.6,128.2z"/>
							</g>
						</g>
					</g>
				</g>
				<g id="xtick_16">
					<g id="text_16">
						<g transform="translate(552.793488 547.315194) scale(0.11 -0.11)">
							<g>
								<path id="ArialMT-31_00000136376229488233971350000004737783173365201556_" class="st0" d="M133.7,108.5h-9.2v58.8
									c-2.2-2.1-5.1-4.2-8.7-6.3c-3.6-2.1-6.8-3.7-9.7-4.8v8.9c5.2,2.4,9.7,5.4,13.5,8.8c3.9,3.5,6.6,6.8,8.2,10.1h5.9V108.5z"/>
							</g>
							<g>
								<path id="ArialMT-36_00000167370575537097625780000000105035603391580077_" class="st0" d="M205.2,165.3l-9.2-0.7
									c-0.8,3.6-2,6.2-3.5,7.9c-2.5,2.6-5.6,4-9.2,4c-2.9,0-5.5-0.8-7.7-2.5c-2.9-2.1-5.2-5.2-6.9-9.3c-1.7-4.1-2.5-9.9-2.6-17.4
									c2.2,3.4,4.9,5.9,8.2,7.5s6.6,2.5,10.1,2.5c6.1,0,11.4-2.3,15.7-6.8c4.3-4.5,6.5-10.4,6.5-17.5c0-4.7-1-9.1-3.1-13.2
									c-2-4-4.8-7.1-8.4-9.3c-3.6-2.2-7.6-3.2-12.1-3.2c-7.7,0-14,2.8-18.8,8.5c-4.8,5.7-7.3,15-7.3,28c0,14.5,2.7,25.1,8,31.7
									c4.7,5.7,11,8.6,18.9,8.6c5.9,0,10.8-1.7,14.5-5C202.2,175.7,204.5,171.1,205.2,165.3z M167.5,132.9c0-3.2,0.7-6.2,2-9.1
									c1.3-2.9,3.2-5.1,5.7-6.6c2.4-1.5,5-2.3,7.6-2.3c3.9,0,7.2,1.6,10,4.7c2.8,3.1,4.2,7.4,4.2,12.8c0,5.2-1.4,9.3-4.2,12.3
									c-2.8,3-6.2,4.5-10.4,4.5c-4.2,0-7.7-1.5-10.6-4.5C169,141.6,167.5,137.7,167.5,132.9z"/>
							</g>
						</g>
					</g>
				</g>
				<g id="xtick_17">
					<g id="text_17">
						<g transform="translate(581.055826 547.315194) scale(0.11 -0.11)">
							<g>
								<path id="ArialMT-31_00000044891816691476656160000011255523296393365131_" class="st0" d="M146.4,108.5h-9.2v58.8
									c-2.2-2.1-5.1-4.2-8.7-6.3c-3.6-2.1-6.8-3.7-9.7-4.8v8.9c5.2,2.4,9.7,5.4,13.5,8.8c3.9,3.5,6.6,6.8,8.2,10.1h5.9V108.5z"/>
							</g>
							<g>
								<path id="ArialMT-37_00000026146494401306613670000013464310248871640243_" class="st0" d="M170.7,173.8v8.9h48.6v-7.2
									c-4.8-5.1-9.5-11.8-14.2-20.3c-4.7-8.4-8.3-17.1-10.9-26c-1.8-6.3-3-13.2-3.5-20.6h-9.5c0.1,5.9,1.3,13.1,3.5,21.4
									c2.2,8.4,5.4,16.4,9.6,24.2c4.2,7.8,8.6,14.3,13.3,19.6H170.7z"/>
							</g>
						</g>
					</g>
				</g>
				<g id="xtick_18">
					<g id="text_18">
						<g transform="translate(609.318164 547.315194) scale(0.11 -0.11)">
							<g>
								<path id="ArialMT-31_00000176742716337966332000000006969525362325796269_" class="st0" d="M159.2,108.5H150v58.8
									c-2.2-2.1-5.1-4.2-8.7-6.3c-3.6-2.1-6.8-3.7-9.7-4.8v8.9c5.2,2.4,9.7,5.4,13.5,8.8c3.9,3.5,6.6,6.8,8.2,10.1h5.9V108.5z"/>
							</g>
							<g>
								<path id="ArialMT-38_00000163783937962959309240000005407691018232469400_" class="st0" d="M197,149.3
									c-3.8,1.4-6.7,3.4-8.5,6c-1.8,2.6-2.8,5.7-2.8,9.3c0,5.5,2,10.1,5.9,13.8c3.9,3.7,9.2,5.6,15.7,5.6c6.6,0,11.8-1.9,15.8-5.7
									c4-3.8,6-8.4,6-13.9c0-3.5-0.9-6.5-2.8-9.1c-1.8-2.6-4.6-4.6-8.3-6c4.6-1.5,8.1-3.9,10.5-7.3c2.4-3.3,3.6-7.3,3.6-12
									c0-6.4-2.3-11.8-6.8-16.2c-4.5-4.4-10.5-6.6-17.9-6.6s-13.4,2.2-17.9,6.6c-4.5,4.4-6.8,9.9-6.8,16.4c0,4.9,1.2,9,3.7,12.3
									C188.9,145.8,192.4,148.1,197,149.3z M195.2,164.9c0-3.6,1.1-6.5,3.4-8.7c2.3-2.3,5.3-3.4,8.9-3.4c3.6,0,6.5,1.1,8.7,3.3
									c2.3,2.2,3.4,5,3.4,8.2c0,3.4-1.2,6.2-3.5,8.5c-2.3,2.3-5.2,3.5-8.7,3.5c-3.5,0-6.4-1.1-8.8-3.4
									C196.3,170.7,195.2,168.1,195.2,164.9z M192.2,130.2c0-2.6,0.6-5.2,1.9-7.6c1.2-2.5,3.1-4.4,5.6-5.7c2.5-1.3,5.1-2,7.9-2
									c4.4,0,8,1.4,10.9,4.2c2.9,2.8,4.3,6.5,4.3,10.8c0,4.4-1.5,8.1-4.4,11s-6.7,4.4-11.1,4.4c-4.3,0-7.9-1.4-10.8-4.3
									C193.6,138.1,192.2,134.5,192.2,130.2z"/>
							</g>
						</g>
					</g>
				</g>
				<g id="xtick_19">
					<g id="text_19">
						<g transform="translate(637.580501 547.315194) scale(0.11 -0.11)">
							<g>
								<path id="ArialMT-31_00000031186942924091186870000009018532752551019422_" class="st0" d="M171.9,108.5h-9.2v58.8
									c-2.2-2.1-5.1-4.2-8.7-6.3c-3.6-2.1-6.8-3.7-9.7-4.8v8.9c5.2,2.4,9.7,5.4,13.5,8.8c3.9,3.5,6.6,6.8,8.2,10.1h5.9V108.5z"/>
							</g>
							<g>
								<path id="ArialMT-39_00000025429219724161913710000002197878328556864661_" class="st0" d="M196.9,125.9l8.9,0.8
									c0.7-4.2,2.2-7.2,4.3-9.1c2.1-1.9,4.8-2.8,8.2-2.8c2.8,0,5.3,0.7,7.4,2c2.1,1.3,3.9,3,5.3,5.2c1.4,2.2,2.5,5.1,3.4,8.8
									c0.9,3.7,1.4,7.5,1.4,11.3c0,0.4,0,1,0,1.8c-1.8-2.9-4.4-5.3-7.6-7.2c-3.2-1.8-6.7-2.7-10.4-2.7c-6.2,0-11.5,2.3-15.8,6.8
									c-4.3,4.5-6.4,10.5-6.4,17.8c0,7.6,2.2,13.8,6.7,18.4c4.5,4.6,10.1,7,16.9,7c4.9,0,9.4-1.3,13.4-4c4.1-2.6,7.1-6.4,9.2-11.3
									c2.1-4.9,3.1-11.9,3.1-21.1c0-9.6-1-17.2-3.1-22.9c-2.1-5.7-5.2-10-9.3-13c-4.1-3-8.9-4.5-14.5-4.5
									c-5.9,0-10.7,1.6-14.4,4.9C199.9,115.4,197.7,120,196.9,125.9z M234.7,159.1c0,5.3-1.4,9.5-4.2,12.6
									c-2.8,3.1-6.2,4.7-10.2,4.7c-4.1,0-7.7-1.7-10.7-5c-3-3.3-4.6-7.7-4.6-13c0-4.8,1.4-8.7,4.3-11.7c2.9-3,6.4-4.5,10.7-4.5
									c4.3,0,7.8,1.5,10.5,4.5C233.3,149.6,234.7,153.8,234.7,159.1z"/>
							</g>
						</g>
					</g>
				</g>
				<g id="xtick_20">
					<g id="text_20">
						<g transform="translate(665.842839 547.315194) scale(0.11 -0.11)">
							<g>
								<path id="ArialMT-32_00000167379646502359894900000016088105114043537837_" class="st0" d="M198.4,117.4v-8.9h-49.7
									c-0.1,2.2,0.3,4.4,1.1,6.4c1.3,3.4,3.3,6.7,6.1,10c2.8,3.3,6.8,7.1,12.1,11.4c8.2,6.7,13.7,12,16.5,15.9
									c2.9,3.9,4.3,7.6,4.3,11.1c0,3.7-1.3,6.7-3.9,9.2c-2.6,2.5-6,3.8-10.2,3.8c-4.4,0-8-1.3-10.7-4c-2.7-2.7-4-6.3-4.1-11.1
									l-9.5,1c0.6,7.1,3.1,12.5,7.3,16.2c4.2,3.7,9.9,5.6,17.1,5.6c7.2,0,12.9-2,17.1-6c4.2-4,6.3-8.9,6.3-14.9c0-3-0.6-6-1.9-8.9
									c-1.2-2.9-3.3-6-6.1-9.2c-2.9-3.2-7.6-7.6-14.2-13.2c-5.5-4.6-9.1-7.8-10.7-9.5c-1.6-1.7-2.9-3.3-3.9-5H198.4z"/>
							</g>
							<g>
								<path id="ArialMT-30_00000129163363329591396790000011361566759196279997_" class="st0" d="M208.3,145.6
									c0,8.9,0.9,16,2.7,21.5c1.8,5.4,4.5,9.6,8.1,12.5c3.6,2.9,8.1,4.4,13.6,4.4c4,0,7.6-0.8,10.6-2.4c3-1.6,5.5-4,7.5-7
									c2-3.1,3.5-6.8,4.7-11.2c1.1-4.4,1.7-10.3,1.7-17.8c0-8.8-0.9-15.9-2.7-21.3c-1.8-5.4-4.5-9.6-8.1-12.6
									c-3.6-3-8.2-4.4-13.7-4.4c-7.2,0-12.9,2.6-17.1,7.8C210.8,121.3,208.3,131.5,208.3,145.6z M217.8,145.6
									c0-12.3,1.4-20.5,4.3-24.6c2.9-4.1,6.4-6.1,10.7-6.1c4.2,0,7.8,2,10.7,6.1c2.9,4.1,4.3,12.3,4.3,24.6
									c0,12.4-1.4,20.6-4.3,24.6c-2.9,4.1-6.5,6.1-10.8,6.1c-4.2,0-7.6-1.8-10.2-5.4C219.4,166.4,217.8,157.9,217.8,145.6z"/>
							</g>
						</g>
					</g>
				</g>
				<g id="xtick_21">
					<g id="text_21">
						<g transform="translate(694.105177 547.315194) scale(0.11 -0.11)">
							<g>
								<path id="ArialMT-32_00000008859654376896951310000014350815266549210508_" class="st0" d="M211.2,117.4v-8.9h-49.7
									c-0.1,2.2,0.3,4.4,1.1,6.4c1.3,3.4,3.3,6.7,6.1,10c2.8,3.3,6.8,7.1,12.1,11.4c8.2,6.7,13.7,12,16.5,15.9
									c2.9,3.9,4.3,7.6,4.3,11.1c0,3.7-1.3,6.7-3.9,9.2c-2.6,2.5-6,3.8-10.2,3.8c-4.4,0-8-1.3-10.7-4c-2.7-2.7-4-6.3-4.1-11.1
									l-9.5,1c0.6,7.1,3.1,12.5,7.3,16.2c4.2,3.7,9.9,5.6,17.1,5.6c7.2,0,12.9-2,17.1-6c4.2-4,6.3-8.9,6.3-14.9c0-3-0.6-6-1.9-8.9
									c-1.2-2.9-3.3-6-6.1-9.2c-2.9-3.2-7.6-7.6-14.2-13.2c-5.5-4.6-9.1-7.8-10.7-9.5c-1.6-1.7-2.9-3.3-3.9-5H211.2z"/>
							</g>
							<g>
								<path id="ArialMT-31_00000026846652890290778640000009439426520613194663_" class="st0" d="M255.8,108.5h-9.2v58.8
									c-2.2-2.1-5.1-4.2-8.7-6.3c-3.6-2.1-6.8-3.7-9.7-4.8v8.9c5.2,2.4,9.7,5.4,13.5,8.8c3.9,3.5,6.6,6.8,8.2,10.1h5.9V108.5z"/>
							</g>
						</g>
					</g>
				</g>
			</g>
			<g id="matplotlib.axis_2">
				<g id="ytick_1">
					<g id="text_23">
						<g transform="translate(89.682969 96.229997) scale(0.11 -0.11)">
							<g>
								<path id="ArialMT-31_00000077320134266147506320000010257969074589972395_" class="st0" d="M39.4,202.8h-9.2v58.8
									c-2.2-2.1-5.1-4.2-8.7-6.3s-6.8-3.7-9.7-4.8v8.9c5.2,2.4,9.7,5.4,13.5,8.8c3.9,3.5,6.6,6.8,8.2,10.1h5.9V202.8z"/>
							</g>
						</g>
					</g>
				</g>
				<g id="ytick_2">
					<g id="text_24">
						<g transform="translate(89.682969 117.070397) scale(0.11 -0.11)">
							<g>
								<path id="ArialMT-32_00000065050586948359043060000009682423725122204544_" class="st0" d="M53.2,202.3v-8.9H3.5
									c-0.1,2.2,0.3,4.4,1.1,6.4c1.3,3.4,3.3,6.7,6.1,10c2.8,3.3,6.8,7.1,12.1,11.4c8.2,6.7,13.7,12,16.5,15.9
									c2.9,3.9,4.3,7.6,4.3,11.1c0,3.7-1.3,6.7-3.9,9.2c-2.6,2.5-6,3.8-10.2,3.8c-4.4,0-8-1.3-10.7-4c-2.7-2.7-4-6.3-4.1-11.1
									l-9.5,1c0.6,7.1,3.1,12.5,7.3,16.2c4.2,3.7,9.9,5.6,17.1,5.6c7.2,0,12.9-2,17.1-6c4.2-4,6.3-8.9,6.3-14.9c0-3-0.6-6-1.9-8.9
									c-1.2-2.9-3.3-6-6.1-9.2c-2.9-3.2-7.6-7.6-14.2-13.2c-5.5-4.6-9.1-7.8-10.7-9.5c-1.6-1.7-2.9-3.3-3.9-5H53.2z"/>
							</g>
						</g>
					</g>
				</g>
				<g id="ytick_3">
					<g id="text_25">
						<g transform="translate(89.682969 137.910797) scale(0.11 -0.11)">
							<g>
								<path id="ArialMT-33_00000101797904357378751990000002601740387580393609_" class="st0" d="M4.8,203.8l9.2,1.2
									c1.1-5.2,2.9-9,5.4-11.3c2.5-2.3,5.6-3.5,9.3-3.5c4.3,0,8,1.5,11,4.5c3,3,4.5,6.7,4.5,11.2c0,4.2-1.4,7.7-4.1,10.5
									c-2.8,2.8-6.3,4.1-10.6,4.1c-1.7,0-3.9-0.3-6.5-1l1,8.1c0.6-0.1,1.1-0.1,1.5-0.1c3.9,0,7.5,1,10.6,3.1
									c3.1,2.1,4.7,5.2,4.7,9.5c0,3.4-1.1,6.2-3.4,8.4c-2.3,2.2-5.2,3.3-8.9,3.3c-3.6,0-6.6-1.1-9-3.4c-2.4-2.3-3.9-5.6-4.6-10.1
									L5.7,240c1.1,6.2,3.7,11,7.7,14.4c4,3.4,9,5.1,14.9,5.1c4.1,0,7.9-0.9,11.3-2.6c3.5-1.8,6.1-4.2,7.9-7.2
									c1.8-3,2.8-6.3,2.8-9.7c0-3.2-0.9-6.2-2.6-8.9c-1.7-2.7-4.3-4.8-7.7-6.4c4.4-1,7.9-3.1,10.3-6.4c2.5-3.2,3.7-7.3,3.7-12.1
									c0-6.6-2.4-12.1-7.2-16.7c-4.8-4.6-10.8-6.8-18.1-6.8c-6.6,0-12.1,2-16.4,5.9C7.8,192.5,5.4,197.6,4.8,203.8z"/>
							</g>
						</g>
					</g>
				</g>
				<g id="ytick_4">
					<g id="text_26">
						<g transform="translate(89.682969 158.751197) scale(0.11 -0.11)">
							<g>
								<path id="ArialMT-34_00000049183548674906214800000015780879517645828520_" class="st0" d="M34.3,174.6v18H1.7v8.5L36,249.7
									h7.5v-48.7h10.2v-8.5H43.5v-18H34.3z M34.3,201.1v33.9l-23.5-33.9H34.3z"/>
							</g>
						</g>
					</g>
				</g>
				<g id="ytick_5">
					<g id="text_27">
						<g transform="translate(89.682969 179.591597) scale(0.11 -0.11)">
							<g>
								<path id="ArialMT-35_00000163777230674938459190000008681683098174572683_" class="st0" d="M4.7,184.9l9.7,0.8
									c0.7-4.7,2.4-8.3,5-10.6c2.6-2.4,5.8-3.6,9.5-3.6c4.4,0,8.2,1.7,11.3,5c3.1,3.4,4.6,7.8,4.6,13.3c0,5.3-1.5,9.4-4.4,12.4
									c-3,3.1-6.8,4.6-11.6,4.6c-3,0-5.7-0.7-8.1-2c-2.4-1.3-4.3-3.1-5.6-5.2l-8.7,1.1l7.3,38.6H51v-8.8H21l-4-20.2
									c4.5,3.1,9.2,4.7,14.2,4.7c6.6,0,12.1-2.3,16.6-6.8c4.5-4.5,6.8-10.4,6.8-17.5c0-6.8-2-12.7-5.9-17.6
									c-4.8-6.1-11.4-9.1-19.7-9.1c-6.8,0-12.4,1.9-16.7,5.7C7.8,173.5,5.3,178.6,4.7,184.9z"/>
							</g>
						</g>
					</g>
				</g>
				<g id="ytick_6">
					<g id="text_28">
						<g transform="translate(89.682969 200.431997) scale(0.11 -0.11)">
							<g>
								<path id="ArialMT-36_00000039819376139134760170000003134460036859249076_" class="st0" d="M52.6,212.5l-9.2-0.7
									c-0.8,3.6-2,6.2-3.5,7.9c-2.5,2.6-5.6,4-9.2,4c-2.9,0-5.5-0.8-7.7-2.5c-2.9-2.1-5.2-5.2-6.9-9.3c-1.7-4.1-2.5-9.9-2.6-17.4
									c2.2,3.4,4.9,5.9,8.2,7.5c3.2,1.6,6.6,2.5,10.1,2.5c6.1,0,11.4-2.3,15.7-6.8c4.3-4.5,6.5-10.4,6.5-17.5
									c0-4.7-1-9.1-3.1-13.2c-2-4-4.8-7.1-8.4-9.3c-3.6-2.2-7.6-3.2-12.1-3.2c-7.7,0-14,2.8-18.8,8.5c-4.8,5.7-7.3,15-7.3,28
									c0,14.5,2.7,25.1,8,31.7c4.7,5.7,11,8.6,18.9,8.6c5.9,0,10.8-1.7,14.5-5C49.6,223,51.8,218.4,52.6,212.5z M14.9,180.2
									c0-3.2,0.7-6.2,2-9.1c1.3-2.9,3.2-5.1,5.7-6.6c2.4-1.5,5-2.3,7.6-2.3c3.9,0,7.2,1.6,10,4.7c2.8,3.1,4.2,7.4,4.2,12.8
									c0,5.2-1.4,9.3-4.2,12.3c-2.8,3-6.2,4.5-10.4,4.5c-4.2,0-7.7-1.5-10.6-4.5C16.4,188.9,14.9,185,14.9,180.2z"/>
							</g>
						</g>
					</g>
				</g>
				<g id="ytick_7">
					<g id="text_29">
						<g transform="translate(89.682969 221.272397) scale(0.11 -0.11)">
							<g>
								<path id="ArialMT-37_00000052097231495356641730000009959831346930464957_" class="st0" d="M5.3,211.7v8.9H54v-7.2
									c-4.8-5.1-9.5-11.8-14.2-20.3c-4.7-8.4-8.3-17.1-10.9-26c-1.8-6.3-3-13.2-3.5-20.6h-9.5c0.1,5.9,1.3,13.1,3.5,21.4
									c2.2,8.4,5.4,16.4,9.6,24.2c4.2,7.8,8.6,14.3,13.3,19.6H5.3z"/>
							</g>
						</g>
					</g>
				</g>
				<g id="ytick_8">
					<g id="text_30">
						<g transform="translate(89.682969 242.112797) scale(0.11 -0.11)">
							<g>
								<path id="ArialMT-38_00000005262296353489649030000013005139462861693060_" class="st0" d="M18.9,177.8
									c-3.8,1.4-6.7,3.4-8.5,6c-1.8,2.6-2.8,5.7-2.8,9.3c0,5.5,2,10.1,5.9,13.8c3.9,3.7,9.2,5.6,15.7,5.6c6.6,0,11.8-1.9,15.8-5.7
									c4-3.8,6-8.4,6-13.9c0-3.5-0.9-6.5-2.8-9.1c-1.8-2.6-4.6-4.6-8.3-6c4.6-1.5,8.1-3.9,10.5-7.3c2.4-3.3,3.6-7.3,3.6-12
									c0-6.4-2.3-11.8-6.8-16.2c-4.5-4.4-10.5-6.6-17.9-6.6s-13.4,2.2-17.9,6.6c-4.5,4.4-6.8,9.9-6.8,16.4c0,4.9,1.2,9,3.7,12.3
									C10.8,174.3,14.3,176.6,18.9,177.8z M17.1,193.4c0-3.6,1.1-6.5,3.4-8.7c2.3-2.3,5.3-3.4,8.9-3.4c3.6,0,6.5,1.1,8.7,3.3
									c2.3,2.2,3.4,5,3.4,8.2c0,3.4-1.2,6.2-3.5,8.5c-2.3,2.3-5.2,3.5-8.7,3.5c-3.5,0-6.4-1.1-8.8-3.4
									C18.2,199.2,17.1,196.5,17.1,193.4z M14.1,158.7c0-2.6,0.6-5.2,1.9-7.6c1.2-2.5,3.1-4.4,5.6-5.7c2.5-1.3,5.1-2,7.9-2
									c4.4,0,8,1.4,10.9,4.2c2.9,2.8,4.3,6.5,4.3,10.8c0,4.4-1.5,8.1-4.4,11c-3,2.9-6.7,4.4-11.1,4.4c-4.3,0-7.9-1.4-10.8-4.3
									C15.5,166.6,14.1,163,14.1,158.7z"/>
							</g>
						</g>
					</g>
				</g>
				<g id="ytick_9">
					<g id="text_31">
						<g transform="translate(89.682969 262.953197) scale(0.11 -0.11)">
							<g>
								<path id="ArialMT-39_00000119089551743387179770000006400242280157527449_" class="st0" d="M6.1,145l8.9,0.8
									c0.7-4.2,2.2-7.2,4.3-9.1c2.1-1.9,4.8-2.8,8.2-2.8c2.8,0,5.3,0.7,7.4,2c2.1,1.3,3.9,3,5.3,5.2c1.4,2.2,2.5,5.1,3.4,8.8
									c0.9,3.7,1.4,7.5,1.4,11.3c0,0.4,0,1,0,1.8c-1.8-2.9-4.4-5.3-7.6-7.2c-3.2-1.8-6.7-2.7-10.4-2.7c-6.2,0-11.5,2.3-15.8,6.8
									c-4.3,4.5-6.4,10.5-6.4,17.8c0,7.6,2.2,13.8,6.7,18.4c4.5,4.6,10.1,7,16.9,7c4.9,0,9.4-1.3,13.4-4c4.1-2.6,7.1-6.4,9.2-11.3
									c2.1-4.9,3.1-11.9,3.1-21.1c0-9.6-1-17.2-3.1-22.9c-2.1-5.7-5.2-10-9.3-13c-4.1-3-8.9-4.5-14.5-4.5
									c-5.9,0-10.7,1.6-14.4,4.9C9.1,134.5,6.8,139.1,6.1,145z M43.9,178.2c0,5.3-1.4,9.5-4.2,12.6c-2.8,3.1-6.2,4.7-10.2,4.7
									c-4.1,0-7.7-1.7-10.7-5c-3-3.3-4.6-7.7-4.6-13c0-4.8,1.4-8.7,4.3-11.7c2.9-3,6.4-4.5,10.7-4.5c4.3,0,7.8,1.5,10.5,4.5
									C42.5,168.7,43.9,172.9,43.9,178.2z"/>
							</g>
						</g>
					</g>
				</g>
				<g id="ytick_10">
					<g id="text_32">
						<g transform="translate(83.565937 283.793597) scale(0.11 -0.11)">
							<g>
								<path id="ArialMT-31_00000004508652513873765280000007207759128538066340_" class="st0" d="M36.7,118.2h-9.2V177
									c-2.2-2.1-5.1-4.2-8.7-6.3c-3.6-2.1-6.8-3.7-9.7-4.8v8.9c5.2,2.4,9.7,5.4,13.5,8.8c3.9,3.5,6.6,6.8,8.2,10.1h5.9V118.2z"/>
							</g>
							<g>
								<path id="ArialMT-30_00000121965425230592927780000014921203843601526707_" class="st0" d="M60.3,155.3
									c0,8.9,0.9,16,2.7,21.5c1.8,5.4,4.5,9.6,8.1,12.5c3.6,2.9,8.1,4.4,13.6,4.4c4,0,7.6-0.8,10.6-2.4c3-1.6,5.5-4,7.5-7
									c2-3.1,3.5-6.8,4.7-11.2c1.1-4.4,1.7-10.3,1.7-17.8c0-8.8-0.9-15.9-2.7-21.3c-1.8-5.4-4.5-9.6-8.1-12.6
									c-3.6-3-8.2-4.4-13.7-4.4c-7.2,0-12.9,2.6-17.1,7.8C62.8,131,60.3,141.2,60.3,155.3z M69.8,155.3c0-12.3,1.4-20.5,4.3-24.6
									c2.9-4.1,6.4-6.1,10.7-6.1c4.2,0,7.8,2,10.7,6.1c2.9,4.1,4.3,12.3,4.3,24.6c0,12.4-1.4,20.6-4.3,24.6
									C92.6,184,89,186,84.7,186c-4.2,0-7.6-1.8-10.2-5.4C71.4,176.1,69.8,167.6,69.8,155.3z"/>
							</g>
						</g>
					</g>
				</g>
				<g id="ytick_11">
					<g id="text_33">
						<g transform="translate(84.377187 304.633997) scale(0.11 -0.11)">
							<g>
								<path id="ArialMT-31_00000001623457378079676250000013119562993499556772_" class="st0" d="M37,108.8h-9.2v58.8
									c-2.2-2.1-5.1-4.2-8.7-6.3c-3.6-2.1-6.8-3.7-9.7-4.8v8.9c5.2,2.4,9.7,5.4,13.5,8.8c3.9,3.5,6.6,6.8,8.2,10.1H37V108.8z"/>
							</g>
							<g>
								<path id="ArialMT-31_00000060724814835995607070000008088862466929124501_" class="st0" d="M87.7,108.8h-9.2v58.8
									c-2.2-2.1-5.1-4.2-8.7-6.3c-3.6-2.1-6.8-3.7-9.7-4.8v8.9c5.2,2.4,9.7,5.4,13.5,8.8c3.9,3.5,6.6,6.8,8.2,10.1h5.9V108.8z"/>
							</g>
						</g>
					</g>
				</g>
				<g id="ytick_12">
					<g id="text_34">
						<g transform="translate(83.565937 325.474397) scale(0.11 -0.11)">
							<g>
								<path id="ArialMT-31_00000036958082946141729590000003197379743696739761_" class="st0" d="M36.7,99.4h-9.2v58.8
									c-2.2-2.1-5.1-4.2-8.7-6.3c-3.6-2.1-6.8-3.7-9.7-4.8v8.9c5.2,2.4,9.7,5.4,13.5,8.8c3.9,3.5,6.6,6.8,8.2,10.1h5.9V99.4z"/>
							</g>
							<g>
								<path id="ArialMT-32_00000010992433782576500910000009603946596017829514_" class="st0" d="M108.8,108.3v-8.9H59.1
									c-0.1,2.2,0.3,4.4,1.1,6.4c1.3,3.4,3.3,6.7,6.1,10c2.8,3.3,6.8,7.1,12.1,11.4c8.2,6.7,13.7,12,16.5,15.9
									c2.9,3.9,4.3,7.6,4.3,11.1c0,3.7-1.3,6.7-3.9,9.2c-2.6,2.5-6,3.8-10.2,3.8c-4.4,0-8-1.3-10.7-4c-2.7-2.7-4-6.3-4.1-11.1
									l-9.5,1c0.6,7.1,3.1,12.5,7.3,16.2c4.2,3.7,9.9,5.6,17.1,5.6c7.2,0,12.9-2,17.1-6c4.2-4,6.3-8.9,6.3-14.9c0-3-0.6-6-1.9-8.9
									c-1.2-2.9-3.3-6-6.1-9.2c-2.9-3.2-7.6-7.6-14.2-13.2c-5.5-4.6-9.1-7.8-10.7-9.5c-1.6-1.7-2.9-3.3-3.9-5H108.8z"/>
							</g>
						</g>
					</g>
				</g>
				<g id="ytick_13">
					<g id="text_35">
						<g transform="translate(83.565937 346.314797) scale(0.11 -0.11)">
							<g>
								<path id="ArialMT-31_00000008868980043771566180000003944643575693436341_" class="st0" d="M36.7,90.1h-9.2v58.8
									c-2.2-2.1-5.1-4.2-8.7-6.3c-3.6-2.1-6.8-3.7-9.7-4.8v8.9c5.2,2.4,9.7,5.4,13.5,8.8c3.9,3.5,6.6,6.8,8.2,10.1h5.9V90.1z"/>
							</g>
							<g>
								<path id="ArialMT-33_00000149360596267904109650000011517958091706233495_" class="st0" d="M60.4,109.9l9.2,1.2
									c1.1-5.2,2.9-9,5.4-11.3c2.5-2.3,5.6-3.5,9.3-3.5c4.3,0,8,1.5,11,4.5c3,3,4.5,6.7,4.5,11.2c0,4.2-1.4,7.7-4.1,10.5
									c-2.8,2.8-6.3,4.1-10.6,4.1c-1.7,0-3.9-0.3-6.5-1l1,8.1c0.6-0.1,1.1-0.1,1.5-0.1c3.9,0,7.5,1,10.6,3.1
									c3.1,2.1,4.7,5.2,4.7,9.5c0,3.4-1.1,6.2-3.4,8.4c-2.3,2.2-5.2,3.3-8.9,3.3c-3.6,0-6.6-1.1-9-3.4c-2.4-2.3-3.9-5.6-4.6-10.1
									l-9.2,1.6c1.1,6.2,3.7,11,7.7,14.4c4,3.4,9,5.1,14.9,5.1c4.1,0,7.9-0.9,11.3-2.6c3.5-1.8,6.1-4.2,7.9-7.2
									c1.8-3,2.8-6.3,2.8-9.7c0-3.2-0.9-6.2-2.6-8.9c-1.7-2.7-4.3-4.8-7.7-6.4c4.4-1,7.9-3.1,10.3-6.4c2.5-3.2,3.7-7.3,3.7-12.1
									c0-6.6-2.4-12.1-7.2-16.7c-4.8-4.6-10.8-6.8-18.1-6.8c-6.6,0-12.1,2-16.4,5.9C63.5,98.5,61,103.6,60.4,109.9z"/>
							</g>
						</g>
					</g>
				</g>
				<g id="ytick_14">
					<g id="text_36">
						<g transform="translate(83.565937 367.155197) scale(0.11 -0.11)">
							<g>
								<path id="ArialMT-31_00000155131264925161846680000005143428621830466987_" class="st0" d="M36.7,80.7h-9.2v58.8
									c-2.2-2.1-5.1-4.2-8.7-6.3c-3.6-2.1-6.8-3.7-9.7-4.8v8.9c5.2,2.4,9.7,5.4,13.5,8.8c3.9,3.5,6.6,6.8,8.2,10.1h5.9V80.7z"/>
							</g>
							<g>
								<path id="ArialMT-34_00000030472896727696684850000009060677546862932887_" class="st0" d="M89.9,80.7v18H57.3v8.5
									l34.3,48.7h7.5v-48.7h10.2v-8.5H99.1v-18H89.9z M89.9,107.1V141l-23.5-33.9H89.9z"/>
							</g>
						</g>
					</g>
				</g>
				<g id="ytick_15">
					<g id="text_37">
						<g transform="translate(83.565937 387.995597) scale(0.11 -0.11)">
							<g>
								<path id="ArialMT-31_00000176737771018374454550000014567720853993850021_" class="st0" d="M36.7,71.3h-9.2V130
									c-2.2-2.1-5.1-4.2-8.7-6.3s-6.8-3.7-9.7-4.8v8.9c5.2,2.4,9.7,5.4,13.5,8.8c3.9,3.5,6.6,6.8,8.2,10.1h5.9V71.3z"/>
							</g>
							<g>
								<path id="ArialMT-35_00000083070984445204077490000006012332990998489527_" class="st0" d="M60.3,90.9l9.7,0.8
									c0.7-4.7,2.4-8.3,5-10.6c2.6-2.4,5.8-3.6,9.5-3.6c4.4,0,8.2,1.7,11.3,5c3.1,3.4,4.6,7.8,4.6,13.3c0,5.3-1.5,9.4-4.4,12.4
									c-3,3.1-6.8,4.6-11.6,4.6c-3,0-5.7-0.7-8.1-2c-2.4-1.3-4.3-3.1-5.6-5.2l-8.7,1.1l7.3,38.6h37.4v-8.8h-30l-4-20.2
									c4.5,3.1,9.2,4.7,14.2,4.7c6.6,0,12.1-2.3,16.6-6.8c4.5-4.5,6.8-10.4,6.8-17.5c0-6.8-2-12.7-5.9-17.6
									C99.4,73,92.8,70,84.5,70c-6.8,0-12.4,1.9-16.7,5.7C63.4,79.5,60.9,84.6,60.3,90.9z"/>
							</g>
						</g>
					</g>
				</g>
				<g id="ytick_16">
					<g id="text_38">
						<g transform="translate(83.565937 408.835997) scale(0.11 -0.11)">
							<g>
								<path id="ArialMT-31_00000044874973341510045520000000809759207262069633_" class="st0" d="M36.7,61.9h-9.2v58.8
									c-2.2-2.1-5.1-4.2-8.7-6.3s-6.8-3.7-9.7-4.8v8.9c5.2,2.4,9.7,5.4,13.5,8.8c3.9,3.5,6.6,6.8,8.2,10.1h5.9V61.9z"/>
							</g>
							<g>
								<path id="ArialMT-36_00000117635187377597798480000013371876854569323414_" class="st0" d="M108.2,118.6l-9.2-0.7
									c-0.8,3.6-2,6.2-3.5,7.9c-2.5,2.6-5.6,4-9.2,4c-2.9,0-5.5-0.8-7.7-2.5c-2.9-2.1-5.2-5.2-6.9-9.3c-1.7-4.1-2.5-9.9-2.6-17.4
									c2.2,3.4,4.9,5.9,8.2,7.5c3.2,1.6,6.6,2.5,10.1,2.5c6.1,0,11.4-2.3,15.7-6.8c4.3-4.5,6.5-10.4,6.5-17.5
									c0-4.7-1-9.1-3.1-13.2s-4.8-7.1-8.4-9.3c-3.6-2.2-7.6-3.2-12.1-3.2c-7.7,0-14,2.8-18.8,8.5c-4.8,5.7-7.3,15-7.3,28
									c0,14.5,2.7,25.1,8,31.7c4.7,5.7,11,8.6,18.9,8.6c5.9,0,10.8-1.7,14.5-5C105.2,129,107.4,124.4,108.2,118.6z M70.5,86.2
									c0-3.2,0.7-6.2,2-9.1c1.3-2.9,3.2-5.1,5.7-6.6c2.4-1.5,5-2.3,7.6-2.3c3.9,0,7.2,1.6,10,4.7c2.8,3.1,4.2,7.4,4.2,12.8
									c0,5.2-1.4,9.3-4.2,12.3c-2.8,3-6.2,4.5-10.4,4.5c-4.2,0-7.7-1.5-10.6-4.5C72,95,70.5,91.1,70.5,86.2z"/>
							</g>
						</g>
					</g>
				</g>
				<g id="ytick_17">
					<g id="text_39">
						<g transform="translate(83.565937 429.676397) scale(0.11 -0.11)">
							<g>
								<path id="ArialMT-31_00000154389354370062770810000018438626889496015028_" class="st0" d="M36.7,52.5h-9.2v58.8
									c-2.2-2.1-5.1-4.2-8.7-6.3s-6.8-3.7-9.7-4.8v8.9c5.2,2.4,9.7,5.4,13.5,8.8c3.9,3.5,6.6,6.8,8.2,10.1h5.9V52.5z"/>
							</g>
							<g>
								<path id="ArialMT-37_00000176005466571251801090000001243506948465834133_" class="st0" d="M60.9,117.8v8.9h48.6v-7.2
									c-4.8-5.1-9.5-11.8-14.2-20.3c-4.7-8.4-8.3-17.1-10.9-26c-1.8-6.3-3-13.2-3.5-20.6h-9.5c0.1,5.9,1.3,13.1,3.5,21.4
									c2.2,8.4,5.4,16.4,9.6,24.2s8.6,14.3,13.3,19.6H60.9z"/>
							</g>
						</g>
					</g>
				</g>
				<g id="ytick_18">
					<g id="text_40">
						<g transform="translate(83.565937 450.516797) scale(0.11 -0.11)">
							<g>
								<path id="ArialMT-31_00000127758441060363228990000004984175716952189327_" class="st0" d="M36.7,43.1h-9.2v58.8
									c-2.2-2.1-5.1-4.2-8.7-6.3s-6.8-3.7-9.7-4.8v8.9c5.2,2.4,9.7,5.4,13.5,8.8c3.9,3.5,6.6,6.8,8.2,10.1h5.9V43.1z"/>
							</g>
							<g>
								<path id="ArialMT-38_00000049185403594919779180000011971487619198045102_" class="st0" d="M74.5,83.8
									c-3.8,1.4-6.7,3.4-8.5,6c-1.8,2.6-2.8,5.7-2.8,9.3c0,5.5,2,10.1,5.9,13.8c3.9,3.7,9.2,5.6,15.7,5.6c6.6,0,11.8-1.9,15.8-5.7
									c4-3.8,6-8.4,6-13.9c0-3.5-0.9-6.5-2.8-9.1c-1.8-2.6-4.6-4.6-8.3-6c4.6-1.5,8.1-3.9,10.5-7.3c2.4-3.3,3.6-7.3,3.6-12
									c0-6.4-2.3-11.8-6.8-16.2C98.4,44,92.4,41.8,85,41.8S71.6,44,67,48.4c-4.5,4.4-6.8,9.9-6.8,16.4c0,4.9,1.2,9,3.7,12.3
									C66.4,80.4,69.9,82.6,74.5,83.8z M72.7,99.5c0-3.6,1.1-6.5,3.4-8.7c2.3-2.3,5.3-3.4,8.9-3.4c3.6,0,6.5,1.1,8.7,3.3
									c2.3,2.2,3.4,5,3.4,8.2c0,3.4-1.2,6.2-3.5,8.5c-2.3,2.3-5.2,3.5-8.7,3.5c-3.5,0-6.4-1.1-8.8-3.4
									C73.8,105.3,72.7,102.6,72.7,99.5z M69.7,64.8c0-2.6,0.6-5.2,1.9-7.6c1.2-2.5,3.1-4.4,5.6-5.7c2.5-1.3,5.1-2,7.9-2
									c4.4,0,8,1.4,10.9,4.2c2.9,2.8,4.3,6.5,4.3,10.8c0,4.4-1.5,8.1-4.4,11s-6.7,4.4-11.1,4.4c-4.3,0-7.9-1.4-10.8-4.3
									C71.1,72.7,69.7,69.1,69.7,64.8z"/>
							</g>
						</g>
					</g>
				</g>
				<g id="ytick_19">
					<g id="text_41">
						<g transform="translate(83.565937 471.357197) scale(0.11 -0.11)">
							<g>
								<path id="ArialMT-31_00000086688409037629144130000014418311213536662450_" class="st0" d="M36.7,33.7h-9.2v58.8
									c-2.2-2.1-5.1-4.2-8.7-6.3s-6.8-3.7-9.7-4.8v8.9c5.2,2.4,9.7,5.4,13.5,8.8c3.9,3.5,6.6,6.8,8.2,10.1h5.9V33.7z"/>
							</g>
							<g>
								<path id="ArialMT-39_00000048473725291703941850000010433006506256062872_" class="st0" d="M61.7,51.1l8.9,0.8
									c0.7-4.2,2.2-7.2,4.3-9.1C77,40.9,79.7,40,83,40c2.8,0,5.3,0.7,7.4,2c2.1,1.3,3.9,3,5.3,5.2c1.4,2.2,2.5,5.1,3.4,8.8
									c0.9,3.7,1.4,7.5,1.4,11.3c0,0.4,0,1,0,1.8c-1.8-2.9-4.4-5.3-7.6-7.2c-3.2-1.8-6.7-2.7-10.4-2.7c-6.2,0-11.5,2.3-15.8,6.8
									c-4.3,4.5-6.4,10.5-6.4,17.8c0,7.6,2.2,13.8,6.7,18.4c4.5,4.6,10.1,7,16.9,7c4.9,0,9.4-1.3,13.4-4c4.1-2.6,7.1-6.4,9.2-11.3
									c2.1-4.9,3.1-11.9,3.1-21.1c0-9.6-1-17.2-3.1-22.9c-2.1-5.7-5.2-10-9.3-13c-4.1-3-8.9-4.5-14.5-4.5
									c-5.9,0-10.7,1.6-14.4,4.9C64.7,40.6,62.5,45.1,61.7,51.1z M99.5,84.2c0,5.3-1.4,9.5-4.2,12.6c-2.8,3.1-6.2,4.7-10.2,4.7
									c-4.1,0-7.7-1.7-10.7-5c-3-3.3-4.6-7.7-4.6-13c0-4.8,1.4-8.7,4.3-11.7c2.9-3,6.4-4.5,10.7-4.5c4.3,0,7.8,1.5,10.5,4.5
									C98.1,74.8,99.5,78.9,99.5,84.2z"/>
							</g>
						</g>
					</g>
				</g>
				<g id="ytick_20">
					<g id="text_42">
						<g transform="translate(83.565937 492.197597) scale(0.11 -0.11)">
							<g>
								<path id="ArialMT-32_00000101795898942279493160000017029104629397340840_" class="st0" d="M50.4,33.2v-8.9H0.8
									c-0.1,2.2,0.3,4.4,1.1,6.4c1.3,3.4,3.3,6.7,6.1,10c2.8,3.3,6.8,7.1,12.1,11.4c8.2,6.7,13.7,12,16.5,15.9
									c2.9,3.9,4.3,7.6,4.3,11.1c0,3.7-1.3,6.7-3.9,9.2c-2.6,2.5-6,3.8-10.2,3.8c-4.4,0-8-1.3-10.7-4c-2.7-2.7-4-6.3-4.1-11.1
									l-9.5,1c0.6,7.1,3.1,12.5,7.3,16.2c4.2,3.7,9.9,5.6,17.1,5.6c7.2,0,12.9-2,17.1-6c4.2-4,6.3-8.9,6.3-14.9c0-3-0.6-6-1.9-8.9
									c-1.2-2.9-3.3-6-6.1-9.2c-2.9-3.2-7.6-7.6-14.2-13.2c-5.5-4.6-9.1-7.8-10.7-9.5c-1.6-1.7-2.9-3.3-3.9-5H50.4z"/>
							</g>
							<g>
								<path id="ArialMT-30_00000030473720900330804550000003807986969581791377_" class="st0" d="M60.3,61.3
									c0,8.9,0.9,16,2.7,21.5c1.8,5.4,4.5,9.6,8.1,12.5c3.6,2.9,8.1,4.4,13.6,4.4c4,0,7.6-0.8,10.6-2.4c3-1.6,5.5-4,7.5-7
									c2-3.1,3.5-6.8,4.7-11.2c1.1-4.4,1.7-10.3,1.7-17.8c0-8.8-0.9-15.9-2.7-21.3c-1.8-5.4-4.5-9.6-8.1-12.6
									c-3.6-3-8.2-4.4-13.7-4.4c-7.2,0-12.9,2.6-17.1,7.8C62.8,37.1,60.3,47.2,60.3,61.3z M69.8,61.3c0-12.3,1.4-20.5,4.3-24.6
									c2.9-4.1,6.4-6.1,10.7-6.1c4.2,0,7.8,2,10.7,6.1c2.9,4.1,4.3,12.3,4.3,24.6c0,12.4-1.4,20.6-4.3,24.6
									c-2.9,4.1-6.5,6.1-10.8,6.1c-4.2,0-7.6-1.8-10.2-5.4C71.4,82.1,69.8,73.7,69.8,61.3z"/>
							</g>
						</g>
					</g>
				</g>
				<g id="ytick_21">
					<g id="text_43">
						<g transform="translate(83.565937 513.037997) scale(0.11 -0.11)">
							<g>
								<path id="ArialMT-32_00000030488546910545310710000014257074493148442812_" class="st0" d="M50.4,23.8v-8.9H0.8
									c-0.1,2.2,0.3,4.4,1.1,6.4c1.3,3.4,3.3,6.7,6.1,10c2.8,3.3,6.8,7.1,12.1,11.4c8.2,6.7,13.7,12,16.5,15.9
									c2.9,3.9,4.3,7.6,4.3,11.1c0,3.7-1.3,6.7-3.9,9.2c-2.6,2.5-6,3.8-10.2,3.8c-4.4,0-8-1.3-10.7-4c-2.7-2.7-4-6.3-4.1-11.1
									l-9.5,1c0.6,7.1,3.1,12.5,7.3,16.2c4.2,3.7,9.9,5.6,17.1,5.6c7.2,0,12.9-2,17.1-6c4.2-4,6.3-8.9,6.3-14.9c0-3-0.6-6-1.9-8.9
									c-1.2-2.9-3.3-6-6.1-9.2c-2.9-3.2-7.6-7.6-14.2-13.2c-5.5-4.6-9.1-7.8-10.7-9.5c-1.6-1.7-2.9-3.3-3.9-5H50.4z"/>
							</g>
							<g>
								<path id="ArialMT-31_00000041258783892206020230000006346895090640630923_" class="st0" d="M95.1,14.9h-9.2v58.8
									c-2.2-2.1-5.1-4.2-8.7-6.3s-6.8-3.7-9.7-4.8v8.9c5.2,2.4,9.7,5.4,13.5,8.8c3.9,3.5,6.6,6.8,8.2,10.1h5.9V14.9z"/>
							</g>
						</g>
					</g>
				</g>
			</g>
			<g id="line2d_1">
				<g>
					<defs>
						<rect id="SVGID_1_" x="93.5" y="47.9" width="685.2" height="481.2"/>
					</defs>
					<clipPath id="SVGID_00000020384897463838168940000000254333881042283926_">
						<use xlink:href="#SVGID_1_"  style="overflow:visible;"/>
					</clipPath>
					
						<path style="clip-path:url(#SVGID_00000020384897463838168940000000254333881042283926_);fill:none;stroke:#8C8C8C;stroke-width:1.5;stroke-linecap:round;stroke-linejoin:round;" d="
						M124.7,69.8h29.7H184h29.7h29.7L273,91.7h29.7l29.7,21.9H362h29.7l29.7-21.9H451h29.7l29.7,21.9L540,91.7h29.7h29.7l29.7,21.9
						l29.7-21.9l29.7,21.9l29.7-21.9h29.7"/>
				</g>
			</g>
			<g id="line2d_2">
				<g>
					<defs>
						<rect id="SVGID_00000111910591363838174770000000042904773630328480_" x="93.5" y="47.9" width="685.2" height="481.2"/>
					</defs>
					<clipPath id="SVGID_00000093135320877383969580000015672286270661090959_">
						<use xlink:href="#SVGID_00000111910591363838174770000000042904773630328480_"  style="overflow:visible;"/>
					</clipPath>
					
						<path style="clip-path:url(#SVGID_00000093135320877383969580000015672286270661090959_);fill:none;stroke:#8C8C8C;stroke-width:1.5;stroke-linecap:round;stroke-linejoin:round;" d="
						M124.7,91.7h29.7l29.7,21.9l29.7,43.7h29.7H273h29.7h29.7H362l29.7-21.9h29.7H451l29.7,21.9l29.7-21.9l29.7,21.9h29.7h29.7
						h29.7h29.7l29.7,21.9h29.7l29.7-21.9"/>
				</g>
			</g>
			<g id="line2d_3">
				<g>
					<defs>
						<rect id="SVGID_00000142171789037695507970000006449797804848870817_" x="93.5" y="47.9" width="685.2" height="481.2"/>
					</defs>
					<clipPath id="SVGID_00000164475360073773677930000008636973737638806928_">
						<use xlink:href="#SVGID_00000142171789037695507970000006449797804848870817_"  style="overflow:visible;"/>
					</clipPath>
					
						<path style="clip-path:url(#SVGID_00000164475360073773677930000008636973737638806928_);fill:none;stroke:#9F00C6;stroke-width:3;stroke-miterlimit:10;" d="
						M124.7,113.5l29.7,43.7H184l29.7,43.7l29.7-21.9H273h29.7h29.7H362h29.7h29.7H451h29.7h29.7H540h29.7h29.7h29.7h29.7l29.7-21.9
						h29.7l29.7,21.9"/>
				</g>
			</g>
			<g id="line2d_4">
				<g>
					<defs>
						<rect id="SVGID_00000150813068338644403040000006056633127997106071_" x="93.5" y="47.9" width="685.2" height="481.2"/>
					</defs>
					<clipPath id="SVGID_00000014596670932528050760000010536142096449936046_">
						<use xlink:href="#SVGID_00000150813068338644403040000006056633127997106071_"  style="overflow:visible;"/>
					</clipPath>
					
						<path style="clip-path:url(#SVGID_00000014596670932528050760000010536142096449936046_);fill:none;stroke:#E23333;stroke-width:3;stroke-linecap:round;stroke-linejoin:round;" d="
						M124.7,135.4h29.7L184,91.7l29.7,43.7h29.7H273h29.7h29.7H362l29.7,21.9h29.7H451l29.7-21.9l29.7,21.9l29.7-21.9h29.7h29.7
						h29.7h29.7h29.7h29.7h29.7"/>
				</g>
			</g>
			<g id="line2d_5">
				<g>
					<defs>
						<rect id="SVGID_00000157286200972690272690000012678228457412872610_" x="93.5" y="47.9" width="685.2" height="481.2"/>
					</defs>
					<clipPath id="SVGID_00000162349214905115004870000014927302722277485753_">
						<use xlink:href="#SVGID_00000157286200972690272690000012678228457412872610_"  style="overflow:visible;"/>
					</clipPath>
					
						<path style="clip-path:url(#SVGID_00000162349214905115004870000014927302722277485753_);fill:none;stroke:#FFFFFF;stroke-width:3;stroke-miterlimit:10;" d="
						M124.7,157.3l29.7,65.6l29.7,21.9l29.7,21.9h29.7H273h29.7l29.7,43.7H362h29.7l29.7-21.9H451h29.7h29.7H540l29.7,21.9
						l29.7,43.7h29.7l29.7-21.9h29.7h29.7h29.7"/>
				</g>
			</g>
			<g id="line2d_6">
				<g>
					<defs>
						<rect id="SVGID_00000107560267866945753970000001014945113199796142_" x="93.5" y="47.9" width="685.2" height="481.2"/>
					</defs>
					<clipPath id="SVGID_00000123415414922671386930000015359055671058852480_">
						<use xlink:href="#SVGID_00000107560267866945753970000001014945113199796142_"  style="overflow:visible;"/>
					</clipPath>
					
						<path style="clip-path:url(#SVGID_00000123415414922671386930000015359055671058852480_);fill:none;stroke:#8C8C8C;stroke-width:1.5;stroke-linecap:round;stroke-linejoin:round;" d="
						M124.7,179.2l29.7,65.6l29.7,21.9l29.7-43.7h29.7H273h29.7h29.7H362h29.7l29.7,21.9H451h29.7l29.7,21.9H540h29.7h29.7h29.7
						h29.7h29.7h29.7h29.7"/>
				</g>
			</g>
			<g id="line2d_7">
				<g>
					<defs>
						<rect id="SVGID_00000109023457995073281380000006962902823226382744_" x="93.5" y="47.9" width="685.2" height="481.2"/>
					</defs>
					<clipPath id="SVGID_00000098208003512686231350000007110445626136538036_">
						<use xlink:href="#SVGID_00000109023457995073281380000006962902823226382744_"  style="overflow:visible;"/>
					</clipPath>
					
						<path style="clip-path:url(#SVGID_00000098208003512686231350000007110445626136538036_);fill:none;stroke:#8C8C8C;stroke-width:1.5;stroke-linecap:round;stroke-linejoin:round;" d="
						M124.7,201l29.7-21.9L184,201l29.7,43.7h29.7H273h29.7h29.7H362h29.7l29.7-21.9H451h29.7h29.7H540h29.7h29.7h29.7h29.7h29.7
						h29.7h29.7"/>
				</g>
			</g>
			<g id="line2d_8">
				<g>
					<defs>
						<rect id="SVGID_00000062194588336183686020000014468665134527287693_" x="93.5" y="47.9" width="685.2" height="481.2"/>
					</defs>
					<clipPath id="SVGID_00000054959769125175125220000015414008407735100595_">
						<use xlink:href="#SVGID_00000062194588336183686020000014468665134527287693_"  style="overflow:visible;"/>
					</clipPath>
					
						<path style="clip-path:url(#SVGID_00000054959769125175125220000015414008407735100595_);fill:none;stroke:#8C8C8C;stroke-width:1.5;stroke-linecap:round;stroke-linejoin:round;" d="
						M124.7,222.9l29.7,65.6l29.7,43.7l29.7-21.9h29.7l29.7-21.9l29.7,21.9l29.7,65.6H362h29.7l29.7,21.9H451h29.7h29.7H540h29.7
						l29.7,21.9h29.7h29.7h29.7h29.7h29.7"/>
				</g>
			</g>
			<g id="line2d_9">
				<g>
					<defs>
						<rect id="SVGID_00000088848137024193549670000000715244873054503871_" x="93.5" y="47.9" width="685.2" height="481.2"/>
					</defs>
					<clipPath id="SVGID_00000086651917452336639120000013053749957799861125_">
						<use xlink:href="#SVGID_00000088848137024193549670000000715244873054503871_"  style="overflow:visible;"/>
					</clipPath>
					
						<path style="clip-path:url(#SVGID_00000086651917452336639120000013053749957799861125_);fill:none;stroke:#8C8C8C;stroke-width:1.5;stroke-linecap:round;stroke-linejoin:round;" d="
						M124.7,244.8l29.7,87.5l29.7,21.9l29.7,21.9l29.7,21.9L273,376l29.7-43.7l29.7-43.7l29.7-21.9h29.7h29.7H451h29.7l29.7-21.9
						H540h29.7h29.7h29.7h29.7h29.7h29.7h29.7"/>
				</g>
			</g>
			<g id="line2d_10">
				<g>
					<defs>
						<rect id="SVGID_00000024717896413682131960000016359368287290022831_" x="93.5" y="47.9" width="685.2" height="481.2"/>
					</defs>
					<clipPath id="SVGID_00000119077609875306650320000017024046121955819656_">
						<use xlink:href="#SVGID_00000024717896413682131960000016359368287290022831_"  style="overflow:visible;"/>
					</clipPath>
					
						<path style="clip-path:url(#SVGID_00000119077609875306650320000017024046121955819656_);fill:none;stroke:#8C8C8C;stroke-width:1.5;stroke-linecap:round;stroke-linejoin:round;" d="
						M124.7,266.7l29.7,87.5L184,376l29.7,21.9l29.7,43.7H273h29.7h29.7l29.7-43.7h29.7l29.7,21.9H451h29.7h29.7H540h29.7l29.7,21.9
						h29.7h29.7h29.7h29.7h29.7"/>
				</g>
			</g>
			<g id="line2d_11">
				<g>
					<defs>
						<rect id="SVGID_00000082354805317180270820000009471954997388304787_" x="93.5" y="47.9" width="685.2" height="481.2"/>
					</defs>
					<clipPath id="SVGID_00000025433807789293320960000005542004199385471637_">
						<use xlink:href="#SVGID_00000082354805317180270820000009471954997388304787_"  style="overflow:visible;"/>
					</clipPath>
					
						<path style="clip-path:url(#SVGID_00000025433807789293320960000005542004199385471637_);fill:none;stroke:#8C8C8C;stroke-width:1.5;stroke-linecap:round;stroke-linejoin:round;" d="
						M124.7,288.5l29.7,87.5l29.7,43.7l29.7,43.7h29.7H273h29.7h29.7H362l29.7-43.7l29.7-43.7H451h29.7h29.7H540h29.7l29.7,21.9
						h29.7h29.7h29.7h29.7h29.7"/>
				</g>
			</g>
			<g id="line2d_12">
				<g>
					<defs>
						<rect id="SVGID_00000031185147638755795790000005160927303451427762_" x="93.5" y="47.9" width="685.2" height="481.2"/>
					</defs>
					<clipPath id="SVGID_00000069378730932520265810000003002883410801239708_">
						<use xlink:href="#SVGID_00000031185147638755795790000005160927303451427762_"  style="overflow:visible;"/>
					</clipPath>
					
						<path style="clip-path:url(#SVGID_00000069378730932520265810000003002883410801239708_);fill:none;stroke:#8C8C8C;stroke-width:1.5;stroke-linecap:round;stroke-linejoin:round;" d="
						M124.7,310.4l29.7,87.5l29.7,43.7h29.7l29.7-21.9H273h29.7h29.7l29.7,21.9l29.7,21.9h29.7l29.7-21.9h29.7l29.7,21.9l29.7-21.9
						h29.7l29.7-65.6h29.7h29.7h29.7h29.7h29.7"/>
				</g>
			</g>
			<g id="line2d_13">
				<g>
					<defs>
						<rect id="SVGID_00000010308106719111026010000006061434406574018688_" x="93.5" y="47.9" width="685.2" height="481.2"/>
					</defs>
					<clipPath id="SVGID_00000182499479295974773100000013223322694426760070_">
						<use xlink:href="#SVGID_00000010308106719111026010000006061434406574018688_"  style="overflow:visible;"/>
					</clipPath>
					
						<path style="clip-path:url(#SVGID_00000182499479295974773100000013223322694426760070_);fill:none;stroke:#8C8C8C;stroke-width:1.5;stroke-linecap:round;stroke-linejoin:round;" d="
						M124.7,332.3l29.7,109.4l29.7-43.7l29.7,21.9l29.7-43.7l29.7,21.9h29.7h29.7l29.7,21.9l29.7,21.9h29.7l29.7,21.9h29.7
						l29.7-21.9l29.7,21.9h29.7h29.7h29.7h29.7h29.7h29.7h29.7"/>
				</g>
			</g>
			<g id="line2d_14">
				<g>
					<defs>
						<rect id="SVGID_00000113340719419063735710000001615121923266326188_" x="93.5" y="47.9" width="685.2" height="481.2"/>
					</defs>
					<clipPath id="SVGID_00000134954402710344084640000017129778236262998195_">
						<use xlink:href="#SVGID_00000113340719419063735710000001615121923266326188_"  style="overflow:visible;"/>
					</clipPath>
					
						<path style="clip-path:url(#SVGID_00000134954402710344084640000017129778236262998195_);fill:none;stroke:#8C8C8C;stroke-width:1.5;stroke-linecap:round;stroke-linejoin:round;" d="
						M124.7,354.2l29.7,109.4l29.7-175h29.7h29.7l29.7,21.9l29.7-21.9l29.7,43.7H362l29.7,21.9l29.7-43.7H451h29.7l29.7,21.9H540
						l29.7,21.9l29.7-65.6l29.7,21.9h29.7h29.7h29.7l29.7-21.9"/>
				</g>
			</g>
			<g id="line2d_15">
				<g>
					<defs>
						<rect id="SVGID_00000076591080589476729180000015515671590226990527_" x="93.5" y="47.9" width="685.2" height="481.2"/>
					</defs>
					<clipPath id="SVGID_00000091709857756309209160000008891491942663308460_">
						<use xlink:href="#SVGID_00000076591080589476729180000015515671590226990527_"  style="overflow:visible;"/>
					</clipPath>
					
						<path style="clip-path:url(#SVGID_00000091709857756309209160000008891491942663308460_);fill:none;stroke:#8C8C8C;stroke-width:1.5;stroke-linecap:round;stroke-linejoin:round;" d="
						M124.7,376l29.7-109.4l29.7-43.7l29.7-43.7l29.7,21.9H273h29.7h29.7H362h29.7h29.7H451h29.7h29.7H540h29.7h29.7h29.7h29.7h29.7
						h29.7h29.7"/>
				</g>
			</g>
			<g id="line2d_16">
				<g>
					<defs>
						<rect id="SVGID_00000047747044197282271940000014020789765497492880_" x="93.5" y="47.9" width="685.2" height="481.2"/>
					</defs>
					<clipPath id="SVGID_00000108992702539571640500000012178227308110006158_">
						<use xlink:href="#SVGID_00000047747044197282271940000014020789765497492880_"  style="overflow:visible;"/>
					</clipPath>
					
						<path style="clip-path:url(#SVGID_00000108992702539571640500000012178227308110006158_);fill:none;stroke:#8C8C8C;stroke-width:1.5;stroke-linecap:round;stroke-linejoin:round;" d="
						M124.7,397.9l29.7,87.5H184l29.7,21.9h29.7H273h29.7h29.7H362l29.7-21.9h29.7H451h29.7h29.7H540l29.7,21.9h29.7l29.7-21.9h29.7
						h29.7h29.7h29.7"/>
				</g>
			</g>
			<g id="line2d_17">
				<g>
					<defs>
						<rect id="SVGID_00000008856820889170928270000008261609391650038973_" x="93.5" y="47.9" width="685.2" height="481.2"/>
					</defs>
					<clipPath id="SVGID_00000072257175655620694300000006353932693807060664_">
						<use xlink:href="#SVGID_00000008856820889170928270000008261609391650038973_"  style="overflow:visible;"/>
					</clipPath>
					
						<path style="clip-path:url(#SVGID_00000072257175655620694300000006353932693807060664_);fill:none;stroke:#8C8C8C;stroke-width:1.5;stroke-linecap:round;stroke-linejoin:round;" d="
						M124.7,441.6L154.3,201l29.7-65.6l29.7-21.9h29.7H273h29.7l29.7-21.9H362h29.7l29.7,21.9H451h29.7l29.7-21.9l29.7,21.9h29.7
						h29.7l29.7-21.9l29.7,21.9l29.7-21.9l29.7,21.9h29.7"/>
				</g>
			</g>
			<g id="line2d_18">
				<g>
					<defs>
						<rect id="SVGID_00000072276107610013263300000016834064582907256717_" x="93.5" y="47.9" width="685.2" height="481.2"/>
					</defs>
					<clipPath id="SVGID_00000097470169670597862190000015309041850129881787_">
						<use xlink:href="#SVGID_00000072276107610013263300000016834064582907256717_"  style="overflow:visible;"/>
					</clipPath>
					
						<path style="clip-path:url(#SVGID_00000097470169670597862190000015309041850129881787_);fill:none;stroke:#00FFFF;stroke-width:3;stroke-linecap:round;stroke-linejoin:round;" d="
						M124.7,463.5l29.7-350l29.7,65.6l29.7-87.5h29.7L273,69.8h29.7h29.7H362h29.7h29.7H451h29.7h29.7H540h29.7h29.7h29.7h29.7h29.7
						h29.7h29.7"/>
				</g>
			</g>
			<g id="line2d_19">
				<g>
					<defs>
						<rect id="SVGID_00000081619435477365736210000012533837076321608372_" x="93.5" y="47.9" width="685.2" height="481.2"/>
					</defs>
					<clipPath id="SVGID_00000032609313660511821750000017262514484670790541_">
						<use xlink:href="#SVGID_00000081619435477365736210000012533837076321608372_"  style="overflow:visible;"/>
					</clipPath>
					
						<path style="clip-path:url(#SVGID_00000032609313660511821750000017262514484670790541_);fill:none;stroke:#8C8C8C;stroke-width:1.5;stroke-linecap:round;stroke-linejoin:round;" d="
						M124.7,485.4l29.7-175H184l29.7,21.9h29.7H273l29.7,21.9l29.7-87.5l29.7,21.9h29.7l29.7,43.7H451h29.7l29.7,21.9H540l29.7-65.6
						l29.7,43.7h29.7l29.7,21.9h29.7h29.7h29.7"/>
				</g>
			</g>
			<g id="line2d_20">
				<g>
					<defs>
						<rect id="SVGID_00000047046180788327791860000001491316381107075251_" x="93.5" y="47.9" width="685.2" height="481.2"/>
					</defs>
					<clipPath id="SVGID_00000084516784985494832400000001337335353261283234_">
						<use xlink:href="#SVGID_00000047046180788327791860000001491316381107075251_"  style="overflow:visible;"/>
					</clipPath>
					
						<path style="clip-path:url(#SVGID_00000084516784985494832400000001337335353261283234_);fill:none;stroke:#8C8C8C;stroke-width:1.5;stroke-linecap:round;stroke-linejoin:round;" d="
						M184,507.3l29.7-153.1h29.7H273l29.7,21.9l29.7-21.9H362l29.7-21.9l29.7,21.9H451h29.7l29.7-43.7H540l29.7,21.9l29.7-21.9
						l29.7-21.9h29.7h29.7h29.7l29.7,21.9"/>
				</g>
			</g>
			<g id="line2d_21">
				<g>
					<defs>
						<rect id="SVGID_00000119100875870456112440000014467240187345672597_" x="93.5" y="47.9" width="685.2" height="481.2"/>
					</defs>
					<clipPath id="SVGID_00000021820418594046972770000007957991058118004915_">
						<use xlink:href="#SVGID_00000119100875870456112440000014467240187345672597_"  style="overflow:visible;"/>
					</clipPath>
					
						<path style="clip-path:url(#SVGID_00000021820418594046972770000007957991058118004915_);fill:none;stroke:#8C8C8C;stroke-width:1.5;stroke-linecap:round;stroke-linejoin:round;" d="
						M569.6,485.4h29.7l29.7,21.9h29.7h29.7h29.7h29.7"/>
				</g>
			</g>
			<g id="text_45">
				<g transform="translate(731.310779 113.1336) scale(0.12 -0.12)">
					<g>
						<path id="ArialMT-4c" class="st23" d="M168.2,178.9V254h9.9v-66.3h37v-8.9H168.2z"/>
					</g>
					<g>
						<path id="ArialMT-45" class="st23" d="M227.2,178.9V254h54.3v-8.9h-44.4v-23h41.6v-8.8h-41.6v-25.6h46.1v-8.9H227.2z"/>
					</g>
					<g>
						<path id="ArialMT-43_00000136384556323673105930000005298507194019850898_" class="st23" d="M350.6,205.2l9.9-2.5
							c-2.1-8.2-5.8-14.4-11.3-18.7c-5.4-4.3-12-6.4-19.9-6.4c-8.1,0-14.7,1.6-19.8,4.9c-5.1,3.3-8.9,8.1-11.6,14.3
							c-2.6,6.3-4,13-4,20.1c0,7.8,1.5,14.7,4.5,20.5c3,5.8,7.2,10.2,12.8,13.3c5.5,3,11.6,4.5,18.2,4.5c7.5,0,13.8-1.9,19-5.7
							c5.1-3.8,8.7-9.2,10.7-16.1l-9.8-2.3c-1.7,5.5-4.3,9.4-7.6,11.9c-3.3,2.5-7.5,3.8-12.5,3.8c-5.8,0-10.6-1.4-14.5-4.2
							c-3.9-2.8-6.6-6.5-8.2-11.2c-1.6-4.7-2.3-9.5-2.3-14.4c0-6.4,0.9-12,2.8-16.7c1.9-4.8,4.8-8.3,8.7-10.7
							c3.9-2.4,8.2-3.5,12.8-3.5c5.6,0,10.3,1.6,14.1,4.8C346.6,194.2,349.2,198.9,350.6,205.2z"/>
					</g>
				</g>
			</g>
			<g id="text_46">
				<g transform="translate(731.310779 175.6548) scale(0.12 -0.12)">
					<g>
						<path id="ArialMT-53" class="st23" d="M165.2,177.2l9.4,0.8c0.4-3.8,1.5-6.8,3.1-9.2c1.6-2.4,4.1-4.4,7.6-5.8
							c3.4-1.5,7.3-2.2,11.5-2.2c3.8,0,7.1,0.6,10,1.7c2.9,1.1,5.1,2.7,6.5,4.6c1.4,2,2.1,4.1,2.1,6.4c0,2.4-0.7,4.4-2,6.2
							c-1.4,1.8-3.6,3.2-6.8,4.4c-2,0.8-6.5,2-13.4,3.7c-6.9,1.7-11.7,3.2-14.5,4.7c-3.6,1.9-6.3,4.2-8,7c-1.7,2.8-2.6,5.9-2.6,9.4
							c0,3.8,1.1,7.3,3.2,10.6c2.2,3.3,5.3,5.8,9.4,7.5c4.1,1.7,8.7,2.6,13.8,2.6c5.6,0,10.5-0.9,14.7-2.7c4.3-1.8,7.5-4.4,9.8-7.9
							c2.3-3.5,3.5-7.4,3.7-11.8l-9.5-0.7c-0.5,4.7-2.3,8.3-5.2,10.8c-3,2.4-7.3,3.6-13.1,3.6c-6,0-10.4-1.1-13.2-3.3
							c-2.7-2.2-4.1-4.8-4.1-8c0-2.7,1-4.9,2.9-6.7c1.9-1.7,6.9-3.5,15-5.3c8.1-1.8,13.6-3.4,16.6-4.8c4.4-2,7.6-4.6,9.7-7.7
							c2.1-3.1,3.1-6.6,3.1-10.7c0-4-1.1-7.8-3.4-11.3c-2.3-3.5-5.6-6.3-9.9-8.2c-4.3-2-9.1-2.9-14.5-2.9c-6.8,0-12.5,1-17.1,3
							c-4.6,2-8.2,5-10.8,8.9C166.7,167.7,165.3,172.2,165.2,177.2z"/>
					</g>
					<g>
						<path id="ArialMT-41" class="st23" d="M230.4,153.1l28.8,75.1h10.7l30.7-75.1h-11.3l-8.8,22.8h-31.4l-8.3-22.8H230.4z
							 M252,183.9h25.5l-7.8,20.8c-2.4,6.3-4.2,11.5-5.3,15.6c-1-4.8-2.3-9.6-4.1-14.3L252,183.9z"/>
					</g>
					<g>
						<path id="ArialMT-49" class="st23" d="M310.3,153.1v75.1h9.9v-75.1H310.3z"/>
					</g>
				</g>
			</g>
			<g id="text_47">
				<g transform="translate(731.310779 196.4952) scale(0.12 -0.12)">
					<g>
						<path id="ArialMT-48" class="st24" d="M168.9,144.5v75.1h9.9v-30.8h39v30.8h9.9v-75.1h-9.9v35.4h-39v-35.4H168.9z"/>
					</g>
					<g>
						<path id="ArialMT-41_00000180324189773290889360000007935630385991516057_" class="st24" d="M236.1,144.5l28.8,75.1h10.7
							l30.7-75.1h-11.3l-8.8,22.8H255l-8.3-22.8H236.1z M257.8,175.3h25.5l-7.8,20.8c-2.4,6.3-4.2,11.5-5.3,15.6
							c-1-4.8-2.3-9.6-4.1-14.3L257.8,175.3z"/>
					</g>
					<g>
						<path id="ArialMT-4d" class="st24" d="M314.1,144.5v75.1h15l17.8-53.2c1.6-5,2.8-8.7,3.6-11.1c0.9,2.7,2.2,6.8,4,12.1l18,52.3
							h13.4v-75.1h-9.6v62.9l-21.8-62.9h-9l-21.7,64v-64H314.1z"/>
					</g>
				</g>
			</g>
			<g id="text_48">
				<g transform="translate(731.310779 154.8144) scale(0.12 -0.12)">
					<g>
						<path id="ArialMT-52_00000080895358582177065130000005988226745084416146_" class="st25" d="M168.7,161.7v75.1h33.3
							c6.7,0,11.8-0.7,15.3-2c3.5-1.3,6.3-3.7,8.4-7.2c2.1-3.4,3.1-7.2,3.1-11.3c0-5.3-1.7-9.8-5.2-13.5c-3.5-3.7-8.8-6-16-7
							c2.6-1.3,4.6-2.5,6-3.7c2.9-2.7,5.6-6,8.2-10l13.1-20.5h-12.5l-9.9,15.6c-2.9,4.5-5.3,8-7.2,10.3c-1.9,2.4-3.5,4.1-5,5
							c-1.5,1-3,1.6-4.5,2c-1.1,0.2-3,0.3-5.5,0.3h-11.5v-33.4H168.7z M178.7,203.6h21.4c4.5,0,8.1,0.5,10.6,1.4
							c2.6,0.9,4.5,2.4,5.9,4.5s2,4.3,2,6.7c0,3.6-1.3,6.5-3.9,8.8c-2.6,2.3-6.7,3.4-12.2,3.4h-23.8V203.6z"/>
					</g>
					<g>
						<path id="ArialMT-55" class="st25" d="M293.7,236.8h9.9v-43.4c0-7.5-0.9-13.5-2.6-18c-1.7-4.4-4.8-8.1-9.2-10.8
							c-4.5-2.8-10.3-4.2-17.5-4.2c-7,0-12.8,1.2-17.3,3.6c-4.5,2.4-7.7,5.9-9.6,10.5c-1.9,4.6-2.9,10.9-2.9,18.8v43.4h9.9v-43.3
							c0-6.5,0.6-11.3,1.8-14.4c1.2-3.1,3.3-5.5,6.2-7.2c3-1.7,6.6-2.5,10.9-2.5c7.3,0,12.5,1.7,15.6,5c3.1,3.3,4.7,9.7,4.7,19.1
							V236.8z"/>
					</g>
					<g>
						<path id="ArialMT-53_00000155830722037358830430000008159319599711598011_" class="st25" d="M316.8,185.8l9.4,0.8
							c0.4-3.8,1.5-6.8,3.1-9.2c1.6-2.4,4.1-4.4,7.6-5.8c3.4-1.5,7.3-2.2,11.5-2.2c3.8,0,7.1,0.6,10,1.7c2.9,1.1,5.1,2.7,6.5,4.6
							c1.4,2,2.1,4.1,2.1,6.4c0,2.4-0.7,4.4-2,6.2c-1.4,1.8-3.6,3.2-6.8,4.4c-2,0.8-6.5,2-13.4,3.7c-6.9,1.7-11.7,3.2-14.5,4.7
							c-3.6,1.9-6.3,4.2-8,7c-1.7,2.8-2.6,5.9-2.6,9.4c0,3.8,1.1,7.3,3.2,10.6c2.2,3.3,5.3,5.8,9.4,7.5c4.1,1.7,8.7,2.6,13.8,2.6
							c5.6,0,10.5-0.9,14.7-2.7c4.3-1.8,7.5-4.4,9.8-7.9c2.3-3.5,3.5-7.4,3.7-11.8l-9.5-0.7c-0.5,4.7-2.3,8.3-5.2,10.8
							c-3,2.4-7.3,3.6-13.1,3.6c-6,0-10.4-1.1-13.2-3.3c-2.7-2.2-4.1-4.8-4.1-8c0-2.7,1-4.9,2.9-6.7c1.9-1.7,6.9-3.5,15-5.3
							c8.1-1.8,13.6-3.4,16.6-4.8c4.4-2,7.6-4.6,9.7-7.7c2.1-3.1,3.1-6.6,3.1-10.7c0-4-1.1-7.8-3.4-11.3c-2.3-3.5-5.6-6.3-9.9-8.2
							c-4.3-2-9.1-2.9-14.5-2.9c-6.8,0-12.5,1-17.1,3c-4.6,2-8.2,5-10.8,8.9C318.3,176.3,316.9,180.8,316.8,185.8z"/>
					</g>
				</g>
			</g>
			<g id="text_49">
				<g transform="translate(731.310779 342.378) scale(0.12 -0.12)">
					<g>
						<path id="ArialMT-4d_00000160188625173927135630000014529771214802173105_" class="st26" d="M168.3,84.2v75.1h15l17.8-53.2
							c1.6-5,2.8-8.7,3.6-11.1c0.9,2.7,2.2,6.8,4,12.1l18,52.3H240V84.2h-9.6v62.9l-21.8-62.9h-9l-21.7,64v-64H168.3z"/>
					</g>
					<g>
						<path id="ArialMT-41_00000072272433791482205500000006616168778091641512_" class="st26" d="M247.8,84.2l28.8,75.1h10.7
							l30.7-75.1h-11.3l-8.8,22.8h-31.4l-8.3-22.8H247.8z M269.5,115h25.5l-7.8,20.8c-2.4,6.3-4.2,11.5-5.3,15.6
							c-1-4.8-2.3-9.6-4.1-14.3L269.5,115z"/>
					</g>
					<g>
						<path id="ArialMT-47" class="st26" d="M361.2,113.6v8.8l31.8,0.1V94.6c-4.9-3.9-9.9-6.8-15.1-8.8c-5.2-2-10.5-2.9-16-2.9
							c-7.4,0-14.1,1.6-20.1,4.7c-6,3.2-10.6,7.7-13.6,13.7c-3.1,6-4.6,12.7-4.6,20c0,7.3,1.5,14.1,4.6,20.5
							c3.1,6.3,7.5,11,13.2,14.1c5.7,3.1,12.3,4.6,19.8,4.6c5.4,0,10.3-0.9,14.7-2.6c4.4-1.7,7.8-4.2,10.3-7.3
							c2.5-3.1,4.4-7.2,5.7-12.3l-9-2.5c-1.1,3.8-2.5,6.8-4.2,9c-1.7,2.2-4.1,3.9-7.2,5.2c-3.1,1.3-6.5,2-10.3,2
							c-4.5,0-8.5-0.7-11.8-2.1c-3.3-1.4-6-3.2-8-5.5c-2-2.3-3.6-4.7-4.7-7.4c-1.9-4.6-2.9-9.7-2.9-15.1c0-6.7,1.2-12.3,3.5-16.8
							c2.3-4.5,5.7-7.9,10.1-10c4.4-2.2,9.1-3.3,14-3.3c4.3,0,8.5,0.8,12.6,2.5c4.1,1.7,7.2,3.4,9.3,5.3v14H361.2z"/>
					</g>
				</g>
			</g>
			<g id="text_50">
				<g transform="translate(731.310779 279.8568) scale(0.12 -0.12)">
					<g>
						<path id="ArialMT-42" class="st23" d="M168.2,110v75.1h28.2c5.7,0,10.3-0.8,13.8-2.3c3.5-1.5,6.2-3.9,8.1-7c2-3.2,3-6.5,3-9.9
							c0-3.2-0.9-6.2-2.6-9.1c-1.7-2.8-4.4-5.1-7.9-6.9c4.5-1.3,8-3.6,10.5-6.8c2.4-3.2,3.7-7,3.7-11.4c0-3.5-0.7-6.8-2.2-9.8
							c-1.5-3-3.3-5.3-5.5-7c-2.2-1.6-4.9-2.9-8.2-3.7c-3.3-0.8-7.3-1.2-12.1-1.2H168.2z M178.1,153.6h16.3c4.4,0,7.6,0.3,9.5,0.9
							c2.5,0.8,4.4,2,5.7,3.7c1.3,1.7,1.9,3.9,1.9,6.6c0,2.5-0.6,4.7-1.8,6.6c-1.2,1.9-2.9,3.2-5.1,3.9c-2.2,0.7-6,1-11.4,1h-15
							V153.6z M178.1,118.9h18.7c3.2,0,5.5,0.1,6.8,0.4c2.3,0.4,4.2,1.1,5.7,2c1.5,1,2.8,2.4,3.8,4.2c1,1.8,1.5,3.9,1.5,6.3
							c0,2.8-0.7,5.2-2.1,7.3c-1.4,2.1-3.4,3.5-6,4.4c-2.5,0.8-6.2,1.3-11,1.3h-17.4V118.9z"/>
					</g>
					<g>
						<path id="ArialMT-4f" class="st23" d="M235.6,146.6c0,12.5,3.3,22.2,10,29.3c6.7,7.1,15.4,10.6,25.9,10.6
							c6.9,0,13.2-1.7,18.8-5c5.6-3.3,9.8-7.9,12.7-13.9c2.9-5.9,4.4-12.6,4.4-20.2c0-7.6-1.5-14.4-4.6-20.4
							c-3.1-6-7.4-10.6-13.1-13.7c-5.6-3.1-11.7-4.6-18.2-4.6c-7.1,0-13.4,1.7-19,5.1c-5.6,3.4-9.8,8.1-12.7,14
							C237,133.8,235.6,140,235.6,146.6z M245.8,146.5c0-9.1,2.4-16.2,7.3-21.4c4.9-5.2,11-7.8,18.3-7.8c7.5,0,13.6,2.6,18.5,7.9
							c4.8,5.3,7.3,12.7,7.3,22.4c0,6.1-1,11.4-3.1,16s-5.1,8.1-9.1,10.6c-4,2.5-8.4,3.8-13.4,3.8c-7,0-13.1-2.4-18.2-7.3
							C248.4,165.8,245.8,157.8,245.8,146.5z"/>
					</g>
					<g>
						<path id="ArialMT-54" class="st23" d="M339.3,110v66.3h-24.7v8.9h59.5v-8.9h-24.8V110H339.3z"/>
					</g>
				</g>
			</g>
			<g id="text_51">
				<g transform="translate(731.310779 238.176) scale(0.12 -0.12)">
					<g>
						<path id="ArialMT-4f_00000067923463931537979920000005668391214530500790_" class="st23" d="M165.6,163.8
							c0,12.5,3.3,22.2,10,29.3c6.7,7.1,15.4,10.6,25.9,10.6c6.9,0,13.2-1.7,18.8-5c5.6-3.3,9.8-7.9,12.7-13.9
							c2.9-5.9,4.4-12.6,4.4-20.2c0-7.6-1.5-14.4-4.6-20.4c-3.1-6-7.4-10.6-13.1-13.7c-5.6-3.1-11.7-4.6-18.2-4.6
							c-7.1,0-13.4,1.7-19,5.1c-5.6,3.4-9.8,8.1-12.7,14C167,151,165.6,157.2,165.6,163.8z M175.8,163.7c0-9.1,2.4-16.2,7.3-21.4
							c4.9-5.2,11-7.8,18.3-7.8c7.5,0,13.6,2.6,18.5,7.9c4.8,5.3,7.3,12.7,7.3,22.4c0,6.1-1,11.4-3.1,16s-5.1,8.1-9.1,10.6
							c-4,2.5-8.4,3.8-13.4,3.8c-7,0-13.1-2.4-18.2-7.3C178.3,183,175.8,175,175.8,163.7z"/>
					</g>
					<g>
						<path id="ArialMT-43_00000152248970412102466580000011726369008949016462_" class="st23" d="M303.8,153.6l9.9-2.5
							c-2.1-8.2-5.8-14.4-11.3-18.7c-5.4-4.3-12-6.4-19.9-6.4c-8.1,0-14.7,1.6-19.8,4.9c-5.1,3.3-8.9,8.1-11.6,14.3
							c-2.6,6.3-4,13-4,20.1c0,7.8,1.5,14.7,4.5,20.5c3,5.8,7.2,10.2,12.8,13.3c5.5,3,11.6,4.5,18.2,4.5c7.5,0,13.8-1.9,19-5.7
							c5.1-3.8,8.7-9.2,10.7-16.1l-9.8-2.3c-1.7,5.5-4.3,9.4-7.6,11.9c-3.3,2.5-7.5,3.8-12.5,3.8c-5.8,0-10.6-1.4-14.5-4.2
							c-3.9-2.8-6.6-6.5-8.2-11.2c-1.6-4.7-2.3-9.5-2.3-14.4c0-6.4,0.9-12,2.8-16.7s4.8-8.3,8.7-10.7c3.9-2.4,8.2-3.5,12.8-3.5
							c5.6,0,10.3,1.6,14.1,4.8C299.9,142.5,302.5,147.3,303.8,153.6z"/>
					</g>
					<g>
						<path id="ArialMT-4f_00000067228326875124431780000011081993869311154832_" class="st23" d="M323,163.8
							c0,12.5,3.3,22.2,10,29.3c6.7,7.1,15.4,10.6,25.9,10.6c6.9,0,13.2-1.7,18.8-5c5.6-3.3,9.8-7.9,12.7-13.9
							c2.9-5.9,4.4-12.6,4.4-20.2c0-7.6-1.5-14.4-4.6-20.4c-3.1-6-7.4-10.6-13.1-13.7c-5.6-3.1-11.7-4.6-18.2-4.6
							c-7.1,0-13.4,1.7-19,5.1c-5.6,3.4-9.8,8.1-12.7,14C324.4,151,323,157.2,323,163.8z M333.3,163.7c0-9.1,2.4-16.2,7.3-21.4
							c4.9-5.2,11-7.8,18.3-7.8c7.5,0,13.6,2.6,18.5,7.9c4.8,5.3,7.3,12.7,7.3,22.4c0,6.1-1,11.4-3.1,16s-5.1,8.1-9.1,10.6
							c-4,2.5-8.4,3.8-13.4,3.8c-7,0-13.1-2.4-18.2-7.3C335.8,183,333.3,175,333.3,163.7z"/>
					</g>
				</g>
			</g>
			<g id="text_52">
				<g transform="translate(731.310779 425.7396) scale(0.12 -0.12)">
					<g>
						<path id="ArialMT-54_00000168108241822724890690000007505347903428084154_" class="st23" d="M187.7,49.7V116H163v8.9h59.5V116
							h-24.8V49.7H187.7z"/>
					</g>
					<g>
						<path id="ArialMT-53_00000075850112247925856540000002088592453869973935_" class="st23" d="M229.3,73.9l9.4,0.8
							c0.4-3.8,1.5-6.8,3.1-9.2c1.6-2.4,4.1-4.4,7.6-5.8c3.4-1.5,7.3-2.2,11.5-2.2c3.8,0,7.1,0.6,10,1.7c2.9,1.1,5.1,2.7,6.5,4.6
							c1.4,2,2.1,4.1,2.1,6.4c0,2.4-0.7,4.4-2,6.2c-1.4,1.8-3.6,3.2-6.8,4.4c-2,0.8-6.5,2-13.4,3.7c-6.9,1.7-11.7,3.2-14.5,4.7
							c-3.6,1.9-6.3,4.2-8,7c-1.7,2.8-2.6,5.9-2.6,9.4c0,3.8,1.1,7.3,3.2,10.6c2.2,3.3,5.3,5.8,9.4,7.5c4.1,1.7,8.7,2.6,13.8,2.6
							c5.6,0,10.5-0.9,14.7-2.7c4.3-1.8,7.5-4.4,9.8-7.9c2.3-3.5,3.5-7.4,3.7-11.8l-9.5-0.7c-0.5,4.7-2.3,8.3-5.2,10.8
							c-3,2.4-7.3,3.6-13.1,3.6c-6,0-10.4-1.1-13.2-3.3c-2.7-2.2-4.1-4.8-4.1-8c0-2.7,1-4.9,2.9-6.7c1.9-1.7,6.9-3.5,15-5.3
							c8.1-1.8,13.6-3.4,16.6-4.8c4.4-2,7.6-4.6,9.7-7.7c2.1-3.1,3.1-6.6,3.1-10.7c0-4-1.1-7.8-3.4-11.3c-2.3-3.5-5.6-6.3-9.9-8.2
							c-4.3-2-9.1-2.9-14.5-2.9c-6.8,0-12.5,1-17.1,3c-4.6,2-8.2,5-10.8,8.9C230.8,64.3,229.5,68.8,229.3,73.9z"/>
					</g>
					<g>
						<path id="ArialMT-55_00000170278279375374669650000016542193773917626501_" class="st23" d="M352,124.9h9.9V81.4
							c0-7.5-0.9-13.5-2.6-18c-1.7-4.4-4.8-8.1-9.2-10.8c-4.5-2.8-10.3-4.2-17.5-4.2c-7,0-12.8,1.2-17.3,3.6
							c-4.5,2.4-7.7,5.9-9.6,10.5c-1.9,4.6-2.9,10.9-2.9,18.8v43.4h9.9V81.5c0-6.5,0.6-11.3,1.8-14.4c1.2-3.1,3.3-5.5,6.2-7.2
							c3-1.7,6.6-2.5,10.9-2.5c7.3,0,12.5,1.7,15.6,5c3.1,3.3,4.7,9.7,4.7,19.1V124.9z"/>
					</g>
				</g>
			</g>
			<g id="text_53">
				<g transform="translate(731.310779 259.0164) scale(0.12 -0.12)">
					<g>
						<path id="ArialMT-41_00000150060072531405207050000013733582232033342081_" class="st23" d="M160.3,118.6l28.8,75.1h10.7
							l30.7-75.1h-11.3l-8.8,22.8h-31.4l-8.3-22.8H160.3z M182,149.5h25.5l-7.8,20.8c-2.4,6.3-4.2,11.5-5.3,15.6
							c-1-4.8-2.3-9.6-4.1-14.3L182,149.5z"/>
					</g>
					<g>
						<path id="ArialMT-4c_00000152985518384060036140000006051079883473943714_" class="st23" d="M238.2,118.6v75.1h9.9v-66.3h37
							v-8.9H238.2z"/>
					</g>
					<g>
						<path id="ArialMT-4f_00000035492643176202247440000004004185225472861625_" class="st23" d="M293.9,155.2
							c0,12.5,3.3,22.2,10,29.3c6.7,7.1,15.4,10.6,25.9,10.6c6.9,0,13.2-1.7,18.8-5c5.6-3.3,9.8-7.9,12.7-13.9
							c2.9-5.9,4.4-12.6,4.4-20.2c0-7.6-1.5-14.4-4.6-20.4c-3.1-6-7.4-10.6-13.1-13.7c-5.6-3.1-11.7-4.6-18.2-4.6
							c-7.1,0-13.4,1.7-19,5.1c-5.6,3.4-9.8,8.1-12.7,14C295.4,142.4,293.9,148.6,293.9,155.2z M304.2,155.1
							c0-9.1,2.4-16.2,7.3-21.4c4.9-5.2,11-7.8,18.3-7.8c7.5,0,13.6,2.6,18.5,7.9c4.8,5.3,7.3,12.7,7.3,22.4c0,6.1-1,11.4-3.1,16
							s-5.1,8.1-9.1,10.6c-4,2.5-8.4,3.8-13.4,3.8c-7,0-13.1-2.4-18.2-7.3C306.7,174.4,304.2,166.4,304.2,155.1z"/>
					</g>
				</g>
			</g>
			<g id="text_54">
				<g transform="translate(731.310779 446.58) scale(0.12 -0.12)">
					<g>
						<path id="ArialMT-5a" class="st23" d="M162.6,41.1v9.2l38.5,48.1c2.7,3.4,5.3,6.4,7.8,8.9H167v8.9h53.8v-8.9l-42.2-52.1
							L174,50h48v-8.9H162.6z"/>
					</g>
					<g>
						<path id="ArialMT-48_00000059294020203244924390000006687119268825660594_" class="st23" d="M233,41.1v75.1h9.9V85.4h39v30.8
							h9.9V41.1H282v35.4h-39V41.1H233z"/>
					</g>
					<g>
						<path id="ArialMT-4f_00000122713921444554178930000016567620674849069967_" class="st23" d="M305.5,77.7
							c0,12.5,3.3,22.2,10,29.3c6.7,7.1,15.4,10.6,25.9,10.6c6.9,0,13.2-1.7,18.8-5c5.6-3.3,9.8-7.9,12.7-13.9
							c2.9-5.9,4.4-12.6,4.4-20.2c0-7.6-1.5-14.4-4.6-20.4c-3.1-6-7.4-10.6-13.1-13.7c-5.6-3.1-11.7-4.6-18.2-4.6
							c-7.1,0-13.4,1.7-19,5.1c-5.6,3.4-9.8,8.1-12.7,14C306.9,64.9,305.5,71.1,305.5,77.7z M315.7,77.6c0-9.1,2.4-16.2,7.3-21.4
							c4.9-5.2,11-7.8,18.3-7.8c7.5,0,13.6,2.6,18.5,7.9c4.8,5.3,7.3,12.7,7.3,22.4c0,6.1-1,11.4-3.1,16c-2.1,4.6-5.1,8.1-9.1,10.6
							c-4,2.5-8.4,3.8-13.4,3.8c-7,0-13.1-2.4-18.2-7.3C318.3,96.9,315.7,88.9,315.7,77.6z"/>
					</g>
				</g>
			</g>
			<g id="text_55">
				<g transform="translate(731.310779 404.8992) scale(0.12 -0.12)">
					<g>
						<path id="ArialMT-4d_00000142160642904566046510000010795211489394359736_" class="st23" d="M168.3,58.3v75.1h15L201,80.3
							c1.6-5,2.8-8.7,3.6-11.1c0.9,2.7,2.2,6.8,4,12.1l18,52.3H240V58.3h-9.6v62.9l-21.8-62.9h-9l-21.7,64v-64H168.3z"/>
					</g>
					<g>
						<path id="ArialMT-53_00000044155270235347575740000002437314846025804720_" class="st23" d="M252.6,82.5l9.4,0.8
							c0.4-3.8,1.5-6.8,3.1-9.2c1.6-2.4,4.1-4.4,7.6-5.8c3.4-1.5,7.3-2.2,11.5-2.2c3.8,0,7.1,0.6,10,1.7s5.1,2.7,6.5,4.6
							c1.4,2,2.1,4.1,2.1,6.4c0,2.4-0.7,4.4-2,6.2c-1.4,1.8-3.6,3.2-6.8,4.4c-2,0.8-6.5,2-13.4,3.7c-6.9,1.7-11.7,3.2-14.5,4.7
							c-3.6,1.9-6.3,4.2-8,7c-1.7,2.8-2.6,5.9-2.6,9.4c0,3.8,1.1,7.3,3.2,10.6c2.2,3.3,5.3,5.8,9.4,7.5c4.1,1.7,8.7,2.6,13.8,2.6
							c5.6,0,10.5-0.9,14.7-2.7c4.3-1.8,7.5-4.4,9.8-7.9c2.3-3.5,3.5-7.4,3.7-11.8l-9.5-0.7c-0.5,4.7-2.3,8.3-5.2,10.8
							c-3,2.4-7.3,3.6-13.1,3.6c-6,0-10.4-1.1-13.2-3.3c-2.7-2.2-4.1-4.8-4.1-8c0-2.7,1-4.9,2.9-6.7c1.9-1.7,6.9-3.5,15-5.3
							c8.1-1.8,13.6-3.4,16.6-4.8c4.4-2,7.6-4.6,9.7-7.7c2.1-3.1,3.1-6.6,3.1-10.7c0-4-1.1-7.8-3.4-11.3c-2.3-3.5-5.6-6.3-9.9-8.2
							c-4.3-2-9.1-2.9-14.5-2.9c-6.8,0-12.5,1-17.1,3c-4.6,2-8.2,5-10.8,8.9C254.2,73,252.8,77.5,252.6,82.5z"/>
					</g>
					<g>
						<path id="ArialMT-43_00000104695538076465307620000012854645629215724206_" class="st23" d="M379.6,84.7l9.9-2.5
							c-2.1-8.2-5.8-14.4-11.3-18.7c-5.4-4.3-12-6.4-19.9-6.4c-8.1,0-14.7,1.6-19.8,4.9c-5.1,3.3-8.9,8.1-11.6,14.3
							c-2.6,6.3-4,13-4,20.1c0,7.8,1.5,14.7,4.5,20.5c3,5.8,7.2,10.2,12.8,13.3c5.5,3,11.6,4.5,18.2,4.5c7.5,0,13.8-1.9,19-5.7
							c5.1-3.8,8.7-9.2,10.7-16.1l-9.8-2.3c-1.7,5.5-4.3,9.4-7.6,11.9c-3.3,2.5-7.5,3.8-12.5,3.8c-5.8,0-10.6-1.4-14.5-4.2
							c-3.9-2.8-6.6-6.5-8.2-11.2c-1.6-4.7-2.3-9.5-2.3-14.4c0-6.4,0.9-12,2.8-16.7c1.9-4.8,4.8-8.3,8.7-10.7
							c3.9-2.4,8.2-3.5,12.8-3.5c5.6,0,10.3,1.6,14.1,4.8C375.7,73.6,378.3,78.4,379.6,84.7z"/>
					</g>
				</g>
			</g>
			<g id="text_56">
				<g transform="translate(731.310779 384.0588) scale(0.12 -0.12)">
					<g>
						<path id="ArialMT-53_00000116925336378155932730000015234498291142023601_" class="st23" d="M165.2,91.1l9.4,0.8
							c0.4-3.8,1.5-6.8,3.1-9.2c1.6-2.4,4.1-4.4,7.6-5.8c3.4-1.5,7.3-2.2,11.5-2.2c3.8,0,7.1,0.6,10,1.7s5.1,2.7,6.5,4.6
							c1.4,2,2.1,4.1,2.1,6.4c0,2.4-0.7,4.4-2,6.2s-3.6,3.2-6.8,4.4c-2,0.8-6.5,2-13.4,3.7c-6.9,1.7-11.7,3.2-14.5,4.7
							c-3.6,1.9-6.3,4.2-8,7c-1.7,2.8-2.6,5.9-2.6,9.4c0,3.8,1.1,7.3,3.2,10.6c2.2,3.3,5.3,5.8,9.4,7.5c4.1,1.7,8.7,2.6,13.8,2.6
							c5.6,0,10.5-0.9,14.7-2.7c4.3-1.8,7.5-4.4,9.8-7.9c2.3-3.5,3.5-7.4,3.7-11.8l-9.5-0.7c-0.5,4.7-2.3,8.3-5.2,10.8
							c-3,2.4-7.3,3.6-13.1,3.6c-6,0-10.4-1.1-13.2-3.3c-2.7-2.2-4.1-4.8-4.1-8c0-2.7,1-4.9,2.9-6.7c1.9-1.7,6.9-3.5,15-5.3
							c8.1-1.8,13.6-3.4,16.6-4.8c4.4-2,7.6-4.6,9.7-7.7c2.1-3.1,3.1-6.6,3.1-10.7c0-4-1.1-7.8-3.4-11.3c-2.3-3.5-5.6-6.3-9.9-8.2
							c-4.3-2-9.1-2.9-14.5-2.9c-6.8,0-12.5,1-17.1,3c-4.6,2-8.2,5-10.8,8.9C166.7,81.6,165.3,86.1,165.2,91.1z"/>
					</g>
					<g>
						<path id="ArialMT-54_00000028290981448178886220000013912936349010529682_" class="st23" d="M257.7,67v66.3H233v8.9h59.5v-8.9
							h-24.8V67H257.7z"/>
					</g>
					<g>
						<path id="ArialMT-52_00000057846749478938633380000014479542446079084710_" class="st23" d="M302.9,67v75.1h33.3
							c6.7,0,11.8-0.7,15.3-2c3.5-1.3,6.3-3.7,8.4-7.2c2.1-3.4,3.1-7.2,3.1-11.3c0-5.3-1.7-9.8-5.2-13.5c-3.5-3.7-8.8-6-16-7
							c2.6-1.3,4.6-2.5,6-3.7c2.9-2.7,5.6-6,8.2-10L369.1,67h-12.5l-9.9,15.6c-2.9,4.5-5.3,8-7.2,10.3c-1.9,2.4-3.5,4.1-5,5
							c-1.5,1-3,1.6-4.5,2c-1.1,0.2-3,0.3-5.5,0.3h-11.5V67H302.9z M312.8,108.9h21.4c4.5,0,8.1,0.5,10.6,1.4
							c2.6,0.9,4.5,2.4,5.9,4.5s2,4.3,2,6.7c0,3.6-1.3,6.5-3.9,8.8c-2.6,2.3-6.7,3.4-12.2,3.4h-23.8V108.9z"/>
					</g>
				</g>
			</g>
			<g id="text_57">
				<g transform="translate(731.310779 467.4204) scale(0.12 -0.12)">
					<g>
						<path id="ArialMT-41_00000030445400720497945440000001945881836741942427_" class="st23" d="M160.3,32.5l28.8,75.1h10.7
							l30.7-75.1h-11.3l-8.8,22.8h-31.4l-8.3-22.8H160.3z M182,63.4h25.5l-7.8,20.8c-2.4,6.3-4.2,11.5-5.3,15.6
							c-1-4.8-2.3-9.6-4.1-14.3L182,63.4z"/>
					</g>
					<g>
						<path id="ArialMT-4c_00000023969263166300546060000003391948829864259740_" class="st23" d="M238.2,32.5v75.1h9.9V41.4h37
							v-8.9H238.2z"/>
					</g>
					<g>
						<path id="ArialMT-42_00000082339076444250193350000012597548593660289959_" class="st23" d="M296.6,32.5v75.1h28.2
							c5.7,0,10.3-0.8,13.8-2.3c3.5-1.5,6.2-3.9,8.1-7c2-3.2,3-6.5,3-9.9c0-3.2-0.9-6.2-2.6-9.1c-1.7-2.8-4.4-5.1-7.9-6.9
							c4.5-1.3,8-3.6,10.5-6.8c2.4-3.2,3.7-7,3.7-11.4c0-3.5-0.7-6.8-2.2-9.8c-1.5-3-3.3-5.3-5.5-7c-2.2-1.6-4.9-2.9-8.2-3.7
							c-3.3-0.8-7.3-1.2-12.1-1.2H296.6z M306.5,76.1h16.3c4.4,0,7.6,0.3,9.5,0.9c2.5,0.8,4.4,2,5.7,3.7c1.3,1.7,1.9,3.9,1.9,6.6
							c0,2.5-0.6,4.7-1.8,6.6c-1.2,1.9-2.9,3.2-5.1,3.9c-2.2,0.7-6,1-11.4,1h-15V76.1z M306.5,41.4h18.7c3.2,0,5.5,0.1,6.8,0.4
							c2.3,0.4,4.2,1.1,5.7,2c1.5,1,2.8,2.4,3.8,4.2c1,1.8,1.5,3.9,1.5,6.3c0,2.8-0.7,5.2-2.1,7.3c-1.4,2.1-3.4,3.5-6,4.4
							c-2.5,0.8-6.2,1.3-11,1.3h-17.4V41.4z"/>
					</g>
				</g>
			</g>
			<g id="text_58">
				<g transform="translate(731.310779 300.6972) scale(0.12 -0.12)">
					<g>
						<path id="ArialMT-52_00000024679836155281266160000018337422236312802746_" class="st23" d="M168.7,101.4v75.1h33.3
							c6.7,0,11.8-0.7,15.3-2c3.5-1.3,6.3-3.7,8.4-7.2c2.1-3.4,3.1-7.2,3.1-11.3c0-5.3-1.7-9.8-5.2-13.5c-3.5-3.7-8.8-6-16-7
							c2.6-1.3,4.6-2.5,6-3.7c2.9-2.7,5.6-6,8.2-10l13.1-20.5h-12.5l-9.9,15.6c-2.9,4.5-5.3,8-7.2,10.3c-1.9,2.4-3.5,4.1-5,5
							c-1.5,1-3,1.6-4.5,2c-1.1,0.2-3,0.3-5.5,0.3h-11.5v-33.4H168.7z M178.7,143.4h21.4c4.5,0,8.1,0.5,10.6,1.4
							c2.6,0.9,4.5,2.4,5.9,4.5s2,4.3,2,6.7c0,3.6-1.3,6.5-3.9,8.8c-2.6,2.3-6.7,3.4-12.2,3.4h-23.8V143.4z"/>
					</g>
					<g>
						<path id="ArialMT-49_00000055682334651250858750000017185228850307963551_" class="st23" d="M246.1,101.4v75.1h9.9v-75.1
							H246.1z"/>
					</g>
					<g>
						<path id="ArialMT-43_00000097496718278325003330000013244106893909720990_" class="st23" d="M327.2,127.7l9.9-2.5
							c-2.1-8.2-5.8-14.4-11.3-18.7c-5.4-4.3-12-6.4-19.9-6.4c-8.1,0-14.7,1.6-19.8,4.9c-5.1,3.3-8.9,8.1-11.6,14.3s-4,13-4,20.1
							c0,7.8,1.5,14.7,4.5,20.5c3,5.8,7.2,10.2,12.8,13.3c5.5,3,11.6,4.5,18.2,4.5c7.5,0,13.8-1.9,19-5.7c5.1-3.8,8.7-9.2,10.7-16.1
							l-9.8-2.3c-1.7,5.5-4.3,9.4-7.6,11.9c-3.3,2.5-7.5,3.8-12.5,3.8c-5.8,0-10.6-1.4-14.5-4.2c-3.9-2.8-6.6-6.5-8.2-11.2
							c-1.6-4.7-2.3-9.5-2.3-14.4c0-6.4,0.9-12,2.8-16.7s4.8-8.3,8.7-10.7c3.9-2.4,8.2-3.5,12.8-3.5c5.6,0,10.3,1.6,14.1,4.8
							C323.2,116.7,325.8,121.4,327.2,127.7z"/>
					</g>
				</g>
			</g>
			<g id="text_59">
				<g transform="translate(731.310779 217.3356) scale(0.12 -0.12)">
					<g>
						<path id="ArialMT-4e" class="st23" d="M168.5,135.8V211h10.2l39.5-59v59h9.5v-75.1h-10.2l-39.5,59v-59H168.5z"/>
					</g>
					<g>
						<path id="ArialMT-4f_00000010283401344565008880000014277899846761001640_" class="st23" d="M241.4,172.4
							c0,12.5,3.3,22.2,10,29.3c6.7,7.1,15.4,10.6,25.9,10.6c6.9,0,13.2-1.7,18.8-5c5.6-3.3,9.8-7.9,12.7-13.9
							c2.9-5.9,4.4-12.6,4.4-20.2c0-7.6-1.5-14.4-4.6-20.4c-3.1-6-7.4-10.6-13.1-13.7c-5.6-3.1-11.7-4.6-18.2-4.6
							c-7.1,0-13.4,1.7-19,5.1c-5.6,3.4-9.8,8.1-12.7,14C242.8,159.6,241.4,165.8,241.4,172.4z M251.6,172.3
							c0-9.1,2.4-16.2,7.3-21.4c4.9-5.2,11-7.8,18.3-7.8c7.5,0,13.6,2.6,18.5,7.9c4.8,5.3,7.3,12.7,7.3,22.4c0,6.1-1,11.4-3.1,16
							c-2.1,4.6-5.1,8.1-9.1,10.6c-4,2.5-8.4,3.8-13.4,3.8c-7,0-13.1-2.4-18.2-7.3C254.1,191.7,251.6,183.6,251.6,172.3z"/>
					</g>
					<g>
						<path id="ArialMT-52_00000020394155663287078620000000069382333623094170_" class="st23" d="M326.2,135.8V211h33.3
							c6.7,0,11.8-0.7,15.3-2c3.5-1.3,6.3-3.7,8.4-7.2c2.1-3.4,3.1-7.2,3.1-11.3c0-5.3-1.7-9.8-5.2-13.5c-3.5-3.7-8.8-6-16-7
							c2.6-1.3,4.6-2.5,6-3.7c2.9-2.7,5.6-6,8.2-10l13.1-20.5h-12.5l-9.9,15.6c-2.9,4.5-5.3,8-7.2,10.3c-1.9,2.4-3.5,4.1-5,5
							c-1.5,1-3,1.6-4.5,2c-1.1,0.2-3,0.3-5.5,0.3h-11.5v-33.4H326.2z M336.1,177.8h21.4c4.5,0,8.1,0.5,10.6,1.4
							c2.6,0.9,4.5,2.4,5.9,4.5s2,4.3,2,6.7c0,3.6-1.3,6.5-3.9,8.8c-2.6,2.3-6.7,3.4-12.2,3.4h-23.8V177.8z"/>
					</g>
				</g>
			</g>
			<g id="text_60">
				<g transform="translate(731.310779 488.2608) scale(0.12 -0.12)">
					<g>
						<path id="ArialMT-4c_00000172422101823633019710000011698570546207999369_" class="st23" d="M168.2,23.9V99h9.9V32.8h37v-8.9
							H168.2z"/>
					</g>
					<g>
						<path id="ArialMT-41_00000099654474494682640040000013224680053499903619_" class="st23" d="M218.7,23.9L247.6,99h10.7
							L289,23.9h-11.3l-8.8,22.8h-31.4l-8.3-22.8H218.7z M240.4,54.7h25.5L258,75.6c-2.4,6.3-4.2,11.5-5.3,15.6
							c-1-4.8-2.3-9.6-4.1-14.3L240.4,54.7z"/>
					</g>
					<g>
						<path id="ArialMT-54_00000176764929158528931130000007481126520419391880_" class="st23" d="M308.3,23.9v66.3h-24.7V99h59.5
							v-8.9h-24.8V23.9H308.3z"/>
					</g>
				</g>
			</g>
			<g id="text_61">
				<g transform="translate(731.310779 133.974) scale(0.12 -0.12)">
					<g>
						<path id="ArialMT-50" class="st23" d="M168.6,170.3v75.1h28.3c5,0,8.8-0.2,11.4-0.7c3.7-0.6,6.8-1.8,9.3-3.5
							c2.5-1.7,4.5-4.1,6-7.2c1.5-3.1,2.3-6.5,2.3-10.2c0-6.4-2-11.8-6.1-16.2c-4.1-4.4-11.4-6.6-22-6.6h-19.3v-30.6H168.6z
							 M178.5,209.7H198c6.4,0,11,1.2,13.7,3.6c2.7,2.4,4.1,5.8,4.1,10.1c0,3.1-0.8,5.8-2.4,8.1c-1.6,2.2-3.7,3.7-6.3,4.4
							c-1.7,0.4-4.8,0.7-9.3,0.7h-19.2V209.7z"/>
					</g>
					<g>
						<path id="ArialMT-45_00000090282972126593408720000001821118920308651191_" class="st23" d="M238.8,170.3v75.1h54.3v-8.9
							h-44.4v-23h41.6v-8.8h-41.6v-25.6h46.1v-8.9H238.8z"/>
					</g>
					<g>
						<path id="ArialMT-52_00000085227426108071293660000016499141495755942299_" class="st23" d="M308.8,170.3v75.1h33.3
							c6.7,0,11.8-0.7,15.3-2c3.5-1.3,6.3-3.7,8.4-7.2c2.1-3.4,3.1-7.2,3.1-11.3c0-5.3-1.7-9.8-5.2-13.5c-3.5-3.7-8.8-6-16-7
							c2.6-1.3,4.6-2.5,6-3.7c2.9-2.7,5.6-6,8.2-10l13.1-20.5h-12.5l-9.9,15.6c-2.9,4.5-5.3,8-7.2,10.3c-1.9,2.4-3.5,4.1-5,5
							c-1.5,1-3,1.6-4.5,2c-1.1,0.2-3,0.3-5.5,0.3h-11.5v-33.4H308.8z M318.7,212.3h21.4c4.5,0,8.1,0.5,10.6,1.4
							c2.6,0.9,4.5,2.4,5.9,4.5c1.3,2.1,2,4.3,2,6.7c0,3.6-1.3,6.5-3.9,8.8c-2.6,2.3-6.7,3.4-12.2,3.4h-23.8V212.3z"/>
					</g>
				</g>
			</g>
			<g id="text_62">
				<g transform="translate(731.310779 92.2932) scale(0.12 -0.12)">
					<g>
						<path id="ArialMT-56" class="st27" d="M190.1,187.5L161,262.6h10.8l19.5-54.6c1.6-4.4,2.9-8.5,4-12.3
							c1.2,4.1,2.5,8.2,4.1,12.3l20.3,54.6h10.2l-29.4-75.1H190.1z"/>
					</g>
					<g>
						<path id="ArialMT-45_00000026886052617884575540000014832143903632669608_" class="st27" d="M238.8,187.5v75.1h54.3v-8.9
							h-44.4v-23h41.6V222h-41.6v-25.6h46.1v-8.9H238.8z"/>
					</g>
					<g>
						<path id="ArialMT-52_00000129170688066066630290000001407961659201861802_" class="st27" d="M308.8,187.5v75.1h33.3
							c6.7,0,11.8-0.7,15.3-2c3.5-1.3,6.3-3.7,8.4-7.2c2.1-3.4,3.1-7.2,3.1-11.3c0-5.3-1.7-9.8-5.2-13.5c-3.5-3.7-8.8-6-16-7
							c2.6-1.3,4.6-2.5,6-3.7c2.9-2.7,5.6-6,8.2-10l13.1-20.5h-12.5l-9.9,15.6c-2.9,4.5-5.3,8-7.2,10.3c-1.9,2.4-3.5,4.1-5,5
							c-1.5,1-3,1.6-4.5,2c-1.1,0.2-3,0.3-5.5,0.3h-11.5v-33.4H308.8z M318.7,229.5h21.4c4.5,0,8.1,0.5,10.6,1.4
							c2.6,0.9,4.5,2.4,5.9,4.5c1.3,2.1,2,4.3,2,6.7c0,3.6-1.3,6.5-3.9,8.8c-2.6,2.3-6.7,3.4-12.2,3.4h-23.8V229.5z"/>
					</g>
				</g>
			</g>
			<g id="text_63">
				<g transform="translate(731.310779 363.2184) scale(0.12 -0.12)">
					<g>
						<path id="ArialMT-47_00000021092880842694751000000015013384000725981602_" class="st23" d="M203.8,105v8.8l31.8,0.1V86
							c-4.9-3.9-9.9-6.8-15.1-8.8c-5.2-2-10.5-2.9-16-2.9c-7.4,0-14.1,1.6-20.1,4.7c-6,3.2-10.6,7.7-13.6,13.7
							c-3.1,6-4.6,12.7-4.6,20c0,7.3,1.5,14.1,4.6,20.5c3.1,6.3,7.5,11,13.2,14.1s12.3,4.6,19.8,4.6c5.4,0,10.3-0.9,14.7-2.6
							c4.4-1.7,7.8-4.2,10.3-7.3c2.5-3.1,4.4-7.2,5.7-12.3l-9-2.5c-1.1,3.8-2.5,6.8-4.2,9c-1.7,2.2-4.1,3.9-7.2,5.2
							c-3.1,1.3-6.5,2-10.3,2c-4.5,0-8.5-0.7-11.8-2.1c-3.3-1.4-6-3.2-8-5.5c-2-2.3-3.6-4.7-4.7-7.4c-1.9-4.6-2.9-9.7-2.9-15.1
							c0-6.7,1.2-12.3,3.5-16.8c2.3-4.5,5.7-7.9,10.1-10s9.1-3.3,14-3.3c4.3,0,8.5,0.8,12.6,2.5c4.1,1.7,7.2,3.4,9.3,5.3v14H203.8z"
							/>
					</g>
					<g>
						<path id="ArialMT-41_00000120526880726958542070000000503481645819392912_" class="st23" d="M242,75.6l28.8,75.1h10.7
							l30.7-75.1H301l-8.8,22.8h-31.4l-8.3-22.8H242z M263.7,106.4h25.5l-7.8,20.8c-2.4,6.3-4.2,11.5-5.3,15.6
							c-1-4.8-2.3-9.6-4.1-14.3L263.7,106.4z"/>
					</g>
					<g>
						<path id="ArialMT-53_00000164487063321811652350000003983139926143053446_" class="st23" d="M316.9,99.7l9.4,0.8
							c0.4-3.8,1.5-6.8,3.1-9.2c1.6-2.4,4.1-4.4,7.6-5.8c3.4-1.5,7.3-2.2,11.5-2.2c3.8,0,7.1,0.6,10,1.7c2.9,1.1,5.1,2.7,6.5,4.6
							c1.4,2,2.1,4.1,2.1,6.4c0,2.4-0.7,4.4-2,6.2s-3.6,3.2-6.8,4.4c-2,0.8-6.5,2-13.4,3.7c-6.9,1.7-11.7,3.2-14.5,4.7
							c-3.6,1.9-6.3,4.2-8,7c-1.7,2.8-2.6,5.9-2.6,9.4c0,3.8,1.1,7.3,3.2,10.6c2.2,3.3,5.3,5.8,9.4,7.5c4.1,1.7,8.7,2.6,13.8,2.6
							c5.6,0,10.5-0.9,14.7-2.7c4.3-1.8,7.5-4.4,9.8-7.9c2.3-3.5,3.5-7.4,3.7-11.8l-9.5-0.7c-0.5,4.7-2.3,8.3-5.2,10.8
							c-3,2.4-7.3,3.6-13.1,3.6c-6,0-10.4-1.1-13.2-3.3c-2.7-2.2-4.1-4.8-4.1-8c0-2.7,1-4.9,2.9-6.7c1.9-1.7,6.9-3.5,15-5.3
							c8.1-1.8,13.6-3.4,16.6-4.8c4.4-2,7.6-4.6,9.7-7.7c2.1-3.1,3.1-6.6,3.1-10.7c0-4-1.1-7.8-3.4-11.3c-2.3-3.5-5.6-6.3-9.9-8.2
							c-4.3-2-9.1-2.9-14.5-2.9c-6.8,0-12.5,1-17.1,3c-4.6,2-8.2,5-10.8,8.9C318.4,90.2,317,94.7,316.9,99.7z"/>
					</g>
				</g>
			</g>
			<g id="text_64">
				<g transform="translate(731.310779 321.5376) scale(0.12 -0.12)">
					<g>
						<path id="ArialMT-56_00000003799869652033472480000015261345527503381157_" class="st23" d="M190.1,92.8L161,167.9h10.8
							l19.5-54.6c1.6-4.4,2.9-8.5,4-12.3c1.2,4.1,2.5,8.2,4.1,12.3l20.3,54.6h10.2l-29.4-75.1H190.1z"/>
					</g>
					<g>
						<path id="ArialMT-45_00000057836095332426399290000017294324486585310867_" class="st23" d="M238.8,92.8v75.1h54.3v-8.9h-44.4
							v-23h41.6v-8.8h-41.6v-25.6h46.1v-8.9H238.8z"/>
					</g>
					<g>
						<path id="ArialMT-54_00000000214499457597745120000014867451540131678641_" class="st23" d="M327.7,92.8v66.3H303v8.9h59.5
							v-8.9h-24.8V92.8H327.7z"/>
					</g>
				</g>
			</g>
			<g id="text_65">
				<g transform="translate(731.310779 509.1012) scale(0.12 -0.12)">
					<g>
						<path id="ArialMT-44" class="st23" d="M168.6,15.3v75.1h25.9c5.8,0,10.3-0.4,13.4-1.1c4.3-1,8-2.8,11-5.4
							c4-3.4,6.9-7.6,8.9-12.9c2-5.2,3-11.2,3-17.8c0-5.7-0.7-10.8-2-15.2c-1.3-4.4-3-8.1-5.1-11c-2.1-2.9-4.4-5.2-6.9-6.8
							c-2.5-1.7-5.5-2.9-9-3.8c-3.5-0.9-7.5-1.3-12.1-1.3H168.6z M178.5,24.2h16c5,0,8.8,0.5,11.7,1.4c2.8,0.9,5.1,2.2,6.7,3.9
							c2.4,2.4,4.2,5.5,5.5,9.5s2,8.8,2,14.5c0,7.9-1.3,13.9-3.9,18.1c-2.6,4.2-5.7,7-9.4,8.5c-2.7,1-7,1.5-12.9,1.5h-15.8V24.2z"/>
					</g>
					<g>
						<path id="ArialMT-45_00000087397572147697766840000009312221833485287358_" class="st23" d="M244.6,15.3v75.1h54.3v-8.9h-44.4
							v-23h41.6v-8.8h-41.6V24.2h46.1v-8.9H244.6z"/>
					</g>
					<g>
						<path id="ArialMT-56_00000182491041488666466380000009447842222835204769_" class="st23" d="M335.9,15.3l-29.1,75.1h10.8
							L337,35.8c1.6-4.4,2.9-8.5,4-12.3c1.2,4.1,2.5,8.2,4.1,12.3l20.3,54.6h10.2l-29.4-75.1H335.9z"/>
					</g>
				</g>
			</g>
		</g>
	</g>
</g>
<text transform="matrix(1 0 0 1 171.4518 46.1279)" class="st0 st28 st29">The Formula One 2022 Championship Standings (Up to Brazil)</text>
<text transform="matrix(6.123234e-17 -1 1 6.123234e-17 53.9912 396.1636)" class="st0 st28 st30">Championship Standings</text>
<text transform="matrix(1 0 0 1 408.9277 557.2764)" class="st0 st28 st30">Races</text>
</svg>
