<?xml version="1.0" encoding="utf-8"?>
<!-- Generator: Adobe Illustrator 27.2.0, SVG Export Plug-In . SVG Version: 6.00 Build 0)  -->
<svg version="1.1" id="Layer_1" xmlns="http://www.w3.org/2000/svg" xmlns:xlink="http://www.w3.org/1999/xlink" x="0px" y="0px"
	 viewBox="0 0 842.4 595.4" style="enable-background:new 0 0 842.4 595.4;" xml:space="preserve">
<style type="text/css">
	.st0{fill:#FFFFFF;}
	.st1{fill:#040416;}
	
		.st2{clip-path:url(#SVGID_00000089534837296373870790000011568362033301897135_);fill:none;stroke:#8C8C8C;stroke-width:1.5;stroke-linecap:round;stroke-linejoin:round;}
	
		.st3{clip-path:url(#SVGID_00000076591460606318805620000008977316391275916678_);fill:none;stroke:#00FF00;stroke-width:2;stroke-linecap:round;stroke-linejoin:round;}
	
		.st4{clip-path:url(#SVGID_00000039831230636871283630000004170302823467047095_);fill:none;stroke:#9F00C6;stroke-width:3;stroke-miterlimit:10;}
	
		.st5{clip-path:url(#SVGID_00000114780953451046603500000007662930498643442598_);fill:none;stroke:#E23333;stroke-width:3;stroke-linecap:round;stroke-linejoin:round;}
	
		.st6{clip-path:url(#SVGID_00000085966415021367117380000006399513159837855906_);fill:none;stroke:#FFFFFF;stroke-width:3;stroke-miterlimit:10;}
	
		.st7{clip-path:url(#SVGID_00000151525040890334097840000016977664281520207020_);fill:none;stroke:#8C8C8C;stroke-width:1.5;stroke-linecap:round;stroke-linejoin:round;}
	
		.st8{clip-path:url(#SVGID_00000055673894382295917170000009601196557031029153_);fill:none;stroke:#8C8C8C;stroke-width:1.5;stroke-linecap:round;stroke-linejoin:round;}
	
		.st9{clip-path:url(#SVGID_00000143583618633961694000000001455359583957542060_);fill:none;stroke:#8C8C8C;stroke-width:1.5;stroke-linecap:round;stroke-linejoin:round;}
	
		.st10{clip-path:url(#SVGID_00000124138707958647795960000001588992663115790727_);fill:none;stroke:#8C8C8C;stroke-width:1.5;stroke-linecap:round;stroke-linejoin:round;}
	
		.st11{clip-path:url(#SVGID_00000078043893396870393290000017810747836793751704_);fill:none;stroke:#8C8C8C;stroke-width:1.5;stroke-linecap:round;stroke-linejoin:round;}
	
		.st12{clip-path:url(#SVGID_00000178887851154620455500000000145197483807989661_);fill:none;stroke:#8C8C8C;stroke-width:1.5;stroke-linecap:round;stroke-linejoin:round;}
	
		.st13{clip-path:url(#SVGID_00000078007878712278064340000004533277115326069906_);fill:none;stroke:#8C8C8C;stroke-width:1.5;stroke-linecap:round;stroke-linejoin:round;}
	
		.st14{clip-path:url(#SVGID_00000158004635397658761370000015834260696248906395_);fill:none;stroke:#8C8C8C;stroke-width:1.5;stroke-linecap:round;stroke-linejoin:round;}
	
		.st15{clip-path:url(#SVGID_00000154427972703199994000000015651734729379113636_);fill:none;stroke:#8C8C8C;stroke-width:1.5;stroke-linecap:round;stroke-linejoin:round;}
	
		.st16{clip-path:url(#SVGID_00000039118002690637689720000004487116309023398064_);fill:none;stroke:#8C8C8C;stroke-width:1.5;stroke-linecap:round;stroke-linejoin:round;}
	
		.st17{clip-path:url(#SVGID_00000142153508423728974040000002235214103196296327_);fill:none;stroke:#8C8C8C;stroke-width:1.5;stroke-linecap:round;stroke-linejoin:round;}
	
		.st18{clip-path:url(#SVGID_00000057849760888375910150000008441212230452149397_);fill:none;stroke:#8C8C8C;stroke-width:1.5;stroke-linecap:round;stroke-linejoin:round;}
	
		.st19{clip-path:url(#SVGID_00000127025724454446032960000003014456165436664192_);fill:none;stroke:#00FFFF;stroke-width:3;stroke-linecap:round;stroke-linejoin:round;}
	
		.st20{clip-path:url(#SVGID_00000001625547410729303780000018063473021782467212_);fill:none;stroke:#8C8C8C;stroke-width:1.5;stroke-linecap:round;stroke-linejoin:round;}
	
		.st21{clip-path:url(#SVGID_00000164514356465818233900000009862185762799297686_);fill:none;stroke:#8C8C8C;stroke-width:1.5;stroke-linecap:round;stroke-linejoin:round;}
	
		.st22{clip-path:url(#SVGID_00000004532201754762838120000017048734909033532562_);fill:none;stroke:#8C8C8C;stroke-width:1.5;stroke-linecap:round;stroke-linejoin:round;}
	.st23{fill:#8C8C8C;}
	.st24{fill:#00FF00;}
	.st25{fill:#9F00C6;stroke:#9F00C6;stroke-width:0.12;stroke-miterlimit:1.2;}
	.st26{fill:#E23333;stroke:#E23333;stroke-width:0.12;stroke-miterlimit:1.2;}
	.st27{fill:#FFFFFF;stroke:#FFFFFF;stroke-width:0.12;stroke-miterlimit:1.2;}
	.st28{fill:#00FFFF;stroke:#00FFFF;stroke-width:0.12;stroke-miterlimit:1.2;}
	.st29{font-family:'TitilliumWeb-Bold';}
	.st30{font-size:19.1585px;}
	.st31{font-size:15.4658px;}
	.st32{fill:none;}
	.st33{font-size:14px;}
</style>
<g id="figure_1">
	<g id="patch_1">
		<path class="st0" d="M-0.7,595.4h842.4V-7H-0.7V595.4z"/>
	</g>
	<g id="axes_1">
		<g id="patch_2">
			<path class="st1" d="M-0.7,595.4h842.4V-7H-0.7V595.4z"/>
		</g>
		<g id="PolyCollection_1">
		</g>
		<g id="PolyCollection_2">
		</g>
		<g id="PolyCollection_3">
		</g>
		<g id="PolyCollection_4">
		</g>
		<g id="PolyCollection_5">
		</g>
		<g id="PolyCollection_6">
		</g>
		<g id="PolyCollection_7">
		</g>
		<g id="PolyCollection_8">
		</g>
		<g id="PolyCollection_9">
		</g>
		<g id="PolyCollection_10">
		</g>
		<g id="PolyCollection_11">
		</g>
		<g id="PolyCollection_12">
		</g>
		<g id="PolyCollection_13">
		</g>
		<g id="PolyCollection_14">
		</g>
		<g id="PolyCollection_15">
		</g>
		<g id="PolyCollection_16">
		</g>
		<g id="PolyCollection_17">
		</g>
		<g id="PolyCollection_18">
		</g>
		<g id="PolyCollection_19">
		</g>
		<g id="PolyCollection_20">
		</g>
		<g id="PolyCollection_21">
		</g>
		<g>
			<g id="matplotlib.axis_1">
				<g id="xtick_1">
					<g id="text_1">
						<g transform="translate(131.916939 547.315194) scale(0.11 -0.11)">
							<g>
								<path id="ArialMT-31" class="st0" d="M-61.9,114.9h-9.2v59.5c-2.2-2.1-5.1-4.2-8.7-6.4s-6.8-3.7-9.7-4.9v9
									c5.2,2.4,9.7,5.5,13.5,8.9c3.9,3.5,6.6,6.9,8.2,10.2h5.9C-61.9,191.3-61.9,114.9-61.9,114.9z"/>
							</g>
						</g>
					</g>
				</g>
				<g id="xtick_2">
					<g id="text_2">
						<g transform="translate(160.179277 547.315194) scale(0.11 -0.11)">
							<g>
								<path id="ArialMT-32" class="st0" d="M-35.4,123.9v-9h-49.7c-0.1,2.2,0.3,4.5,1.1,6.5c1.3,3.4,3.3,6.8,6.1,10.1
									c2.8,3.3,6.8,7.2,12.1,11.5c8.2,6.8,13.7,12.1,16.5,16.1c2.9,3.9,4.3,7.7,4.3,11.2c0,3.7-1.3,6.8-3.9,9.3
									c-2.6,2.5-6,3.8-10.2,3.8c-4.4,0-8-1.3-10.7-4c-2.7-2.7-4-6.4-4.1-11.2l-9.5,1c0.6,7.2,3.1,12.6,7.3,16.4
									c4.2,3.7,9.9,5.7,17.1,5.7s12.9-2,17.1-6.1s6.3-9,6.3-15.1c0-3-0.6-6.1-1.9-9c-1.2-2.9-3.3-6.1-6.1-9.3
									c-2.9-3.2-7.6-7.7-14.2-13.4c-5.5-4.7-9.1-7.9-10.7-9.6c-1.6-1.7-2.9-3.3-3.9-5.1h37V123.9z"/>
							</g>
						</g>
					</g>
				</g>
				<g id="xtick_3">
					<g id="text_3">
						<g transform="translate(188.441614 547.315194) scale(0.11 -0.11)">
							<g>
								<path id="ArialMT-33" class="st0" d="M-71.1,135l9.2,1.2c1.1-5.3,2.9-9.1,5.4-11.4s5.6-3.5,9.3-3.5c4.3,0,8,1.5,11,4.6
									c3,3,4.5,6.8,4.5,11.3c0,4.2-1.4,7.8-4.1,10.6c-2.8,2.8-6.3,4.1-10.6,4.1c-1.7,0-3.9-0.3-6.5-1l1,8.2
									c0.6-0.1,1.1-0.1,1.5-0.1c3.9,0,7.5,1,10.6,3.1c3.1,2.1,4.7,5.3,4.7,9.6c0,3.4-1.1,6.3-3.4,8.5c-2.3,2.2-5.2,3.3-8.9,3.3
									c-3.6,0-6.6-1.1-9-3.4c-2.4-2.3-3.9-5.7-4.6-10.2l-9.2,1.6c1.1,6.3,3.7,11.1,7.7,14.6c4,3.4,9,5.2,14.9,5.2
									c4.1,0,7.9-0.9,11.3-2.6c3.5-1.8,6.1-4.2,7.9-7.3c1.8-3,2.8-6.4,2.8-9.8c0-3.2-0.9-6.3-2.6-9c-1.7-2.7-4.3-4.9-7.7-6.5
									c4.4-1,7.9-3.1,10.3-6.5c2.5-3.2,3.7-7.4,3.7-12.2c0-6.7-2.4-12.2-7.2-16.9c-4.8-4.7-10.8-6.9-18.1-6.9
									c-6.6,0-12.1,2-16.4,6C-68,123.5-70.5,128.7-71.1,135z"/>
							</g>
						</g>
					</g>
				</g>
				<g id="xtick_4">
					<g id="text_4">
						<g transform="translate(216.703952 547.315194) scale(0.11 -0.11)">
							<g>
								<path id="ArialMT-34" class="st0" d="M-28.9,114.9v18.2h-32.6v8.6l34.3,49.3h7.5v-49.3h10.2v-8.6h-10.2v-18.2H-28.9z
									 M-28.9,141.7V176l-23.5-34.3H-28.9z"/>
							</g>
						</g>
					</g>
				</g>
				<g id="xtick_5">
					<g id="text_5">
						<g transform="translate(244.96629 547.315194) scale(0.11 -0.11)">
							<g>
								<path id="ArialMT-35" class="st0" d="M-45.7,134.8l9.7,0.8c0.7-4.8,2.4-8.4,5-10.7c2.6-2.4,5.8-3.6,9.5-3.6
									c4.4,0,8.2,1.7,11.3,5.1c3.1,3.4,4.6,7.9,4.6,13.5c0,5.4-1.5,9.5-4.4,12.5c-3,3.1-6.8,4.7-11.6,4.7c-3,0-5.7-0.7-8.1-2
									s-4.3-3.1-5.6-5.3l-8.7,1.1l7.3,39.1H0.6V181h-30l-4-20.4c4.5,3.1,9.2,4.8,14.2,4.8c6.6,0,12.1-2.3,16.6-6.9
									s6.7-10.5,6.7-17.7c0-6.9-2-12.8-5.9-17.8c-4.8-6.2-11.4-9.2-19.7-9.2c-6.8,0-12.4,1.9-16.7,5.8
									C-42.6,123.3-45.1,128.5-45.7,134.8z"/>
							</g>
						</g>
					</g>
				</g>
				<g id="xtick_6">
					<g id="text_6">
						<g transform="translate(273.228627 547.315194) scale(0.11 -0.11)">
							<g>
								<path id="ArialMT-36" class="st0" d="M14.9,172.4l-9.2-0.7c-0.8,3.6-2,6.3-3.5,8c-2.5,2.6-5.6,4-9.2,4
									c-2.9,0-5.5-0.8-7.7-2.5c-2.9-2.1-5.2-5.3-6.9-9.4c-1.7-4.1-2.5-10-2.6-17.6c2.2,3.4,4.9,6,8.2,7.6
									c3.3,1.6,6.6,2.5,10.1,2.5c6.1,0,11.4-2.3,15.7-6.9s6.5-10.5,6.5-17.7c0-4.8-1-9.2-3.1-13.4s-4.8-7.2-8.4-9.4
									s-7.6-3.2-12.1-3.2c-7.7,0-14,2.8-18.8,8.6c-4.8,5.8-7.3,15.2-7.3,28.3c0,14.7,2.7,25.4,8,32.1c4.7,5.8,11,8.7,18.9,8.7
									c5.9,0,10.8-1.7,14.5-5.1C11.9,182.9,14.2,178.2,14.9,172.4z M-22.8,139.6c0-3.2,0.7-6.3,2-9.2c1.3-2.9,3.2-5.2,5.7-6.7
									c2.4-1.5,5-2.3,7.6-2.3c3.9,0,7.2,1.6,10,4.8s4.2,7.5,4.2,13c0,5.3-1.4,9.4-4.2,12.4c-2.8,3-6.2,4.6-10.4,4.6
									s-7.7-1.5-10.6-4.6C-21.3,148.4-22.8,144.4-22.8,139.6z"/>
							</g>
						</g>
					</g>
				</g>
				<g id="xtick_7">
					<g id="text_7">
						<g transform="translate(301.490965 547.315194) scale(0.11 -0.11)">
							<g>
								<path id="ArialMT-37" class="st0" d="M-19.6,181v9H29v-7.3c-4.8-5.2-9.5-11.9-14.2-20.5c-4.7-8.5-8.3-17.3-10.9-26.3
									c-1.8-6.4-3-13.4-3.5-20.8h-9.5c0.1,6,1.3,13.3,3.5,21.7c2.2,8.5,5.4,16.6,9.6,24.5s8.6,14.5,13.3,19.8H-19.6z"/>
							</g>
						</g>
					</g>
				</g>
				<g id="xtick_8">
					<g id="text_8">
						<g transform="translate(329.753303 547.315194) scale(0.11 -0.11)">
							<g>
								<path id="ArialMT-38" class="st0" d="M6.7,156.2c-3.8,1.4-6.7,3.4-8.5,6.1s-2.8,5.8-2.8,9.4c0,5.6,2,10.2,5.9,14
									s9.2,5.7,15.7,5.7c6.6,0,11.8-1.9,15.8-5.8s6-8.5,6-14.1c0-3.5-0.9-6.6-2.8-9.2c-1.8-2.6-4.6-4.7-8.3-6.1
									c4.6-1.5,8.1-3.9,10.5-7.4c2.4-3.3,3.6-7.4,3.6-12.1c0-6.5-2.3-11.9-6.8-16.4c-4.5-4.5-10.5-6.7-17.9-6.7
									s-13.4,2.2-17.9,6.7s-6.8,10-6.8,16.6c0,5,1.2,9.1,3.7,12.4C-1.4,152.6,2.1,155,6.7,156.2z M4.9,172c0-3.6,1.1-6.6,3.4-8.8
									c2.3-2.3,5.3-3.4,8.9-3.4s6.5,1.1,8.7,3.3c2.3,2.2,3.4,5.1,3.4,8.3c0,3.4-1.2,6.3-3.5,8.6c-2.3,2.3-5.2,3.5-8.7,3.5
									s-6.4-1.1-8.8-3.4C6,177.8,4.9,175.2,4.9,172z M1.9,136.9c0-2.6,0.6-5.3,1.9-7.7c1.2-2.5,3.1-4.5,5.6-5.8
									c2.5-1.3,5.1-2,7.9-2c4.4,0,8,1.4,10.9,4.2c2.9,2.8,4.3,6.6,4.3,10.9c0,4.5-1.5,8.2-4.4,11.1c-2.9,2.9-6.7,4.5-11.1,4.5
									c-4.3,0-7.9-1.4-10.8-4.4C3.3,144.8,1.9,141.2,1.9,136.9z"/>
							</g>
						</g>
					</g>
				</g>
				<g id="xtick_9">
					<g id="text_9">
						<g transform="translate(358.01564 547.315194) scale(0.11 -0.11)">
							<g>
								<path id="ArialMT-39" class="st0" d="M6.6,132.5l8.9,0.8c0.7-4.2,2.2-7.3,4.3-9.2s4.8-2.8,8.2-2.8c2.8,0,5.3,0.7,7.4,2
									c2.1,1.3,3.9,3,5.3,5.3c1.4,2.2,2.5,5.2,3.4,8.9c0.9,3.7,1.4,7.6,1.4,11.4c0,0.4,0,1,0,1.8c-1.8-2.9-4.4-5.4-7.6-7.3
									c-3.2-1.8-6.7-2.7-10.4-2.7c-6.2,0-11.5,2.3-15.8,6.9s-6.4,10.6-6.4,18c0,7.7,2.2,14,6.7,18.6c4.5,4.7,10.1,7.1,16.9,7.1
									c4.9,0,9.4-1.3,13.4-4c4.1-2.6,7.1-6.5,9.2-11.4c2.1-5,3.1-12,3.1-21.3c0-9.7-1-17.4-3.1-23.2c-2.1-5.8-5.2-10.1-9.3-13.2
									c-4.1-3-8.9-4.6-14.5-4.6c-5.9,0-10.7,1.6-14.4,5C9.6,121.9,7.4,126.5,6.6,132.5z M44.4,166.1c0,5.4-1.4,9.6-4.2,12.7
									c-2.8,3.1-6.2,4.8-10.2,4.8c-4.1,0-7.7-1.7-10.7-5.1s-4.6-7.8-4.6-13.2c0-4.9,1.4-8.8,4.3-11.8c2.9-3,6.4-4.6,10.7-4.6
									s7.8,1.5,10.5,4.6C43,156.5,44.4,160.7,44.4,166.1z"/>
							</g>
						</g>
					</g>
				</g>
				<g id="xtick_10">
					<g id="text_10">
						<g transform="translate(383.219462 547.315194) scale(0.11 -0.11)">
							<g>
								<path id="ArialMT-31_00000012451355373302062150000016783685768437392031_" class="st0" d="M51.4,114.9h-9.3v59.5
									c-2.2-2.1-5.1-4.2-8.7-6.4s-6.8-3.7-9.7-4.9v9c5.2,2.4,9.7,5.5,13.5,8.9c3.9,3.5,6.6,6.9,8.2,10.2h5.9L51.4,114.9
									L51.4,114.9z"/>
							</g>
							<g>
								<path id="ArialMT-30" class="st0" d="M75,152.4c0,9,0.9,16.2,2.7,21.8c1.8,5.5,4.5,9.7,8.1,12.6c3.6,2.9,8.1,4.5,13.6,4.5
									c4,0,7.6-0.8,10.6-2.4s5.5-4,7.5-7.1c2-3.1,3.5-6.9,4.7-11.3c1.1-4.5,1.7-10.4,1.7-18c0-8.9-0.9-16.1-2.7-21.5
									c-1.8-5.5-4.5-9.7-8.1-12.7c-3.6-3-8.2-4.5-13.7-4.5c-7.2,0-12.9,2.6-17.1,7.9C77.5,127.8,75,138.2,75,152.4z M84.5,152.4
									c0-12.4,1.4-20.7,4.3-24.9c2.9-4.1,6.4-6.2,10.7-6.2c4.2,0,7.8,2,10.7,6.2c2.9,4.1,4.3,12.4,4.3,24.9
									c0,12.5-1.4,20.8-4.3,24.9c-2.9,4.1-6.5,6.2-10.8,6.2c-4.2,0-7.6-1.8-10.2-5.5C86.1,173.5,84.5,164.9,84.5,152.4z"/>
							</g>
						</g>
					</g>
				</g>
				<g id="xtick_11">
					<g id="text_11">
						<g transform="translate(411.887425 547.315194) scale(0.11 -0.11)">
							<g>
								<path id="ArialMT-31_00000018939711728799739720000012568239734069567897_" class="st0" d="M64.3,114.9h-9.2v59.5
									c-2.2-2.1-5.1-4.2-8.7-6.4c-3.6-2.1-6.8-3.7-9.7-4.9v9c5.2,2.4,9.7,5.5,13.5,8.9c3.9,3.5,6.6,6.9,8.2,10.2h5.9V114.9z"/>
							</g>
							<g>
								<path id="ArialMT-31_00000158027398251095037590000000424440502004397187_" class="st0" d="M114.9,114.9h-9.2v59.5
									c-2.2-2.1-5.1-4.2-8.7-6.4s-6.8-3.7-9.7-4.9v9c5.2,2.4,9.7,5.5,13.5,8.9c3.9,3.5,6.6,6.9,8.2,10.2h5.9
									C114.9,191.3,114.9,114.9,114.9,114.9z"/>
							</g>
						</g>
					</g>
				</g>
				<g id="xtick_12">
					<g id="text_12">
						<g transform="translate(439.744138 547.315194) scale(0.11 -0.11)">
							<g>
								<path id="ArialMT-31_00000012434294997536080970000001298310882673025953_" class="st0" d="M76.8,114.9h-9.2v59.5
									c-2.2-2.1-5.1-4.2-8.7-6.4s-6.8-3.7-9.7-4.9v9c5.2,2.4,9.7,5.5,13.5,8.9c3.9,3.5,6.6,6.9,8.2,10.2h5.9
									C76.8,191.3,76.8,114.9,76.8,114.9z"/>
							</g>
							<g>
								<path id="ArialMT-32_00000108990807626815439780000006417151347155721651_" class="st0" d="M149,123.9v-9H99.3
									c-0.1,2.2,0.3,4.5,1.1,6.5c1.3,3.4,3.3,6.8,6.1,10.1c2.8,3.3,6.8,7.2,12.1,11.5c8.2,6.8,13.7,12.1,16.5,16.1
									c2.9,3.9,4.3,7.7,4.3,11.2c0,3.7-1.3,6.8-3.9,9.3c-2.6,2.5-6,3.8-10.2,3.8c-4.4,0-8-1.3-10.7-4c-2.7-2.7-4-6.4-4.1-11.2
									l-9.5,1c0.6,7.2,3.1,12.6,7.3,16.4c4.2,3.7,9.9,5.7,17.1,5.7s12.9-2,17.1-6.1c4.2-4,6.3-9,6.3-15.1c0-3-0.6-6.1-1.9-9
									c-1.2-2.9-3.3-6.1-6.1-9.3c-2.9-3.2-7.6-7.7-14.2-13.4c-5.5-4.7-9.1-7.9-10.7-9.6c-1.6-1.7-2.9-3.3-3.9-5.1h37V123.9z"/>
							</g>
						</g>
					</g>
				</g>
				<g id="xtick_13">
					<g id="text_13">
						<g transform="translate(468.006475 547.315194) scale(0.11 -0.11)">
							<g>
								<path id="ArialMT-31_00000148659985663385171580000016187530921459098804_" class="st0" d="M89.6,114.9h-9.2v59.5
									c-2.2-2.1-5.1-4.2-8.7-6.4s-6.8-3.7-9.7-4.9v9c5.2,2.4,9.7,5.5,13.5,8.9c3.9,3.5,6.6,6.9,8.2,10.2h5.9
									C89.6,191.3,89.6,114.9,89.6,114.9z"/>
							</g>
							<g>
								<path id="ArialMT-33_00000125563911507810151860000003832254082198159805_" class="st0" d="M113.3,135l9.2,1.2
									c1.1-5.3,2.9-9.1,5.4-11.4c2.5-2.3,5.6-3.5,9.3-3.5c4.3,0,8,1.5,11,4.6c3,3,4.5,6.8,4.5,11.3c0,4.2-1.4,7.8-4.1,10.6
									c-2.8,2.8-6.3,4.1-10.6,4.1c-1.7,0-3.9-0.3-6.5-1l1,8.2c0.6-0.1,1.1-0.1,1.5-0.1c3.9,0,7.5,1,10.6,3.1s4.7,5.3,4.7,9.6
									c0,3.4-1.1,6.3-3.4,8.5c-2.3,2.2-5.2,3.3-8.9,3.3c-3.6,0-6.6-1.1-9-3.4c-2.4-2.3-3.9-5.7-4.6-10.2l-9.2,1.6
									c1.1,6.3,3.7,11.1,7.7,14.6c4,3.4,9,5.2,14.9,5.2c4.1,0,7.9-0.9,11.3-2.6c3.5-1.8,6.1-4.2,7.9-7.3c1.8-3,2.8-6.4,2.8-9.8
									c0-3.2-0.9-6.3-2.6-9c-1.7-2.7-4.3-4.9-7.7-6.5c4.4-1,7.9-3.1,10.3-6.5c2.5-3.2,3.7-7.4,3.7-12.2c0-6.7-2.4-12.2-7.2-16.9
									c-4.8-4.7-10.8-6.9-18.1-6.9c-6.6,0-12.1,2-16.4,6C116.4,123.5,113.9,128.7,113.3,135z"/>
							</g>
						</g>
					</g>
				</g>
				<g id="xtick_14">
					<g id="text_14">
						<g transform="translate(496.268813 547.315194) scale(0.11 -0.11)">
							<g>
								<path id="ArialMT-31_00000176012257145851266560000002135090019068147106_" class="st0" d="M102.3,114.9h-9.2v59.5
									c-2.2-2.1-5.1-4.2-8.7-6.4s-6.8-3.7-9.7-4.9v9c5.2,2.4,9.7,5.5,13.5,8.9c3.9,3.5,6.6,6.9,8.2,10.2h5.9
									C102.3,191.3,102.3,114.9,102.3,114.9z"/>
							</g>
							<g>
								<path id="ArialMT-34_00000047046413737331661160000014515055238627874494_" class="st0" d="M155.5,114.9v18.2h-32.6v8.6
									l34.3,49.3h7.5v-49.3h10.2v-8.6h-10.2v-18.2H155.5z M155.5,141.7V176L132,141.7H155.5z"/>
							</g>
						</g>
					</g>
				</g>
				<g id="xtick_15">
					<g id="text_15">
						<g transform="translate(524.531151 547.315194) scale(0.11 -0.11)">
							<g>
								<path id="ArialMT-31_00000150103494825702149030000016205016265427726484_" class="st0" d="M115.1,114.9h-9.2v59.5
									c-2.2-2.1-5.1-4.2-8.7-6.4s-6.8-3.7-9.7-4.9v9c5.2,2.4,9.7,5.5,13.5,8.9c3.9,3.5,6.6,6.9,8.2,10.2h5.9
									C115.1,191.3,115.1,114.9,115.1,114.9z"/>
							</g>
							<g>
								<path id="ArialMT-35_00000111162240852227634770000008484620626126482877_" class="st0" d="M138.7,134.8l9.7,0.8
									c0.7-4.8,2.4-8.4,5-10.7c2.6-2.4,5.8-3.6,9.5-3.6c4.4,0,8.2,1.7,11.3,5.1c3.1,3.4,4.6,7.9,4.6,13.5c0,5.4-1.5,9.5-4.4,12.5
									c-3,3.1-6.8,4.7-11.6,4.7c-3,0-5.7-0.7-8.1-2c-2.4-1.3-4.3-3.1-5.6-5.3l-8.7,1.1l7.3,39.1h37.4V181h-30l-4-20.4
									c4.5,3.1,9.2,4.8,14.2,4.8c6.6,0,12.1-2.3,16.6-6.9s6.8-10.5,6.8-17.7c0-6.9-2-12.8-5.9-17.8c-4.8-6.2-11.4-9.2-19.7-9.2
									c-6.8,0-12.4,1.9-16.7,5.8C141.8,123.3,139.3,128.5,138.7,134.8z"/>
							</g>
						</g>
					</g>
				</g>
				<g id="xtick_16">
					<g id="text_16">
						<g transform="translate(552.793488 547.315194) scale(0.11 -0.11)">
							<g>
								<path id="ArialMT-31_00000136376229488233971350000004737783173365201556_" class="st0" d="M127.8,114.9h-9.2v59.5
									c-2.2-2.1-5.1-4.2-8.7-6.4s-6.8-3.7-9.7-4.9v9c5.2,2.4,9.7,5.5,13.5,8.9c3.9,3.5,6.6,6.9,8.2,10.2h5.9V114.9z"/>
							</g>
							<g>
								<path id="ArialMT-36_00000167370575537097625780000000105035603391580077_" class="st0" d="M199.3,172.4l-9.2-0.7
									c-0.8,3.6-2,6.3-3.5,8c-2.5,2.6-5.6,4-9.2,4c-2.9,0-5.5-0.8-7.7-2.5c-2.9-2.1-5.2-5.3-6.9-9.4c-1.7-4.1-2.5-10-2.6-17.6
									c2.2,3.4,4.9,6,8.2,7.6c3.3,1.6,6.6,2.5,10.1,2.5c6.1,0,11.4-2.3,15.7-6.9s6.5-10.5,6.5-17.7c0-4.8-1-9.2-3.1-13.4
									c-2-4-4.8-7.2-8.4-9.4c-3.6-2.2-7.6-3.2-12.1-3.2c-7.7,0-14,2.8-18.8,8.6c-4.8,5.8-7.3,15.2-7.3,28.3
									c0,14.7,2.7,25.4,8,32.1c4.7,5.8,11,8.7,18.9,8.7c5.9,0,10.8-1.7,14.5-5.1C196.3,182.9,198.6,178.2,199.3,172.4z
									 M161.6,139.6c0-3.2,0.7-6.3,2-9.2c1.3-2.9,3.2-5.2,5.7-6.7c2.4-1.5,5-2.3,7.6-2.3c3.9,0,7.2,1.6,10,4.8s4.2,7.5,4.2,13
									c0,5.3-1.4,9.4-4.2,12.4c-2.8,3-6.2,4.6-10.4,4.6s-7.7-1.5-10.6-4.6C163.1,148.4,161.6,144.4,161.6,139.6z"/>
							</g>
						</g>
					</g>
				</g>
				<g id="xtick_17">
					<g id="text_17">
						<g transform="translate(581.055826 547.315194) scale(0.11 -0.11)">
							<g>
								<path id="ArialMT-31_00000044891816691476656160000011255523296393365131_" class="st0" d="M140.5,114.9h-9.2v59.5
									c-2.2-2.1-5.1-4.2-8.7-6.4c-3.6-2.1-6.8-3.7-9.7-4.9v9c5.2,2.4,9.7,5.5,13.5,8.9c3.9,3.5,6.6,6.9,8.2,10.2h5.9V114.9z"/>
							</g>
							<g>
								<path id="ArialMT-37_00000026146494401306613670000013464310248871640243_" class="st0" d="M164.8,181v9h48.6v-7.3
									c-4.8-5.2-9.5-11.9-14.2-20.5c-4.7-8.5-8.3-17.3-10.9-26.3c-1.8-6.4-3-13.4-3.5-20.8h-9.5c0.1,6,1.3,13.3,3.5,21.7
									c2.2,8.5,5.4,16.6,9.6,24.5c4.2,7.9,8.6,14.5,13.3,19.8H164.8z"/>
							</g>
						</g>
					</g>
				</g>
				<g id="xtick_18">
					<g id="text_18">
						<g transform="translate(609.318164 547.315194) scale(0.11 -0.11)">
							<g>
								<path id="ArialMT-31_00000176742716337966332000000006969525362325796269_" class="st0" d="M153.3,114.9h-9.2v59.5
									c-2.2-2.1-5.1-4.2-8.7-6.4c-3.6-2.1-6.8-3.7-9.7-4.9v9c5.2,2.4,9.7,5.5,13.5,8.9c3.9,3.5,6.6,6.9,8.2,10.2h5.9V114.9z"/>
							</g>
							<g>
								<path id="ArialMT-38_00000163783937962959309240000005407691018232469400_" class="st0" d="M191.1,156.2
									c-3.8,1.4-6.7,3.4-8.5,6.1s-2.8,5.8-2.8,9.4c0,5.6,2,10.2,5.9,14s9.2,5.7,15.7,5.7c6.6,0,11.8-1.9,15.8-5.8s6-8.5,6-14.1
									c0-3.5-0.9-6.6-2.8-9.2c-1.8-2.6-4.6-4.7-8.3-6.1c4.6-1.5,8.1-3.9,10.5-7.4c2.4-3.3,3.6-7.4,3.6-12.1
									c0-6.5-2.3-11.9-6.8-16.4c-4.5-4.5-10.5-6.7-17.9-6.7s-13.4,2.2-17.9,6.7s-6.8,10-6.8,16.6c0,5,1.2,9.1,3.7,12.4
									C183,152.6,186.5,155,191.1,156.2z M189.3,172c0-3.6,1.1-6.6,3.4-8.8c2.3-2.3,5.3-3.4,8.9-3.4c3.6,0,6.5,1.1,8.7,3.3
									c2.3,2.2,3.4,5.1,3.4,8.3c0,3.4-1.2,6.3-3.5,8.6c-2.3,2.3-5.2,3.5-8.7,3.5s-6.4-1.1-8.8-3.4
									C190.4,177.8,189.3,175.2,189.3,172z M186.3,136.9c0-2.6,0.6-5.3,1.9-7.7c1.2-2.5,3.1-4.5,5.6-5.8c2.5-1.3,5.1-2,7.9-2
									c4.4,0,8,1.4,10.9,4.2c2.9,2.8,4.3,6.6,4.3,10.9c0,4.5-1.5,8.2-4.4,11.1c-2.9,2.9-6.7,4.5-11.1,4.5c-4.3,0-7.9-1.4-10.8-4.4
									C187.7,144.8,186.3,141.2,186.3,136.9z"/>
							</g>
						</g>
					</g>
				</g>
				<g id="xtick_19">
					<g id="text_19">
						<g transform="translate(637.580501 547.315194) scale(0.11 -0.11)">
							<g>
								<path id="ArialMT-31_00000031186942924091186870000009018532752551019422_" class="st0" d="M166,114.9h-9.2v59.5
									c-2.2-2.1-5.1-4.2-8.7-6.4c-3.6-2.1-6.8-3.7-9.7-4.9v9c5.2,2.4,9.7,5.5,13.5,8.9c3.9,3.5,6.6,6.9,8.2,10.2h5.9V114.9z"/>
							</g>
							<g>
								<path id="ArialMT-39_00000025429219724161913710000002197878328556864661_" class="st0" d="M191,132.5l8.9,0.8
									c0.7-4.2,2.2-7.3,4.3-9.2s4.8-2.8,8.2-2.8c2.8,0,5.3,0.7,7.4,2c2.1,1.3,3.9,3,5.3,5.3c1.4,2.2,2.5,5.2,3.4,8.9
									c0.9,3.7,1.4,7.6,1.4,11.4c0,0.4,0,1,0,1.8c-1.8-2.9-4.4-5.4-7.6-7.3c-3.2-1.8-6.7-2.7-10.4-2.7c-6.2,0-11.5,2.3-15.8,6.9
									s-6.4,10.6-6.4,18c0,7.7,2.2,14,6.7,18.6c4.5,4.7,10.1,7.1,16.9,7.1c4.9,0,9.4-1.3,13.4-4c4.1-2.6,7.1-6.5,9.2-11.4
									c2.1-5,3.1-12,3.1-21.3c0-9.7-1-17.4-3.1-23.2c-2.1-5.8-5.2-10.1-9.3-13.2c-4.1-3-8.9-4.6-14.5-4.6c-5.9,0-10.7,1.6-14.4,5
									C194,121.9,191.8,126.5,191,132.5z M228.8,166.1c0,5.4-1.4,9.6-4.2,12.7c-2.8,3.1-6.2,4.8-10.2,4.8c-4.1,0-7.7-1.7-10.7-5.1
									s-4.6-7.8-4.6-13.2c0-4.9,1.4-8.8,4.3-11.8c2.9-3,6.4-4.6,10.7-4.6s7.8,1.5,10.5,4.6C227.4,156.5,228.8,160.7,228.8,166.1z"
									/>
							</g>
						</g>
					</g>
				</g>
				<g id="xtick_20">
					<g id="text_20">
						<g transform="translate(665.842839 547.315194) scale(0.11 -0.11)">
							<g>
								<path id="ArialMT-32_00000167379646502359894900000016088105114043537837_" class="st0" d="M192.5,123.9v-9h-49.7
									c-0.1,2.2,0.3,4.5,1.1,6.5c1.3,3.4,3.3,6.8,6.1,10.1c2.8,3.3,6.8,7.2,12.1,11.5c8.2,6.8,13.7,12.1,16.5,16.1
									c2.9,3.9,4.3,7.7,4.3,11.2c0,3.7-1.3,6.8-3.9,9.3c-2.6,2.5-6,3.8-10.2,3.8c-4.4,0-8-1.3-10.7-4c-2.7-2.7-4-6.4-4.1-11.2
									l-9.5,1c0.6,7.2,3.1,12.6,7.3,16.4s9.9,5.7,17.1,5.7c7.2,0,12.9-2,17.1-6.1c4.2-4,6.3-9,6.3-15.1c0-3-0.6-6.1-1.9-9
									c-1.2-2.9-3.3-6.1-6.1-9.3c-2.9-3.2-7.6-7.7-14.2-13.4c-5.5-4.7-9.1-7.9-10.7-9.6c-1.6-1.7-2.9-3.3-3.9-5.1h37V123.9z"/>
							</g>
							<g>
								<path id="ArialMT-30_00000129163363329591396790000011361566759196279997_" class="st0" d="M202.4,152.4
									c0,9,0.9,16.2,2.7,21.8c1.8,5.5,4.5,9.7,8.1,12.6c3.6,2.9,8.1,4.5,13.6,4.5c4,0,7.6-0.8,10.6-2.4s5.5-4,7.5-7.1
									c2-3.1,3.5-6.9,4.7-11.3c1.1-4.5,1.7-10.4,1.7-18c0-8.9-0.9-16.1-2.7-21.5c-1.8-5.5-4.5-9.7-8.1-12.7
									c-3.6-3-8.2-4.5-13.7-4.5c-7.2,0-12.9,2.6-17.1,7.9C204.9,127.8,202.4,138.2,202.4,152.4z M211.9,152.4
									c0-12.4,1.4-20.7,4.3-24.9c2.9-4.1,6.4-6.2,10.7-6.2c4.2,0,7.8,2,10.7,6.2c2.9,4.1,4.3,12.4,4.3,24.9
									c0,12.5-1.4,20.8-4.3,24.9c-2.9,4.1-6.5,6.2-10.8,6.2c-4.2,0-7.6-1.8-10.2-5.5C213.5,173.5,211.9,164.9,211.9,152.4z"/>
							</g>
						</g>
					</g>
				</g>
				<g id="xtick_21">
					<g id="text_21">
						<g transform="translate(694.105177 547.315194) scale(0.11 -0.11)">
							<g>
								<path id="ArialMT-32_00000008859654376896951310000014350815266549210508_" class="st0" d="M205.3,123.9v-9h-49.7
									c-0.1,2.2,0.3,4.5,1.1,6.5c1.3,3.4,3.3,6.8,6.1,10.1c2.8,3.3,6.8,7.2,12.1,11.5c8.2,6.8,13.7,12.1,16.5,16.1
									c2.9,3.9,4.3,7.7,4.3,11.2c0,3.7-1.3,6.8-3.9,9.3c-2.6,2.5-6,3.8-10.2,3.8c-4.4,0-8-1.3-10.7-4c-2.7-2.7-4-6.4-4.1-11.2
									l-9.5,1c0.6,7.2,3.1,12.6,7.3,16.4s9.9,5.7,17.1,5.7c7.2,0,12.9-2,17.1-6.1c4.2-4,6.3-9,6.3-15.1c0-3-0.6-6.1-1.9-9
									c-1.2-2.9-3.3-6.1-6.1-9.3c-2.9-3.2-7.6-7.7-14.2-13.4c-5.5-4.7-9.1-7.9-10.7-9.6c-1.6-1.7-2.9-3.3-3.9-5.1h37V123.9z"/>
							</g>
							<g>
								<path id="ArialMT-31_00000026846652890290778640000009439426520613194663_" class="st0" d="M249.9,114.9h-9.2v59.5
									c-2.2-2.1-5.1-4.2-8.7-6.4c-3.6-2.1-6.8-3.7-9.7-4.9v9c5.2,2.4,9.7,5.5,13.5,8.9c3.9,3.5,6.6,6.9,8.2,10.2h5.9V114.9z"/>
							</g>
						</g>
					</g>
				</g>
			</g>
			<g id="matplotlib.axis_2">
				<g id="ytick_1">
					<g id="text_23">
						<g transform="translate(89.682969 96.229997) scale(0.11 -0.11)">
							<g>
								<path id="ArialMT-31_00000077320134266147506320000010257969074589972395_" class="st0" d="M33.5,258.4h-9.2v59.5
									c-2.2-2.1-5.1-4.2-8.7-6.4c-3.6-2.1-6.8-3.7-9.7-4.9v9c5.2,2.4,9.7,5.5,13.5,8.9c3.9,3.5,6.6,6.9,8.2,10.2h5.9V258.4z"/>
							</g>
						</g>
					</g>
				</g>
				<g id="ytick_2">
					<g id="text_24">
						<g transform="translate(89.682969 117.070397) scale(0.11 -0.11)">
							<g>
								<path id="ArialMT-32_00000065050586948359043060000009682423725122204544_" class="st0" d="M47.3,255.7v-9H-2.4
									c-0.1,2.2,0.3,4.5,1.1,6.5c1.3,3.4,3.3,6.8,6.1,10.1c2.8,3.3,6.8,7.2,12.1,11.5c8.2,6.8,13.7,12.1,16.5,16.1
									c2.9,3.9,4.3,7.7,4.3,11.2c0,3.7-1.3,6.8-3.9,9.3c-2.6,2.5-6,3.8-10.2,3.8c-4.4,0-8-1.3-10.7-4c-2.7-2.7-4-6.4-4.1-11.2
									l-9.5,1c0.6,7.2,3.1,12.6,7.3,16.4s9.9,5.7,17.1,5.7s12.9-2,17.1-6.1c4.2-4,6.3-9,6.3-15.1c0-3-0.6-6.1-1.9-9
									c-1.2-2.9-3.3-6.1-6.1-9.3c-2.9-3.2-7.6-7.7-14.2-13.4c-5.5-4.7-9.1-7.9-10.7-9.6c-1.6-1.7-2.9-3.3-3.9-5.1h37V255.7z"/>
							</g>
						</g>
					</g>
				</g>
				<g id="ytick_3">
					<g id="text_25">
						<g transform="translate(89.682969 137.910797) scale(0.11 -0.11)">
							<g>
								<path id="ArialMT-33_00000101797904357378751990000002601740387580393609_" class="st0" d="M-1.1,255l9.2,1.2
									c1.1-5.3,2.9-9.1,5.4-11.4s5.6-3.5,9.3-3.5c4.3,0,8,1.5,11,4.6c3,3,4.5,6.8,4.5,11.3c0,4.2-1.4,7.8-4.1,10.6
									c-2.8,2.8-6.3,4.1-10.6,4.1c-1.7,0-3.9-0.3-6.5-1l1,8.2c0.6-0.1,1.1-0.1,1.5-0.1c3.9,0,7.5,1,10.6,3.1
									c3.1,2.1,4.7,5.3,4.7,9.6c0,3.4-1.1,6.3-3.4,8.5c-2.3,2.2-5.2,3.3-8.9,3.3c-3.6,0-6.6-1.1-9-3.4s-3.9-5.7-4.6-10.2l-9.2,1.7
									c1.1,6.3,3.7,11.1,7.7,14.6c4,3.4,9,5.2,14.9,5.2c4.1,0,7.9-0.9,11.3-2.6c3.5-1.8,6.1-4.2,7.9-7.3c1.8-3,2.8-6.4,2.8-9.8
									c0-3.2-0.9-6.3-2.6-9c-1.7-2.7-4.3-4.9-7.7-6.5c4.4-1,7.9-3.1,10.3-6.5c2.5-3.2,3.7-7.4,3.7-12.2c0-6.7-2.4-12.2-7.2-16.9
									s-10.8-6.9-18.1-6.9c-6.6,0-12.1,2-16.4,6C1.9,243.5-0.5,248.7-1.1,255z"/>
							</g>
						</g>
					</g>
				</g>
				<g id="ytick_4">
					<g id="text_26">
						<g transform="translate(89.682969 158.751197) scale(0.11 -0.11)">
							<g>
								<path id="ArialMT-34_00000049183548674906214800000015780879517645828520_" class="st0" d="M28.4,223.2v18.2H-4.2v8.6
									l34.3,49.2h7.5v-49.3h10.2v-8.6H37.6v-18.2h-9.2V223.2z M28.4,250v34.3L4.9,250H28.4z"/>
							</g>
						</g>
					</g>
				</g>
				<g id="ytick_5">
					<g id="text_27">
						<g transform="translate(89.682969 179.591597) scale(0.11 -0.11)">
							<g>
								<path id="ArialMT-35_00000163777230674938459190000008681683098174572683_" class="st0" d="M-1.2,231.4l9.7,0.8
									c0.7-4.8,2.4-8.4,5-10.7c2.6-2.4,5.8-3.6,9.5-3.6c4.4,0,8.2,1.7,11.3,5.1c3.1,3.4,4.6,7.9,4.6,13.5c0,5.4-1.5,9.5-4.4,12.5
									c-3,3.1-6.8,4.7-11.6,4.7c-3,0-5.7-0.7-8.1-2s-4.3-3.1-5.6-5.3l-8.7,1.1l7.3,39.1h37.3v-8.9h-30l-4-20.4
									c4.5,3.1,9.2,4.8,14.2,4.8c6.6,0,12.1-2.3,16.6-6.9s6.8-10.5,6.8-17.7c0-6.9-2-12.8-5.9-17.8c-4.8-6.2-11.4-9.2-19.7-9.2
									c-6.8,0-12.4,1.9-16.7,5.8C1.9,219.9-0.6,225-1.2,231.4z"/>
							</g>
						</g>
					</g>
				</g>
				<g id="ytick_6">
					<g id="text_28">
						<g transform="translate(89.682969 200.431997) scale(0.11 -0.11)">
							<g>
								<path id="ArialMT-36_00000039819376139134760170000003134460036859249076_" class="st0" d="M46.7,257.1l-9.2-0.7
									c-0.8,3.6-2,6.3-3.5,8c-2.5,2.6-5.6,4-9.2,4c-2.9,0-5.5-0.8-7.7-2.5c-2.9-2.1-5.2-5.3-6.9-9.4s-2.5-10-2.6-17.6
									c2.2,3.4,4.9,6,8.2,7.6c3.2,1.6,6.6,2.5,10.1,2.5c6.1,0,11.4-2.3,15.7-6.9s6.5-10.5,6.5-17.7c0-4.8-1-9.2-3.1-13.4
									c-2-4-4.8-7.2-8.4-9.4c-3.6-2.2-7.6-3.2-12.1-3.2c-7.7,0-14,2.8-18.8,8.6s-7.3,15.2-7.3,28.3c0,14.7,2.7,25.4,8,32.1
									c4.7,5.8,11,8.7,18.9,8.7c5.9,0,10.8-1.7,14.5-5.1C43.7,267.7,45.9,263.1,46.7,257.1z M9,224.4c0-3.2,0.7-6.3,2-9.2
									s3.2-5.2,5.7-6.7c2.4-1.5,5-2.3,7.6-2.3c3.9,0,7.2,1.6,10,4.8c2.8,3.1,4.2,7.5,4.2,13c0,5.3-1.4,9.4-4.2,12.4
									c-2.8,3-6.2,4.6-10.4,4.6s-7.7-1.5-10.6-4.6C10.5,233.2,9,229.3,9,224.4z"/>
							</g>
						</g>
					</g>
				</g>
				<g id="ytick_7">
					<g id="text_29">
						<g transform="translate(89.682969 221.272397) scale(0.11 -0.11)">
							<g>
								<path id="ArialMT-37_00000052097231495356641730000009959831346930464957_" class="st0" d="M-0.6,254.1v9h48.7v-7.3
									c-4.8-5.2-9.5-11.9-14.2-20.5c-4.7-8.5-8.3-17.3-10.9-26.3c-1.8-6.4-3-13.4-3.5-20.8H10c0.1,6,1.3,13.3,3.5,21.7
									c2.2,8.5,5.4,16.6,9.6,24.5s8.6,14.5,13.3,19.8C36.4,254.1-0.6,254.1-0.6,254.1z"/>
							</g>
						</g>
					</g>
				</g>
				<g id="ytick_8">
					<g id="text_30">
						<g transform="translate(89.682969 242.112797) scale(0.11 -0.11)">
							<g>
								<path id="ArialMT-38_00000005262296353489649030000013005139462861693060_" class="st0" d="M13,217.5
									c-3.8,1.4-6.7,3.4-8.5,6.1s-2.8,5.8-2.8,9.4c0,5.6,2,10.2,5.9,14c3.9,3.7,9.2,5.7,15.7,5.7c6.6,0,11.8-1.9,15.8-5.8
									s6-8.5,6-14.1c0-3.5-0.9-6.6-2.8-9.2c-1.8-2.6-4.6-4.7-8.3-6.1c4.6-1.5,8.1-3.9,10.5-7.4c2.4-3.3,3.6-7.4,3.6-12.1
									c0-6.5-2.3-11.9-6.8-16.4S30.8,175,23.4,175s-13.4,2.2-17.9,6.7c-4.5,4.5-6.8,10-6.8,16.6c0,5,1.2,9.1,3.7,12.4
									S8.4,216.3,13,217.5z M11.2,233.3c0-3.6,1.1-6.6,3.4-8.8c2.3-2.3,5.3-3.4,8.9-3.4s6.5,1.1,8.7,3.3c2.3,2.2,3.4,5.1,3.4,8.3
									c0,3.4-1.2,6.3-3.5,8.6c-2.3,2.3-5.2,3.5-8.7,3.5s-6.4-1.1-8.8-3.4C12.3,239.2,11.2,236.5,11.2,233.3z M8.2,198.2
									c0-2.6,0.6-5.3,1.9-7.7c1.2-2.5,3.1-4.5,5.6-5.8s5.1-2,7.9-2c4.4,0,8,1.4,10.9,4.2c2.9,2.8,4.3,6.6,4.3,10.9
									c0,4.5-1.5,8.2-4.4,11.1c-3,2.9-6.7,4.5-11.1,4.5c-4.3,0-7.9-1.4-10.8-4.4C9.6,206.2,8.2,202.6,8.2,198.2z"/>
							</g>
						</g>
					</g>
				</g>
				<g id="ytick_9">
					<g id="text_31">
						<g transform="translate(89.682969 262.953197) scale(0.11 -0.11)">
							<g>
								<path id="ArialMT-39_00000119089551743387179770000006400242280157527449_" class="st0" d="M0.2,182.1l8.9,0.8
									c0.7-4.2,2.2-7.3,4.3-9.2c2.1-1.9,4.8-2.8,8.2-2.8c2.8,0,5.3,0.7,7.4,2c2.1,1.3,3.9,3,5.3,5.3c1.4,2.2,2.5,5.2,3.4,8.9
									c0.9,3.7,1.4,7.6,1.4,11.4c0,0.4,0,1,0,1.8c-1.8-2.9-4.4-5.4-7.6-7.3c-3.2-1.8-6.7-2.7-10.4-2.7c-6.2,0-11.5,2.3-15.8,6.9
									s-6.4,10.6-6.4,18c0,7.7,2.2,14,6.7,18.6c4.5,4.7,10.1,7.1,16.9,7.1c4.9,0,9.4-1.3,13.4-4c4.1-2.6,7.1-6.5,9.2-11.4
									c2.1-5,3.1-12,3.1-21.3c0-9.7-1-17.4-3.1-23.2s-5.2-10.1-9.3-13.2c-4.1-3-8.9-4.6-14.5-4.6c-5.9,0-10.7,1.6-14.4,5
									C3.2,171.5,0.9,176.2,0.2,182.1z M38,215.7c0,5.4-1.4,9.6-4.2,12.7s-6.2,4.8-10.2,4.8c-4.1,0-7.7-1.7-10.7-5.1
									c-3-3.3-4.6-7.8-4.6-13.2c0-4.9,1.4-8.8,4.3-11.8s6.4-4.6,10.7-4.6s7.8,1.5,10.5,4.6C36.6,206.1,38,210.4,38,215.7z"/>
							</g>
						</g>
					</g>
				</g>
				<g id="ytick_10">
					<g id="text_32">
						<g transform="translate(83.565937 283.793597) scale(0.11 -0.11)">
							<g>
								<path id="ArialMT-31_00000004508652513873765280000007207759128538066340_" class="st0" d="M30.8,152.8h-9.2v59.5
									c-2.2-2.1-5.1-4.2-8.7-6.4s-6.8-3.7-9.7-4.9v9c5.2,2.4,9.7,5.5,13.5,8.9c3.9,3.5,6.6,6.9,8.2,10.2h5.9V152.8z"/>
							</g>
							<g>
								<path id="ArialMT-30_00000121965425230592927780000014921203843601526707_" class="st0" d="M54.4,190.3
									c0,9,0.9,16.2,2.7,21.8c1.8,5.5,4.5,9.7,8.1,12.6c3.6,2.9,8.1,4.5,13.6,4.5c4,0,7.6-0.8,10.6-2.4c3-1.6,5.5-4,7.5-7.1
									c2-3.1,3.5-6.9,4.7-11.3c1.1-4.5,1.7-10.4,1.7-18c0-8.9-0.9-16.1-2.7-21.5c-1.8-5.5-4.5-9.7-8.1-12.7s-8.2-4.5-13.7-4.5
									c-7.2,0-12.9,2.6-17.1,7.9C56.9,165.8,54.4,176.1,54.4,190.3z M63.9,190.3c0-12.4,1.4-20.7,4.3-24.9
									c2.9-4.1,6.4-6.2,10.7-6.2c4.2,0,7.8,2,10.7,6.2c2.9,4.1,4.3,12.4,4.3,24.9c0,12.5-1.4,20.8-4.3,24.9
									c-2.9,4.1-6.5,6.2-10.8,6.2c-4.2,0-7.6-1.8-10.2-5.5C65.5,211.4,63.9,202.8,63.9,190.3z"/>
							</g>
						</g>
					</g>
				</g>
				<g id="ytick_11">
					<g id="text_33">
						<g transform="translate(84.377187 304.633997) scale(0.11 -0.11)">
							<g>
								<path id="ArialMT-31_00000001623457378079676250000013119562993499556772_" class="st0" d="M31.1,141.1h-9.2v59.5
									c-2.2-2.1-5.1-4.2-8.7-6.4s-6.8-3.7-9.7-4.9v9c5.2,2.4,9.7,5.5,13.5,8.9c3.9,3.5,6.6,6.9,8.2,10.2h5.9V141.1z"/>
							</g>
							<g>
								<path id="ArialMT-31_00000060724814835995607070000008088862466929124501_" class="st0" d="M81.8,141.1h-9.2v59.5
									c-2.2-2.1-5.1-4.2-8.7-6.4c-3.6-2.1-6.8-3.7-9.7-4.9v9c5.2,2.4,9.7,5.5,13.5,8.9c3.9,3.5,6.6,6.9,8.2,10.2h5.9
									C81.8,217.5,81.8,141.1,81.8,141.1z"/>
							</g>
						</g>
					</g>
				</g>
				<g id="ytick_12">
					<g id="text_34">
						<g transform="translate(83.565937 325.474397) scale(0.11 -0.11)">
							<g>
								<path id="ArialMT-31_00000036958082946141729590000003197379743696739761_" class="st0" d="M30.8,129.3h-9.2v59.5
									c-2.2-2.1-5.1-4.2-8.7-6.4s-6.8-3.7-9.7-4.9v9c5.2,2.4,9.7,5.5,13.5,8.9c3.9,3.5,6.6,6.9,8.2,10.2h5.9V129.3z"/>
							</g>
							<g>
								<path id="ArialMT-32_00000010992433782576500910000009603946596017829514_" class="st0" d="M102.9,138.3v-9H53.2
									c-0.1,2.2,0.3,4.5,1.1,6.5c1.3,3.4,3.3,6.8,6.1,10.1c2.8,3.3,6.8,7.2,12.1,11.5c8.2,6.8,13.7,12.1,16.5,16.1
									c2.9,3.9,4.3,7.7,4.3,11.2c0,3.7-1.3,6.8-3.9,9.3s-6,3.8-10.2,3.8c-4.4,0-8-1.3-10.7-4c-2.7-2.7-4-6.4-4.1-11.2l-9.5,1
									c0.6,7.2,3.1,12.6,7.3,16.4c4.2,3.7,9.9,5.7,17.1,5.7s12.9-2,17.1-6.1c4.2-4,6.3-9,6.3-15.1c0-3-0.6-6.1-1.9-9
									c-1.2-2.9-3.3-6.1-6.1-9.3c-2.9-3.2-7.6-7.7-14.2-13.4c-5.5-4.7-9.1-7.9-10.7-9.6s-2.9-3.3-3.9-5.1h37V138.3z"/>
							</g>
						</g>
					</g>
				</g>
				<g id="ytick_13">
					<g id="text_35">
						<g transform="translate(83.565937 346.314797) scale(0.11 -0.11)">
							<g>
								<path id="ArialMT-31_00000008868980043771566180000003944643575693436341_" class="st0" d="M30.8,117.7h-9.2v59.5
									c-2.2-2.1-5.1-4.2-8.7-6.4c-3.6-2.1-6.8-3.7-9.7-4.9v9c5.2,2.4,9.7,5.5,13.5,8.9c3.9,3.5,6.6,6.9,8.2,10.2h5.9V117.7z"/>
							</g>
							<g>
								<path id="ArialMT-33_00000149360596267904109650000011517958091706233495_" class="st0" d="M54.5,137.7l9.2,1.2
									c1.1-5.3,2.9-9.1,5.4-11.4c2.5-2.3,5.6-3.5,9.3-3.5c4.3,0,8,1.5,11,4.6c3,3,4.5,6.8,4.5,11.3c0,4.2-1.4,7.8-4.1,10.6
									c-2.8,2.8-6.3,4.1-10.6,4.1c-1.7,0-3.9-0.3-6.5-1l1,8.2c0.6-0.1,1.1-0.1,1.5-0.1c3.9,0,7.5,1,10.6,3.1s4.7,5.3,4.7,9.6
									c0,3.4-1.1,6.3-3.4,8.5c-2.3,2.2-5.2,3.3-8.9,3.3c-3.6,0-6.6-1.1-9-3.4s-3.9-5.7-4.6-10.2l-9.2,1.6
									c1.1,6.3,3.7,11.1,7.7,14.6s9,5.2,14.9,5.2c4.1,0,7.9-0.9,11.3-2.6c3.5-1.8,6.1-4.2,7.9-7.3c1.8-3,2.8-6.4,2.8-9.8
									c0-3.2-0.9-6.3-2.6-9s-4.3-4.9-7.7-6.5c4.4-1,7.9-3.1,10.3-6.5c2.5-3.2,3.7-7.4,3.7-12.2c0-6.7-2.4-12.2-7.2-16.9
									c-4.8-4.7-10.8-6.9-18.1-6.9c-6.6,0-12.1,2-16.4,6C57.6,126.2,55.1,131.4,54.5,137.7z"/>
							</g>
						</g>
					</g>
				</g>
				<g id="ytick_14">
					<g id="text_36">
						<g transform="translate(83.565937 367.155197) scale(0.11 -0.11)">
							<g>
								<path id="ArialMT-31_00000155131264925161846680000005143428621830466987_" class="st0" d="M30.8,106h-9.2v59.5
									c-2.2-2.1-5.1-4.2-8.7-6.4s-6.8-3.7-9.7-4.9v9c5.2,2.4,9.7,5.5,13.5,8.9c3.9,3.5,6.6,6.9,8.2,10.2h5.9V106z"/>
							</g>
							<g>
								<path id="ArialMT-34_00000030472896727696684850000009060677546862932887_" class="st0" d="M84,106v18.2H51.4v8.6l34.3,49.3
									h7.5v-49.3h10.2v-8.6H93.2V106H84z M84,132.7V167l-23.5-34.3H84z"/>
							</g>
						</g>
					</g>
				</g>
				<g id="ytick_15">
					<g id="text_37">
						<g transform="translate(83.565937 387.995597) scale(0.11 -0.11)">
							<g>
								<path id="ArialMT-31_00000176737771018374454550000014567720853993850021_" class="st0" d="M30.8,94.2h-9.2v59.4
									c-2.2-2.1-5.1-4.2-8.7-6.4c-3.6-2.1-6.8-3.7-9.7-4.9v9c5.2,2.4,9.7,5.5,13.5,8.9c3.9,3.5,6.6,6.9,8.2,10.2h5.9V94.2z"/>
							</g>
							<g>
								<path id="ArialMT-35_00000083070984445204077490000006012332990998489527_" class="st0" d="M54.4,114.1l9.7,0.8
									c0.7-4.8,2.4-8.4,5-10.7c2.6-2.4,5.8-3.6,9.5-3.6c4.4,0,8.2,1.7,11.3,5.1c3.1,3.4,4.6,7.9,4.6,13.5c0,5.4-1.5,9.5-4.4,12.5
									c-3,3.1-6.8,4.7-11.6,4.7c-3,0-5.7-0.7-8.1-2s-4.3-3.1-5.6-5.3l-8.7,1.1l7.3,39.1h37.4v-8.9h-30l-4-20.4
									c4.5,3.1,9.2,4.8,14.2,4.8c6.6,0,12.1-2.3,16.6-6.9s6.8-10.5,6.8-17.7c0-6.9-2-12.8-5.9-17.8c-5-6.2-11.6-9.2-19.9-9.2
									c-6.8,0-12.4,1.9-16.7,5.8C57.5,102.5,55,107.7,54.4,114.1z"/>
							</g>
						</g>
					</g>
				</g>
				<g id="ytick_16">
					<g id="text_38">
						<g transform="translate(83.565937 408.835997) scale(0.11 -0.11)">
							<g>
								<path id="ArialMT-31_00000044874973341510045520000000809759207262069633_" class="st0" d="M30.8,82.5h-9.2V142
									c-2.2-2.1-5.1-4.2-8.7-6.4s-6.8-3.7-9.7-4.9v9c5.2,2.4,9.7,5.5,13.5,8.9c3.9,3.5,6.6,6.9,8.2,10.2h5.9V82.5z"/>
							</g>
							<g>
								<path id="ArialMT-36_00000117635187377597798480000013371876854569323414_" class="st0" d="M102.3,139.9l-9.2-0.7
									c-0.8,3.6-2,6.3-3.5,8c-2.5,2.6-5.6,4-9.2,4c-2.9,0-5.5-0.8-7.7-2.5c-2.9-2.1-5.2-5.3-6.9-9.4c-1.7-4.1-2.5-10-2.6-17.6
									c2.2,3.4,4.9,6,8.2,7.6c3.2,1.6,6.6,2.5,10.1,2.5c6.1,0,11.4-2.3,15.7-6.9c4.3-4.6,6.5-10.5,6.5-17.7c0-4.8-1-9.2-3.1-13.4
									s-4.8-7.2-8.4-9.4c-3.6-2.2-7.6-3.2-12.1-3.2c-7.7,0-14,2.8-18.8,8.6C56.5,95.6,54,105,54,118.1c0,14.7,2.7,25.4,8,32.1
									c4.7,5.8,11,8.7,18.9,8.7c5.9,0,10.8-1.7,14.5-5.1C99.3,150.4,101.5,145.7,102.3,139.9z M64.6,107.1c0-3.2,0.7-6.3,2-9.2
									s3.2-5.2,5.7-6.7c2.4-1.5,5-2.3,7.6-2.3c3.9,0,7.2,1.6,10,4.8c2.8,3.1,4.2,7.5,4.2,13c0,5.3-1.4,9.4-4.2,12.4
									c-2.8,3-6.2,4.6-10.4,4.6c-4.2,0-7.7-1.5-10.6-4.6C66.1,116,64.6,112.1,64.6,107.1z"/>
							</g>
						</g>
					</g>
				</g>
				<g id="ytick_17">
					<g id="text_39">
						<g transform="translate(83.565937 429.676397) scale(0.11 -0.11)">
							<g>
								<path id="ArialMT-31_00000154389354370062770810000018438626889496015028_" class="st0" d="M30.8,70.8h-9.2v59.5
									c-2.2-2.1-5.1-4.2-8.7-6.4c-3.6-2.1-6.8-3.7-9.7-4.9v9c5.2,2.4,9.7,5.5,13.5,8.9c3.9,3.5,6.6,6.9,8.2,10.2h5.9V70.8z"/>
							</g>
							<g>
								<path id="ArialMT-37_00000176005466571251801090000001243506948465834133_" class="st0" d="M55,136.8v9h48.6v-7.3
									c-4.8-5.2-9.5-11.9-14.2-20.5c-4.7-8.5-8.3-17.3-10.9-26.3c-1.8-6.4-3-13.4-3.5-20.8h-9.5c0.1,6,1.3,13.3,3.5,21.7
									c2.2,8.5,5.4,16.6,9.6,24.5s8.6,14.5,13.3,19.8C91.9,136.8,55,136.8,55,136.8z"/>
							</g>
						</g>
					</g>
				</g>
				<g id="ytick_18">
					<g id="text_40">
						<g transform="translate(83.565937 450.516797) scale(0.11 -0.11)">
							<g>
								<path id="ArialMT-31_00000127758441060363228990000004984175716952189327_" class="st0" d="M30.8,59h-9.2v59.5
									c-2.2-2.1-5.1-4.2-8.7-6.4c-3.6-2.1-6.8-3.7-9.7-4.9v9c5.2,2.4,9.7,5.5,13.5,8.9c3.9,3.5,6.6,6.9,8.2,10.2h5.9V59z"/>
							</g>
							<g>
								<path id="ArialMT-38_00000049185403594919779180000011971487619198045102_" class="st0" d="M68.6,100.2
									c-3.8,1.4-6.7,3.4-8.5,6.1s-2.8,5.8-2.8,9.4c0,5.6,2,10.2,5.9,14c3.9,3.7,9.2,5.7,15.7,5.7c6.6,0,11.8-1.9,15.8-5.8
									c4-3.8,6-8.5,6-14.1c0-3.5-0.9-6.6-2.8-9.2c-1.8-2.6-4.6-4.7-8.3-6.1c4.6-1.5,8.1-3.9,10.5-7.4c2.4-3.3,3.6-7.4,3.6-12.1
									c0-6.5-2.3-11.9-6.8-16.4c-4.4-4.4-10.4-6.6-17.8-6.6s-13.4,2.2-18,6.7c-4.5,4.5-6.8,10-6.8,16.6c0,5,1.2,9.1,3.7,12.4
									S64,99,68.6,100.2z M66.8,116.1c0-3.6,1.1-6.6,3.4-8.8c2.3-2.3,5.3-3.4,8.9-3.4s6.5,1.1,8.7,3.3c2.3,2.2,3.4,5.1,3.4,8.3
									c0,3.4-1.2,6.3-3.5,8.6s-5.2,3.5-8.7,3.5s-6.4-1.1-8.8-3.4C67.9,122,66.8,119.2,66.8,116.1z M63.8,81c0-2.6,0.6-5.3,1.9-7.7
									c1.2-2.5,3.1-4.5,5.6-5.8c2.5-1.3,5.1-2,7.9-2c4.4,0,8,1.4,10.9,4.2s4.3,6.6,4.3,10.9c0,4.5-1.5,8.2-4.4,11.1
									s-6.7,4.5-11.1,4.5c-4.3,0-7.9-1.4-10.8-4.4C65.2,89,63.8,85.4,63.8,81z"/>
							</g>
						</g>
					</g>
				</g>
				<g id="ytick_19">
					<g id="text_41">
						<g transform="translate(83.565937 471.357197) scale(0.11 -0.11)">
							<g>
								<path id="ArialMT-31_00000086688409037629144130000014418311213536662450_" class="st0" d="M30.8,47.3h-9.2v59.5
									c-2.2-2.1-5.1-4.2-8.7-6.4c-3.6-2.1-6.8-3.7-9.7-4.9v9c5.2,2.4,9.7,5.5,13.5,8.9c3.9,3.5,6.6,6.9,8.2,10.2h5.9V47.3z"/>
							</g>
							<g>
								<path id="ArialMT-39_00000048473725291703941850000010433006506256062872_" class="st0" d="M55.8,64.9l8.9,0.8
									c0.7-4.2,2.2-7.3,4.3-9.2c2.1-1.9,4.8-2.8,8.1-2.8c2.8,0,5.3,0.7,7.4,2c2.1,1.3,3.9,3,5.3,5.3c1.4,2.2,2.5,5.2,3.4,8.9
									s1.4,7.6,1.4,11.4c0,0.4,0,1,0,1.8c-1.8-2.9-4.4-5.4-7.6-7.3c-3.2-1.8-6.7-2.7-10.4-2.7c-6.2,0-11.5,2.3-15.8,6.9
									c-4.3,4.6-6.4,10.6-6.4,18c0,7.7,2.2,14,6.7,18.6c4.5,4.7,10.1,7.1,16.9,7.1c4.9,0,9.4-1.3,13.4-4c4.1-2.6,7.1-6.5,9.2-11.4
									s3.1-12,3.1-21.3c0-9.7-1-17.4-3.1-23.2c-2.1-5.8-5.2-10.1-9.3-13.2c-4.1-3-8.9-4.6-14.5-4.6c-5.9,0-10.7,1.6-14.4,5
									C58.8,54.3,56.6,58.9,55.8,64.9z M93.6,98.4c0,5.4-1.4,9.6-4.2,12.7c-2.8,3.1-6.2,4.8-10.2,4.8c-4.1,0-7.7-1.7-10.7-5.1
									s-4.6-7.8-4.6-13.2c0-4.9,1.4-8.8,4.3-11.8c2.9-3,6.4-4.6,10.7-4.6c4.3,0,7.8,1.5,10.5,4.6C92.2,88.9,93.6,93,93.6,98.4z"/>
							</g>
						</g>
					</g>
				</g>
				<g id="ytick_20">
					<g id="text_42">
						<g transform="translate(83.565937 492.197597) scale(0.11 -0.11)">
							<g>
								<path id="ArialMT-32_00000101795898942279493160000017029104629397340840_" class="st0" d="M44.5,44.6v-9H-5.1
									C-5.2,37.8-4.8,40-4,42.1c1.3,3.4,3.3,6.8,6.1,10.1c2.8,3.3,6.8,7.2,12.1,11.5c8.2,6.8,13.7,12.1,16.5,16.1
									C33.6,83.7,35,87.5,35,91c0,3.7-1.3,6.8-3.9,9.3s-6,3.8-10.2,3.8c-4.4,0-8-1.3-10.7-4c-2.7-2.7-4-6.4-4.1-11.2l-9.5,1
									c0.6,7.2,3.1,12.6,7.3,16.4C8.1,110,13.8,112,21,112s12.9-2,17.1-6.1c4.2-4,6.3-9,6.3-15.1c0-3-0.6-6.1-1.9-9
									c-1.2-2.9-3.3-6.1-6.1-9.3c-2.9-3.2-7.6-7.7-14.2-13.4c-5.5-4.7-9.1-7.9-10.7-9.6c-1.6-1.7-2.9-3.3-3.9-5.1h36.9V44.6z"/>
							</g>
							<g>
								<path id="ArialMT-30_00000030473720900330804550000003807986969581791377_" class="st0" d="M54.4,73c0,9,0.9,16.2,2.7,21.8
									c1.8,5.5,4.5,9.7,8.1,12.6s8.1,4.5,13.6,4.5c4,0,7.6-0.8,10.6-2.4s5.5-4,7.5-7.1c2-3.1,3.5-6.9,4.7-11.3
									c1.1-4.5,1.7-10.4,1.7-18c0-8.9-0.9-16.1-2.7-21.5c-1.8-5.5-4.5-9.7-8.1-12.7c-3.6-3-8.2-4.5-13.7-4.5
									c-7.2,0-12.9,2.6-17.1,7.9C56.9,48.5,54.4,58.8,54.4,73z M63.9,73c0-12.4,1.4-20.7,4.3-24.9C71.1,44,74.6,42,78.9,42
									c4.2,0,7.8,2,10.7,6.2c2.9,4.1,4.3,12.4,4.3,24.9c0,12.5-1.4,20.8-4.3,24.9c-2.9,4.1-6.5,6.2-10.8,6.2
									c-4.2,0-7.6-1.8-10.2-5.5C65.5,94.1,63.9,85.6,63.9,73z"/>
							</g>
						</g>
					</g>
				</g>
				<g id="ytick_21">
					<g id="text_43">
						<g transform="translate(83.565937 513.037997) scale(0.11 -0.11)">
							<g>
								<path id="ArialMT-32_00000030488546910545310710000014257074493148442812_" class="st0" d="M44.5,32.9v-9H-5.1
									c-0.1,2.2,0.3,4.5,1.1,6.5c1.3,3.4,3.3,6.8,6.1,10.1c2.8,3.3,6.8,7.2,12.1,11.5c8.2,6.8,13.7,12.1,16.5,16.1
									C33.6,72,35,75.8,35,79.3c0,3.7-1.3,6.8-3.9,9.3c-2.6,2.5-6,3.8-10.2,3.8c-4.4,0-8-1.3-10.7-4s-4-6.4-4.1-11.2l-9.5,1
									c0.6,7.2,3.1,12.6,7.3,16.4s9.9,5.7,17.1,5.7s12.9-2,17.1-6.1c4.2-4,6.3-9,6.3-15.1c0-3-0.6-6.1-1.9-9
									c-1.2-2.9-3.3-6.1-6.1-9.3c-2.9-3.2-7.6-7.7-14.2-13.4c-5.5-4.7-9.1-7.9-10.7-9.6c-1.6-1.7-2.9-3.3-3.9-5.1h36.9V32.9z"/>
							</g>
							<g>
								<path id="ArialMT-31_00000041258783892206020230000006346895090640630923_" class="st0" d="M89.2,23.9H80v59.5
									c-2.2-2.1-5.1-4.2-8.7-6.4c-3.6-2.1-6.8-3.7-9.7-4.9v9c5.2,2.4,9.7,5.5,13.5,8.9c3.9,3.5,6.6,6.9,8.2,10.2h5.9
									C89.2,100.2,89.2,23.9,89.2,23.9z"/>
							</g>
						</g>
					</g>
				</g>
			</g>
			<g id="line2d_1">
				<g>
					<g>
						<defs>
							<rect id="SVGID_1_" x="92.8" y="41.5" width="685.2" height="486.8"/>
						</defs>
						<clipPath id="SVGID_00000057870274983652472250000001327437958543047052_">
							<use xlink:href="#SVGID_1_"  style="overflow:visible;"/>
						</clipPath>
						
							<path style="clip-path:url(#SVGID_00000057870274983652472250000001327437958543047052_);fill:none;stroke:#8C8C8C;stroke-width:1.5;stroke-linecap:round;stroke-linejoin:round;" d="
							M124,63.6h29.7h29.6H213h29.7l29.6,22.2H302l29.7,22.2h29.6H391l29.7-22.2h29.6H480l29.7,22.2l29.6-22.2H569h29.7l29.7,22.2
							l29.7-22.2l29.7,22.2l29.7-22.2h29.7"/>
					</g>
				</g>
			</g>
			<g id="line2d_2">
				<g>
					<g>
						<defs>
							<rect id="SVGID_00000042004308953028668090000003249994389828902054_" x="92.8" y="41.5" width="685.2" height="486.8"/>
						</defs>
						<clipPath id="SVGID_00000075863761647755392200000004305298503411661956_">
							<use xlink:href="#SVGID_00000042004308953028668090000003249994389828902054_"  style="overflow:visible;"/>
						</clipPath>
						
							<path style="clip-path:url(#SVGID_00000075863761647755392200000004305298503411661956_);fill:none;stroke:#00FF00;stroke-width:2;stroke-linecap:round;stroke-linejoin:round;" d="
							M124,85.8h29.7l29.7,22.2l29.7,44.2h29.7h29.5H302h29.7h29.6L391,130h29.7h29.6l29.7,22.2l29.7-22.2l29.7,22.2h29.7h29.7h29.7
							h29.7l29.7,22.2h29.7l29.7-22.2"/>
					</g>
				</g>
			</g>
			<g id="line2d_3">
				<g>
					<g>
						<defs>
							<rect id="SVGID_00000168091893345264969970000010094896927492222108_" x="92.8" y="41.5" width="685.2" height="486.8"/>
						</defs>
						<clipPath id="SVGID_00000008851008447636239280000000994310916473908623_">
							<use xlink:href="#SVGID_00000168091893345264969970000010094896927492222108_"  style="overflow:visible;"/>
						</clipPath>
						
							<path style="clip-path:url(#SVGID_00000008851008447636239280000000994310916473908623_);fill:none;stroke:#9F00C6;stroke-width:3;stroke-miterlimit:10;" d="
							M124,107.8l29.7,44.2h29.6l29.7,44.2l29.7-22.2h29.6H302h29.7h29.6H391h29.7h29.6H480h29.7h29.6H569h29.7h29.7h29.7l29.7-22.2
							h29.7l29.7,22.2"/>
					</g>
				</g>
			</g>
			<g id="line2d_4">
				<g>
					<g>
						<defs>
							<rect id="SVGID_00000093875366705655515910000000304105683330843312_" x="92.8" y="41.5" width="685.2" height="486.8"/>
						</defs>
						<clipPath id="SVGID_00000043433934846624562800000000635895804305795993_">
							<use xlink:href="#SVGID_00000093875366705655515910000000304105683330843312_"  style="overflow:visible;"/>
						</clipPath>
						
							<path style="clip-path:url(#SVGID_00000043433934846624562800000000635895804305795993_);fill:none;stroke:#E23333;stroke-width:3;stroke-linecap:round;stroke-linejoin:round;" d="
							M124,130h29.7l29.6-44.2L213,130h29.7h29.6H302h29.7h29.6l29.7,22.2h29.7h29.6L480,130l29.7,22.2l29.7-22.2h29.7h29.7h29.7
							h29.7h29.7h29.7h29.7"/>
					</g>
				</g>
			</g>
			<g id="line2d_5">
				<g>
					<g>
						<defs>
							<rect id="SVGID_00000127726243374268345400000009479954706773496718_" x="92.8" y="41.5" width="685.2" height="486.8"/>
						</defs>
						<clipPath id="SVGID_00000177473738945115028840000002547604387363162535_">
							<use xlink:href="#SVGID_00000127726243374268345400000009479954706773496718_"  style="overflow:visible;"/>
						</clipPath>
						
							<path style="clip-path:url(#SVGID_00000177473738945115028840000002547604387363162535_);fill:none;stroke:#FFFFFF;stroke-width:3;stroke-miterlimit:10;" d="
							M124,152.2l29.7,66.4l29.7,22.2l29.7,22.2h29.7h29.5H302l29.7,44.2h29.6H391l29.7-22.2h29.6H480h29.7h29.6l29.7,22.2
							l29.7,44.2h29.7l29.7-22.2h29.7h29.7h29.7"/>
					</g>
				</g>
			</g>
			<g id="line2d_6">
				<g>
					<g>
						<defs>
							<rect id="SVGID_00000070829424245762965170000017486494729994273455_" x="92.8" y="41.5" width="685.2" height="486.8"/>
						</defs>
						<clipPath id="SVGID_00000147933840984080595890000006425990504900383635_">
							<use xlink:href="#SVGID_00000070829424245762965170000017486494729994273455_"  style="overflow:visible;"/>
						</clipPath>
						
							<path style="clip-path:url(#SVGID_00000147933840984080595890000006425990504900383635_);fill:none;stroke:#8C8C8C;stroke-width:1.5;stroke-linecap:round;stroke-linejoin:round;" d="
							M124,174.3l29.7,66.4l29.7,22.2l29.7-44.2h29.7h29.5H302h29.7h29.6H391l29.7,22.2h29.6H480l29.7,22.2h29.6H569h29.7h29.7h29.7
							h29.7h29.7h29.7"/>
					</g>
				</g>
			</g>
			<g id="line2d_7">
				<g>
					<g>
						<defs>
							<rect id="SVGID_00000023264999077879946000000011099738810242122429_" x="92.8" y="41.5" width="685.2" height="486.8"/>
						</defs>
						<clipPath id="SVGID_00000090283836330012892330000003530411752277260166_">
							<use xlink:href="#SVGID_00000023264999077879946000000011099738810242122429_"  style="overflow:visible;"/>
						</clipPath>
						
							<path style="clip-path:url(#SVGID_00000090283836330012892330000003530411752277260166_);fill:none;stroke:#8C8C8C;stroke-width:1.5;stroke-linecap:round;stroke-linejoin:round;" d="
							M124,196.4l29.7-22.2l29.6,22.2l29.7,44.2h29.7h29.6H302h29.7h29.6H391l29.7-22.2h29.6H480h29.7h29.6H569h29.7h29.7h29.7h29.7
							h29.7h29.7"/>
					</g>
				</g>
			</g>
			<g id="line2d_8">
				<g>
					<g>
						<defs>
							<rect id="SVGID_00000168830476412697582100000004361759112363333819_" x="92.8" y="41.5" width="685.2" height="486.8"/>
						</defs>
						<clipPath id="SVGID_00000105405745454643698460000013119329995989746876_">
							<use xlink:href="#SVGID_00000168830476412697582100000004361759112363333819_"  style="overflow:visible;"/>
						</clipPath>
						
							<path style="clip-path:url(#SVGID_00000105405745454643698460000013119329995989746876_);fill:none;stroke:#8C8C8C;stroke-width:1.5;stroke-linecap:round;stroke-linejoin:round;" d="
							M124,218.5l29.7,66.4l29.7,44.2l29.7-22.2h29.7l29.7-22.2l29.7,22.2l29.7,66.4h29.4H391l29.7,22.2h29.6H480h29.7h29.6H569
							l29.7,22.2h29.7h29.7h29.7h29.7h29.7"/>
					</g>
				</g>
			</g>
			<g id="line2d_9">
				<g>
					<g>
						<defs>
							<rect id="SVGID_00000096019107519610702490000003860561857392241289_" x="92.8" y="41.5" width="685.2" height="486.8"/>
						</defs>
						<clipPath id="SVGID_00000154403930915072449510000006414424178756083127_">
							<use xlink:href="#SVGID_00000096019107519610702490000003860561857392241289_"  style="overflow:visible;"/>
						</clipPath>
						
							<path style="clip-path:url(#SVGID_00000154403930915072449510000006414424178756083127_);fill:none;stroke:#8C8C8C;stroke-width:1.5;stroke-linecap:round;stroke-linejoin:round;" d="
							M124,240.7l29.7,88.5l29.7,22.2l29.7,22.2l29.7,22.2l29.5-22.3l29.7-44.2l29.7-44.2l29.7-22.2h29.7h29.7h29.5H480l29.7-22.2
							h29.6H569h29.7h29.7h29.7h29.7h29.7h29.7"/>
					</g>
				</g>
			</g>
			<g id="line2d_10">
				<g>
					<g>
						<defs>
							<rect id="SVGID_00000040562910643025450720000000206287762727438472_" x="92.8" y="41.5" width="685.2" height="486.8"/>
						</defs>
						<clipPath id="SVGID_00000044884123017710931670000017215368413053886364_">
							<use xlink:href="#SVGID_00000040562910643025450720000000206287762727438472_"  style="overflow:visible;"/>
						</clipPath>
						
							<path style="clip-path:url(#SVGID_00000044884123017710931670000017215368413053886364_);fill:none;stroke:#8C8C8C;stroke-width:1.5;stroke-linecap:round;stroke-linejoin:round;" d="
							M124,262.8l29.7,88.5l29.6,22.1l29.7,22.2l29.7,44.2h29.6H302h29.7l29.7-44.2h29.7l29.7,22.2h29.5H480h29.7h29.6H569
							l29.7,22.2h29.7h29.7h29.7h29.7h29.7"/>
					</g>
				</g>
			</g>
			<g id="line2d_11">
				<g>
					<g>
						<defs>
							<rect id="SVGID_00000031176508794369479210000012165326490566328450_" x="92.8" y="41.5" width="685.2" height="486.8"/>
						</defs>
						<clipPath id="SVGID_00000165198763103008524130000012477446282218652342_">
							<use xlink:href="#SVGID_00000031176508794369479210000012165326490566328450_"  style="overflow:visible;"/>
						</clipPath>
						
							<path style="clip-path:url(#SVGID_00000165198763103008524130000012477446282218652342_);fill:none;stroke:#8C8C8C;stroke-width:1.5;stroke-linecap:round;stroke-linejoin:round;" d="
							M124,284.9l29.7,88.5l29.7,44.2l29.7,44.2h29.7h29.5H302h29.7h29.6l29.7-44.2l29.7-44.2h29.6H480h29.7h29.6H569l29.7,22.2
							h29.7h29.7h29.7h29.7h29.7"/>
					</g>
				</g>
			</g>
			<g id="line2d_12">
				<g>
					<g>
						<defs>
							<rect id="SVGID_00000075160880893429743850000014867493724046711938_" x="92.8" y="41.5" width="685.2" height="486.8"/>
						</defs>
						<clipPath id="SVGID_00000133511411174217585130000005184384414238778754_">
							<use xlink:href="#SVGID_00000075160880893429743850000014867493724046711938_"  style="overflow:visible;"/>
						</clipPath>
						
							<path style="clip-path:url(#SVGID_00000133511411174217585130000005184384414238778754_);fill:none;stroke:#8C8C8C;stroke-width:1.5;stroke-linecap:round;stroke-linejoin:round;" d="
							M124,307.1l29.7,88.5l29.7,44.2h29.7l29.7-22.2h29.5H302h29.7l29.7,22.2l29.7,22.2h29.7l29.7-22.2h29.7l29.7,22.2l29.7-22.2
							h29.7l29.7-66.4h29.7h29.7h29.7h29.7h29.7"/>
					</g>
				</g>
			</g>
			<g id="line2d_13">
				<g>
					<g>
						<defs>
							<rect id="SVGID_00000059280993652155588520000009069092769197964452_" x="92.8" y="41.5" width="685.2" height="486.8"/>
						</defs>
						<clipPath id="SVGID_00000031888859695001145620000006251722193769379210_">
							<use xlink:href="#SVGID_00000059280993652155588520000009069092769197964452_"  style="overflow:visible;"/>
						</clipPath>
						
							<path style="clip-path:url(#SVGID_00000031888859695001145620000006251722193769379210_);fill:none;stroke:#8C8C8C;stroke-width:1.5;stroke-linecap:round;stroke-linejoin:round;" d="
							M124,329.2l29.7,110.7l29.7-44.2l29.7,22.2l29.7-44.2l29.7,22.2h29.7h29.7l29.7,22.2l29.7,22.2H421l29.7,22.2h29.7l29.7-22.2
							l29.7,22.2h29.7h29.7h29.7h29.7h29.7H718h29.7"/>
					</g>
				</g>
			</g>
			<g id="line2d_14">
				<g>
					<g>
						<defs>
							<rect id="SVGID_00000170980664220497675020000002084669098851812738_" x="92.8" y="41.5" width="685.2" height="486.8"/>
						</defs>
						<clipPath id="SVGID_00000034067553757181189020000004800640293951570098_">
							<use xlink:href="#SVGID_00000170980664220497675020000002084669098851812738_"  style="overflow:visible;"/>
						</clipPath>
						
							<path style="clip-path:url(#SVGID_00000034067553757181189020000004800640293951570098_);fill:none;stroke:#8C8C8C;stroke-width:1.5;stroke-linecap:round;stroke-linejoin:round;" d="
							M124,351.4l29.7,110.7L183.4,285h29.7h29.7l29.7,22.2l29.7-22.2l29.7,44.2h29.4l29.7,22.2l29.7-44.2h29.6H480l29.7,22.2h29.6
							l29.7,22.2l29.7-66.4l29.7,22.2h29.7h29.7h29.7l29.7-22.2"/>
					</g>
				</g>
			</g>
			<g id="line2d_15">
				<g>
					<g>
						<defs>
							<rect id="SVGID_00000121979243082301689820000000236121070916208558_" x="92.8" y="41.5" width="685.2" height="486.8"/>
						</defs>
						<clipPath id="SVGID_00000132063970876777685670000012307998199529691822_">
							<use xlink:href="#SVGID_00000121979243082301689820000000236121070916208558_"  style="overflow:visible;"/>
						</clipPath>
						
							<path style="clip-path:url(#SVGID_00000132063970876777685670000012307998199529691822_);fill:none;stroke:#8C8C8C;stroke-width:1.5;stroke-linecap:round;stroke-linejoin:round;" d="
							M124,373.4l29.7-110.7l29.7-44.2l29.7-44.2l29.7,22.2h29.5H302h29.7h29.6H391h29.7h29.6H480h29.7h29.6H569h29.7h29.7h29.7
							h29.7h29.7h29.7"/>
					</g>
				</g>
			</g>
			<g id="line2d_16">
				<g>
					<g>
						<defs>
							<rect id="SVGID_00000070832799957942601610000010400441959152674474_" x="92.8" y="41.5" width="685.2" height="486.8"/>
						</defs>
						<clipPath id="SVGID_00000018930774794927142350000010672872765564003984_">
							<use xlink:href="#SVGID_00000070832799957942601610000010400441959152674474_"  style="overflow:visible;"/>
						</clipPath>
						
							<path style="clip-path:url(#SVGID_00000018930774794927142350000010672872765564003984_);fill:none;stroke:#8C8C8C;stroke-width:1.5;stroke-linecap:round;stroke-linejoin:round;" d="
							M124,395.6l29.7,88.5h29.6l29.7,22.2h29.7h29.6H302h29.7h29.6l29.7-22.2h29.7h29.6H480h29.7h29.6l29.7,22.2h29.7l29.7-22.2
							h29.7h29.7h29.7h29.7"/>
					</g>
				</g>
			</g>
			<g id="line2d_17">
				<g>
					<g>
						<defs>
							<rect id="SVGID_00000134213228549481550660000002109817375685552567_" x="92.8" y="41.5" width="685.2" height="486.8"/>
						</defs>
						<clipPath id="SVGID_00000114773642462494614120000000344234946641105062_">
							<use xlink:href="#SVGID_00000134213228549481550660000002109817375685552567_"  style="overflow:visible;"/>
						</clipPath>
						
							<path style="clip-path:url(#SVGID_00000114773642462494614120000000344234946641105062_);fill:none;stroke:#8C8C8C;stroke-width:1.5;stroke-linecap:round;stroke-linejoin:round;" d="
							M124,439.8l29.6-243.4l29.7-66.4l29.7-22.2h29.7h29.6H302l29.7-22.2h29.6H391l29.7,22.2h29.6H480l29.7-22.2l29.7,22.2h29.7
							h29.7l29.7-22.2l29.7,22.2l29.7-22.2l29.7,22.2h29.7"/>
					</g>
				</g>
			</g>
			<g id="line2d_18">
				<g>
					<g>
						<defs>
							<rect id="SVGID_00000045583068653108592760000010089463568010139832_" x="92.8" y="41.5" width="685.2" height="486.8"/>
						</defs>
						<clipPath id="SVGID_00000032635525641865809040000011154987516143300797_">
							<use xlink:href="#SVGID_00000045583068653108592760000010089463568010139832_"  style="overflow:visible;"/>
						</clipPath>
						
							<path style="clip-path:url(#SVGID_00000032635525641865809040000011154987516143300797_);fill:none;stroke:#00FFFF;stroke-width:3;stroke-linecap:round;stroke-linejoin:round;" d="
							M124,462l29.7-354.1l29.7,66.4l29.7-88.5h29.7l29.5-22.1H302h29.7h29.6H391h29.7h29.6H480h29.7h29.6H569h29.7h29.7h29.7h29.7
							h29.7h29.7"/>
					</g>
				</g>
			</g>
			<g id="line2d_19">
				<g>
					<g>
						<defs>
							<rect id="SVGID_00000060030765297939805830000014122284522985730438_" x="92.8" y="41.5" width="685.2" height="486.8"/>
						</defs>
						<clipPath id="SVGID_00000000923100946650228160000013632646259320941213_">
							<use xlink:href="#SVGID_00000060030765297939805830000014122284522985730438_"  style="overflow:visible;"/>
						</clipPath>
						
							<path style="clip-path:url(#SVGID_00000000923100946650228160000013632646259320941213_);fill:none;stroke:#8C8C8C;stroke-width:1.5;stroke-linecap:round;stroke-linejoin:round;" d="
							M124,484.1l29.7-177.1h29.6l29.7,22.2h29.7h29.6l29.7,22.2l29.7-88.5l29.7,22.2h29.7l29.7,44.2h29.5H480l29.7,22.2h29.6
							L569,285l29.7,44.2h29.7l29.7,22.2h29.7h29.7h29.7"/>
					</g>
				</g>
			</g>
			<g id="line2d_20">
				<g>
					<g>
						<defs>
							<rect id="SVGID_00000005952860157834419290000015931711943919147397_" x="92.8" y="41.5" width="685.2" height="486.8"/>
						</defs>
						<clipPath id="SVGID_00000160889871423769232130000001746647289876465822_">
							<use xlink:href="#SVGID_00000005952860157834419290000015931711943919147397_"  style="overflow:visible;"/>
						</clipPath>
						
							<path style="clip-path:url(#SVGID_00000160889871423769232130000001746647289876465822_);fill:none;stroke:#8C8C8C;stroke-width:1.5;stroke-linecap:round;stroke-linejoin:round;" d="
							M183.3,506.3L213,351.4h29.7h29.6l29.7,22.2l29.7-22.2h29.6l29.7-22.2l29.7,22.2h29.6H480l29.7-44.2h29.6l29.7,22.2l29.7-22.2
							l29.7-22.2h29.7h29.7h29.7l29.7,22.2"/>
					</g>
				</g>
			</g>
			<g id="line2d_21">
				<g>
					<g>
						<defs>
							<rect id="SVGID_00000094589206792089084890000012861575531452488604_" x="92.8" y="41.5" width="685.2" height="486.8"/>
						</defs>
						<clipPath id="SVGID_00000147181392416452585450000012806261379058236078_">
							<use xlink:href="#SVGID_00000094589206792089084890000012861575531452488604_"  style="overflow:visible;"/>
						</clipPath>
						
							<path style="clip-path:url(#SVGID_00000147181392416452585450000012806261379058236078_);fill:none;stroke:#8C8C8C;stroke-width:1.5;stroke-linecap:round;stroke-linejoin:round;" d="
							M568.9,484.1h29.7l29.7,22.2H658h29.7h29.7h29.7"/>
					</g>
				</g>
			</g>
			<g id="text_45">
				<g transform="translate(731.310779 113.1336) scale(0.12 -0.12)">
					<g>
						<path id="ArialMT-4c" class="st23" d="M162.8,228.1v76h9.9V237h37v-9h-46.9V228.1z"/>
					</g>
					<g>
						<path id="ArialMT-45" class="st23" d="M221.8,228.1v76h54.3v-9h-44.4v-23.3h41.6v-8.9h-41.6V237h46.1v-9h-56V228.1z"/>
					</g>
					<g>
						<path id="ArialMT-43_00000136384556323673105930000005298507194019850898_" class="st23" d="M345.2,254.7l9.9-2.5
							c-2.1-8.3-5.8-14.6-11.3-18.9c-5.4-4.4-12-6.5-19.9-6.5c-8.1,0-14.7,1.6-19.8,5c-5.1,3.3-8.9,8.2-11.6,14.5
							c-2.6,6.4-4,13.2-4,20.3c0,7.9,1.5,14.9,4.5,20.7s7.2,10.3,12.8,13.5c5.5,3,11.6,4.6,18.2,4.6c7.5,0,13.8-1.9,19-5.8
							c5.1-3.8,8.7-9.3,10.7-16.3l-9.8-2.3c-1.7,5.6-4.3,9.5-7.6,12c-3.3,2.5-7.5,3.8-12.5,3.8c-5.8,0-10.6-1.4-14.5-4.2
							c-3.9-2.8-6.6-6.6-8.2-11.3c-1.6-4.8-2.3-9.6-2.3-14.6c0-6.5,0.9-12.1,2.8-16.9c1.9-4.9,4.8-8.4,8.7-10.8
							c3.9-2.4,8.2-3.5,12.8-3.5c5.6,0,10.3,1.6,14.1,4.9C341.2,243.6,343.8,248.4,345.2,254.7z"/>
					</g>
				</g>
			</g>
			<g id="text_46">
				<g transform="translate(731.310779 175.6548) scale(0.12 -0.12)">
					<g>
						<path id="ArialMT-53" class="st24" d="M184.8,220.3l9.4,0.8c0.4-3.8,1.5-6.9,3.1-9.3c1.6-2.4,4.1-4.5,7.6-5.9
							c3.4-1.5,7.3-2.2,11.5-2.2c3.8,0,7.1,0.6,10,1.7c2.9,1.1,5.1,2.7,6.5,4.7c1.4,2,2.1,4.1,2.1,6.5c0,2.4-0.7,4.5-2,6.3
							c-1.4,1.8-3.6,3.2-6.8,4.5c-2,0.8-6.5,2-13.4,3.7s-11.7,3.2-14.5,4.8c-3.6,1.9-6.3,4.2-8,7.1c-1.7,2.8-2.6,6-2.6,9.5
							c0,3.8,1.1,7.4,3.2,10.7c2.2,3.3,5.3,5.9,9.4,7.6c4.1,1.7,8.7,2.6,13.8,2.6c5.6,0,10.5-0.9,14.7-2.7c4.3-1.8,7.5-4.5,9.8-8
							s3.5-7.5,3.7-11.9l-9.5-0.7c-0.5,4.8-2.3,8.4-5.2,10.9c-3,2.4-7.3,3.6-13.1,3.6c-6,0-10.4-1.1-13.2-3.3
							c-2.7-2.2-4.1-4.9-4.1-8.1c0-2.7,1-5,2.9-6.8c1.9-1.7,6.9-3.5,15-5.4s13.6-3.4,16.6-4.9c4.4-2,7.6-4.7,9.7-7.8
							c2.1-3.1,3.1-6.7,3.1-10.8c0-4-1.1-7.9-3.4-11.4c-2.3-3.5-5.6-6.4-9.9-8.3c-4.3-2-9.1-2.9-14.5-2.9c-6.8,0-12.5,1-17.1,3
							s-8.2,5.1-10.8,9C186.3,210.7,184.9,215.2,184.8,220.3z"/>
					</g>
					<g>
						<path id="ArialMT-41" class="st24" d="M250,195.9l28.8,76h10.7l30.7-76h-11.3l-8.8,23.1h-31.4l-8.3-23.1H250z M271.6,227.1
							h25.5l-7.8,21c-2.4,6.4-4.2,11.6-5.3,15.8c-1-4.9-2.3-9.7-4.1-14.5L271.6,227.1z"/>
					</g>
					<g>
						<path id="ArialMT-49" class="st24" d="M329.9,195.9v76h9.9v-76H329.9z"/>
					</g>
				</g>
			</g>
			<g id="text_47">
				<g transform="translate(731.310779 196.4952) scale(0.12 -0.12)">
					<g>
						<path id="ArialMT-48" class="st25" d="M163.5,185.2v76h9.9V230h39v31.2h9.9v-76h-9.9V221h-39v-35.8H163.5z"/>
					</g>
					<g>
						<path id="ArialMT-41_00000180324189773290889360000007935630385991516057_" class="st25" d="M230.7,185.2l28.8,76h10.7
							l30.7-76h-11.3l-8.8,23.1h-31.2l-8.3-23.1H230.7z M252.4,216.3h25.5l-7.8,21c-2.4,6.4-4.2,11.6-5.3,15.8
							c-1-4.9-2.3-9.7-4.1-14.5L252.4,216.3z"/>
					</g>
					<g>
						<path id="ArialMT-4d" class="st25" d="M308.7,185.2v76h15l17.8-53.8c1.6-5.1,2.8-8.8,3.6-11.2c0.9,2.7,2.2,6.9,4,12.2l18,52.9
							h13.4v-76h-9.6v63.6l-21.8-63.6h-9L318.4,250v-64.8h-9.7V185.2z"/>
					</g>
				</g>
			</g>
			<g id="text_48">
				<g transform="translate(731.310779 154.8144) scale(0.12 -0.12)">
					<g>
						<path id="ArialMT-52_00000080895358582177065130000005988226745084416146_" class="st26" d="M163.3,206.6v76h33.3
							c6.7,0,11.8-0.7,15.3-2s6.3-3.7,8.4-7.3c2.1-3.4,3.1-7.3,3.1-11.4c0-5.4-1.7-9.9-5.2-13.7s-8.8-6.1-16-7.1
							c2.6-1.3,4.6-2.5,6-3.7c2.9-2.7,5.6-6.1,8.2-10.1l13.1-20.7H217l-9.9,15.8c-2.9,4.6-5.3,8.1-7.2,10.4c-1.9,2.4-3.5,4.1-5,5.1
							c-1.5,1-3,1.6-4.5,2c-1.1,0.2-3,0.3-5.5,0.3h-11.5v-33.8h-10.1V206.6z M173.3,249h21.4c4.5,0,8.1,0.5,10.6,1.4
							c2.6,0.9,4.5,2.4,5.9,4.6c1.4,2.1,2,4.4,2,6.8c0,3.6-1.3,6.6-3.9,8.9c-2.6,2.3-6.7,3.4-12.2,3.4h-23.8V249z"/>
					</g>
					<g>
						<path id="ArialMT-55" class="st26" d="M288.3,282.6h9.9v-43.9c0-7.6-0.9-13.7-2.6-18.2c-1.7-4.5-4.8-8.2-9.2-10.9
							c-4.5-2.8-10.3-4.2-17.5-4.2c-7,0-12.8,1.2-17.3,3.6c-4.5,2.4-7.7,6-9.6,10.6c-1.9,4.7-2.9,11-2.9,19v43.9h9.9v-43.8
							c0-6.6,0.6-11.4,1.8-14.6c1.2-3.1,3.3-5.6,6.2-7.3c3-1.7,6.6-2.5,10.9-2.5c7.3,0,12.5,1.7,15.6,5.1s4.7,9.8,4.7,19.3v43.9
							H288.3z"/>
					</g>
					<g>
						<path id="ArialMT-53_00000155830722037358830430000008159319599711598011_" class="st26" d="M311.4,231l9.4,0.8
							c0.4-3.8,1.5-6.9,3.1-9.3c1.6-2.4,4.1-4.5,7.6-5.9c3.4-1.5,7.3-2.2,11.5-2.2c3.8,0,7.1,0.6,10,1.7c2.9,1.1,5.1,2.7,6.5,4.7
							c1.4,2,2.1,4.1,2.1,6.5c0,2.4-0.7,4.5-2,6.3c-1.4,1.8-3.6,3.2-6.8,4.5c-2,0.8-6.5,2-13.4,3.7c-6.9,1.7-11.7,3.2-14.5,4.8
							c-3.6,1.9-6.3,4.2-8,7.1c-1.7,2.8-2.6,6-2.6,9.5c0,3.8,1.1,7.4,3.2,10.7c2.2,3.3,5.3,5.9,9.4,7.6s8.7,2.6,13.8,2.6
							c5.6,0,10.5-0.9,14.7-2.7c4.3-1.8,7.5-4.5,9.8-8c2.3-3.5,3.5-7.5,3.7-11.9l-9.5-0.7c-0.5,4.8-2.3,8.4-5.2,10.9
							c-3,2.4-7.3,3.6-13.1,3.6c-6,0-10.4-1.1-13.2-3.3c-2.7-2.2-4.1-4.9-4.1-8.1c0-2.7,1-5,2.9-6.8c1.9-1.7,6.9-3.5,15-5.4
							c8.1-1.8,13.6-3.4,16.6-4.9c4.4-2,7.6-4.7,9.7-7.8c2.1-3.1,3.1-6.7,3.1-10.8c0-4-1.1-7.9-3.4-11.4c-2.3-3.5-5.6-6.4-9.9-8.3
							c-4.3-2-9.1-2.9-14.5-2.9c-6.8,0-12.5,1-17.1,3s-8.2,5.1-10.8,9C312.9,221.4,311.5,226,311.4,231z"/>
					</g>
				</g>
			</g>
			<g id="text_49">
				<g transform="translate(731.310779 342.378) scale(0.12 -0.12)">
					<g>
						<path id="ArialMT-4d_00000160188625173927135630000014529771214802173105_" class="st27" d="M162.9,109.9v76h15l17.8-53.8
							c1.6-5.1,2.8-8.8,3.6-11.2c0.9,2.7,2.2,6.9,4,12.2l18,52.9h13.3v-76.1H225v63.6l-21.8-63.6h-9l-21.7,64.8v-64.8
							C172.5,109.9,162.9,109.9,162.9,109.9z"/>
					</g>
					<g>
						<path id="ArialMT-41_00000072272433791482205500000006616168778091641512_" class="st27" d="M242.4,109.9l28.8,76h10.7
							l30.7-76h-11.3l-8.8,23.1h-31.4l-8.3-23.1C252.8,109.9,242.4,109.9,242.4,109.9z M264.1,141.1h25.5l-7.8,21
							c-2.4,6.4-4.2,11.6-5.3,15.8c-1-4.9-2.3-9.7-4.1-14.5L264.1,141.1z"/>
					</g>
					<g>
						<path id="ArialMT-47" class="st27" d="M355.8,139.7v8.9l31.8,0.1v-28.2c-4.9-3.9-9.9-6.9-15.1-8.9s-10.5-2.9-16-2.9
							c-7.4,0-14.1,1.6-20.1,4.8c-6,3.2-10.6,7.8-13.6,13.9c-3.1,6.1-4.6,12.8-4.6,20.2c0,7.4,1.5,14.3,4.6,20.7
							c3.1,6.4,7.5,11.1,13.2,14.3c5.7,3.1,12.3,4.7,19.8,4.7c5.4,0,10.3-0.9,14.7-2.6c4.4-1.7,7.8-4.2,10.3-7.4
							c2.5-3.1,4.4-7.3,5.7-12.4l-9-2.5c-1.1,3.8-2.5,6.9-4.2,9.1c-1.7,2.2-4.1,3.9-7.2,5.3s-6.5,2-10.3,2c-4.5,0-8.5-0.7-11.8-2.1
							c-3.3-1.4-6-3.2-8-5.6c-2-2.3-3.6-4.8-4.7-7.5c-1.9-4.7-2.9-9.8-2.9-15.3c0-6.8,1.2-12.4,3.5-17c2.3-4.6,5.7-8,10.1-10.1
							c4.4-2.2,9.1-3.3,14-3.3c4.3,0,8.5,0.8,12.6,2.5c4.1,1.7,7.2,3.4,9.3,5.4v14.2C377.9,139.7,355.8,139.7,355.8,139.7z"/>
					</g>
				</g>
			</g>
			<g id="text_50">
				<g transform="translate(731.310779 279.8568) scale(0.12 -0.12)">
					<g>
						<path id="ArialMT-42" class="st23" d="M162.8,142.1v76H191c5.7,0,10.3-0.8,13.8-2.3c3.5-1.5,6.2-3.9,8.1-7.1c2-3.2,3-6.6,3-10
							c0-3.2-0.9-6.3-2.6-9.2c-1.7-2.8-4.4-5.2-7.9-7c4.5-1.3,8-3.6,10.5-6.9c2.4-3.2,3.7-7.1,3.7-11.5c0-3.5-0.7-6.9-2.2-9.9
							s-3.3-5.4-5.5-7.1c-2.2-1.6-4.9-2.9-8.2-3.7c-3.3-0.8-7.3-1.2-12.1-1.2C191.6,142.1,162.8,142.1,162.8,142.1z M172.7,186.2
							H189c4.4,0,7.6,0.3,9.5,0.9c2.5,0.8,4.4,2,5.7,3.7c1.3,1.7,1.9,3.9,1.9,6.7c0,2.5-0.6,4.8-1.8,6.7c-1.2,1.9-2.9,3.2-5.1,3.9
							c-2.2,0.7-6,1-11.4,1h-15L172.7,186.2L172.7,186.2z M172.7,151.1h18.7c3.2,0,5.5,0.1,6.8,0.4c2.3,0.4,4.2,1.1,5.7,2
							c1.5,1,2.8,2.4,3.8,4.2c1,1.8,1.5,3.9,1.5,6.4c0,2.8-0.7,5.3-2.1,7.4c-1.4,2.1-3.4,3.5-6,4.5c-2.5,0.8-6.2,1.3-11,1.3h-17.4
							V151.1z"/>
					</g>
					<g>
						<path id="ArialMT-4f" class="st23" d="M230.2,179.2c0,12.6,3.3,22.5,10,29.6s15.4,10.7,25.9,10.7c6.9,0,13.2-1.7,18.8-5.1
							c5.6-3.3,9.8-8,12.7-14.1c2.9-6,4.4-12.7,4.4-20.4c0-7.7-1.5-14.6-4.6-20.6c-3.1-6.1-7.4-10.7-13.1-13.9
							c-5.6-3.1-11.7-4.7-18.2-4.7c-7.1,0-13.4,1.7-19,5.2s-9.8,8.2-12.7,14.2C231.6,166.2,230.2,172.5,230.2,179.2z M240.4,179.1
							c0-9.2,2.4-16.4,7.3-21.7c4.9-5.3,11-7.9,18.3-7.9c7.5,0,13.6,2.6,18.5,8c4.8,5.4,7.3,12.8,7.3,22.7c0,6.2-1,11.5-3.1,16.2
							s-5.1,8.2-9.1,10.7c-4,2.5-8.4,3.8-13.4,3.8c-7,0-13.1-2.4-18.2-7.4C243,198.6,240.4,190.5,240.4,179.1z"/>
					</g>
					<g>
						<path id="ArialMT-54" class="st23" d="M333.9,142.1v67.1h-24.7v9h59.5v-9h-24.8v-67.1H333.9z"/>
					</g>
				</g>
			</g>
			<g id="text_51">
				<g transform="translate(731.310779 238.176) scale(0.12 -0.12)">
					<g>
						<path id="ArialMT-4f_00000067923463931537979920000005668391214530500790_" class="st23" d="M160.2,200.6
							c0,12.6,3.3,22.5,10,29.6c6.7,7.2,15.4,10.7,25.9,10.7c6.9,0,13.2-1.7,18.8-5.1s9.8-8,12.7-14.1c2.9-6,4.4-12.7,4.4-20.4
							c0-7.7-1.5-14.6-4.6-20.6c-3.1-6.1-7.4-10.7-13.1-13.9c-5.6-3.1-11.7-4.7-18.2-4.7c-7.1,0-13.4,1.7-19,5.2s-9.8,8.2-12.7,14.2
							C161.6,187.7,160.2,193.9,160.2,200.6z M170.4,200.5c0-9.2,2.4-16.4,7.3-21.7c4.9-5.3,11-7.9,18.3-7.9c7.5,0,13.6,2.6,18.5,8
							c4.8,5.4,7.3,12.8,7.3,22.7c0,6.2-1,11.5-3.1,16.2c-2.1,4.7-5.1,8.2-9.1,10.7s-8.4,3.8-13.4,3.8c-7,0-13.1-2.4-18.2-7.4
							C172.9,220.1,170.4,212,170.4,200.5z"/>
					</g>
					<g>
						<path id="ArialMT-43_00000152248970412102466580000011726369008949016462_" class="st23" d="M298.4,190.3l9.9-2.5
							c-2.1-8.3-5.8-14.6-11.3-18.9c-5.4-4.4-12-6.5-19.9-6.5c-8.1,0-14.7,1.6-19.8,5c-5.1,3.3-8.9,8.2-11.6,14.5
							c-2.6,6.4-4,13.2-4,20.3c0,7.9,1.5,14.9,4.5,20.7s7.2,10.3,12.8,13.5c5.5,3,11.6,4.6,18.2,4.6c7.5,0,13.8-1.9,19-5.8
							c5.1-3.8,8.7-9.3,10.7-16.3l-9.8-2.3c-1.7,5.6-4.3,9.5-7.6,12c-3.3,2.5-7.5,3.8-12.5,3.8c-5.8,0-10.6-1.4-14.5-4.2
							c-3.9-2.8-6.6-6.6-8.2-11.3c-1.6-4.8-2.3-9.6-2.3-14.6c0-6.5,0.9-12.1,2.8-16.9c1.9-4.8,4.8-8.4,8.7-10.8
							c3.9-2.4,8.2-3.5,12.8-3.5c5.6,0,10.3,1.6,14.1,4.9C294.5,179.1,297.1,183.9,298.4,190.3z"/>
					</g>
					<g>
						<path id="ArialMT-4f_00000067228326875124431780000011081993869311154832_" class="st23" d="M317.6,200.6
							c0,12.6,3.3,22.5,10,29.6c6.7,7.2,15.4,10.7,25.9,10.7c6.9,0,13.2-1.7,18.8-5.1c5.6-3.3,9.8-8,12.7-14.1
							c2.9-6,4.4-12.7,4.4-20.4c0-7.7-1.5-14.6-4.6-20.6c-3.1-6.1-7.4-10.7-13.1-13.9c-5.6-3.1-11.7-4.7-18.2-4.7
							c-7.1,0-13.4,1.7-19,5.2s-9.8,8.2-12.7,14.2C319,187.7,317.6,193.9,317.6,200.6z M327.9,200.5c0-9.2,2.4-16.4,7.3-21.7
							c4.9-5.3,11-7.9,18.3-7.9c7.5,0,13.6,2.6,18.5,8c4.8,5.4,7.3,12.8,7.3,22.7c0,6.2-1,11.5-3.1,16.2c-2.1,4.7-5.1,8.2-9.1,10.7
							s-8.4,3.8-13.4,3.8c-7,0-13.1-2.4-18.2-7.4C330.4,220.1,327.9,212,327.9,200.5z"/>
					</g>
				</g>
			</g>
			<g id="text_52">
				<g transform="translate(731.310779 425.7396) scale(0.12 -0.12)">
					<g>
						<path id="ArialMT-54_00000168108241822724890690000007505347903428084154_" class="st23" d="M182.3,66.9v67.1h-24.7v9h59.5v-9
							h-24.8V66.9H182.3z"/>
					</g>
					<g>
						<path id="ArialMT-53_00000075850112247925856540000002088592453869973935_" class="st23" d="M223.9,91.3l9.4,0.8
							c0.4-3.8,1.5-6.9,3.1-9.3c1.6-2.4,4.1-4.5,7.6-5.9c3.4-1.5,7.3-2.2,11.5-2.2c3.8,0,7.1,0.6,10,1.7c2.9,1.1,5.1,2.7,6.5,4.7
							c1.4,2,2.1,4.1,2.1,6.5c0,2.4-0.7,4.5-2,6.3c-1.4,1.8-3.6,3.2-6.8,4.5c-2,0.8-6.5,2-13.4,3.7c-6.9,1.7-11.7,3.2-14.5,4.8
							c-3.6,1.9-6.3,4.2-8,7.1s-2.6,6-2.6,9.5c0,3.8,1.1,7.4,3.2,10.7c2.2,3.3,5.3,5.9,9.4,7.6c4.1,1.7,8.7,2.6,13.8,2.6
							c5.6,0,10.5-0.9,14.7-2.7c4.3-1.8,7.5-4.5,9.8-8c2.3-3.5,3.5-7.5,3.7-11.9l-9.5-0.7c-0.5,4.8-2.3,8.4-5.2,10.9
							c-3,2.4-7.3,3.6-13.1,3.6c-6,0-10.4-1.1-13.2-3.3c-2.7-2.2-4.1-4.9-4.1-8.1c0-2.7,1-5,2.9-6.8c1.9-1.7,6.9-3.5,15-5.4
							s13.6-3.4,16.6-4.9c4.4-2,7.6-4.7,9.7-7.8s3.1-6.7,3.1-10.8c0-4-1.1-7.9-3.4-11.4s-5.6-6.4-9.9-8.3c-4.3-2-9.1-2.9-14.5-2.9
							c-6.8,0-12.5,1-17.1,3c-4.6,2-8.2,5.1-10.8,9C225.4,81.6,224.1,86.2,223.9,91.3z"/>
					</g>
					<g>
						<path id="ArialMT-55_00000170278279375374669650000016542193773917626501_" class="st23" d="M346.6,142.9h9.9v-44
							c0-7.6-0.9-13.7-2.6-18.2c-1.7-4.5-4.8-8.2-9.2-10.9c-4.5-2.8-10.3-4.2-17.5-4.2c-7,0-12.8,1.2-17.3,3.6
							c-4.5,2.4-7.7,6-9.6,10.6s-2.9,11-2.9,19v43.9h9.9V99c0-6.6,0.6-11.4,1.8-14.6c1.2-3.1,3.3-5.6,6.2-7.3
							c3-1.7,6.6-2.5,10.9-2.5c7.3,0,12.5,1.7,15.6,5.1c3.1,3.3,4.7,9.8,4.7,19.3v43.9H346.6z"/>
					</g>
				</g>
			</g>
			<g id="text_53">
				<g transform="translate(731.310779 259.0164) scale(0.12 -0.12)">
					<g>
						<path id="ArialMT-41_00000150060072531405207050000013733582232033342081_" class="st23" d="M154.9,152.9l28.8,76h10.7
							l30.7-76h-11.3l-8.8,23.1h-31.4l-8.3-23.1C165.3,152.9,154.9,152.9,154.9,152.9z M176.6,184.1h25.5l-7.8,21
							c-2.4,6.4-4.2,11.6-5.3,15.8c-1-4.9-2.3-9.7-4.1-14.5L176.6,184.1z"/>
					</g>
					<g>
						<path id="ArialMT-4c_00000152985518384060036140000006051079883473943714_" class="st23" d="M232.8,152.9v76h9.9v-67.1h37v-9
							h-46.9V152.9z"/>
					</g>
					<g>
						<path id="ArialMT-4f_00000035492643176202247440000004004185225472861625_" class="st23" d="M288.5,189.9
							c0,12.6,3.3,22.5,10,29.6s15.4,10.7,25.9,10.7c6.9,0,13.2-1.7,18.8-5.1c5.6-3.3,9.8-8,12.7-14.1c2.9-6,4.4-12.7,4.4-20.4
							c0-7.7-1.5-14.6-4.6-20.6c-3.1-6.1-7.4-10.7-13.1-13.9c-5.6-3.1-11.7-4.7-18.2-4.7c-7.1,0-13.4,1.7-19,5.2s-9.8,8.2-12.7,14.2
							C290,176.9,288.5,183.2,288.5,189.9z M298.8,189.8c0-9.2,2.4-16.4,7.3-21.7s11-7.9,18.3-7.9c7.5,0,13.6,2.6,18.5,8
							c4.8,5.4,7.3,12.8,7.3,22.7c0,6.2-1,11.5-3.1,16.2s-5.1,8.2-9.1,10.7s-8.4,3.8-13.4,3.8c-7,0-13.1-2.4-18.2-7.4
							C301.3,209.3,298.8,201.2,298.8,189.8z"/>
					</g>
				</g>
			</g>
			<g id="text_54">
				<g transform="translate(731.310779 446.58) scale(0.12 -0.12)">
					<g>
						<path id="ArialMT-5a" class="st23" d="M157.2,56.1v9.3l38.5,48.7c2.7,3.4,5.3,6.5,7.8,9h-41.9v9h53.8v-9l-42.2-52.7l-4.6-5.3
							h48v-9H157.2z"/>
					</g>
					<g>
						<path id="ArialMT-48_00000059294020203244924390000006687119268825660594_" class="st23" d="M227.6,56.1v76h9.9v-31.2h39v31.2
							h9.9v-76h-9.8v35.8h-39V56.1H227.6z"/>
					</g>
					<g>
						<path id="ArialMT-4f_00000122713921444554178930000016567620674849069967_" class="st23" d="M300.1,93.2
							c0,12.6,3.3,22.5,10,29.6c6.7,7.2,15.4,10.7,25.9,10.7c6.9,0,13.2-1.7,18.8-5.1c5.6-3.3,9.8-8,12.7-14.1
							c2.9-6,4.4-12.7,4.4-20.4s-1.5-14.6-4.6-20.6c-3.1-6.1-7.4-10.7-13.1-13.9c-5.6-3.1-11.7-4.7-18.2-4.7c-7.1,0-13.4,1.7-19,5.2
							c-5.6,3.4-9.8,8.2-12.7,14.2C301.5,80.2,300.1,86.5,300.1,93.2z M310.3,93.1c0-9.2,2.4-16.4,7.3-21.7s11-7.9,18.3-7.9
							c7.5,0,13.6,2.6,18.5,8c4.8,5.4,7.3,12.8,7.3,22.7c0,6.2-1,11.5-3.1,16.2c-2.1,4.7-5.1,8.2-9.1,10.7c-4,2.5-8.4,3.8-13.4,3.8
							c-7,0-13.1-2.4-18.2-7.4C312.9,112.6,310.3,104.5,310.3,93.1z"/>
					</g>
				</g>
			</g>
			<g id="text_55">
				<g transform="translate(731.310779 404.8992) scale(0.12 -0.12)">
					<g>
						<path id="ArialMT-4d_00000142160642904566046510000010795211489394359736_" class="st23" d="M162.9,77.6v76h15l17.7-53.7
							c1.6-5.1,2.8-8.8,3.6-11.2c0.9,2.7,2.2,6.9,4,12.2l18,52.9h13.4V77.6H225v63.6l-21.8-63.6h-9l-21.7,64.8V77.6
							C172.5,77.6,162.9,77.6,162.9,77.6z"/>
					</g>
					<g>
						<path id="ArialMT-53_00000044155270235347575740000002437314846025804720_" class="st23" d="M247.2,102.1l9.4,0.8
							c0.4-3.8,1.5-6.9,3.1-9.3s4.1-4.5,7.6-5.9c3.4-1.5,7.3-2.2,11.5-2.2c3.8,0,7.1,0.6,10,1.7c2.9,1.1,5.1,2.7,6.5,4.7
							c1.4,2,2.1,4.1,2.1,6.5c0,2.4-0.7,4.5-2,6.3c-1.4,1.8-3.6,3.2-6.8,4.5c-2,0.8-6.5,2-13.4,3.7s-11.7,3.2-14.5,4.8
							c-3.6,1.9-6.3,4.2-8,7.1c-1.7,2.8-2.6,6-2.6,9.5c0,3.8,1.1,7.4,3.2,10.7c2.2,3.3,5.3,5.9,9.4,7.6s8.7,2.6,13.8,2.6
							c5.6,0,10.5-0.9,14.7-2.7c4.3-1.8,7.5-4.5,9.8-8s3.5-7.5,3.7-11.9l-9.5-0.7c-0.5,4.8-2.3,8.4-5.2,10.9
							c-3,2.4-7.3,3.6-13.1,3.6c-6,0-10.4-1.1-13.2-3.3c-2.7-2.2-4.1-4.9-4.1-8.1c0-2.7,1-5,2.9-6.8c1.9-1.7,6.9-3.5,15-5.4
							c8.1-1.8,13.6-3.4,16.6-4.9c4.4-2,7.6-4.7,9.7-7.8c2.1-3.1,3.1-6.7,3.1-10.8c0-4-1.1-7.9-3.4-11.4s-5.6-6.4-9.9-8.3
							c-4.3-2-9.1-2.9-14.5-2.9c-6.8,0-12.5,1-17.1,3c-4.6,2-8.2,5.1-10.8,9C248.8,92.5,247.4,97,247.2,102.1z"/>
					</g>
					<g>
						<path id="ArialMT-43_00000104695538076465307620000012854645629215724206_" class="st23" d="M374.2,104.3l9.9-2.5
							c-2.1-8.3-5.8-14.6-11.3-18.9c-5.4-4.4-12-6.5-19.9-6.5c-8.1,0-14.7,1.6-19.8,5c-5.1,3.3-8.9,8.2-11.6,14.5
							c-2.6,6.4-4,13.2-4,20.3c0,7.9,1.5,14.9,4.5,20.7s7.2,10.3,12.8,13.5c5.5,3,11.6,4.6,18.2,4.6c7.5,0,13.8-1.9,19-5.8
							c5.1-3.8,8.7-9.3,10.7-16.3l-9.8-2.3c-1.7,5.6-4.3,9.5-7.6,12c-3.3,2.5-7.5,3.8-12.5,3.8c-5.8,0-10.6-1.4-14.5-4.2
							c-3.9-2.8-6.6-6.6-8.2-11.3c-1.6-4.8-2.3-9.6-2.3-14.6c0-6.5,0.9-12.1,2.8-16.9c1.9-4.9,4.8-8.4,8.7-10.8
							c3.9-2.4,8.2-3.5,12.8-3.5c5.6,0,10.3,1.6,14.1,4.9C370.3,93.1,372.9,97.9,374.2,104.3z"/>
					</g>
				</g>
			</g>
			<g id="text_56">
				<g transform="translate(731.310779 384.0588) scale(0.12 -0.12)">
					<g>
						<path id="ArialMT-53_00000116925336378155932730000015234498291142023601_" class="st23" d="M159.8,112.8l9.4,0.8
							c0.4-3.8,1.5-6.9,3.1-9.3c1.6-2.4,4.1-4.5,7.6-5.9c3.4-1.5,7.3-2.2,11.5-2.2c3.8,0,7.1,0.6,10,1.7c2.9,1.1,5.1,2.7,6.5,4.7
							c1.4,2,2.1,4.1,2.1,6.5c0,2.4-0.7,4.5-2,6.3c-1.3,1.8-3.6,3.2-6.8,4.5c-2,0.8-6.5,2-13.4,3.7c-6.9,1.7-11.7,3.2-14.5,4.8
							c-3.6,1.9-6.3,4.2-8,7.1c-1.7,2.8-2.6,6-2.6,9.5c0,3.8,1.1,7.4,3.2,10.7c2.2,3.3,5.3,5.9,9.4,7.6c4.1,1.7,8.7,2.6,13.8,2.6
							c5.6,0,10.5-0.9,14.7-2.7c4.3-1.8,7.5-4.5,9.8-8c2.3-3.5,3.5-7.5,3.7-11.9l-9.5-0.7c-0.5,4.8-2.3,8.4-5.2,10.9
							c-3,2.4-7.3,3.6-13.1,3.6c-6,0-10.4-1.1-13.2-3.3c-2.7-2.2-4.1-4.9-4.1-8.1c0-2.7,1-5,2.9-6.8c1.9-1.7,6.9-3.5,15-5.4
							c8.1-1.8,13.6-3.4,16.6-4.9c4.4-2,7.6-4.7,9.7-7.8c2.1-3.1,3.1-6.7,3.1-10.8c0-4-1.1-7.9-3.4-11.4c-2.3-3.5-5.6-6.4-9.9-8.3
							c-4.3-2-9.1-2.9-14.5-2.9c-6.8,0-12.5,1-17.1,3c-4.6,2-8.2,5.1-10.8,9C161.3,103.2,159.9,107.8,159.8,112.8z"/>
					</g>
					<g>
						<path id="ArialMT-54_00000028290981448178886220000013912936349010529682_" class="st23" d="M252.3,88.4v67.1h-24.7v9h59.5v-9
							h-24.8V88.4H252.3z"/>
					</g>
					<g>
						<path id="ArialMT-52_00000057846749478938633380000014479542446079084710_" class="st23" d="M297.5,88.4v76h33.3
							c6.7,0,11.8-0.7,15.3-2s6.3-3.7,8.4-7.3c2.1-3.4,3.1-7.3,3.1-11.4c0-5.4-1.7-9.9-5.2-13.7c-3.5-3.7-8.8-6.1-16-7.1
							c2.6-1.3,4.6-2.5,6-3.7c2.9-2.7,5.6-6.1,8.2-10.1l13.1-20.6h-12.5l-9.9,15.8c-2.9,4.6-5.3,8.1-7.2,10.4
							c-1.9,2.4-3.5,4.1-5,5.1c-1.5,1-3,1.6-4.5,2c-1.1,0.2-3,0.3-5.5,0.3h-11.5V88.4H297.5z M307.4,130.8h21.4
							c4.5,0,8.1,0.5,10.6,1.4c2.6,0.9,4.5,2.4,5.9,4.6c1.4,2.1,2,4.4,2,6.8c0,3.6-1.3,6.6-3.9,8.9c-2.6,2.3-6.7,3.4-12.2,3.4h-23.8
							V130.8z"/>
					</g>
				</g>
			</g>
			<g id="text_57">
				<g transform="translate(731.310779 467.4204) scale(0.12 -0.12)">
					<g>
						<path id="ArialMT-41_00000030445400720497945440000001945881836741942427_" class="st23" d="M154.9,45.4l28.8,76h10.7l30.7-76
							h-11.3L205,68.5h-31.4l-8.3-23.1H154.9z M176.6,76.6h25.5l-7.8,21c-2.4,6.4-4.2,11.6-5.3,15.8c-1-4.9-2.3-9.7-4.1-14.5
							L176.6,76.6z"/>
					</g>
					<g>
						<path id="ArialMT-4c_00000023969263166300546060000003391948829864259740_" class="st23" d="M232.8,45.4v76h9.9v-67h37v-9
							H232.8z"/>
					</g>
					<g>
						<path id="ArialMT-42_00000082339076444250193350000012597548593660289959_" class="st23" d="M291.2,45.4v76h28.2
							c5.7,0,10.3-0.8,13.8-2.3s6.2-3.9,8.1-7.1c2-3.2,3-6.6,3-10c0-3.2-0.9-6.3-2.6-9.2c-1.7-2.8-4.4-5.2-7.9-7
							c4.5-1.3,8-3.6,10.5-6.9c2.4-3.2,3.7-7.1,3.7-11.5c0-3.5-0.7-6.9-2.2-9.9c-1.5-3-3.3-5.4-5.5-7.1c-2.2-1.6-4.9-2.9-8.2-3.7
							c-3.3-0.8-7.3-1.2-12.1-1.2C320,45.4,291.2,45.4,291.2,45.4z M301.1,89.5h16.3c4.4,0,7.6,0.3,9.5,0.9c2.5,0.8,4.4,2,5.7,3.7
							c1.3,1.7,1.9,3.9,1.9,6.7c0,2.5-0.6,4.8-1.8,6.7c-1.2,1.9-2.9,3.2-5.1,3.9s-6,1-11.4,1h-15v-23H301.1z M301.1,54.4h18.7
							c3.2,0,5.5,0.1,6.8,0.4c2.3,0.4,4.2,1.1,5.7,2c1.5,1,2.8,2.4,3.8,4.2c1,1.8,1.5,3.9,1.5,6.4c0,2.8-0.7,5.3-2.1,7.4
							c-1.4,2.1-3.4,3.5-6,4.5c-2.5,0.8-6.2,1.3-11,1.3h-17.4V54.4z"/>
					</g>
				</g>
			</g>
			<g id="text_58">
				<g transform="translate(731.310779 300.6972) scale(0.12 -0.12)">
					<g>
						<path id="ArialMT-52_00000024679836155281266160000018337422236312802746_" class="st23" d="M163.3,131.4v76h33.3
							c6.7,0,11.8-0.7,15.3-2s6.3-3.7,8.4-7.3c2.1-3.4,3.1-7.3,3.1-11.4c0-5.4-1.7-9.9-5.2-13.7c-3.5-3.7-8.8-6.1-16-7.1
							c2.6-1.3,4.6-2.5,6-3.7c2.9-2.7,5.6-6.1,8.2-10.1l13.1-20.7H217l-9.9,15.8c-2.9,4.6-5.3,8.1-7.2,10.4c-1.9,2.4-3.5,4.1-5,5.1
							c-1.5,1-3,1.6-4.5,2c-1.1,0.2-3,0.3-5.5,0.3h-11.5v-33.8h-10.1V131.4z M173.3,173.9h21.4c4.5,0,8.1,0.5,10.6,1.4
							c2.6,0.9,4.5,2.4,5.9,4.6s2,4.4,2,6.8c0,3.6-1.3,6.6-3.9,8.9c-2.6,2.3-6.7,3.4-12.2,3.4h-23.8V173.9z"/>
					</g>
					<g>
						<path id="ArialMT-49_00000055682334651250858750000017185228850307963551_" class="st23" d="M240.7,131.4v76h9.9v-76H240.7z"
							/>
					</g>
					<g>
						<path id="ArialMT-43_00000097496718278325003330000013244106893909720990_" class="st23" d="M321.8,158l9.9-2.5
							c-2.1-8.3-5.8-14.6-11.3-18.9c-5.4-4.4-12-6.5-19.9-6.5c-8.1,0-14.7,1.6-19.8,5c-5.1,3.3-8.9,8.2-11.6,14.5s-4,13.2-4,20.3
							c0,7.9,1.5,14.9,4.5,20.7s7.2,10.3,12.8,13.5c5.5,3,11.6,4.6,18.2,4.6c7.5,0,13.8-1.9,19-5.8c5.1-3.8,8.7-9.3,10.7-16.3
							l-9.8-2.3c-1.7,5.6-4.3,9.5-7.6,12c-3.3,2.5-7.5,3.8-12.5,3.8c-5.8,0-10.6-1.4-14.5-4.2c-3.9-2.8-6.6-6.6-8.2-11.3
							s-2.3-9.6-2.3-14.6c0-6.5,0.9-12.1,2.8-16.9c1.9-4.8,4.8-8.4,8.7-10.8c3.9-2.4,8.2-3.5,12.8-3.5c5.6,0,10.3,1.6,14.1,4.9
							C317.8,146.9,320.4,151.6,321.8,158z"/>
					</g>
				</g>
			</g>
			<g id="text_59">
				<g transform="translate(731.310779 217.3356) scale(0.12 -0.12)">
					<g>
						<path id="ArialMT-4e" class="st23" d="M163.1,174.3v76.1h10.2l39.5-59.7v59.7h9.5v-76h-10.2l-39.5,59.7v-59.7h-9.5V174.3z"/>
					</g>
					<g>
						<path id="ArialMT-4f_00000010283401344565008880000014277899846761001640_" class="st23" d="M236,211.4
							c0,12.6,3.3,22.5,10,29.6c6.7,7.2,15.4,10.7,25.9,10.7c6.9,0,13.2-1.7,18.8-5.1c5.6-3.3,9.8-8,12.7-14.1
							c2.9-6,4.4-12.7,4.4-20.4c0-7.7-1.5-14.6-4.6-20.6c-3.1-6.1-7.4-10.7-13.1-13.9c-5.6-3.1-11.7-4.7-18.2-4.7
							c-7.1,0-13.4,1.7-19,5.2c-5.6,3.4-9.8,8.2-12.7,14.2C237.4,198.4,236,204.7,236,211.4z M246.2,211.3c0-9.2,2.4-16.4,7.3-21.7
							c4.9-5.3,11-7.9,18.3-7.9c7.5,0,13.6,2.6,18.5,8c4.8,5.4,7.3,12.8,7.3,22.7c0,6.2-1,11.5-3.1,16.2c-2.1,4.7-5.1,8.2-9.1,10.7
							s-8.4,3.8-13.4,3.8c-7,0-13.1-2.4-18.2-7.4C248.7,230.9,246.2,222.7,246.2,211.3z"/>
					</g>
					<g>
						<path id="ArialMT-52_00000020394155663287078620000000069382333623094170_" class="st23" d="M320.8,174.3v76.1h33.3
							c6.7,0,11.8-0.7,15.3-2s6.3-3.7,8.4-7.3c2.1-3.4,3.1-7.3,3.1-11.4c0-5.4-1.7-9.9-5.2-13.7c-3.5-3.7-8.8-6.1-16-7.1
							c2.6-1.3,4.6-2.5,6-3.7c2.9-2.7,5.6-6.1,8.2-10.1l13.1-20.7h-12.5l-9.9,15.8c-2.9,4.6-5.3,8.1-7.2,10.4
							c-1.9,2.4-3.5,4.1-5,5.1c-1.5,1-3,1.6-4.5,2c-1.1,0.2-3,0.3-5.5,0.3h-11.5v-33.8h-10.1V174.3z M330.7,216.8h21.4
							c4.5,0,8.1,0.5,10.6,1.4c2.6,0.9,4.5,2.4,5.9,4.6c1.4,2.1,2,4.4,2,6.8c0,3.6-1.3,6.6-3.9,8.9c-2.6,2.3-6.7,3.4-12.2,3.4h-23.8
							V216.8z"/>
					</g>
				</g>
			</g>
			<g id="text_60">
				<g transform="translate(731.310779 488.2608) scale(0.12 -0.12)">
					<g>
						<path id="ArialMT-4c_00000172422101823633019710000011698570546207999369_" class="st23" d="M162.8,34.6v76h9.9v-67h37v-9
							H162.8z"/>
					</g>
					<g>
						<path id="ArialMT-41_00000099654474494682640040000013224680053499903619_" class="st23" d="M213.3,34.6l28.9,76h10.7l30.7-76
							h-11.3l-8.8,23.1h-31.4l-8.3-23.1C223.8,34.6,213.3,34.6,213.3,34.6z M235,65.8h25.5L252.6,87c-2.4,6.4-4.2,11.6-5.3,15.8
							c-1-4.9-2.3-9.7-4.1-14.5L235,65.8z"/>
					</g>
					<g>
						<path id="ArialMT-54_00000176764929158528931130000007481126520419391880_" class="st23" d="M302.9,34.6v67.1h-24.7v8.9h59.5
							v-9h-24.8v-67H302.9z"/>
					</g>
				</g>
			</g>
			<g id="text_61">
				<g transform="translate(731.310779 133.974) scale(0.12 -0.12)">
					<g>
						<path id="ArialMT-50" class="st23" d="M163.2,217.4v76h28.3c5,0,8.8-0.2,11.4-0.7c3.7-0.6,6.8-1.8,9.3-3.5
							c2.5-1.7,4.5-4.1,6-7.3s2.3-6.6,2.3-10.3c0-6.5-2-11.9-6.1-16.4s-11.4-6.7-22-6.7h-19.3v-31h-9.9V217.4z M173.1,257.2h19.5
							c6.4,0,11,1.2,13.7,3.6c2.7,2.4,4.1,5.9,4.1,10.2c0,3.1-0.8,5.9-2.4,8.2c-1.6,2.2-3.7,3.7-6.3,4.5c-1.7,0.4-4.8,0.7-9.3,0.7
							h-19.2v-27.2H173.1z"/>
					</g>
					<g>
						<path id="ArialMT-45_00000090282972126593408720000001821118920308651191_" class="st23" d="M233.4,217.4v76h54.3v-9h-44.4
							v-23.3h41.6v-8.9h-41.6v-25.9h46.1v-9h-56V217.4z"/>
					</g>
					<g>
						<path id="ArialMT-52_00000085227426108071293660000016499141495755942299_" class="st23" d="M303.4,217.4v76h33.3
							c6.7,0,11.8-0.7,15.3-2s6.3-3.7,8.4-7.3c2.1-3.4,3.1-7.3,3.1-11.4c0-5.4-1.7-9.9-5.2-13.7c-3.5-3.7-8.8-6.1-16-7.1
							c2.6-1.3,4.6-2.5,6-3.7c2.9-2.7,5.6-6.1,8.2-10.1l13.1-20.7h-12.5l-9.9,15.8c-2.9,4.6-5.3,8.1-7.2,10.4
							c-1.9,2.4-3.5,4.1-5,5.1c-1.5,1-3,1.6-4.5,2c-1.1,0.2-3,0.3-5.5,0.3h-11.5v-33.8h-10.1V217.4z M313.3,259.9h21.4
							c4.5,0,8.1,0.5,10.6,1.4c2.6,0.9,4.5,2.4,5.9,4.6c1.3,2.1,2,4.4,2,6.8c0,3.6-1.3,6.6-3.9,8.9s-6.7,3.4-12.2,3.4h-23.8V259.9z"
							/>
					</g>
				</g>
			</g>
			<g id="text_62">
				<g transform="translate(731.310779 92.2932) scale(0.12 -0.12)">
					<g>
						<path id="ArialMT-56" class="st28" d="M184.7,238.9l-29.1,76h10.8l19.5-55.2c1.6-4.5,2.9-8.6,4-12.4c1.2,4.1,2.5,8.3,4.1,12.4
							l20.3,55.2h10.2l-29.4-76H184.7z"/>
					</g>
					<g>
						<path id="ArialMT-45_00000026886052617884575540000014832143903632669608_" class="st28" d="M233.4,238.9v76h54.3v-9h-44.4
							v-23.3h41.6v-8.8h-41.6v-25.9h46.1v-9H233.4z"/>
					</g>
					<g>
						<path id="ArialMT-52_00000129170688066066630290000001407961659201861802_" class="st28" d="M303.4,238.9v76h33.3
							c6.7,0,11.8-0.7,15.3-2c3.5-1.3,6.3-3.7,8.4-7.3c2.1-3.4,3.1-7.3,3.1-11.4c0-5.4-1.7-9.9-5.2-13.7c-3.5-3.7-8.8-6.1-16-7.1
							c2.6-1.3,4.6-2.5,6-3.7c2.9-2.7,5.6-6.1,8.2-10.1l13.1-20.7h-12.5l-9.9,15.8c-2.9,4.6-5.3,8.1-7.2,10.4
							c-1.9,2.4-3.5,4.1-5,5.1c-1.5,1-3,1.6-4.5,2c-1.1,0.2-3,0.3-5.5,0.3h-11.5v-33.8h-10.1V238.9z M313.3,281.4h21.4
							c4.5,0,8.1,0.5,10.6,1.4c2.6,0.9,4.5,2.4,5.9,4.6c1.3,2.1,2,4.4,2,6.8c0,3.6-1.3,6.6-3.9,8.9c-2.6,2.3-6.7,3.4-12.2,3.4h-23.8
							V281.4z"/>
					</g>
				</g>
			</g>
			<g id="text_63">
				<g transform="translate(731.310779 363.2184) scale(0.12 -0.12)">
					<g>
						<path id="ArialMT-47_00000021092880842694751000000015013384000725981602_" class="st23" d="M198.4,128.9v8.9l31.8,0.1v-28.2
							c-4.9-3.9-9.9-6.9-15.1-8.9c-5.2-2-10.5-2.9-16-2.9c-7.4,0-14.1,1.6-20.1,4.8c-6,3.2-10.6,7.8-13.6,13.9
							c-3.1,6.1-4.6,12.8-4.6,20.2c0,7.4,1.5,14.3,4.6,20.7c3.1,6.4,7.5,11.1,13.2,14.3s12.3,4.7,19.8,4.7c5.4,0,10.3-0.9,14.7-2.6
							c4.4-1.7,7.8-4.2,10.3-7.4c2.5-3.1,4.4-7.3,5.7-12.4l-9-2.5c-1.1,3.8-2.5,6.9-4.2,9.1c-1.7,2.2-4.1,3.9-7.2,5.3
							c-3.1,1.3-6.5,2-10.3,2c-4.5,0-8.5-0.7-11.8-2.1c-3.3-1.4-6-3.2-8-5.6s-3.6-4.8-4.7-7.5c-1.9-4.7-2.9-9.8-2.9-15.3
							c0-6.8,1.2-12.4,3.5-17c2.3-4.6,5.7-8,10.1-10.1c4.4-2.1,9.1-3.3,14-3.3c4.3,0,8.5,0.8,12.6,2.5c4.1,1.7,7.2,3.4,9.3,5.4v14.2
							C220.5,128.9,198.4,128.9,198.4,128.9z"/>
					</g>
					<g>
						<path id="ArialMT-41_00000120526880726958542070000000503481645819392912_" class="st23" d="M236.6,99.2l28.8,76h10.7l30.7-76
							h-11.2l-8.8,23.1h-31.4l-8.3-23.1C247.1,99.2,236.6,99.2,236.6,99.2z M258.3,130.3h25.5l-7.8,21c-2.4,6.4-4.2,11.6-5.3,15.8
							c-1-4.9-2.3-9.7-4.1-14.5L258.3,130.3z"/>
					</g>
					<g>
						<path id="ArialMT-53_00000164487063321811652350000003983139926143053446_" class="st23" d="M311.5,123.6l9.4,0.8
							c0.4-3.8,1.5-6.9,3.1-9.3s4.1-4.5,7.6-5.9c3.4-1.5,7.3-2.2,11.5-2.2c3.8,0,7.1,0.6,10,1.7s5.1,2.7,6.5,4.7
							c1.4,2,2.1,4.1,2.1,6.5c0,2.4-0.7,4.5-2,6.3c-1.3,1.8-3.6,3.2-6.8,4.5c-2,0.8-6.5,2-13.4,3.7c-6.9,1.7-11.7,3.2-14.5,4.8
							c-3.6,1.9-6.3,4.2-8,7.1s-2.6,6-2.6,9.5c0,3.8,1.1,7.4,3.2,10.7c2.2,3.3,5.3,5.9,9.4,7.6c4.1,1.7,8.7,2.6,13.8,2.6
							c5.6,0,10.5-0.9,14.7-2.7c4.3-1.8,7.5-4.5,9.8-8c2.3-3.5,3.5-7.5,3.7-11.9l-9.5-0.7c-0.5,4.8-2.3,8.4-5.2,10.9
							c-3,2.4-7.3,3.6-13.1,3.6c-6,0-10.4-1.1-13.2-3.3c-2.7-2.2-4.1-4.9-4.1-8.1c0-2.7,1-5,2.9-6.8c1.9-1.7,6.9-3.5,15-5.4
							c8.1-1.8,13.6-3.4,16.6-4.9c4.4-2,7.6-4.7,9.7-7.8s3.1-6.7,3.1-10.8c0-4-1.1-7.9-3.4-11.4s-5.6-6.4-9.9-8.3
							c-4.3-2-9.1-2.9-14.5-2.9c-6.8,0-12.5,1-17.1,3c-4.6,2-8.2,5.1-10.8,9C313,113.9,311.6,118.5,311.5,123.6z"/>
					</g>
				</g>
			</g>
			<g id="text_64">
				<g transform="translate(731.310779 321.5376) scale(0.12 -0.12)">
					<g>
						<path id="ArialMT-56_00000003799869652033472480000015261345527503381157_" class="st23" d="M184.7,120.6l-29.1,76h10.8
							l19.5-55.2c1.6-4.5,2.9-8.6,4-12.4c1.2,4.1,2.5,8.3,4.1,12.4l20.3,55.2h10.2l-29.4-76C195.1,120.6,184.7,120.6,184.7,120.6z"
							/>
					</g>
					<g>
						<path id="ArialMT-45_00000057836095332426399290000017294324486585310867_" class="st23" d="M233.4,120.6v76h54.3v-9h-44.4
							v-23.3h41.6v-8.9h-41.6v-25.9h46.1v-9h-56V120.6z"/>
					</g>
					<g>
						<path id="ArialMT-54_00000000214499457597745120000014867451540131678641_" class="st23" d="M322.3,120.6v67.1h-24.7v9h59.5
							v-9h-24.8v-67.1H322.3z"/>
					</g>
				</g>
			</g>
			<g id="text_65">
				<g transform="translate(731.310779 509.1012) scale(0.12 -0.12)">
					<g>
						<path id="ArialMT-44" class="st23" d="M163.2,23.9v76h25.9c5.8,0,10.3-0.4,13.4-1.1c4.3-1,8-2.8,11-5.5
							c4-3.4,6.9-7.7,8.9-13.1c2-5.3,3-11.3,3-18c0-5.8-0.7-10.9-2-15.4s-3-8.2-5.1-11.1c-2.1-2.9-4.4-5.3-6.9-6.9
							c-2.5-1.7-5.5-2.9-9-3.8s-7.5-1.3-12.1-1.3h-27.1V23.9z M173.1,32.9h16c5,0,8.8,0.5,11.7,1.4c2.8,0.9,5.1,2.2,6.7,3.9
							c2.4,2.4,4.2,5.6,5.5,9.6s2,8.9,2,14.7c0,8-1.3,14.1-3.9,18.3c-2.6,4.2-5.7,7.1-9.4,8.6c-2.7,1-7,1.5-12.9,1.5H173L173.1,32.9
							L173.1,32.9z"/>
					</g>
					<g>
						<path id="ArialMT-45_00000087397572147697766840000009312221833485287358_" class="st23" d="M239.2,23.9v76h54.3v-9h-44.4
							V67.6h41.6v-8.9h-41.6V32.9h46.1v-9C295.2,23.9,239.2,23.9,239.2,23.9z"/>
					</g>
					<g>
						<path id="ArialMT-56_00000182491041488666466380000009447842222835204769_" class="st23" d="M330.5,23.9l-29.1,76h10.8
							l19.4-55.2c1.6-4.5,2.9-8.6,4-12.4c1.2,4.1,2.5,8.3,4.1,12.4L360,99.9h10.2l-29.4-76C340.8,23.9,330.5,23.9,330.5,23.9z"/>
					</g>
				</g>
			</g>
		</g>
	</g>
</g>
<text transform="matrix(1 0 0 1 164.4362 31.7588)" class="st0 st29 st30">The Formula One 2022 Championship Standings (Up to Brazil)</text>
<text transform="matrix(6.123234e-17 -1 1 6.123234e-17 53.9912 396.1641)" class="st0 st29 st31">Championship Standings</text>
<text transform="matrix(1 0 0 1 409.9277 557.2764)" class="st0 st29 st31">Races</text>
<rect x="731.8" y="525.3" class="st32" width="85.5" height="41"/>
<text transform="matrix(1 0 0 1 731.8173 535.0518)" class="st0 st29 st33">Brazil</text>
</svg>
